<svg width="104" height="14" viewBox="0 0 104 14" fill="none" xmlns="http://www.w3.org/2000/svg">
<path d="M1.768 13.626H0.195V0.626H1.768V0.651999H1.781L9.698 12.963V0.626H10.088V13.574H9.607L1.768 1.367V13.626ZM24.2192 13.574H14.2482V0.626H15.8212V0.638999H24.2192V1.029H15.8212V6.983H22.2822V7.373H15.8212V13.171H24.2192V13.574ZM35.8526 13.587H35.5016L29.9506 1.523V13.574H28.3776V0.626H29.9506V0.638999L29.9766 0.626L35.6836 13.028L41.4166 0.626H41.7936V13.574H41.4036V1.601L35.8526 13.587ZM55.9184 13.574H45.9474V0.626H47.5204V0.638999H55.9184V1.029H47.5204V6.983H53.9814V7.373H47.5204V13.171H55.9184V13.574ZM70.0738 13.561H60.0768L68.0198 1.029H60.0898V0.626H69.8398V0.651999H70.1128L62.1178 13.158H70.0738V13.561ZM75.8426 13.574H74.2696V0.626H75.8426V13.574ZM81.5804 13.535H80.0074V0.626H81.5804V0.638999C84.3277 0.708333 86.3774 1.29333 87.7294 2.394C89.0814 3.486 89.7574 5.08933 89.7574 7.204C89.7574 10.6447 88.0414 12.664 84.6094 13.262C83.6387 13.4267 82.6291 13.5133 81.5804 13.522V13.535ZM81.5804 13.132C83.9637 13.0973 85.7361 12.742 86.8974 12.066C88.5441 11.1733 89.3674 9.55267 89.3674 7.204C89.3674 4.90733 88.5354 3.27367 86.8714 2.303C85.6234 1.54033 83.8597 1.11567 81.5804 1.029V13.132ZM103.879 13.587H102.228L100.98 9.908H95.4159L94.3109 13.587L93.9209 13.574L97.7949 0.638999L99.4589 0.626L103.879 13.587ZM100.837 9.518L98.0029 1.25L95.5329 9.518H100.837Z" fill="white"/>
</svg>
