<svg width="201" height="59" viewBox="0 0 201 59" fill="none" xmlns="http://www.w3.org/2000/svg">
<circle cx="23.7051" cy="7.16331" r="0.903987" transform="rotate(-4 23.7051 7.16331)" fill="white"/>
<circle cx="30.0312" cy="9.92735" r="0.903987" transform="rotate(-4 30.0312 9.92735)" fill="white"/>
<circle cx="3.32422" cy="6.77598" r="0.903987" transform="rotate(-4 3.32422 6.77598)" fill="white"/>
<circle cx="1.23633" cy="10.8257" r="0.903987" transform="rotate(-4 1.23633 10.8257)" fill="white"/>
<circle cx="12.8398" cy="17.2639" r="0.903987" transform="rotate(-4 12.8398 17.2639)" fill="white"/>
<circle cx="18.9395" cy="20.7409" r="0.903987" transform="rotate(-4 18.9395 20.7409)" fill="white"/>
<circle cx="25.4062" cy="23.4953" r="0.903987" transform="rotate(-4 25.4062 23.4953)" fill="white"/>
<circle cx="29.6035" cy="25.7113" r="0.903987" transform="rotate(-4 29.6035 25.7113)" fill="white"/>
<circle cx="36.3672" cy="22.729" r="0.903987" transform="rotate(-4 36.3672 22.729)" fill="white"/>
<circle cx="32.9512" cy="19.7611" r="0.903987" transform="rotate(-4 32.9512 19.7611)" fill="white"/>
<circle cx="35.4297" cy="25.3037" r="0.903987" transform="rotate(-4 35.4297 25.3037)" fill="white"/>
<circle cx="70.1035" cy="10.7502" r="0.903987" transform="rotate(-4 70.1035 10.7502)" fill="white"/>
<circle cx="76.0449" cy="12.0075" r="0.903987" transform="rotate(-4 76.0449 12.0075)" fill="white"/>
<circle cx="86.625" cy="21.7241" r="0.903987" transform="rotate(-4 86.625 21.7241)" fill="white"/>
<circle cx="88.0273" cy="23.8564" r="0.903987" transform="rotate(-4 88.0273 23.8564)" fill="white"/>
<circle cx="89.2559" cy="43.4278" r="0.903987" transform="rotate(-4 89.2559 43.4278)" fill="white"/>
<circle cx="85.7441" cy="47.0195" r="0.903987" transform="rotate(-4 85.7441 47.0195)" fill="white"/>
<circle cx="71.5756" cy="39.9096" r="1.48719" transform="rotate(-4 71.5756 39.9096)" fill="white"/>
<circle cx="58.9922" cy="33.2759" r="0.903987" transform="rotate(-4 58.9922 33.2759)" fill="white"/>
<circle cx="61.5645" cy="36.1632" r="0.903987" transform="rotate(-4 61.5645 36.1632)" fill="white"/>
<circle cx="49.418" cy="33.9452" r="0.903987" transform="rotate(-4 49.418 33.9452)" fill="white"/>
<circle cx="43.9043" cy="30.8456" r="0.903987" transform="rotate(-4 43.9043 30.8456)" fill="white"/>
<circle cx="58.7852" cy="9.38076" r="0.5563" transform="rotate(-4 58.7852 9.38076)" fill="white"/>
<circle cx="48.4922" cy="7.73049" r="0.5563" transform="rotate(-4 48.4922 7.73049)" fill="white"/>
<circle cx="37.1387" cy="6.85134" r="0.5563" transform="rotate(-4 37.1387 6.85134)" fill="white"/>
<circle cx="28.3965" cy="7.46267" r="0.5563" transform="rotate(-4 28.3965 7.46267)" fill="white"/>
<circle cx="15.6328" cy="8.35501" r="0.5563" transform="rotate(-4 15.6328 8.35501)" fill="white"/>
<circle cx="13.9434" cy="12.0982" r="0.5563" transform="rotate(-4 13.9434 12.0982)" fill="white"/>
<circle cx="9.68164" cy="12.9538" r="0.5563" transform="rotate(-4 9.68164 12.9538)" fill="white"/>
<circle cx="19.7949" cy="16.0109" r="0.5563" transform="rotate(-4 19.7949 16.0109)" fill="white"/>
<circle cx="24.0332" cy="16.8297" r="0.5563" transform="rotate(-4 24.0332 16.8297)" fill="white"/>
<circle cx="39.1047" cy="12.209" r="0.892315" transform="rotate(-4 39.1047 12.209)" fill="white"/>
<circle cx="38.8879" cy="16.5088" r="0.892315" transform="rotate(-4 38.8879 16.5088)" fill="white"/>
<circle cx="45.3" cy="15.0427" r="0.892315" transform="rotate(-4 45.3 15.0427)" fill="white"/>
<circle cx="44.3235" cy="21.0457" r="0.892315" transform="rotate(-4 44.3235 21.0457)" fill="white"/>
<circle cx="52.8664" cy="19.6116" r="0.892315" transform="rotate(-4 52.8664 19.6116)" fill="white"/>
<circle cx="49.1887" cy="25.4035" r="0.892315" transform="rotate(-4 49.1887 25.4035)" fill="white"/>
<circle cx="58.1409" cy="22.9474" r="1.18975" transform="rotate(-4 58.1409 22.9474)" fill="white"/>
<circle cx="56.1234" cy="27.968" r="1.18975" transform="rotate(-4 56.1234 27.968)" fill="white"/>
<circle cx="67.0209" cy="26.0511" r="1.48719" transform="rotate(-4 67.0209 26.0511)" fill="white"/>
<circle cx="65.7754" cy="31.6164" r="0.5563" transform="rotate(-4 65.7754 31.6164)" fill="white"/>
<circle cx="75.4339" cy="28.9877" r="1.18975" transform="rotate(-4 75.4339 28.9877)" fill="white"/>
<circle cx="75.4339" cy="28.9877" r="1.18975" transform="rotate(-4 75.4339 28.9877)" fill="white"/>
<circle cx="76.2422" cy="35.7639" r="0.5563" transform="rotate(-4 76.2422 35.7639)" fill="white"/>
<circle cx="82.3959" cy="31.1273" r="1.48719" transform="rotate(-4 82.3959 31.1273)" fill="white"/>
<circle cx="75.8011" cy="20.3181" r="1.18975" transform="rotate(-4 75.8011 20.3181)" fill="white"/>
<circle cx="61.3558" cy="15.0548" r="1.18975" transform="rotate(-4 61.3558 15.0548)" fill="white"/>
<circle cx="27.8516" cy="21.5818" r="0.5563" transform="rotate(-4 27.8516 21.5818)" fill="white"/>
<circle cx="35.8379" cy="28.1333" r="0.5563" transform="rotate(-4 35.8379 28.1333)" fill="white"/>
<circle cx="48.7539" cy="31.4125" r="0.5563" transform="rotate(-4 48.7539 31.4125)" fill="white"/>
<circle cx="53.8281" cy="36.216" r="0.5563" transform="rotate(-4 53.8281 36.216)" fill="white"/>
<circle cx="61.2871" cy="39.18" r="0.5563" transform="rotate(-4 61.2871 39.18)" fill="white"/>
<circle cx="66.2812" cy="38.8307" r="0.5563" transform="rotate(-4 66.2812 38.8307)" fill="white"/>
<circle cx="77.4004" cy="44.3267" r="0.5563" transform="rotate(-4 77.4004 44.3267)" fill="white"/>
<circle cx="80.3145" cy="44.1231" r="0.5563" transform="rotate(-4 80.3145 44.1231)" fill="white"/>
<circle cx="81.6172" cy="46.8202" r="0.5563" transform="rotate(-4 81.6172 46.8202)" fill="white"/>
<circle cx="74.332" cy="42.3107" r="0.5563" transform="rotate(-4 74.332 42.3107)" fill="white"/>
<circle cx="57.5137" cy="37.0736" r="0.5563" transform="rotate(-4 57.5137 37.0736)" fill="white"/>
<circle cx="44.7051" cy="29.3256" r="0.5563" transform="rotate(-4 44.7051 29.3256)" fill="white"/>
<circle cx="53.5488" cy="32.1927" r="0.5563" transform="rotate(-4 53.5488 32.1927)" fill="white"/>
<circle cx="65.0645" cy="37.3821" r="0.5563" transform="rotate(-4 65.0645 37.3821)" fill="white"/>
<circle cx="68.1953" cy="38.2785" r="0.5563" transform="rotate(-4 68.1953 38.2785)" fill="white"/>
<circle cx="88.1719" cy="30.8869" r="0.5563" transform="rotate(-4 88.1719 30.8869)" fill="white"/>
<circle cx="82.5539" cy="18.0517" r="0.892315" transform="rotate(-4 82.5539 18.0517)" fill="white"/>
<circle cx="88.5449" cy="40.2016" r="0.5563" transform="rotate(-4 88.5449 40.2016)" fill="white"/>
<circle cx="39.4707" cy="27.2519" r="0.903987" transform="rotate(-4 39.4707 27.2519)" fill="white"/>
<circle cx="64.2383" cy="10.6025" r="0.903987" transform="rotate(-4 64.2383 10.6025)" fill="white"/>
<circle cx="54.0742" cy="8.80406" r="0.903987" transform="rotate(-4 54.0742 8.80406)" fill="white"/>
<circle cx="42.8203" cy="7.36033" r="0.903987" transform="rotate(-4 42.8203 7.36033)" fill="white"/>
<circle cx="32.8066" cy="17.6802" r="0.903987" transform="rotate(-4 32.8066 17.6802)" fill="white"/>
<circle cx="30.3242" cy="14.0895" r="0.903987" transform="rotate(-4 30.3242 14.0895)" fill="white"/>
<line x1="88.0098" y1="23.8394" x2="86.6157" y2="21.8457" stroke="white" stroke-opacity="0.81" stroke-width="0.2"/>
<line x1="86.8797" y1="21.4284" x2="82.7235" y2="17.8154" stroke="white" stroke-opacity="0.81" stroke-width="0.2"/>
<line x1="82.7271" y1="17.8169" x2="76.0669" y2="12.2878" stroke="white" stroke-opacity="0.81" stroke-width="0.2"/>
<line x1="42.6722" y1="7.23099" x2="38.8109" y2="11.8228" stroke="white" stroke-opacity="0.81" stroke-width="0.2"/>
<line x1="38.846" y1="11.9016" x2="38.6306" y2="16.7962" stroke="white" stroke-opacity="0.81" stroke-width="0.2"/>
<line x1="38.3607" y1="16.5653" x2="45.4974" y2="14.9509" stroke="white" stroke-opacity="0.81" stroke-width="0.2"/>
<line x1="45.3589" y1="15.3687" x2="44.0628" y2="20.7571" stroke="white" stroke-opacity="0.81" stroke-width="0.2"/>
<line x1="43.9673" y1="20.9127" x2="52.0946" y2="19.5079" stroke="white" stroke-opacity="0.81" stroke-width="0.2"/>
<line x1="49.0619" y1="25.0612" x2="52.4197" y2="19.2498" stroke="white" stroke-opacity="0.81" stroke-width="0.2"/>
<line x1="58.0875" y1="23.0508" x2="49.4733" y2="25.4655" stroke="white" stroke-opacity="0.81" stroke-width="0.2"/>
<line x1="55.953" y1="27.9316" x2="58.2689" y2="23.169" stroke="white" stroke-opacity="0.81" stroke-width="0.2"/>
<line x1="66.7625" y1="25.5114" x2="56.3641" y2="28.3298" stroke="white" stroke-opacity="0.81" stroke-width="0.2"/>
<line x1="65.6776" y1="31.5956" x2="66.9349" y2="25.6523" stroke="white" stroke-opacity="0.81" stroke-width="0.2"/>
<line x1="75.3643" y1="28.8122" x2="66.1049" y2="31.9691" stroke="white" stroke-opacity="0.81" stroke-width="0.2"/>
<line x1="76.1445" y1="35.773" x2="75.5304" y2="28.9847" stroke="white" stroke-opacity="0.81" stroke-width="0.2"/>
<line x1="82.6654" y1="31.0745" x2="76.6037" y2="36.0991" stroke="white" stroke-opacity="0.81" stroke-width="0.2"/>
<line x1="88.0451" y1="23.9875" x2="82.9808" y2="31.3124" stroke="white" stroke-opacity="0.81" stroke-width="0.2"/>
<line x1="75.7609" y1="20.3683" x2="88.2898" y2="24.0928" stroke="white" stroke-opacity="0.81" stroke-width="0.2"/>
<line x1="75.8441" y1="12.6525" x2="76.1293" y2="20.7186" stroke="white" stroke-opacity="0.81" stroke-width="0.2"/>
<line x1="61.8223" y1="15.0633" x2="76.0248" y2="12.8155" stroke="white" stroke-opacity="0.81" stroke-width="0.2"/>
<line x1="75.6885" y1="20.4196" x2="61.5268" y2="15.2756" stroke="white" stroke-opacity="0.81" stroke-width="0.2"/>
<line x1="75.232" y1="28.7162" x2="75.3436" y2="20.3435" stroke="white" stroke-opacity="0.81" stroke-width="0.2"/>
<line x1="61.3533" y1="15.1296" x2="75.126" y2="28.6656" stroke="white" stroke-opacity="0.81" stroke-width="0.2"/>
<line x1="54.2324" y1="9.07123" x2="61.0703" y2="15.1456" stroke="white" stroke-opacity="0.81" stroke-width="0.2"/>
<line x1="45.4778" y1="15.2456" x2="53.8301" y2="9.08495" stroke="white" stroke-opacity="0.81" stroke-width="0.2"/>
<line x1="36.3589" y1="22.4383" x2="45.1982" y2="15.2677" stroke="white" stroke-opacity="0.81" stroke-width="0.2"/>
<line x1="37.2365" y1="6.85765" x2="36.242" y2="22.5416" stroke="white" stroke-opacity="0.81" stroke-width="0.2"/>
<line x1="61.2509" y1="15.2956" x2="36.8286" y2="6.96551" stroke="white" stroke-opacity="0.81" stroke-width="0.2"/>
<line x1="57.9671" y1="22.9189" x2="60.9116" y2="15.1846" stroke="white" stroke-opacity="0.81" stroke-width="0.2"/>
<line x1="54.2725" y1="9.25919" x2="57.8786" y2="22.9485" stroke="white" stroke-opacity="0.81" stroke-width="0.2"/>
<line x1="52.5648" y1="19.5557" x2="53.7989" y2="9.29214" stroke="white" stroke-opacity="0.81" stroke-width="0.2"/>
<line x1="43.2516" y1="7.34506" x2="52.4683" y2="19.5267" stroke="white" stroke-opacity="0.81" stroke-width="0.2"/>
<line x1="31.1898" y1="14.148" x2="42.8427" y2="7.33837" stroke="white" stroke-opacity="0.81" stroke-width="0.2"/>
<line x1="30.0681" y1="9.97882" x2="31.0625" y2="14.2311" stroke="white" stroke-opacity="0.81" stroke-width="0.2"/>
<line x1="36.918" y1="7.24117" x2="29.7299" y2="10.1139" stroke="white" stroke-opacity="0.81" stroke-width="0.2"/>
<line x1="36.973" y1="7.18719" x2="32.548" y2="17.6739" stroke="white" stroke-opacity="0.81" stroke-width="0.2"/>
<line x1="44.0459" y1="20.7895" x2="39.6267" y2="27.3722" stroke="white" stroke-opacity="0.81" stroke-width="0.2"/>
<line x1="57.8595" y1="23.0363" x2="49.2723" y2="33.814" stroke="white" stroke-opacity="0.81" stroke-width="0.2"/>
<line x1="67.0851" y1="25.4655" x2="59.017" y2="33.6975" stroke="white" stroke-opacity="0.81" stroke-width="0.2"/>
<line x1="75.3165" y1="29.178" x2="71.6851" y2="39.0515" stroke="white" stroke-opacity="0.81" stroke-width="0.2"/>
<line x1="75.5345" y1="28.7847" x2="65.2564" y2="37.3107" stroke="white" stroke-opacity="0.81" stroke-width="0.2"/>
<line x1="65.7361" y1="31.6369" x2="65.1433" y2="37.1155" stroke="white" stroke-opacity="0.81" stroke-width="0.2"/>
<line x1="43.9258" y1="20.7349" x2="44.6854" y2="29.6043" stroke="white" stroke-opacity="0.81" stroke-width="0.2"/>
<line x1="49.4945" y1="25.1663" x2="44.7716" y2="29.4001" stroke="white" stroke-opacity="0.81" stroke-width="0.2"/>
<line x1="49.547" y1="25.3765" x2="49.122" y2="31.2616" stroke="white" stroke-opacity="0.81" stroke-width="0.2"/>
<line x1="56.3541" y1="27.9062" x2="49.0855" y2="31.621" stroke="white" stroke-opacity="0.81" stroke-width="0.2"/>
<line x1="61.6578" y1="15.1938" x2="59.4215" y2="33.0558" stroke="white" stroke-opacity="0.81" stroke-width="0.2"/>
<line x1="82.7962" y1="31.0343" x2="75.6479" y2="20.5204" stroke="white" stroke-opacity="0.81" stroke-width="0.2"/>
<line x1="85.7006" y1="46.8255" x2="82.633" y2="30.8679" stroke="white" stroke-opacity="0.81" stroke-width="0.2"/>
<line x1="88.4498" y1="40.3013" x2="80.3584" y2="44.2131" stroke="white" stroke-opacity="0.81" stroke-width="0.2"/>
<line x1="76.2975" y1="35.6795" x2="89.424" y2="43.9629" stroke="white" stroke-opacity="0.81" stroke-width="0.2"/>
<line x1="77.3071" y1="44.2908" x2="82.4995" y2="30.8228" stroke="white" stroke-opacity="0.81" stroke-width="0.2"/>
<line x1="74.8218" y1="42.1958" x2="87.9775" y2="30.9592" stroke="white" stroke-opacity="0.81" stroke-width="0.2"/>
<line x1="76.2616" y1="35.3037" x2="82.6988" y2="17.7056" stroke="white" stroke-opacity="0.81" stroke-width="0.2"/>
<line x1="67.0899" y1="25.6088" x2="75.8992" y2="12.0272" stroke="white" stroke-opacity="0.81" stroke-width="0.2"/>
<line x1="76.5259" y1="12.2795" x2="70.1566" y2="10.9125" stroke="white" stroke-opacity="0.81" stroke-width="0.2"/>
<line x1="70.0363" y1="10.9243" x2="64.3093" y2="10.7671" stroke="white" stroke-opacity="0.81" stroke-width="0.2"/>
<line x1="63.7326" y1="10.8032" x2="58.7701" y2="9.61664" stroke="white" stroke-opacity="0.81" stroke-width="0.2"/>
<line x1="58.9062" y1="9.33199" x2="53.2985" y2="8.88763" stroke="white" stroke-opacity="0.81" stroke-width="0.2"/>
<line x1="54.1287" y1="8.96657" x2="48.4726" y2="7.82852" stroke="white" stroke-opacity="0.81" stroke-width="0.2"/>
<line x1="48.4854" y1="7.83035" x2="42.61" y2="7.54413" stroke="white" stroke-opacity="0.81" stroke-width="0.2"/>
<line x1="43.0069" y1="7.23758" x2="37.1314" y2="6.95135" stroke="white" stroke-opacity="0.81" stroke-width="0.2"/>
<line x1="37.1355" y1="6.81228" x2="28.4048" y2="7.5622" stroke="white" stroke-opacity="0.81" stroke-width="0.2"/>
<line x1="29.9081" y1="9.68042" x2="23.6291" y2="7.61003" stroke="white" stroke-opacity="0.81" stroke-width="0.2"/>
<line x1="28.3713" y1="7.28477" x2="23.6058" y2="6.92093" stroke="white" stroke-opacity="0.81" stroke-width="0.2"/>
<line x1="30.0893" y1="9.95262" x2="15.6249" y2="8.45461" stroke="white" stroke-opacity="0.81" stroke-width="0.2"/>
<line x1="30.3723" y1="14.2505" x2="3.37217" y2="6.93714" stroke="white" stroke-opacity="0.81" stroke-width="0.2"/>
<line x1="14.6253" y1="12.1695" x2="1.69624" y2="10.683" stroke="white" stroke-opacity="0.81" stroke-width="0.2"/>
<line x1="30.283" y1="14.8172" x2="13.363" y2="12.0968" stroke="white" stroke-opacity="0.81" stroke-width="0.2"/>
<line x1="32.8658" y1="17.8438" x2="19.779" y2="16.11" stroke="white" stroke-opacity="0.81" stroke-width="0.2"/>
<line x1="15.4743" y1="8.32535" x2="3.80398" y2="6.91078" stroke="white" stroke-opacity="0.81" stroke-width="0.2"/>
<line x1="19.7669" y1="16.1074" x2="1.29468" y2="11.1255" stroke="white" stroke-opacity="0.81" stroke-width="0.2"/>
<line x1="32.8754" y1="17.8446" x2="12.8907" y2="17.1508" stroke="white" stroke-opacity="0.81" stroke-width="0.2"/>
<line x1="33.7058" y1="19.8763" x2="12.8818" y2="17.15" stroke="white" stroke-opacity="0.81" stroke-width="0.2"/>
<line x1="33.0324" y1="19.9253" x2="19.575" y2="20.8664" stroke="white" stroke-opacity="0.81" stroke-width="0.2"/>
<line x1="27.8411" y1="21.6814" x2="18.865" y2="20.915" stroke="white" stroke-opacity="0.81" stroke-width="0.2"/>
<line x1="36.4452" y1="22.8932" x2="25.1979" y2="23.5402" stroke="white" stroke-opacity="0.81" stroke-width="0.2"/>
<line x1="27.775" y1="21.6698" x2="25.2651" y2="23.6577" stroke="white" stroke-opacity="0.81" stroke-width="0.2"/>
<line x1="36.4654" y1="22.606" x2="29.7226" y2="25.8658" stroke="white" stroke-opacity="0.81" stroke-width="0.2"/>
<line x1="35.0949" y1="25.4972" x2="29.9616" y2="25.8562" stroke="white" stroke-opacity="0.81" stroke-width="0.2"/>
<line x1="35.6032" y1="25.3565" x2="35.936" y2="28.1215" stroke="white" stroke-opacity="0.81" stroke-width="0.2"/>
<line x1="39.5682" y1="27.4137" x2="36.2773" y2="28.2014" stroke="white" stroke-opacity="0.81" stroke-width="0.2"/>
<line x1="44.7867" y1="29.3835" x2="43.6448" y2="30.9969" stroke="white" stroke-opacity="0.81" stroke-width="0.2"/>
<line x1="43.987" y1="30.8106" x2="48.7623" y2="31.3132" stroke="white" stroke-opacity="0.81" stroke-width="0.2"/>
<line x1="48.845" y1="31.376" x2="49.8617" y2="33.9538" stroke="white" stroke-opacity="0.81" stroke-width="0.2"/>
<line x1="53.5743" y1="32.0045" x2="49.3996" y2="34.1088" stroke="white" stroke-opacity="0.81" stroke-width="0.2"/>
<line x1="59.1145" y1="33.4281" x2="53.8785" y2="36.3037" stroke="white" stroke-opacity="0.81" stroke-width="0.2"/>
<line x1="53.6291" y1="31.9082" x2="53.9007" y2="35.7928" stroke="white" stroke-opacity="0.81" stroke-width="0.2"/>
<line x1="59.1403" y1="33.0985" x2="57.6084" y2="37.1093" stroke="white" stroke-opacity="0.81" stroke-width="0.2"/>
<line x1="57.4955" y1="36.9756" x2="61.6188" y2="36.1297" stroke="white" stroke-opacity="0.81" stroke-width="0.2"/>
<line x1="61.326" y1="39.163" x2="61.5385" y2="36.2204" stroke="white" stroke-opacity="0.81" stroke-width="0.2"/>
<line x1="65.1074" y1="37.4725" x2="61.3295" y2="39.2702" stroke="white" stroke-opacity="0.81" stroke-width="0.2"/>
<line x1="66.2085" y1="38.8991" x2="64.8531" y2="37.4604" stroke="white" stroke-opacity="0.81" stroke-width="0.2"/>
<line x1="68.216" y1="38.2345" x2="66.1738" y2="38.9349" stroke="white" stroke-opacity="0.81" stroke-width="0.2"/>
<line x1="71.5873" y1="39.5272" x2="68.0122" y2="38.2437" stroke="white" stroke-opacity="0.81" stroke-width="0.2"/>
<line x1="74.2591" y1="42.3813" x2="71.4097" y2="39.5134" stroke="white" stroke-opacity="0.81" stroke-width="0.2"/>
<line x1="77.3474" y1="44.4116" x2="74.1399" y2="42.4052" stroke="white" stroke-opacity="0.81" stroke-width="0.2"/>
<line x1="80.3195" y1="44.2227" x2="77.2673" y2="44.4361" stroke="white" stroke-opacity="0.81" stroke-width="0.2"/>
<line x1="81.5291" y1="46.8674" x2="80.0864" y2="44.18" stroke="white" stroke-opacity="0.81" stroke-width="0.2"/>
<line x1="85.8106" y1="47.1839" x2="81.4709" y2="46.9297" stroke="white" stroke-opacity="0.81" stroke-width="0.2"/>
<line x1="89.4003" y1="43.5635" x2="85.7485" y2="47.1648" stroke="white" stroke-opacity="0.81" stroke-width="0.2"/>
<line x1="88.6411" y1="40.1824" x2="89.2901" y2="43.4829" stroke="white" stroke-opacity="0.81" stroke-width="0.2"/>
<line x1="88.2699" y1="30.8843" x2="88.5037" y2="40.2088" stroke="white" stroke-opacity="0.81" stroke-width="0.2"/>
<line x1="88.2035" y1="23.922" x2="88.1336" y2="30.8976" stroke="white" stroke-opacity="0.81" stroke-width="0.2"/>
<line x1="39.5812" y1="27.2232" x2="44.7406" y2="29.2325" stroke="white" stroke-opacity="0.81" stroke-width="0.2"/>
<path d="M88.4915 35.7293V38.7883L89.0348 40.4635M88.4915 35.7293L87.3262 32.306M88.4915 35.7293L89.3656 37.8415L93.2986 43.0856M87.3262 32.306L88.4915 29.0284M87.3262 32.306L89.7275 35.3651M88.4915 29.0284V21.3808L89.7275 20.4469M88.4915 29.0284L91.4778 25.241M88.4915 29.0284L90.6377 31.869M88.4915 29.0284L91.3321 27.0619M88.4915 29.0284H94.0998L96.8676 30.121M93.2986 18.1032L98.2514 19.635M105.025 26.552H95.775M89.7275 20.4469L95.0467 16.428H105.826L107.72 17.8277L102.694 19.5087L100.364 20.2882L98.2514 19.635M89.7275 20.4469L91.4778 25.241M91.4778 25.241L95.775 26.552M95.775 26.552L98.2514 19.635M90.9679 32.306L90.6377 31.869M90.6377 31.869L89.7275 32.306M89.7275 32.306V35.3651M89.7275 32.306L91.4778 37.8415M89.7275 35.3651L91.4778 37.8415M91.4778 37.8415L93.2986 43.0856M91.4778 37.8415L92.7486 39.5167M93.2986 43.0856L89.0348 40.4635M93.2986 43.0856L89.6372 42.3208M93.2986 43.0856L95.2743 49.7864M93.2986 43.0856L95.8015 39.5167M93.2986 43.0856L96.2849 44.1781M89.0348 40.4635L89.6372 42.3208M89.6372 42.3208L90.2396 44.1781L93.2986 48.2569L95.2743 49.7864M95.2743 49.7864L96.0269 50.3691M97.2317 37.4773L96.5762 35.3651L98.6156 32.6702M97.2317 37.4773L97.8144 38.7883M97.2317 37.4773L95.8015 39.5167M98.6156 32.6702L95.0467 35.3651M98.6156 32.6702L96.8676 30.121M98.6156 32.6702V35.9113M96.8676 30.121L97.8144 29.0284L99.4896 31.5048V37.4773L98.6916 39.0068M98.6156 39.1525V35.9113M98.6156 39.1525L98.9069 40.3179M98.6156 39.1525L98.6916 39.0068M98.6156 39.1525L100.291 40.7549M97.8144 38.7883L98.6156 35.9113M97.8144 38.7883L96.2849 44.1781M97.8144 38.7883V40.0265L98.9069 40.3179M96.2849 44.1781L92.7486 39.5167M96.2849 44.1781L98.9069 40.3179M96.2849 44.1781L94.6097 45.4163L96.2849 47.4557M96.2849 44.1781L99.0729 46.3119M96.2849 44.1781H98.1786L98.9069 43.9596L99.344 44.1781L100.582 44.6151M96.2849 44.1781L99.5625 43.0128M92.7486 39.5167H95.8015M96.2849 47.4557L95.5565 48.2569L96.0269 50.3691M96.2849 47.4557H98.1786M96.2849 47.4557L99.0729 46.3119M96.0269 50.3691L97.2317 51.3019M98.4699 51.6073L97.8144 49.7864L98.9069 48.2569L100.728 47.6742M102.986 51.753H97.8144L97.2317 51.3019M97.2317 51.3019L96.7219 49.4951L98.1786 47.4557M98.1786 47.4557H103.277M99.0729 46.3119L99.1254 46.2903H99.6353L98.8341 45.2707L99.5625 43.0128M100.946 40.9005V40.7549L100.582 40.9005L100.291 40.7549M100.291 40.7549L99.5625 43.0128M99.5625 43.0128L100.582 43.5226M98.6916 39.0068L100.582 39.6624M98.6916 39.0068L100.582 40.4635" stroke="white" stroke-opacity="0.81" stroke-width="0.2"/>
<circle r="0.903987" transform="matrix(-0.997564 -0.0697565 -0.0697565 0.997564 177.094 7.16331)" fill="white"/>
<circle r="0.903987" transform="matrix(-0.997564 -0.0697565 -0.0697565 0.997564 170.768 9.92747)" fill="white"/>
<circle r="0.903987" transform="matrix(-0.997564 -0.0697565 -0.0697565 0.997564 197.475 6.77623)" fill="white"/>
<circle r="0.903987" transform="matrix(-0.997564 -0.0697565 -0.0697565 0.997564 199.563 10.8258)" fill="white"/>
<circle r="0.903987" transform="matrix(-0.997564 -0.0697565 -0.0697565 0.997564 187.959 17.264)" fill="white"/>
<circle r="0.903987" transform="matrix(-0.997564 -0.0697565 -0.0697565 0.997564 181.859 20.7411)" fill="white"/>
<circle r="0.903987" transform="matrix(-0.997564 -0.0697565 -0.0697565 0.997564 175.395 23.4955)" fill="white"/>
<circle r="0.903987" transform="matrix(-0.997564 -0.0697565 -0.0697565 0.997564 171.195 25.7113)" fill="white"/>
<circle r="0.903987" transform="matrix(-0.997564 -0.0697565 -0.0697565 0.997564 164.436 22.7291)" fill="white"/>
<circle r="0.903987" transform="matrix(-0.997564 -0.0697565 -0.0697565 0.997564 167.848 19.7612)" fill="white"/>
<circle r="0.903987" transform="matrix(-0.997564 -0.0697565 -0.0697565 0.997564 165.369 25.3038)" fill="white"/>
<circle r="0.903987" transform="matrix(-0.997564 -0.0697565 -0.0697565 0.997564 130.697 10.7503)" fill="white"/>
<circle r="0.903987" transform="matrix(-0.997564 -0.0697565 -0.0697565 0.997564 124.754 12.0077)" fill="white"/>
<circle r="0.903987" transform="matrix(-0.997564 -0.0697565 -0.0697565 0.997564 114.176 21.7241)" fill="white"/>
<circle r="0.903987" transform="matrix(-0.997564 -0.0697565 -0.0697565 0.997564 112.771 23.8564)" fill="white"/>
<circle r="0.903987" transform="matrix(-0.997564 -0.0697565 -0.0697565 0.997564 111.543 43.428)" fill="white"/>
<circle r="0.903987" transform="matrix(-0.997564 -0.0697565 -0.0697565 0.997564 115.055 47.0195)" fill="white"/>
<circle r="1.48719" transform="matrix(-0.997564 -0.0697565 -0.0697565 0.997564 129.223 39.9097)" fill="white"/>
<circle r="0.903987" transform="matrix(-0.997564 -0.0697565 -0.0697565 0.997564 141.807 33.276)" fill="white"/>
<circle r="0.903987" transform="matrix(-0.997564 -0.0697565 -0.0697565 0.997564 139.234 36.1633)" fill="white"/>
<circle r="0.903987" transform="matrix(-0.997564 -0.0697565 -0.0697565 0.997564 151.381 33.9454)" fill="white"/>
<circle r="0.903987" transform="matrix(-0.997564 -0.0697565 -0.0697565 0.997564 156.895 30.8457)" fill="white"/>
<circle r="0.5563" transform="matrix(-0.997564 -0.0697565 -0.0697565 0.997564 142.014 9.38076)" fill="white"/>
<circle r="0.5563" transform="matrix(-0.997564 -0.0697565 -0.0697565 0.997564 152.309 7.73062)" fill="white"/>
<circle r="0.5563" transform="matrix(-0.997564 -0.0697565 -0.0697565 0.997564 163.662 6.85147)" fill="white"/>
<circle r="0.5563" transform="matrix(-0.997564 -0.0697565 -0.0697565 0.997564 172.402 7.46279)" fill="white"/>
<circle r="0.5563" transform="matrix(-0.997564 -0.0697565 -0.0697565 0.997564 185.166 8.35525)" fill="white"/>
<circle r="0.5563" transform="matrix(-0.997564 -0.0697565 -0.0697565 0.997564 186.855 12.0982)" fill="white"/>
<circle r="0.5563" transform="matrix(-0.997564 -0.0697565 -0.0697565 0.997564 191.117 12.9539)" fill="white"/>
<circle r="0.5563" transform="matrix(-0.997564 -0.0697565 -0.0697565 0.997564 181.006 16.0109)" fill="white"/>
<circle r="0.5563" transform="matrix(-0.997564 -0.0697565 -0.0697565 0.997564 176.766 16.8299)" fill="white"/>
<circle r="0.892315" transform="matrix(-0.997564 -0.0697565 -0.0697565 0.997564 161.694 12.2091)" fill="white"/>
<circle r="0.892315" transform="matrix(-0.997564 -0.0697565 -0.0697565 0.997564 161.911 16.5089)" fill="white"/>
<circle r="0.892315" transform="matrix(-0.997564 -0.0697565 -0.0697565 0.997564 155.499 15.0429)" fill="white"/>
<circle r="0.892315" transform="matrix(-0.997564 -0.0697565 -0.0697565 0.997564 156.477 21.0457)" fill="white"/>
<circle r="0.892315" transform="matrix(-0.997564 -0.0697565 -0.0697565 0.997564 147.932 19.6117)" fill="white"/>
<circle r="0.892315" transform="matrix(-0.997564 -0.0697565 -0.0697565 0.997564 151.61 25.4036)" fill="white"/>
<circle r="1.18975" transform="matrix(-0.997564 -0.0697565 -0.0697565 0.997564 142.658 22.9475)" fill="white"/>
<circle r="1.18975" transform="matrix(-0.997564 -0.0697565 -0.0697565 0.997564 144.675 27.9681)" fill="white"/>
<circle r="1.48719" transform="matrix(-0.997564 -0.0697565 -0.0697565 0.997564 133.778 26.0511)" fill="white"/>
<circle r="0.5563" transform="matrix(-0.997564 -0.0697565 -0.0697565 0.997564 135.021 31.6164)" fill="white"/>
<circle r="1.18975" transform="matrix(-0.997564 -0.0697565 -0.0697565 0.997564 125.365 28.9878)" fill="white"/>
<circle r="1.18975" transform="matrix(-0.997564 -0.0697565 -0.0697565 0.997564 125.365 28.9878)" fill="white"/>
<circle r="0.5563" transform="matrix(-0.997564 -0.0697565 -0.0697565 0.997564 124.557 35.7641)" fill="white"/>
<circle r="1.48719" transform="matrix(-0.997564 -0.0697565 -0.0697565 0.997564 118.403 31.1274)" fill="white"/>
<circle r="1.18975" transform="matrix(-0.997564 -0.0697565 -0.0697565 0.997564 124.998 20.3182)" fill="white"/>
<circle r="1.18975" transform="matrix(-0.997564 -0.0697565 -0.0697565 0.997564 139.447 15.0549)" fill="white"/>
<circle r="0.5563" transform="matrix(-0.997564 -0.0697565 -0.0697565 0.997564 172.949 21.5817)" fill="white"/>
<circle r="0.5563" transform="matrix(-0.997564 -0.0697565 -0.0697565 0.997564 164.963 28.1334)" fill="white"/>
<circle r="0.5563" transform="matrix(-0.997564 -0.0697565 -0.0697565 0.997564 152.047 31.4126)" fill="white"/>
<circle r="0.5563" transform="matrix(-0.997564 -0.0697565 -0.0697565 0.997564 146.971 36.2161)" fill="white"/>
<circle r="0.5563" transform="matrix(-0.997564 -0.0697565 -0.0697565 0.997564 139.514 39.18)" fill="white"/>
<circle r="0.5563" transform="matrix(-0.997564 -0.0697565 -0.0697565 0.997564 134.52 38.8307)" fill="white"/>
<circle r="0.5563" transform="matrix(-0.997564 -0.0697565 -0.0697565 0.997564 123.398 44.3268)" fill="white"/>
<circle r="0.5563" transform="matrix(-0.997564 -0.0697565 -0.0697565 0.997564 120.486 44.1232)" fill="white"/>
<circle r="0.5563" transform="matrix(-0.997564 -0.0697565 -0.0697565 0.997564 119.182 46.8203)" fill="white"/>
<circle r="0.5563" transform="matrix(-0.997564 -0.0697565 -0.0697565 0.997564 126.467 42.3108)" fill="white"/>
<circle r="0.5563" transform="matrix(-0.997564 -0.0697565 -0.0697565 0.997564 143.285 37.0736)" fill="white"/>
<circle r="0.5563" transform="matrix(-0.997564 -0.0697565 -0.0697565 0.997564 156.098 29.3257)" fill="white"/>
<circle r="0.5563" transform="matrix(-0.997564 -0.0697565 -0.0697565 0.997564 147.25 32.1928)" fill="white"/>
<circle r="0.5563" transform="matrix(-0.997564 -0.0697565 -0.0697565 0.997564 135.734 37.3822)" fill="white"/>
<circle r="0.5563" transform="matrix(-0.997564 -0.0697565 -0.0697565 0.997564 132.607 38.2786)" fill="white"/>
<circle r="0.5563" transform="matrix(-0.997564 -0.0697565 -0.0697565 0.997564 112.629 30.8869)" fill="white"/>
<circle r="0.892315" transform="matrix(-0.997564 -0.0697565 -0.0697565 0.997564 118.245 18.0518)" fill="white"/>
<circle r="0.5563" transform="matrix(-0.997564 -0.0697565 -0.0697565 0.997564 112.256 40.2016)" fill="white"/>
<circle r="0.903987" transform="matrix(-0.997564 -0.0697565 -0.0697565 0.997564 161.33 27.2519)" fill="white"/>
<circle r="0.903987" transform="matrix(-0.997564 -0.0697565 -0.0697565 0.997564 136.561 10.6028)" fill="white"/>
<circle r="0.903987" transform="matrix(-0.997564 -0.0697565 -0.0697565 0.997564 146.725 8.80418)" fill="white"/>
<circle r="0.903987" transform="matrix(-0.997564 -0.0697565 -0.0697565 0.997564 157.979 7.36045)" fill="white"/>
<circle r="0.903987" transform="matrix(-0.997564 -0.0697565 -0.0697565 0.997564 167.992 17.6802)" fill="white"/>
<circle r="0.903987" transform="matrix(-0.997564 -0.0697565 -0.0697565 0.997564 170.475 14.0895)" fill="white"/>
<line y1="-0.1" x2="2.43282" y2="-0.1" transform="matrix(0.573058 -0.819515 -0.819515 -0.573058 112.707 23.7823)" stroke="white" stroke-opacity="0.81" stroke-width="0.2"/>
<line y1="-0.1" x2="5.50708" y2="-0.1" transform="matrix(0.75471 -0.656059 -0.656059 -0.75471 113.854 21.353)" stroke="white" stroke-opacity="0.81" stroke-width="0.2"/>
<line y1="-0.1" x2="8.65623" y2="-0.1" transform="matrix(0.769421 -0.638742 -0.638742 -0.769421 118.01 17.7401)" stroke="white" stroke-opacity="0.81" stroke-width="0.2"/>
<line y1="-0.1" x2="5.99959" y2="-0.1" transform="matrix(0.6436 0.765362 0.765362 -0.6436 158.203 7.16675)" stroke="white" stroke-opacity="0.81" stroke-width="0.2"/>
<line y1="-0.1" x2="4.8993" y2="-0.1" transform="matrix(0.0439647 0.999033 0.999033 -0.0439647 162.055 11.8975)" stroke="white" stroke-opacity="0.81" stroke-width="0.2"/>
<line y1="-0.1" x2="7.31698" y2="-0.1" transform="matrix(-0.975357 -0.220632 -0.220632 0.975357 162.416 16.663)" stroke="white" stroke-opacity="0.81" stroke-width="0.2"/>
<line y1="-0.1" x2="5.54209" y2="-0.1" transform="matrix(0.233879 0.972266 0.972266 -0.233879 155.541 15.3455)" stroke="white" stroke-opacity="0.81" stroke-width="0.2"/>
<line y1="-0.1" x2="8.24774" y2="-0.1" transform="matrix(-0.985388 -0.170325 -0.170325 0.985388 156.816 21.0114)" stroke="white" stroke-opacity="0.81" stroke-width="0.2"/>
<line y1="-0.1" x2="6.71172" y2="-0.1" transform="matrix(-0.500292 -0.865857 -0.865857 0.500292 151.65 25.1113)" stroke="white" stroke-opacity="0.81" stroke-width="0.2"/>
<line y1="-0.1" x2="8.94631" y2="-0.1" transform="matrix(0.962884 0.269916 0.269916 -0.962884 142.738 22.9546)" stroke="white" stroke-opacity="0.81" stroke-width="0.2"/>
<line y1="-0.1" x2="5.29581" y2="-0.1" transform="matrix(-0.437297 -0.899318 -0.899318 0.437297 144.756 27.9755)" stroke="white" stroke-opacity="0.81" stroke-width="0.2"/>
<line y1="-0.1" x2="10.7736" y2="-0.1" transform="matrix(0.965177 0.261598 0.261598 -0.965177 134.062 25.4152)" stroke="white" stroke-opacity="0.81" stroke-width="0.2"/>
<line y1="-0.1" x2="6.07488" y2="-0.1" transform="matrix(-0.206979 -0.978345 -0.978345 0.206979 135.023 31.6165)" stroke="white" stroke-opacity="0.81" stroke-width="0.2"/>
<line y1="-0.1" x2="9.78281" y2="-0.1" transform="matrix(0.9465 0.322703 0.322703 -0.9465 125.469 28.7177)" stroke="white" stroke-opacity="0.81" stroke-width="0.2"/>
<line y1="-0.1" x2="6.81608" y2="-0.1" transform="matrix(0.0900962 -0.995933 -0.995933 -0.0900962 124.555 35.7642)" stroke="white" stroke-opacity="0.81" stroke-width="0.2"/>
<line y1="-0.1" x2="7.87341" y2="-0.1" transform="matrix(0.769898 0.638168 0.638168 -0.769898 118.197 30.9976)" stroke="white" stroke-opacity="0.81" stroke-width="0.2"/>
<line y1="-0.1" x2="8.90513" y2="-0.1" transform="matrix(0.568703 0.822543 0.822543 -0.568703 112.836 23.9308)" stroke="white" stroke-opacity="0.81" stroke-width="0.2"/>
<line y1="-0.1" x2="13.0708" y2="-0.1" transform="matrix(-0.958542 0.284953 0.284953 0.958542 125.068 20.4642)" stroke="white" stroke-opacity="0.81" stroke-width="0.2"/>
<line y1="-0.1" x2="8.07114" y2="-0.1" transform="matrix(-0.0353369 0.999376 0.999376 0.0353369 125.057 12.6561)" stroke="white" stroke-opacity="0.81" stroke-width="0.2"/>
<line y1="-0.1" x2="14.3793" y2="-0.1" transform="matrix(-0.987706 -0.156327 -0.156327 0.987706 138.961 15.1621)" stroke="white" stroke-opacity="0.81" stroke-width="0.2"/>
<line y1="-0.1" x2="15.067" y2="-0.1" transform="matrix(0.939916 -0.341405 -0.341405 -0.939916 125.078 20.3256)" stroke="white" stroke-opacity="0.81" stroke-width="0.2"/>
<line y1="-0.1" x2="8.37341" y2="-0.1" transform="matrix(-0.0133277 -0.999911 -0.999911 0.0133277 125.469 28.7177)" stroke="white" stroke-opacity="0.81" stroke-width="0.2"/>
<line y1="-0.1" x2="19.3109" y2="-0.1" transform="matrix(-0.713207 0.700953 0.700953 0.713207 139.518 15.201)" stroke="white" stroke-opacity="0.81" stroke-width="0.2"/>
<line y1="-0.1" x2="9.14622" y2="-0.1" transform="matrix(-0.747612 0.664136 0.664136 0.747612 146.633 9.146)" stroke="white" stroke-opacity="0.81" stroke-width="0.2"/>
<line y1="-0.1" x2="10.3786" y2="-0.1" transform="matrix(-0.804767 -0.593592 -0.593592 0.804767 155.262 15.326)" stroke="white" stroke-opacity="0.81" stroke-width="0.2"/>
<line y1="-0.1" x2="11.3821" y2="-0.1" transform="matrix(-0.776604 -0.62999 -0.62999 0.776604 164.381 22.5161)" stroke="white" stroke-opacity="0.81" stroke-width="0.2"/>
<line y1="-0.1" x2="15.7155" y2="-0.1" transform="matrix(0.0632808 0.997996 0.997996 -0.0632808 163.662 6.85144)" stroke="white" stroke-opacity="0.81" stroke-width="0.2"/>
<line y1="-0.1" x2="25.8039" y2="-0.1" transform="matrix(0.94646 -0.322822 -0.322822 -0.94646 139.518 15.201)" stroke="white" stroke-opacity="0.81" stroke-width="0.2"/>
<line y1="-0.1" x2="8.27583" y2="-0.1" transform="matrix(-0.355799 -0.934563 -0.934563 0.355799 142.738 22.9546)" stroke="white" stroke-opacity="0.81" stroke-width="0.2"/>
<line y1="-0.1" x2="14.1563" y2="-0.1" transform="matrix(-0.254737 0.967011 0.967011 0.254737 146.623 9.28467)" stroke="white" stroke-opacity="0.81" stroke-width="0.2"/>
<line y1="-0.1" x2="10.3375" y2="-0.1" transform="matrix(-0.119382 -0.992849 -0.992849 0.119382 148.135 19.5677)" stroke="white" stroke-opacity="0.81" stroke-width="0.2"/>
<line y1="-0.1" x2="15.2755" y2="-0.1" transform="matrix(-0.603366 0.797465 0.797465 0.603366 157.627 7.40552)" stroke="white" stroke-opacity="0.81" stroke-width="0.2"/>
<line y1="-0.1" x2="13.4967" y2="-0.1" transform="matrix(-0.863387 -0.504543 -0.504543 0.863387 169.559 14.2345)" stroke="white" stroke-opacity="0.81" stroke-width="0.2"/>
<line y1="-0.1" x2="4.36704" y2="-0.1" transform="matrix(-0.227711 0.973729 0.973729 0.227711 170.83 10.0016)" stroke="white" stroke-opacity="0.81" stroke-width="0.2"/>
<line y1="-0.1" x2="7.74086" y2="-0.1" transform="matrix(0.92859 0.371107 0.371107 -0.92859 163.922 7.14832)" stroke="white" stroke-opacity="0.81" stroke-width="0.2"/>
<line y1="-0.1" x2="11.3821" y2="-0.1" transform="matrix(0.388772 0.921334 0.921334 -0.388772 163.922 7.14832)" stroke="white" stroke-opacity="0.81" stroke-width="0.2"/>
<line y1="-0.1" x2="7.92849" y2="-0.1" transform="matrix(0.557383 0.830256 0.830256 -0.557383 156.836 20.7339)" stroke="white" stroke-opacity="0.81" stroke-width="0.2"/>
<line y1="-0.1" x2="13.7803" y2="-0.1" transform="matrix(0.623142 0.782109 0.782109 -0.623142 143.018 22.9741)" stroke="white" stroke-opacity="0.81" stroke-width="0.2"/>
<line y1="-0.1" x2="11.5264" y2="-0.1" transform="matrix(0.699961 0.714181 0.714181 -0.699961 133.785 25.3956)" stroke="white" stroke-opacity="0.81" stroke-width="0.2"/>
<line y1="-0.1" x2="10.5202" y2="-0.1" transform="matrix(0.345187 0.938534 0.938534 -0.345187 125.578 29.1436)" stroke="white" stroke-opacity="0.81" stroke-width="0.2"/>
<line y1="-0.1" x2="13.3541" y2="-0.1" transform="matrix(0.769663 0.638451 0.638451 -0.769663 125.328 28.7078)" stroke="white" stroke-opacity="0.81" stroke-width="0.2"/>
<line y1="-0.1" x2="5.51059" y2="-0.1" transform="matrix(0.107574 0.994197 0.994197 -0.107574 135.162 31.6261)" stroke="white" stroke-opacity="0.81" stroke-width="0.2"/>
<line y1="-0.1" x2="8.90188" y2="-0.1" transform="matrix(-0.085333 0.996353 0.996353 0.085333 156.973 20.7435)" stroke="white" stroke-opacity="0.81" stroke-width="0.2"/>
<line y1="-0.1" x2="6.34279" y2="-0.1" transform="matrix(0.744603 0.667508 0.667508 -0.744603 151.371 25.0919)" stroke="white" stroke-opacity="0.81" stroke-width="0.2"/>
<line y1="-0.1" x2="5.90045" y2="-0.1" transform="matrix(0.0720215 0.997403 0.997403 -0.0720215 151.352 25.3694)" stroke="white" stroke-opacity="0.81" stroke-width="0.2"/>
<line y1="-0.1" x2="8.16288" y2="-0.1" transform="matrix(0.890448 0.455085 0.455085 -0.890448 144.49 27.8173)" stroke="white" stroke-opacity="0.81" stroke-width="0.2"/>
<line y1="-0.1" x2="18.0015" y2="-0.1" transform="matrix(0.12423 0.992254 0.992254 -0.12423 139.24 15.1815)" stroke="white" stroke-opacity="0.81" stroke-width="0.2"/>
<line y1="-0.1" x2="12.7138" y2="-0.1" transform="matrix(0.562247 -0.82697 -0.82697 -0.562247 117.92 30.9781)" stroke="white" stroke-opacity="0.81" stroke-width="0.2"/>
<line y1="-0.1" x2="16.2498" y2="-0.1" transform="matrix(0.188782 -0.982019 -0.982019 -0.188782 115 46.8066)" stroke="white" stroke-opacity="0.81" stroke-width="0.2"/>
<line y1="-0.1" x2="8.98729" y2="-0.1" transform="matrix(0.900308 0.435253 0.435253 -0.900308 112.396 40.2113)" stroke="white" stroke-opacity="0.81" stroke-width="0.2"/>
<line y1="-0.1" x2="15.5216" y2="-0.1" transform="matrix(-0.845692 0.533671 0.533671 0.845692 124.555 35.7642)" stroke="white" stroke-opacity="0.81" stroke-width="0.2"/>
<line y1="-0.1" x2="14.4343" y2="-0.1" transform="matrix(-0.35973 -0.933057 -0.933057 0.35973 123.398 44.3269)" stroke="white" stroke-opacity="0.81" stroke-width="0.2"/>
<line y1="-0.1" x2="17.3013" y2="-0.1" transform="matrix(-0.76039 -0.649467 -0.649467 0.76039 125.912 42.272)" stroke="white" stroke-opacity="0.81" stroke-width="0.2"/>
<line y1="-0.1" x2="18.7385" y2="-0.1" transform="matrix(-0.343529 -0.939142 -0.939142 0.343529 124.447 35.3383)" stroke="white" stroke-opacity="0.81" stroke-width="0.2"/>
<line y1="-0.1" x2="16.1883" y2="-0.1" transform="matrix(-0.544176 -0.838971 -0.838971 0.544176 133.629 25.6635)" stroke="white" stroke-opacity="0.81" stroke-width="0.2"/>
<line y1="-0.1" x2="6.51429" y2="-0.1" transform="matrix(0.977734 -0.209848 -0.209848 -0.977734 124.254 12.1818)" stroke="white" stroke-opacity="0.81" stroke-width="0.2"/>
<line y1="-0.1" x2="5.72914" y2="-0.1" transform="matrix(0.999624 -0.0274366 -0.0274366 -0.999624 130.762 10.8245)" stroke="white" stroke-opacity="0.81" stroke-width="0.2"/>
<line y1="-0.1" x2="5.10236" y2="-0.1" transform="matrix(0.972585 -0.232549 -0.232549 -0.972585 137.043 10.7061)" stroke="white" stroke-opacity="0.81" stroke-width="0.2"/>
<line y1="-0.1" x2="5.62523" y2="-0.1" transform="matrix(0.996875 -0.0789944 -0.0789944 -0.996875 141.885 9.23242)" stroke="white" stroke-opacity="0.81" stroke-width="0.2"/>
<line y1="-0.1" x2="5.76951" y2="-0.1" transform="matrix(0.980353 -0.197251 -0.197251 -0.980353 146.65 8.86865)" stroke="white" stroke-opacity="0.81" stroke-width="0.2"/>
<line y1="-0.1" x2="5.88239" y2="-0.1" transform="matrix(0.998815 -0.0486576 -0.0486576 -0.998815 152.309 7.73059)" stroke="white" stroke-opacity="0.81" stroke-width="0.2"/>
<line y1="-0.1" x2="5.88239" y2="-0.1" transform="matrix(0.998815 -0.0486576 -0.0486576 -0.998815 157.787 7.13782)" stroke="white" stroke-opacity="0.81" stroke-width="0.2"/>
<line y1="-0.1" x2="8.76282" y2="-0.1" transform="matrix(0.996331 0.08558 0.08558 -0.996331 163.672 6.71277)" stroke="white" stroke-opacity="0.81" stroke-width="0.2"/>
<line y1="-0.1" x2="6.61154" y2="-0.1" transform="matrix(0.949704 -0.313148 -0.313148 -0.949704 170.859 9.58557)" stroke="white" stroke-opacity="0.81" stroke-width="0.2"/>
<line y1="-0.1" x2="4.7794" y2="-0.1" transform="matrix(0.997098 -0.0761254 -0.0761254 -0.997098 172.424 7.18518)" stroke="white" stroke-opacity="0.81" stroke-width="0.2"/>
<line y1="-0.1" x2="14.5418" y2="-0.1" transform="matrix(0.99468 -0.103014 -0.103014 -0.99468 170.699 9.85327)" stroke="white" stroke-opacity="0.81" stroke-width="0.2"/>
<line y1="-0.1" x2="27.973" y2="-0.1" transform="matrix(0.965219 -0.261441 -0.261441 -0.965219 170.4 14.1541)" stroke="white" stroke-opacity="0.81" stroke-width="0.2"/>
<line y1="-0.1" x2="13.0142" y2="-0.1" transform="matrix(0.993455 -0.114222 -0.114222 -0.993455 186.162 12.0702)" stroke="white" stroke-opacity="0.81" stroke-width="0.2"/>
<line y1="-0.1" x2="17.1373" y2="-0.1" transform="matrix(0.98732 -0.158744 -0.158744 -0.98732 170.5 14.7186)" stroke="white" stroke-opacity="0.81" stroke-width="0.2"/>
<line y1="-0.1" x2="13.2011" y2="-0.1" transform="matrix(0.991338 -0.131334 -0.131334 -0.991338 167.92 17.7448)" stroke="white" stroke-opacity="0.81" stroke-width="0.2"/>
<line y1="-0.1" x2="11.7557" y2="-0.1" transform="matrix(0.992734 -0.12033 -0.12033 -0.992734 185.314 8.22607)" stroke="white" stroke-opacity="0.81" stroke-width="0.2"/>
<line y1="-0.1" x2="19.1323" y2="-0.1" transform="matrix(0.965502 -0.260395 -0.260395 -0.965502 181.006 16.0109)" stroke="white" stroke-opacity="0.81" stroke-width="0.2"/>
<line y1="-0.1" x2="19.9968" y2="-0.1" transform="matrix(0.999398 -0.0346928 -0.0346928 -0.999398 167.92 17.7448)" stroke="white" stroke-opacity="0.81" stroke-width="0.2"/>
<line y1="-0.1" x2="21.0017" y2="-0.1" transform="matrix(0.991539 -0.129812 -0.129812 -0.991539 167.08 19.7772)" stroke="white" stroke-opacity="0.81" stroke-width="0.2"/>
<line y1="-0.1" x2="13.4903" y2="-0.1" transform="matrix(0.997564 0.0697565 0.0697565 -0.997564 167.773 19.8258)" stroke="white" stroke-opacity="0.81" stroke-width="0.2"/>
<line y1="-0.1" x2="9.00879" y2="-0.1" transform="matrix(0.996374 -0.0850806 -0.0850806 -0.996374 172.949 21.5817)" stroke="white" stroke-opacity="0.81" stroke-width="0.2"/>
<line y1="-0.1" x2="11.2659" y2="-0.1" transform="matrix(0.998349 0.0574365 0.0574365 -0.998349 164.359 22.7935)" stroke="white" stroke-opacity="0.81" stroke-width="0.2"/>
<line y1="-0.1" x2="3.20174" y2="-0.1" transform="matrix(0.783906 0.620879 0.620879 -0.783906 173.086 21.5914)" stroke="white" stroke-opacity="0.81" stroke-width="0.2"/>
<line y1="-0.1" x2="7.48941" y2="-0.1" transform="matrix(0.900308 0.435253 0.435253 -0.900308 164.381 22.5161)" stroke="white" stroke-opacity="0.81" stroke-width="0.2"/>
<line y1="-0.1" x2="5.14577" y2="-0.1" transform="matrix(0.997564 0.0697565 0.0697565 -0.997564 165.711 25.3975)" stroke="white" stroke-opacity="0.81" stroke-width="0.2"/>
<line y1="-0.1" x2="2.78497" y2="-0.1" transform="matrix(-0.119485 0.992836 0.992836 0.119485 165.295 25.3684)" stroke="white" stroke-opacity="0.81" stroke-width="0.2"/>
<line y1="-0.1" x2="3.38384" y2="-0.1" transform="matrix(0.972523 0.232806 0.232806 -0.972523 161.254 27.3167)" stroke="white" stroke-opacity="0.81" stroke-width="0.2"/>
<line y1="-0.1" x2="1.97663" y2="-0.1" transform="matrix(0.577707 0.816244 0.816244 -0.577707 156.096 29.3258)" stroke="white" stroke-opacity="0.81" stroke-width="0.2"/>
<line y1="-0.1" x2="4.80161" y2="-0.1" transform="matrix(-0.994507 0.104667 0.104667 0.994507 156.822 30.9102)" stroke="white" stroke-opacity="0.81" stroke-width="0.2"/>
<line y1="-0.1" x2="2.77105" y2="-0.1" transform="matrix(-0.366916 0.930254 0.930254 0.366916 152.047 31.4128)" stroke="white" stroke-opacity="0.81" stroke-width="0.2"/>
<line y1="-0.1" x2="4.67507" y2="-0.1" transform="matrix(0.892971 0.450114 0.450114 -0.892971 147.271 31.9153)" stroke="white" stroke-opacity="0.81" stroke-width="0.2"/>
<line y1="-0.1" x2="5.97375" y2="-0.1" transform="matrix(0.876516 0.481373 0.481373 -0.876516 141.732 33.3405)" stroke="white" stroke-opacity="0.81" stroke-width="0.2"/>
<line y1="-0.1" x2="3.8941" y2="-0.1" transform="matrix(-0.0697565 0.997564 0.997564 0.0697565 147.271 31.9153)" stroke="white" stroke-opacity="0.81" stroke-width="0.2"/>
<line y1="-0.1" x2="4.29334" y2="-0.1" transform="matrix(0.356816 0.934175 0.934175 -0.356816 141.752 33.063)" stroke="white" stroke-opacity="0.81" stroke-width="0.2"/>
<line y1="-0.1" x2="4.20917" y2="-0.1" transform="matrix(-0.979594 -0.200986 -0.200986 0.979594 143.285 37.0737)" stroke="white" stroke-opacity="0.81" stroke-width="0.2"/>
<line y1="-0.1" x2="2.95022" y2="-0.1" transform="matrix(-0.0720214 -0.997403 -0.997403 0.0720214 139.375 39.1703)" stroke="white" stroke-opacity="0.81" stroke-width="0.2"/>
<line y1="-0.1" x2="4.18382" y2="-0.1" transform="matrix(0.902978 0.429688 0.429688 -0.902978 135.736 37.3823)" stroke="white" stroke-opacity="0.81" stroke-width="0.2"/>
<line y1="-0.1" x2="1.97663" y2="-0.1" transform="matrix(0.685684 -0.727899 -0.727899 -0.685684 134.52 38.8307)" stroke="white" stroke-opacity="0.81" stroke-width="0.2"/>
<line y1="-0.1" x2="2.15902" y2="-0.1" transform="matrix(0.945908 0.324436 0.324436 -0.945908 132.615 38.1399)" stroke="white" stroke-opacity="0.81" stroke-width="0.2"/>
<line y1="-0.1" x2="3.79855" y2="-0.1" transform="matrix(0.941179 -0.337908 -0.337908 -0.941179 129.178 39.4332)" stroke="white" stroke-opacity="0.81" stroke-width="0.2"/>
<line y1="-0.1" x2="4.04275" y2="-0.1" transform="matrix(0.704821 -0.709385 -0.709385 -0.704821 126.469 42.3109)" stroke="white" stroke-opacity="0.81" stroke-width="0.2"/>
<line y1="-0.1" x2="3.78324" y2="-0.1" transform="matrix(0.847795 -0.530324 -0.530324 -0.847795 123.398 44.3269)" stroke="white" stroke-opacity="0.81" stroke-width="0.2"/>
<line y1="-0.1" x2="3.05965" y2="-0.1" transform="matrix(0.997564 0.0697564 0.0697564 -0.997564 120.486 44.123)" stroke="white" stroke-opacity="0.81" stroke-width="0.2"/>
<line y1="-0.1" x2="3.05015" y2="-0.1" transform="matrix(0.472977 -0.881075 -0.881075 -0.472977 119.182 46.8202)" stroke="white" stroke-opacity="0.81" stroke-width="0.2"/>
<line y1="-0.1" x2="4.34706" y2="-0.1" transform="matrix(0.998289 -0.0584767 -0.0584767 -0.998289 114.982 47.0842)" stroke="white" stroke-opacity="0.81" stroke-width="0.2"/>
<line y1="-0.1" x2="5.12883" y2="-0.1" transform="matrix(0.71201 0.702169 0.702169 -0.71201 111.469 43.4924)" stroke="white" stroke-opacity="0.81" stroke-width="0.2"/>
<line y1="-0.1" x2="3.36377" y2="-0.1" transform="matrix(-0.19295 0.981209 0.981209 0.19295 112.256 40.2017)" stroke="white" stroke-opacity="0.81" stroke-width="0.2"/>
<line y1="-0.1" x2="9.32735" y2="-0.1" transform="matrix(-0.0250643 0.999686 0.999686 0.0250643 112.629 30.887)" stroke="white" stroke-opacity="0.81" stroke-width="0.2"/>
<line y1="-0.1" x2="6.97596" y2="-0.1" transform="matrix(0.0100166 0.99995 0.99995 -0.0100166 112.697 23.921)" stroke="white" stroke-opacity="0.81" stroke-width="0.2"/>
<line y1="-0.1" x2="5.53686" y2="-0.1" transform="matrix(-0.931832 0.362889 0.362889 0.931832 161.254 27.3167)" stroke="white" stroke-opacity="0.81" stroke-width="0.2"/>
<path d="M112.305 35.7294V38.7885L111.762 40.4637M112.305 35.7294L113.471 32.3061M112.305 35.7294L111.431 37.8416L107.498 43.0857M113.471 32.3061L112.305 29.0286M113.471 32.3061L111.069 35.3652M112.305 29.0286V21.3809L111.069 20.447M112.305 29.0286L109.319 25.2411M112.305 29.0286L110.159 31.8691M112.305 29.0286L109.465 27.062M112.305 29.0286H106.697L103.929 30.1211M107.498 18.1033L102.545 19.6351M95.7718 26.5522H105.022M111.069 20.447L105.75 16.4281H94.9706L93.0769 17.8278L98.1025 19.5088L100.433 20.2884L102.545 19.6351M111.069 20.447L109.319 25.2411M109.319 25.2411L105.022 26.5522M105.022 26.5522L102.545 19.6351M109.829 32.3061L110.159 31.8691M110.159 31.8691L111.069 32.3061M111.069 32.3061V35.3652M111.069 32.3061L109.319 37.8416M111.069 35.3652L109.319 37.8416M109.319 37.8416L107.498 43.0857M109.319 37.8416L108.048 39.5168M107.498 43.0857L111.762 40.4637M107.498 43.0857L111.16 42.321M107.498 43.0857L105.523 49.7865M107.498 43.0857L104.995 39.5168M107.498 43.0857L104.512 44.1782M111.762 40.4637L111.16 42.321M111.16 42.321L110.557 44.1782L107.498 48.257L105.523 49.7865M105.523 49.7865L104.77 50.3692M103.565 37.4774L104.221 35.3652L102.181 32.6703M103.565 37.4774L102.982 38.7885M103.565 37.4774L104.995 39.5168M102.181 32.6703L105.75 35.3652M102.181 32.6703L103.929 30.1211M102.181 32.6703V35.9115M103.929 30.1211L102.982 29.0286L101.307 31.505V37.4774L102.105 39.007M102.181 39.1526V35.9115M102.181 39.1526L101.89 40.318M102.181 39.1526L102.105 39.007M102.181 39.1526L100.506 40.755M102.982 38.7885L102.181 35.9115M102.982 38.7885L104.512 44.1782M102.982 38.7885V40.0266L101.89 40.318M104.512 44.1782L108.048 39.5168M104.512 44.1782L101.89 40.318M104.512 44.1782L106.187 45.4164L104.512 47.4558M104.512 44.1782L101.724 46.312M104.512 44.1782H102.618L101.89 43.9597L101.453 44.1782L100.215 44.6153M104.512 44.1782L101.234 43.0129M108.048 39.5168H104.995M104.512 47.4558L105.24 48.257L104.77 50.3692M104.512 47.4558H102.618M104.512 47.4558L101.724 46.312M104.77 50.3692L103.565 51.302M102.327 51.6074L102.982 49.7865L101.89 48.257L100.069 47.6743M97.8112 51.7531H102.982L103.565 51.302M103.565 51.302L104.075 49.4952L102.618 47.4558M102.618 47.4558H97.5198M101.724 46.312L101.671 46.2905H101.162L101.963 45.2708L101.234 43.0129M99.8505 40.9007V40.755L100.215 40.9007L100.506 40.755M100.506 40.755L101.234 43.0129M101.234 43.0129L100.215 43.5227M102.105 39.007L100.215 39.6625M102.105 39.007L100.215 40.4637" stroke="white" stroke-opacity="0.81" stroke-width="0.2"/>
</svg>
