<svg width="164" height="164" viewBox="0 0 164 164" fill="none" xmlns="http://www.w3.org/2000/svg">
<g filter="url(#filter0_f)">
<path d="M162 82C162 126.183 126.183 162 82 162C37.8172 162 2 126.183 2 82C2 37.8172 37.8172 2 82 2C126.183 2 162 37.8172 162 82ZM9.67422 82C9.67422 121.944 42.0556 154.326 82 154.326C121.944 154.326 154.326 121.944 154.326 82C154.326 42.0556 121.944 9.67422 82 9.67422C42.0556 9.67422 9.67422 42.0556 9.67422 82Z" fill="#E6E6E6" fill-opacity="0.5"/>
</g>
<path d="M162 82C162 93.6633 159.45 105.186 154.528 115.76C149.606 126.334 142.432 135.703 133.507 143.213C124.583 150.722 114.125 156.189 102.865 159.231C91.6052 162.273 79.8166 162.816 68.3249 160.823L69.6367 153.261C80.026 155.064 90.6838 154.573 100.863 151.823C111.043 149.072 120.498 144.13 128.566 137.341C136.634 130.552 143.121 122.081 147.57 112.521C152.02 102.961 154.326 92.5445 154.326 82H162Z" fill="#49F1FE"/>
<defs>
<filter id="filter0_f" x="0" y="0" width="164" height="164" filterUnits="userSpaceOnUse" color-interpolation-filters="sRGB">
<feFlood flood-opacity="0" result="BackgroundImageFix"/>
<feBlend mode="normal" in="SourceGraphic" in2="BackgroundImageFix" result="shape"/>
<feGaussianBlur stdDeviation="1" result="effect1_foregroundBlur"/>
</filter>
</defs>
</svg>
