<svg width="164" height="164" viewBox="0 0 164 164" fill="none" xmlns="http://www.w3.org/2000/svg">
<g filter="url(#filter0_f)">
<path d="M162 82C162 126.183 126.183 162 82 162C37.8172 162 2 126.183 2 82C2 37.8172 37.8172 2 82 2C126.183 2 162 37.8172 162 82ZM9.67422 82C9.67422 121.944 42.0556 154.326 82 154.326C121.944 154.326 154.326 121.944 154.326 82C154.326 42.0556 121.944 9.67422 82 9.67422C42.0556 9.67422 9.67422 42.0556 9.67422 82Z" fill="#E6E6E6" fill-opacity="0.5"/>
</g>
<path d="M162 82C162 95.1561 158.755 108.109 152.554 119.712C146.352 131.314 137.385 141.208 126.446 148.518C115.507 155.827 102.934 160.325 89.8414 161.615C76.7486 162.904 63.54 160.945 51.3853 155.91C39.2307 150.876 28.5053 142.921 20.1592 132.751C11.813 122.582 6.1038 110.511 3.53718 97.6072C0.970554 84.7039 1.62576 71.3668 5.44477 58.7772C9.26378 46.1876 16.1287 34.7342 25.4315 25.4315L30.8579 30.858C22.4476 39.2683 16.2412 49.623 12.7885 61.0049C9.33588 72.3868 8.74352 84.4446 11.0639 96.1101C13.3844 107.776 18.5459 118.689 26.0914 127.883C33.6369 137.077 43.3335 144.269 54.3221 148.82C65.3108 153.372 77.2524 155.143 89.0892 153.978C100.926 152.812 112.293 148.745 122.182 142.137C132.072 135.529 140.179 126.584 145.786 116.094C151.392 105.605 154.326 93.894 154.326 82H162Z" fill="#49F1FE"/>
<defs>
<filter id="filter0_f" x="0" y="0" width="164" height="164" filterUnits="userSpaceOnUse" color-interpolation-filters="sRGB">
<feFlood flood-opacity="0" result="BackgroundImageFix"/>
<feBlend mode="normal" in="SourceGraphic" in2="BackgroundImageFix" result="shape"/>
<feGaussianBlur stdDeviation="1" result="effect1_foregroundBlur"/>
</filter>
</defs>
</svg>
