<svg width="388" height="674" viewBox="0 0 388 674" fill="none" xmlns="http://www.w3.org/2000/svg">
<g opacity="0.4">
<path d="M-87.6975 365.795L-88.3105 423.326L-78.4284 454.94M-87.6975 365.795L-108.928 301.182M-87.6975 365.795L-71.6834 405.694L1.23373 505.106M-108.928 301.182L-86.3547 239.776M-108.928 301.182L-64.3803 359.194M-86.3547 239.776L-84.8221 95.949L-61.3908 78.6344M-86.3547 239.776L-29.4348 169.146M-86.3547 239.776L-46.5611 293.627M-86.3547 239.776L-32.5392 203.361M-86.3547 239.776L19.1183 240.9L70.951 262.001M6.24009 35.2722L99.0781 65.0725M225.081 196.517L51.1195 194.663M-61.3908 78.6344L39.4505 4.11759L242.178 6.27777L277.512 32.9808L182.66 63.5872L138.671 77.7814L99.0781 65.0725M-61.3908 78.6344L-29.4348 169.146M-29.4348 169.146L51.1195 194.663M51.1195 194.663L99.0781 65.0725M-40.439 301.912L-46.5611 293.627M-46.5611 293.627L-63.7673 301.663M-63.7673 301.663L-64.3803 359.194M-63.7673 301.663L-31.9599 406.117M-64.3803 359.194L-31.9599 406.117M-31.9599 406.117L1.23373 505.106M-31.9599 406.117L-8.39528 437.877M1.23373 505.106L-78.4284 454.94M1.23373 505.106L-67.4722 489.99M1.23373 505.106L37.0462 631.522M1.23373 505.106L49.0195 438.489M1.23373 505.106L57.1757 526.252M-78.4284 454.94L-67.4722 489.99M-67.4722 489.99L-56.5159 525.04L0.197428 602.361L37.0462 631.522M37.0462 631.522L51.0838 642.631M76.3257 400.422L64.4209 360.567L103.315 310.294M76.3257 400.422L87.0212 425.194M76.3257 400.422L49.0195 438.489M103.315 310.294L35.6556 360.26M103.315 310.294L70.951 262.001M103.315 310.294L102.665 371.249M70.951 262.001L88.977 241.644L119.986 288.552L118.789 400.874L103.474 429.48M102.016 432.204L102.665 371.249M102.016 432.204L107.261 454.179M102.016 432.204L103.474 429.48M102.016 432.204L133.2 462.675M87.0212 425.194L102.665 371.249M87.0212 425.194L57.1757 526.252M87.0212 425.194L86.7731 448.481L107.261 454.179M57.1757 526.252L-8.39528 437.877M57.1757 526.252L107.261 454.179M57.1757 526.252L25.4227 549.202L56.5189 587.892M57.1757 526.252L109.182 566.939M57.1757 526.252L92.79 526.631L106.532 522.668L114.706 526.865L137.905 535.331M57.1757 526.252L119.049 504.992M-8.39528 437.877L49.0195 438.489M56.5189 587.892L42.6606 602.813L51.0838 642.631M56.5189 587.892L92.1332 588.271M56.5189 587.892L109.182 566.939M51.0838 642.631L73.5553 660.415M96.7803 666.407L84.8172 632.031L105.67 603.485L140.032 592.891M181.677 670.051L84.4231 669.015L73.5553 660.415M73.5553 660.415L64.3289 626.333L92.1332 588.271M92.1332 588.271L188.018 589.293M109.182 566.939L110.174 566.544L119.762 566.647L104.899 547.309L119.049 504.992M145.498 465.546L145.528 462.806L138.65 465.473L133.2 462.675M133.2 462.675L119.049 504.992M119.049 504.992L138.124 514.785M103.474 429.48L138.898 442.186M103.474 429.48L138.737 457.254" stroke="#30A5AE" stroke-opacity="0.5" stroke-width="4"/>
<path d="M360.696 365.792L361.309 423.322L351.426 454.936M360.696 365.792L381.926 301.179M360.696 365.792L344.681 405.69L271.764 505.103M381.926 301.179L359.353 239.772M381.926 301.179L337.378 359.19M359.353 239.772L357.82 95.9452L334.389 78.6306M359.353 239.772L302.433 169.142M359.353 239.772L319.559 293.623M359.353 239.772L305.537 203.357M359.353 239.772L253.88 240.896L202.047 261.997M266.758 35.2684L173.92 65.0687M47.9166 196.513L221.879 194.659M334.389 78.6306L233.548 4.11381L30.8202 6.27398L-4.51351 32.9771L90.3381 63.5834L134.327 77.7776L173.92 65.0687M334.389 78.6306L302.433 169.142M302.433 169.142L221.879 194.659M221.879 194.659L173.92 65.0687M313.437 301.908L319.559 293.623M319.559 293.623L336.765 301.66M336.765 301.66L337.378 359.19M336.765 301.66L304.958 406.114M337.378 359.19L304.958 406.114M304.958 406.114L271.764 505.103M304.958 406.114L281.393 437.873M271.764 505.103L351.426 454.936M271.764 505.103L340.47 489.986M271.764 505.103L235.952 631.518M271.764 505.103L223.979 438.485M271.764 505.103L215.822 526.248M351.426 454.936L340.47 489.986M340.47 489.986L329.514 525.036L272.801 602.357L235.952 631.518M235.952 631.518L221.914 642.627M196.672 400.418L208.577 360.563L169.683 310.29M196.672 400.418L185.977 425.191M196.672 400.418L223.979 438.485M169.683 310.29L237.342 360.256M169.683 310.29L202.047 261.997M169.683 310.29L170.333 371.245M202.047 261.997L184.021 241.64L153.012 288.548L154.209 400.87L169.524 429.476M170.982 432.2L170.333 371.245M170.982 432.2L165.737 454.175M170.982 432.2L169.524 429.476M170.982 432.2L139.798 462.671M185.977 425.191L170.333 371.245M185.977 425.191L215.822 526.248M185.977 425.191L186.225 448.477L165.737 454.175M215.822 526.248L281.393 437.873M215.822 526.248L165.737 454.175M215.822 526.248L247.575 549.198L216.479 587.888M215.822 526.248L163.816 566.935M215.822 526.248L180.208 526.627L166.466 522.664L158.292 526.861L135.093 535.328M215.822 526.248L153.949 504.988M281.393 437.873L223.979 438.485M216.479 587.888L230.337 602.809L221.914 642.627M216.479 587.888L180.865 588.267M216.479 587.888L163.816 566.935M221.914 642.627L199.443 660.411M176.218 666.403L188.181 632.027L167.328 603.481L132.966 592.888M91.3206 670.048L188.575 669.011L199.443 660.411M199.443 660.411L208.669 626.329L180.865 588.267M180.865 588.267L84.9803 589.289M163.816 566.935L162.824 566.541L153.236 566.643L168.099 547.305L153.949 504.988M127.5 465.542L127.47 462.802L134.349 465.469L139.798 462.671M139.798 462.671L153.949 504.988M153.949 504.988L134.874 514.781M169.524 429.476L134.1 442.183M169.524 429.476L134.261 457.25" stroke="#30A5AE" stroke-opacity="0.5" stroke-width="4"/>
</g>
</svg>
