<svg width="22" height="30" viewBox="0 0 22 30" fill="none" xmlns="http://www.w3.org/2000/svg">
<g clip-path="url(#clip0)">
<path d="M7.11449 15.1482C7.8042 15.1482 8.36334 15.7071 8.36334 16.3966V21.7517C8.36334 22.4411 7.8042 22.9999 7.11449 22.9999C6.42486 22.9999 5.86572 22.4411 5.86572 21.7517V16.3966C5.86572 15.7072 6.42486 15.1483 7.11449 15.1483V15.1482Z" fill="#A4C639"/>
<path d="M4.26333 8.70972C4.25921 8.75705 4.25562 8.80492 4.25562 8.8533V16.9668C4.25562 17.8394 4.94656 18.5423 5.80429 18.5423H14.0584C14.9162 18.5423 15.6072 17.8393 15.6072 16.9668V8.8533C15.6072 8.80492 15.6054 8.75688 15.6014 8.70972H4.26333Z" fill="#A4C639"/>
<path d="M12.7485 15.1482C13.4383 15.1482 13.9974 15.7071 13.9974 16.3965V21.7517C13.9974 22.4411 13.4383 23 12.7485 23C12.0589 23 11.4998 22.4411 11.4998 21.7517V16.3965C11.4998 15.7072 12.0589 15.1483 12.7485 15.1483V15.1482ZM2.2491 9.4319C2.93872 9.4319 3.49786 9.99082 3.49786 10.6803V16.0354C3.49786 16.7248 2.93872 17.2838 2.2491 17.2838C1.55938 17.2838 1.00024 16.7248 1.00024 16.0355V10.6803C1.00016 9.9909 1.55929 9.4319 2.2491 9.4319ZM17.6139 9.4319C18.3035 9.4319 18.8627 9.99082 18.8627 10.6803V16.0354C18.8627 16.7248 18.3035 17.2838 17.6139 17.2838C16.9242 17.2838 16.365 16.7248 16.365 16.0355V10.6803C16.365 9.9909 16.9242 9.4319 17.6139 9.4319ZM4.29982 8.17687C4.33455 5.68471 6.51059 3.64136 9.30383 3.37207H10.5589C13.3523 3.64145 15.5282 5.68488 15.5629 8.17687H4.29982Z" fill="#A4C639"/>
<path d="M8.25385 5.94346C8.2549 6.29182 7.96648 6.57505 7.60956 6.57601C7.25282 6.57689 6.96272 6.29533 6.96167 5.94697V5.94346C6.96071 5.59502 7.24914 5.31188 7.60596 5.31092C7.96271 5.30995 8.2528 5.59142 8.25385 5.93996V5.94346ZM13.0767 5.94346C13.0778 6.29182 12.7893 6.57505 12.4324 6.57601C12.0757 6.57689 11.7856 6.29533 11.7845 5.94697V5.94346C11.7836 5.59502 12.072 5.31188 12.4288 5.31092C12.7856 5.30995 13.0756 5.59142 13.0767 5.93996V5.94346Z" fill="white"/>
</g>
<defs>
<clipPath id="clip0">
<rect width="17.863" height="20" fill="white" transform="translate(1 3)"/>
</clipPath>
</defs>
</svg>
