<svg width="32" height="32" viewBox="0 0 32 32" fill="none" xmlns="http://www.w3.org/2000/svg">
<g clip-path="url(#clip0)">
<path d="M28.9673 23.373C28.8812 23.6145 28.7978 23.8738 28.7018 24.1286C27.9071 26.2662 26.7007 28.1641 25.2368 29.9033C24.9543 30.2419 24.6251 30.5484 24.2851 30.8327C23.6133 31.3976 22.8401 31.7388 21.9459 31.77C21.274 31.7914 20.6291 31.6702 20.0075 31.419C19.5573 31.2363 19.1142 31.0322 18.6576 30.8674C17.1758 30.3328 15.7021 30.4032 14.2445 30.9752C13.7189 31.1819 13.2005 31.41 12.665 31.5891C12.0443 31.7959 11.4003 31.8796 10.7446 31.7567C10.1723 31.6506 9.67184 31.386 9.20721 31.0447C8.63047 30.6206 8.14611 30.1038 7.69314 29.5567C5.54851 26.9585 4.10888 24.0208 3.41374 20.7303C3.11415 19.3153 2.97064 17.8888 3.05854 16.4427C3.16169 14.7087 3.56712 13.0577 4.49996 11.5697C5.67049 9.69942 7.3218 8.47426 9.49424 7.96905C10.8011 7.66343 12.0721 7.78818 13.318 8.26487C13.9737 8.51436 14.6311 8.76117 15.2895 9.0062C15.8959 9.23252 16.4995 9.23252 17.1068 9.00175C17.7786 8.74692 18.4513 8.49297 19.1258 8.24438C19.8174 7.994 20.5206 7.78907 21.2543 7.73115C22.3522 7.64294 23.4232 7.78461 24.4654 8.13122C25.9427 8.62217 27.1447 9.49092 28.0524 10.7562C28.0766 10.7909 28.1035 10.8292 28.1214 10.8569C25.8324 12.442 24.5291 14.5359 24.7184 17.3711C24.9094 20.2081 26.4468 22.1274 28.9673 23.373ZM16.1273 7.38009C16.8027 7.39791 17.4521 7.26871 18.0773 7.0219C20.9287 5.89743 22.4195 2.90092 22.3746 0.609217C22.371 0.424776 22.3585 0.240334 22.3504 0.0264893C22.0571 0.0701493 21.7898 0.0906428 21.5333 0.154796C19.4514 0.661788 17.8494 1.81566 16.7964 3.68413C16.1802 4.77831 15.8376 5.9402 15.9425 7.2099C15.9497 7.34445 15.999 7.37831 16.1273 7.38009Z" fill="white" fill-opacity="0.5"/>
</g>
<defs>
<clipPath id="clip0">
<rect width="32" height="31.7881" fill="white" transform="translate(0 0.0264893)"/>
</clipPath>
</defs>
</svg>
