<svg width="26" height="24" viewBox="0 0 26 24" fill="none" xmlns="http://www.w3.org/2000/svg">
<g clip-path="url(#clip0)">
<path d="M24.7052 0L14.5601 7.45285L16.4361 3.05577L24.7052 0Z" fill="#E2761B" stroke="#E2761B" stroke-linecap="round" stroke-linejoin="round"/>
<path d="M1.28467 0L11.3482 7.52345L9.56388 3.05577L1.28467 0Z" fill="#E4761B" stroke="#E4761B" stroke-linecap="round" stroke-linejoin="round"/>
<path d="M21.055 17.2758L18.353 21.3703L24.1342 22.9436L25.7962 17.3665L21.055 17.2758Z" fill="#E4761B" stroke="#E4761B" stroke-linecap="round" stroke-linejoin="round"/>
<path d="M0.214111 17.3665L1.86588 22.9436L7.64705 21.3703L4.94509 17.2758L0.214111 17.3665Z" fill="#E4761B" stroke="#E4761B" stroke-linecap="round" stroke-linejoin="round"/>
<path d="M7.3207 10.3573L5.70972 12.7677L11.4501 13.0198L11.2462 6.91833L7.3207 10.3573Z" fill="#E4761B" stroke="#E4761B" stroke-linecap="round" stroke-linejoin="round"/>
<path d="M18.6691 10.3574L14.6926 6.84778L14.5601 13.0198L20.2903 12.7677L18.6691 10.3574Z" fill="#E4761B" stroke="#E4761B" stroke-linecap="round" stroke-linejoin="round"/>
<path d="M7.64697 21.3702L11.0932 19.7061L8.11599 17.4067L7.64697 21.3702Z" fill="#E4761B" stroke="#E4761B" stroke-linecap="round" stroke-linejoin="round"/>
<path d="M14.8965 19.7061L18.353 21.3702L17.8737 17.4067L14.8965 19.7061Z" fill="#E4761B" stroke="#E4761B" stroke-linecap="round" stroke-linejoin="round"/>
<path d="M18.353 21.3702L14.8965 19.7062L15.1718 21.935L15.1412 22.8729L18.353 21.3702Z" fill="#D7C1B3" stroke="#D7C1B3" stroke-linecap="round" stroke-linejoin="round"/>
<path d="M7.64697 21.3702L10.8587 22.8729L10.8383 21.935L11.0932 19.7062L7.64697 21.3702Z" fill="#D7C1B3" stroke="#D7C1B3" stroke-linecap="round" stroke-linejoin="round"/>
<path d="M10.9097 15.9344L8.03442 15.0973L10.0634 14.1796L10.9097 15.9344Z" fill="#233447" stroke="#233447" stroke-linecap="round" stroke-linejoin="round"/>
<path d="M15.0801 15.9344L15.9264 14.1796L17.9656 15.0973L15.0801 15.9344Z" fill="#233447" stroke="#233447" stroke-linecap="round" stroke-linejoin="round"/>
<path d="M7.64703 21.3703L8.13644 17.2758L4.94507 17.3665L7.64703 21.3703Z" fill="#CD6116" stroke="#CD6116" stroke-linecap="round" stroke-linejoin="round"/>
<path d="M17.8635 17.2758L18.3529 21.3703L21.0549 17.3665L17.8635 17.2758Z" fill="#CD6116" stroke="#CD6116" stroke-linecap="round" stroke-linejoin="round"/>
<path d="M20.2903 12.7677L14.5601 13.0198L15.0903 15.9344L15.9365 14.1796L17.9757 15.0973L20.2903 12.7677Z" fill="#CD6116" stroke="#CD6116" stroke-linecap="round" stroke-linejoin="round"/>
<path d="M8.03442 15.0973L10.0736 14.1796L10.9097 15.9344L11.4501 13.0198L5.70972 12.7677L8.03442 15.0973Z" fill="#CD6116" stroke="#CD6116" stroke-linecap="round" stroke-linejoin="round"/>
<path d="M5.70972 12.7677L8.11599 17.4068L8.03442 15.0973L5.70972 12.7677Z" fill="#E4751F" stroke="#E4751F" stroke-linecap="round" stroke-linejoin="round"/>
<path d="M17.9755 15.0973L17.8735 17.4068L20.29 12.7677L17.9755 15.0973Z" fill="#E4751F" stroke="#E4751F" stroke-linecap="round" stroke-linejoin="round"/>
<path d="M11.4501 13.0194L10.9097 15.934L11.5826 19.373L11.7355 14.8448L11.4501 13.0194Z" fill="#E4751F" stroke="#E4751F" stroke-linecap="round" stroke-linejoin="round"/>
<path d="M14.56 13.0194L14.2847 14.8347L14.407 19.373L15.0902 15.934L14.56 13.0194Z" fill="#E4751F" stroke="#E4751F" stroke-linecap="round" stroke-linejoin="round"/>
<path d="M15.0901 15.9343L14.407 19.3733L14.8964 19.7062L17.8737 17.4068L17.9756 15.0973L15.0901 15.9343Z" fill="#F6851B" stroke="#F6851B" stroke-linecap="round" stroke-linejoin="round"/>
<path d="M8.03442 15.0973L8.11599 17.4068L11.0932 19.7062L11.5827 19.3733L10.9097 15.9343L8.03442 15.0973Z" fill="#F6851B" stroke="#F6851B" stroke-linecap="round" stroke-linejoin="round"/>
<path d="M15.1411 22.8729L15.1717 21.935L14.9168 21.7131H11.0729L10.8383 21.935L10.8587 22.8729L7.64697 21.3702L8.76854 22.2779L11.0423 23.8411H14.9474L17.2313 22.2779L18.3529 21.3702L15.1411 22.8729Z" fill="#C0AD9E" stroke="#C0AD9E" stroke-linecap="round" stroke-linejoin="round"/>
<path d="M14.8964 19.7062L14.407 19.3734H11.5827L11.0933 19.7062L10.8384 21.935L11.0729 21.7131H14.9168L15.1717 21.935L14.8964 19.7062Z" fill="#161616" stroke="#161616" stroke-linecap="round" stroke-linejoin="round"/>
<path d="M25.1333 7.93693L26 3.82223L24.7051 0L14.8965 7.20073L18.669 10.3573L24.0016 11.9004L25.1843 10.5389L24.6745 10.1758L25.4902 9.43961L24.8581 8.95553L25.6737 8.34034L25.1333 7.93693Z" fill="#763D16" stroke="#763D16" stroke-linecap="round" stroke-linejoin="round"/>
<path d="M0 3.82223L0.866667 7.93693L0.316078 8.34034L1.13176 8.95553L0.509804 9.43961L1.32549 10.1758L0.815686 10.5389L1.98824 11.9004L7.32078 10.3573L11.0933 7.20073L1.28471 0L0 3.82223Z" fill="#763D16" stroke="#763D16" stroke-linecap="round" stroke-linejoin="round"/>
<path d="M24.0016 11.9004L18.6691 10.3574L20.2903 12.7677L17.8738 17.4069L21.055 17.3665H25.7961L24.0016 11.9004Z" fill="#F6851B" stroke="#F6851B" stroke-linecap="round" stroke-linejoin="round"/>
<path d="M7.32078 10.3574L1.98823 11.9004L0.214111 17.3665H4.94509L8.11607 17.4069L5.7098 12.7677L7.32078 10.3574Z" fill="#F6851B" stroke="#F6851B" stroke-linecap="round" stroke-linejoin="round"/>
<path d="M14.56 13.0198L14.8965 7.20074L16.4463 3.05579H9.56396L11.0934 7.20074L11.4502 13.0198L11.5726 14.8553L11.5828 19.3734H14.4071L14.4275 14.8553L14.56 13.0198Z" fill="#F6851B" stroke="#F6851B" stroke-linecap="round" stroke-linejoin="round"/>
</g>
<defs>
<clipPath id="clip0">
<rect width="26" height="23.8411" fill="white"/>
</clipPath>
</defs>
</svg>
