<svg width="609" height="489" viewBox="0 0 609 489" fill="none" xmlns="http://www.w3.org/2000/svg">
<path d="M64.3254 479.709C64.3254 481.479 63.9591 482.832 63.2267 483.77C62.4943 484.707 61.422 485.176 60.0099 485.176C58.6154 485.176 57.549 484.716 56.8107 483.796C56.0724 482.876 55.6945 481.558 55.6769 479.841V477.485C55.6769 475.698 56.0461 474.342 56.7843 473.416C57.5285 472.49 58.5978 472.027 59.9923 472.027C61.3869 472.027 62.4533 472.487 63.1916 473.407C63.9298 474.321 64.3078 475.637 64.3254 477.354V479.709ZM61.7853 477.125C61.7853 476.064 61.6388 475.294 61.3459 474.813C61.0588 474.327 60.6076 474.084 59.9923 474.084C59.3947 474.084 58.9523 474.315 58.6652 474.778C58.3839 475.235 58.2345 475.953 58.217 476.932V480.043C58.217 481.086 58.3576 481.862 58.6388 482.372C58.9259 482.876 59.383 483.128 60.0099 483.128C60.631 483.128 61.0793 482.885 61.3546 482.398C61.63 481.912 61.7736 481.168 61.7853 480.166V477.125ZM69.9753 483.752C69.9753 483.348 70.1101 483.02 70.3796 482.768C70.655 482.516 70.9978 482.39 71.4079 482.39C71.8239 482.39 72.1667 482.516 72.4363 482.768C72.7116 483.02 72.8493 483.348 72.8493 483.752C72.8493 484.15 72.7146 484.476 72.445 484.728C72.1755 484.974 71.8298 485.097 71.4079 485.097C70.9919 485.097 70.6491 484.974 70.3796 484.728C70.1101 484.476 69.9753 484.15 69.9753 483.752ZM87.2796 479.709C87.2796 481.479 86.9134 482.832 86.1809 483.77C85.4485 484.707 84.3763 485.176 82.9641 485.176C81.5696 485.176 80.5032 484.716 79.7649 483.796C79.0266 482.876 78.6487 481.558 78.6311 479.841V477.485C78.6311 475.698 79.0003 474.342 79.7386 473.416C80.4827 472.49 81.552 472.027 82.9466 472.027C84.3411 472.027 85.4075 472.487 86.1458 473.407C86.8841 474.321 87.262 475.637 87.2796 477.354V479.709ZM84.7395 477.125C84.7395 476.064 84.593 475.294 84.3001 474.813C84.013 474.327 83.5618 474.084 82.9466 474.084C82.3489 474.084 81.9065 474.315 81.6194 474.778C81.3382 475.235 81.1888 475.953 81.1712 476.932V480.043C81.1712 481.086 81.3118 481.862 81.593 482.372C81.8802 482.876 82.3372 483.128 82.9641 483.128C83.5852 483.128 84.0335 482.885 84.3089 482.398C84.5843 481.912 84.7278 481.168 84.7395 480.166V477.125ZM98.8621 485H96.3221V475.209L93.2899 476.149V474.084L98.5897 472.186H98.8621V485Z" fill="white"/>
<path d="M147.325 479.709C147.325 481.479 146.959 482.832 146.227 483.77C145.494 484.707 144.422 485.176 143.01 485.176C141.615 485.176 140.549 484.716 139.811 483.796C139.072 482.876 138.694 481.558 138.677 479.841V477.485C138.677 475.698 139.046 474.342 139.784 473.416C140.528 472.49 141.598 472.027 142.992 472.027C144.387 472.027 145.453 472.487 146.192 473.407C146.93 474.321 147.308 475.637 147.325 477.354V479.709ZM144.785 477.125C144.785 476.064 144.639 475.294 144.346 474.813C144.059 474.327 143.608 474.084 142.992 474.084C142.395 474.084 141.952 474.315 141.665 474.778C141.384 475.235 141.235 475.953 141.217 476.932V480.043C141.217 481.086 141.358 481.862 141.639 482.372C141.926 482.876 142.383 483.128 143.01 483.128C143.631 483.128 144.079 482.885 144.355 482.398C144.63 481.912 144.774 481.168 144.785 480.166V477.125ZM152.975 483.752C152.975 483.348 153.11 483.02 153.38 482.768C153.655 482.516 153.998 482.39 154.408 482.39C154.824 482.39 155.167 482.516 155.436 482.768C155.712 483.02 155.849 483.348 155.849 483.752C155.849 484.15 155.715 484.476 155.445 484.728C155.176 484.974 154.83 485.097 154.408 485.097C153.992 485.097 153.649 484.974 153.38 484.728C153.11 484.476 152.975 484.15 152.975 483.752ZM167.836 485H165.296V475.209L162.264 476.149V474.084L167.564 472.186H167.836V485ZM184.033 475.604C184.033 476.226 183.878 476.776 183.567 477.257C183.257 477.737 182.829 478.121 182.284 478.408C182.905 478.707 183.397 479.12 183.761 479.647C184.124 480.169 184.306 480.784 184.306 481.493C184.306 482.63 183.919 483.529 183.145 484.191C182.372 484.848 181.32 485.176 179.99 485.176C178.66 485.176 177.605 484.845 176.826 484.183C176.047 483.521 175.657 482.624 175.657 481.493C175.657 480.784 175.839 480.166 176.202 479.639C176.565 479.111 177.055 478.701 177.67 478.408C177.125 478.121 176.697 477.737 176.387 477.257C176.082 476.776 175.93 476.226 175.93 475.604C175.93 474.515 176.293 473.647 177.019 473.003C177.746 472.353 178.733 472.027 179.981 472.027C181.223 472.027 182.208 472.35 182.934 472.994C183.667 473.633 184.033 474.503 184.033 475.604ZM181.757 481.309C181.757 480.752 181.596 480.307 181.273 479.973C180.951 479.639 180.517 479.472 179.972 479.472C179.433 479.472 179.003 479.639 178.681 479.973C178.358 480.301 178.197 480.746 178.197 481.309C178.197 481.854 178.355 482.293 178.672 482.627C178.988 482.961 179.428 483.128 179.99 483.128C180.541 483.128 180.972 482.967 181.282 482.645C181.598 482.322 181.757 481.877 181.757 481.309ZM181.493 475.728C181.493 475.229 181.361 474.831 181.097 474.532C180.834 474.228 180.462 474.075 179.981 474.075C179.507 474.075 179.138 474.222 178.874 474.515C178.61 474.808 178.478 475.212 178.478 475.728C178.478 476.237 178.61 476.647 178.874 476.958C179.138 477.269 179.51 477.424 179.99 477.424C180.471 477.424 180.84 477.269 181.097 476.958C181.361 476.647 181.493 476.237 181.493 475.728Z" fill="white"/>
<path d="M227.882 485H225.342V475.209L222.31 476.149V474.084L227.61 472.186H227.882V485ZM235.975 483.752C235.975 483.348 236.11 483.02 236.38 482.768C236.655 482.516 236.998 482.39 237.408 482.39C237.824 482.39 238.167 482.516 238.436 482.768C238.712 483.02 238.849 483.348 238.849 483.752C238.849 484.15 238.715 484.476 238.445 484.728C238.176 484.974 237.83 485.097 237.408 485.097C236.992 485.097 236.649 484.974 236.38 484.728C236.11 484.476 235.975 484.15 235.975 483.752ZM252.181 480.184H253.631V482.231H252.181V485H249.641V482.231H244.394L244.28 480.632L249.615 472.203H252.181V480.184ZM246.811 480.184H249.641V475.666L249.474 475.956L246.811 480.184ZM267.464 485H258.692V483.26L262.832 478.848C263.4 478.227 263.819 477.685 264.089 477.222C264.364 476.759 264.502 476.319 264.502 475.903C264.502 475.335 264.358 474.89 264.071 474.567C263.784 474.239 263.374 474.075 262.841 474.075C262.266 474.075 261.812 474.274 261.478 474.673C261.15 475.065 260.986 475.584 260.986 476.229H258.437C258.437 475.449 258.622 474.737 258.991 474.093C259.366 473.448 259.893 472.944 260.573 472.581C261.253 472.212 262.023 472.027 262.885 472.027C264.203 472.027 265.225 472.344 265.952 472.977C266.684 473.609 267.051 474.503 267.051 475.657C267.051 476.29 266.887 476.935 266.558 477.591C266.23 478.247 265.668 479.012 264.871 479.885L261.962 482.952H267.464V485Z" fill="white"/>
<path d="M319.24 480.184H320.69V482.231H319.24V485H316.7V482.231H311.453L311.338 480.632L316.673 472.203H319.24V480.184ZM313.87 480.184H316.7V475.666L316.533 475.956L313.87 480.184ZM325.988 483.752C325.988 483.348 326.123 483.02 326.393 482.768C326.668 482.516 327.011 482.39 327.421 482.39C327.837 482.39 328.18 482.516 328.449 482.768C328.725 483.02 328.862 483.348 328.862 483.752C328.862 484.15 328.728 484.476 328.458 484.728C328.188 484.974 327.843 485.097 327.421 485.097C327.005 485.097 326.662 484.974 326.393 484.728C326.123 484.476 325.988 484.15 325.988 483.752ZM342.194 480.184H343.644V482.231H342.194V485H339.654V482.231H334.407L334.293 480.632L339.628 472.203H342.194V480.184ZM336.824 480.184H339.654V475.666L339.487 475.956L336.824 480.184Z" fill="white"/>
<path d="M395.227 480.184H396.677V482.231H395.227V485H392.687V482.231H387.44L387.325 480.632L392.66 472.203H395.227V480.184ZM389.857 480.184H392.687V475.666L392.52 475.956L389.857 480.184ZM407.908 485H405.368V475.209L402.336 476.149V474.084L407.635 472.186H407.908V485ZM416.001 483.752C416.001 483.348 416.136 483.02 416.406 482.768C416.681 482.516 417.024 482.39 417.434 482.39C417.85 482.39 418.193 482.516 418.462 482.768C418.738 483.02 418.875 483.348 418.875 483.752C418.875 484.15 418.741 484.476 418.471 484.728C418.201 484.974 417.856 485.097 417.434 485.097C417.018 485.097 416.675 484.974 416.406 484.728C416.136 484.476 416.001 484.15 416.001 483.752ZM433.464 485H424.692V483.26L428.832 478.848C429.4 478.227 429.819 477.685 430.089 477.222C430.364 476.759 430.502 476.319 430.502 475.903C430.502 475.335 430.358 474.89 430.071 474.567C429.784 474.239 429.374 474.075 428.841 474.075C428.266 474.075 427.812 474.274 427.478 474.673C427.15 475.065 426.986 475.584 426.986 476.229H424.437C424.437 475.449 424.622 474.737 424.991 474.093C425.366 473.448 425.893 472.944 426.573 472.581C427.253 472.212 428.023 472.027 428.885 472.027C430.203 472.027 431.225 472.344 431.952 472.977C432.684 473.609 433.051 474.503 433.051 475.657C433.051 476.29 432.887 476.935 432.558 477.591C432.23 478.247 431.668 479.012 430.871 479.885L427.962 482.952H433.464V485Z" fill="white"/>
<path d="M475.554 478.707L476.292 472.203H483.464V474.321H478.375L478.059 477.072C478.663 476.75 479.304 476.589 479.984 476.589C481.203 476.589 482.158 476.967 482.849 477.723C483.54 478.479 483.886 479.536 483.886 480.896C483.886 481.722 483.71 482.463 483.359 483.119C483.013 483.77 482.515 484.276 481.865 484.64C481.214 484.997 480.447 485.176 479.562 485.176C478.789 485.176 478.071 485.021 477.409 484.71C476.747 484.394 476.222 483.951 475.835 483.383C475.455 482.814 475.252 482.167 475.229 481.44H477.743C477.795 481.974 477.98 482.39 478.296 482.688C478.619 482.981 479.038 483.128 479.553 483.128C480.127 483.128 480.57 482.923 480.88 482.513C481.191 482.097 481.346 481.511 481.346 480.755C481.346 480.028 481.167 479.472 480.81 479.085C480.453 478.698 479.946 478.505 479.289 478.505C478.686 478.505 478.197 478.663 477.822 478.979L477.576 479.208L475.554 478.707ZM495.372 485H492.832V475.209L489.8 476.149V474.084L495.1 472.186H495.372V485ZM512 485H503.228V483.26L507.368 478.848C507.936 478.227 508.355 477.685 508.625 477.222C508.9 476.759 509.038 476.319 509.038 475.903C509.038 475.335 508.894 474.89 508.607 474.567C508.32 474.239 507.91 474.075 507.377 474.075C506.802 474.075 506.348 474.274 506.014 474.673C505.686 475.065 505.522 475.584 505.522 476.229H502.973C502.973 475.449 503.158 474.737 503.527 474.093C503.902 473.448 504.429 472.944 505.109 472.581C505.789 472.212 506.559 472.027 507.42 472.027C508.739 472.027 509.761 472.344 510.488 472.977C511.22 473.609 511.586 474.503 511.586 475.657C511.586 476.29 511.422 476.935 511.094 477.591C510.766 478.247 510.204 479.012 509.407 479.885L506.498 482.952H512V485Z" fill="white"/>
<line x1="2" y1="404" x2="609" y2="404" stroke="white" stroke-width="2"/>
<line x1="1" y1="405" x2="0.999982" y2="4.37114e-08" stroke="white" stroke-width="2"/>
<line x1="76.5" y1="416" x2="76.5" y2="459" stroke="white"/>
<line x1="160.5" y1="416" x2="160.5" y2="459" stroke="white"/>
<line x1="245.5" y1="416" x2="245.5" y2="459" stroke="white"/>
<line x1="329.5" y1="416" x2="329.5" y2="459" stroke="white"/>
<line x1="413.5" y1="416" x2="413.5" y2="459" stroke="white"/>
<line x1="498.5" y1="416" x2="498.5" y2="459" stroke="white"/>
<g filter="url(#filter0_d)">
<rect x="60.5" y="351.5" width="36" height="53" fill="#49F1FE" fill-opacity="0.03" stroke="#49F1FE"/>
<rect x="143.5" y="302.5" width="36" height="102" fill="#49F1FE" fill-opacity="0.03" stroke="#49F1FE"/>
<rect x="226.5" y="250.5" width="36" height="154" fill="#49F1FE" fill-opacity="0.03" stroke="#49F1FE"/>
<rect x="309.5" y="192.5" width="36" height="212" fill="#49F1FE" fill-opacity="0.03" stroke="#49F1FE"/>
<rect x="392.5" y="139.5" width="36" height="265" fill="#49F1FE" fill-opacity="0.03" stroke="#49F1FE"/>
<rect x="476.5" y="76.5" width="36" height="328" fill="#49F1FE" fill-opacity="0.03" stroke="#49F1FE"/>
</g>
<defs>
<filter id="filter0_d" x="54" y="70" width="465" height="341" filterUnits="userSpaceOnUse" color-interpolation-filters="sRGB">
<feFlood flood-opacity="0" result="BackgroundImageFix"/>
<feColorMatrix in="SourceAlpha" type="matrix" values="0 0 0 0 0 0 0 0 0 0 0 0 0 0 0 0 0 0 127 0"/>
<feOffset/>
<feGaussianBlur stdDeviation="3"/>
<feColorMatrix type="matrix" values="0 0 0 0 0.286275 0 0 0 0 0.945098 0 0 0 0 0.996078 0 0 0 1 0"/>
<feBlend mode="normal" in2="BackgroundImageFix" result="effect1_dropShadow"/>
<feBlend mode="normal" in="SourceGraphic" in2="effect1_dropShadow" result="shape"/>
</filter>
</defs>
</svg>
