<?xml version="1.0" encoding="utf-8"?>
<!-- Generator: Adobe Illustrator 23.0.2, SVG Export Plug-In . SVG Version: 6.00 Build 0)  -->
<svg version="1.1" id="Слой_1" xmlns="http://www.w3.org/2000/svg" xmlns:xlink="http://www.w3.org/1999/xlink" x="0px" y="0px"
	 viewBox="0 0 30 30" style="enable-background:new 0 0 30 30;" xml:space="preserve">
<style type="text/css">
	.st0{fill:#49F1FE;fill-opacity:1; padding: 50px; margin-top: -15px;}
</style>
<path class="st0" d="M22.5,9C23.3,9,24,8.3,24,7.5S23.3,6,22.5,6S21,6.7,21,7.5S21.7,9,22.5,9z"/>
<path class="st0" d="M15.5,8c-1.3,0-2.5,0.4-3.6,1.1C10.8,9.8,10,10.8,9.5,12s-0.6,2.5-0.4,3.8c0.3,1.3,0.9,2.4,1.8,3.3
	c0.9,0.9,2.1,1.5,3.3,1.8c1.3,0.3,2.6,0.1,3.8-0.4c1.2-0.5,2.2-1.3,2.9-2.4c0.7-1.1,1.1-2.3,1.1-3.6c0-1.7-0.7-3.4-1.9-4.6
	C18.9,8.7,17.2,8,15.5,8z M15.5,18.7c-0.8,0-1.7-0.2-2.3-0.7s-1.2-1.1-1.6-1.9c-0.3-0.8-0.4-1.6-0.2-2.4c0.2-0.8,0.6-1.6,1.2-2.2
	c0.6-0.6,1.3-1,2.2-1.2c0.8-0.2,1.7-0.1,2.4,0.2c0.8,0.3,1.4,0.9,1.9,1.6s0.7,1.5,0.7,2.3c0,1.1-0.4,2.2-1.2,3S16.6,18.7,15.5,18.7z
	"/>
<path class="st0" d="M15.5,4.3c3.3,0,3.7,0,5.1,0.1c0.8,0,1.6,0.2,2.3,0.4c0.5,0.2,1,0.5,1.4,0.9s0.7,0.9,0.9,1.4
	c0.3,0.7,0.4,1.5,0.4,2.3c0.1,1.3,0.1,1.7,0.1,5.1c0,3.3,0,3.7-0.1,5.1c0,0.8-0.2,1.6-0.4,2.3c-0.2,0.5-0.5,1-0.9,1.4
	s-0.9,0.7-1.4,0.9c-0.7,0.3-1.5,0.4-2.3,0.4c-1.3,0.1-1.7,0.1-5.1,0.1s-3.7,0-5.1-0.1c-0.8,0-1.6-0.2-2.3-0.4
	c-0.5-0.2-1-0.5-1.4-0.9S6,22.4,5.8,21.9c-0.3-0.7-0.4-1.5-0.4-2.3c-0.1-1.3-0.1-1.7-0.1-5.1s0-3.7,0.1-5.1c0-0.8,0.2-1.6,0.4-2.3
	c0.2-0.5,0.5-1,0.9-1.4C7.1,5.3,7.6,5,8.1,4.8c0.7-0.3,1.5-0.4,2.3-0.4C11.8,4.3,12.2,4.3,15.5,4.3L15.5,4.3z M15.5,2
	c-3.4,0-3.8,0-5.2,0.1c-1,0-2.1,0.2-3,0.6C6.5,3,5.7,3.5,5.1,4.1S4,5.5,3.7,6.3c-0.4,1-0.6,2-0.6,3C3,10.7,3,11.1,3,14.5
	s0,3.8,0.1,5.2c0,1,0.2,2.1,0.6,3c0.3,0.8,0.8,1.6,1.4,2.2s1.4,1.1,2.2,1.4c1,0.4,2,0.6,3,0.6c1.3,0.1,1.8,0.1,5.2,0.1
	s3.8,0,5.2-0.1c1,0,2.1-0.2,3-0.6c0.8-0.3,1.6-0.8,2.2-1.4s1.1-1.4,1.4-2.2c0.4-1,0.6-2,0.6-3c0.1-1.3,0.1-1.8,0.1-5.2
	s0-3.8-0.1-5.2c0-1-0.2-2.1-0.6-3c-0.3-0.8-0.8-1.6-1.4-2.2S24.5,3,23.7,2.7c-1-0.4-2-0.6-3-0.6C19.3,2,18.9,2,15.5,2z"/>
</svg>
