<svg width="68" height="120" viewBox="0 0 68 120" fill="none" xmlns="http://www.w3.org/2000/svg">
<path d="M62.3266 119.16H2.56656V115.08H2.44656C2.52656 114.92 2.56656 114.8 2.56656 114.72C2.56656 114.72 2.60656 114.72 2.68656 114.72C8.92656 105.92 15.9666 96.6 23.8066 86.76C30.0466 79 36.0466 71.2 41.8066 63.36C51.5666 49.68 56.4466 37.8 56.4466 27.72C56.4466 22.68 55.3266 18.48 53.0866 15.12C50.8466 11.76 47.9266 9.24 44.3266 7.55999C40.8066 5.88 37.0466 5.04 33.0466 5.04C26.6466 5.04 20.6066 7.2 14.9266 11.52C9.32656 15.76 5.96656 22.16 4.84656 30.72L0.526563 30.24C1.56656 21.68 5.08656 14.64 11.0866 9.12C17.0866 3.52 24.2066 0.719996 32.4466 0.719996C35.5666 0.719996 39.1266 1.4 43.1266 2.76C47.1266 4.12 50.9666 6.2 54.6466 9C58.3266 11.72 61.3666 15.24 63.7666 19.56C66.2466 23.88 67.4866 29 67.4866 34.92C67.4866 45.64 62.8466 57.76 53.5666 71.28C43.0066 86.8 32.1666 101.28 21.0466 114.72H62.3266V119.16Z" fill="#49F1FE" fill-opacity="0.25"/>
</svg>
