<svg width="75" height="120" viewBox="0 0 75 120" fill="none" xmlns="http://www.w3.org/2000/svg">
<path d="M35.7523 119.28C28.3923 119.28 21.5523 117.2 15.2323 113.04C8.51234 107.92 4.15234 101.04 2.15234 92.4C1.35234 89.04 0.952344 86.8 0.952344 85.68C0.952344 85.36 0.992344 85.2 1.07234 85.2H5.51234C5.51234 91.44 6.99234 96.8 9.95234 101.28C12.9923 105.76 16.7923 109.2 21.3523 111.6C25.9123 114 30.6323 115.2 35.5123 115.2C39.9123 115.2 44.0323 114.16 47.8723 112.08C51.7923 110 54.9523 106.72 57.3523 102.24C59.7523 97.84 60.9923 92.16 61.0723 85.2C60.9123 77.52 58.3523 70.72 53.3923 64.8C51.3123 62 48.7123 59.72 45.5923 57.96C41.3523 56.04 36.9523 55.08 32.3923 55.08C28.5523 55.08 25.0323 55.68 21.8323 56.88C18.6323 58.08 16.4323 59.72 15.2323 61.8H11.5123L11.1523 0.359994H74.9923V5.99999H15.3523V55.56C18.1523 53.4 21.3123 51.84 24.8323 50.88C28.4323 49.84 32.0723 49.32 35.7523 49.32C39.6723 49.32 43.3523 49.84 46.7923 50.88L48.3523 51.24C60.0323 55.24 67.8723 63.16 71.8723 75C72.9923 78.52 73.5523 82.04 73.5523 85.56C73.5523 89.64 72.8323 93.6 71.3924 97.44C69.9524 101.28 67.7523 104.68 64.7923 107.64C61.0323 111.4 56.5923 114.28 51.4723 116.28C46.3523 118.28 41.1123 119.28 35.7523 119.28Z" fill="#49F1FE" fill-opacity="0.25"/>
</svg>
