<svg width="74" height="119" viewBox="0 0 74 119" fill="none" xmlns="http://www.w3.org/2000/svg">
<path d="M35.3969 118.76C28.0369 118.76 21.1969 116.6 14.8769 112.28C8.63688 107.4 4.43688 101.12 2.27688 93.44L1.91688 91.76C1.03688 87.76 0.596875 85.28 0.596875 84.32C0.596875 84 0.636875 83.84 0.716875 83.84H5.15688C5.15688 90.24 6.63688 95.72 9.59688 100.28C12.6369 104.92 16.4369 108.44 20.9969 110.84C25.5569 113.32 30.2769 114.56 35.1569 114.56C39.5569 114.56 43.6769 113.48 47.5169 111.32C51.4369 109.24 54.5969 105.92 56.9969 101.36C59.3969 96.8 60.6369 90.96 60.7169 83.84C60.5569 77.68 58.9969 72.12 56.0369 67.16C53.1569 62.2 49.4769 58.28 44.9969 55.4C44.6769 55.24 43.9969 55 42.9569 54.68C41.9169 54.28 40.7169 53.92 39.3569 53.6C38.0769 53.28 36.8769 53.12 35.7569 53.12H35.0369V48.08C35.0369 48.24 35.3569 48.32 35.9969 48.32C37.0369 48.32 38.8769 47.76 41.5169 46.64C46.6369 44.16 50.1569 39.36 52.0769 32.24C52.9569 28.64 53.3969 25.4 53.3969 22.52C53.3969 18.36 52.5969 14.92 50.9969 12.2C49.3969 9.4 47.2769 7.36 44.6369 6.07999C42.0769 4.72 39.3569 4.04 36.4769 4.04C32.7169 4.04 29.0769 5.08 25.5569 7.15999C22.1169 9.16 19.4369 12.12 17.5169 16.04C15.4369 23.32 14.3969 27.6 14.3969 28.88C14.3969 29.12 14.4369 29.24 14.5169 29.24H10.1969V28.76C10.1969 22.36 11.5569 17.04 14.2769 12.8C17.0769 8.55999 20.5969 5.39999 24.8369 3.31999C29.1569 1.16 33.5969 0.079999 38.1569 0.079999C42.5569 0.079999 46.6769 0.999999 50.5169 2.84C54.4369 4.67999 57.6369 7.43999 60.1169 11.12C62.5969 14.8 63.8369 19.36 63.8369 24.8C63.8369 32.72 61.2769 38.88 56.1569 43.28C52.7169 46.24 49.7569 48.44 47.2769 49.88C55.1969 51.56 61.5169 55.76 66.2369 62.48C71.0369 69.12 73.4369 76.4 73.4369 84.32C73.4369 93.04 70.4369 100.52 64.4369 106.76C60.6769 110.6 56.2369 113.56 51.1169 115.64C45.9969 117.72 40.7569 118.76 35.3969 118.76Z" fill="#49F1FE" fill-opacity="0.25"/>
</svg>
