<svg width="30" height="34" viewBox="0 0 30 34" fill="none" xmlns="http://www.w3.org/2000/svg">
<path d="M11.6667 25.3334V20.3334H0V13.6667H11.6667V8.66671L20 17L11.6667 25.3334ZM11.6667 0.333374H26.6667C27.5507 0.333374 28.3986 0.684563 29.0237 1.30968C29.6488 1.93481 30 2.78265 30 3.66671V30.3334C30 31.2174 29.6488 32.0653 29.0237 32.6904C28.3986 33.3155 27.5507 33.6667 26.6667 33.6667H11.6667C10.7826 33.6667 9.93477 33.3155 9.30964 32.6904C8.68452 32.0653 8.33333 31.2174 8.33333 30.3334V27H11.6667V30.3334H26.6667V3.66671H11.6667V7.00004H8.33333V3.66671C8.33333 2.78265 8.68452 1.93481 9.30964 1.30968C9.93477 0.684563 10.7826 0.333374 11.6667 0.333374Z" fill="#49F1FE"/>
</svg>
