<?xml version="1.0" encoding="utf-8"?>
<!-- Generator: Adobe Illustrator 23.0.2, SVG Export Plug-In . SVG Version: 6.00 Build 0)  -->
<svg version="1.1" id="Слой_1" xmlns="http://www.w3.org/2000/svg" xmlns:xlink="http://www.w3.org/1999/xlink" x="0px" y="0px"
	 viewBox="0 0 201 82" style="enable-background:new 0 0 201 82;" xml:space="preserve">
<style type="text/css">
	.st0{fill:#FFFFFF;}
	.st1{fill:#FFFFFF;stroke:#FFFFFF;stroke-width:0.2;stroke-opacity:0.81;}
</style>
<circle class="st0" cx="23.7" cy="7.2" r="0.9"/>
<circle class="st0" cx="30" cy="9.9" r="0.9"/>
<circle class="st0" cx="3.3" cy="6.8" r="0.9"/>
<circle class="st0" cx="1.2" cy="10.8" r="0.9"/>
<circle class="st0" cx="12.8" cy="17.3" r="0.9"/>
<circle class="st0" cx="18.9" cy="20.7" r="0.9"/>
<circle class="st0" cx="25.4" cy="23.5" r="0.9"/>
<circle class="st0" cx="29.6" cy="25.7" r="0.9"/>
<circle class="st0" cx="36.4" cy="22.7" r="0.9"/>
<circle class="st0" cx="33" cy="19.8" r="0.9"/>
<circle class="st0" cx="35.4" cy="25.3" r="0.9"/>
<circle class="st0" cx="70.1" cy="10.8" r="0.9"/>
<circle class="st0" cx="76" cy="12" r="0.9"/>
<circle class="st0" cx="86.6" cy="21.7" r="0.9"/>
<circle class="st0" cx="88" cy="23.9" r="0.9"/>
<circle class="st0" cx="89.3" cy="43.4" r="0.9"/>
<circle class="st0" cx="85.7" cy="47" r="0.9"/>
<circle class="st0" cx="71.6" cy="39.9" r="1.5"/>
<circle class="st0" cx="59" cy="33.3" r="0.9"/>
<circle class="st0" cx="61.6" cy="36.2" r="0.9"/>
<circle class="st0" cx="49.4" cy="33.9" r="0.9"/>
<circle class="st0" cx="43.9" cy="30.8" r="0.9"/>
<circle class="st0" cx="58.8" cy="9.4" r="0.6"/>
<circle class="st0" cx="48.5" cy="7.7" r="0.6"/>
<circle class="st0" cx="37.1" cy="6.9" r="0.6"/>
<circle class="st0" cx="28.4" cy="7.5" r="0.6"/>
<circle class="st0" cx="15.6" cy="8.4" r="0.6"/>
<circle class="st0" cx="13.9" cy="12.1" r="0.6"/>
<circle class="st0" cx="9.7" cy="13" r="0.6"/>
<circle class="st0" cx="19.8" cy="16" r="0.6"/>
<circle class="st0" cx="24" cy="16.8" r="0.6"/>
<circle class="st0" cx="39.1" cy="12.2" r="0.9"/>
<circle class="st0" cx="38.9" cy="16.5" r="0.9"/>
<circle class="st0" cx="45.3" cy="15" r="0.9"/>
<circle class="st0" cx="44.3" cy="21" r="0.9"/>
<circle class="st0" cx="52.9" cy="19.6" r="0.9"/>
<circle class="st0" cx="49.2" cy="25.4" r="0.9"/>
<circle class="st0" cx="58.1" cy="22.9" r="1.2"/>
<circle class="st0" cx="56.1" cy="28" r="1.2"/>
<circle class="st0" cx="67" cy="26.1" r="1.5"/>
<circle class="st0" cx="65.8" cy="31.6" r="0.6"/>
<circle class="st0" cx="75.4" cy="29" r="1.2"/>
<circle class="st0" cx="75.4" cy="29" r="1.2"/>
<circle class="st0" cx="76.2" cy="35.8" r="0.6"/>
<circle class="st0" cx="82.4" cy="31.1" r="1.5"/>
<circle class="st0" cx="75.8" cy="20.3" r="1.2"/>
<circle class="st0" cx="61.4" cy="15.1" r="1.2"/>
<circle class="st0" cx="27.9" cy="21.6" r="0.6"/>
<circle class="st0" cx="35.8" cy="28.1" r="0.6"/>
<circle class="st0" cx="48.8" cy="31.4" r="0.6"/>
<circle class="st0" cx="53.8" cy="36.2" r="0.6"/>
<circle class="st0" cx="61.3" cy="39.2" r="0.6"/>
<circle class="st0" cx="66.3" cy="38.8" r="0.6"/>
<circle class="st0" cx="77.4" cy="44.3" r="0.6"/>
<circle class="st0" cx="80.3" cy="44.1" r="0.6"/>
<circle class="st0" cx="81.6" cy="46.8" r="0.6"/>
<circle class="st0" cx="74.3" cy="42.3" r="0.6"/>
<circle class="st0" cx="57.5" cy="37.1" r="0.6"/>
<circle class="st0" cx="44.7" cy="29.3" r="0.6"/>
<circle class="st0" cx="53.5" cy="32.2" r="0.6"/>
<circle class="st0" cx="65.1" cy="37.4" r="0.6"/>
<circle class="st0" cx="68.2" cy="38.3" r="0.6"/>
<circle class="st0" cx="88.2" cy="30.9" r="0.6"/>
<circle class="st0" cx="82.6" cy="18.1" r="0.9"/>
<circle class="st0" cx="88.5" cy="40.2" r="0.6"/>
<circle class="st0" cx="39.5" cy="27.3" r="0.9"/>
<circle class="st0" cx="64.2" cy="10.6" r="0.9"/>
<circle class="st0" cx="54.1" cy="8.8" r="0.9"/>
<circle class="st0" cx="42.8" cy="7.4" r="0.9"/>
<circle class="st0" cx="32.8" cy="17.7" r="0.9"/>
<circle class="st0" cx="30.3" cy="14.1" r="0.9"/>
<line class="st1" x1="88" y1="23.8" x2="86.6" y2="21.8"/>
<line class="st1" x1="86.9" y1="21.4" x2="82.7" y2="17.8"/>
<line class="st1" x1="82.7" y1="17.8" x2="76.1" y2="12.3"/>
<line class="st1" x1="42.7" y1="7.2" x2="38.8" y2="11.8"/>
<line class="st1" x1="38.8" y1="11.9" x2="38.6" y2="16.8"/>
<line class="st1" x1="38.4" y1="16.6" x2="45.5" y2="15"/>
<line class="st1" x1="45.4" y1="15.4" x2="44.1" y2="20.8"/>
<line class="st1" x1="44" y1="20.9" x2="52.1" y2="19.5"/>
<line class="st1" x1="49.1" y1="25.1" x2="52.4" y2="19.2"/>
<line class="st1" x1="58.1" y1="23.1" x2="49.5" y2="25.5"/>
<line class="st1" x1="56" y1="27.9" x2="58.3" y2="23.2"/>
<line class="st1" x1="66.8" y1="25.5" x2="56.4" y2="28.3"/>
<line class="st1" x1="65.7" y1="31.6" x2="66.9" y2="25.7"/>
<line class="st1" x1="75.4" y1="28.8" x2="66.1" y2="32"/>
<line class="st1" x1="76.1" y1="35.8" x2="75.5" y2="29"/>
<line class="st1" x1="82.7" y1="31.1" x2="76.6" y2="36.1"/>
<line class="st1" x1="88" y1="24" x2="83" y2="31.3"/>
<line class="st1" x1="75.8" y1="20.4" x2="88.3" y2="24.1"/>
<line class="st1" x1="75.8" y1="12.7" x2="76.1" y2="20.7"/>
<line class="st1" x1="61.8" y1="15.1" x2="76" y2="12.8"/>
<line class="st1" x1="75.7" y1="20.4" x2="61.5" y2="15.3"/>
<line class="st1" x1="75.2" y1="28.7" x2="75.3" y2="20.3"/>
<line class="st1" x1="61.4" y1="15.1" x2="75.1" y2="28.7"/>
<line class="st1" x1="54.2" y1="9.1" x2="61.1" y2="15.1"/>
<line class="st1" x1="45.5" y1="15.2" x2="53.8" y2="9.1"/>
<line class="st1" x1="36.4" y1="22.4" x2="45.2" y2="15.3"/>
<line class="st1" x1="37.2" y1="6.9" x2="36.2" y2="22.5"/>
<line class="st1" x1="61.3" y1="15.3" x2="36.8" y2="7"/>
<line class="st1" x1="58" y1="22.9" x2="60.9" y2="15.2"/>
<line class="st1" x1="54.3" y1="9.3" x2="57.9" y2="22.9"/>
<line class="st1" x1="52.6" y1="19.6" x2="53.8" y2="9.3"/>
<line class="st1" x1="43.3" y1="7.3" x2="52.5" y2="19.5"/>
<line class="st1" x1="31.2" y1="14.1" x2="42.8" y2="7.3"/>
<line class="st1" x1="30.1" y1="10" x2="31.1" y2="14.2"/>
<line class="st1" x1="36.9" y1="7.2" x2="29.7" y2="10.1"/>
<line class="st1" x1="37" y1="7.2" x2="32.5" y2="17.7"/>
<line class="st1" x1="44" y1="20.8" x2="39.6" y2="27.4"/>
<line class="st1" x1="57.9" y1="23" x2="49.3" y2="33.8"/>
<line class="st1" x1="67.1" y1="25.5" x2="59" y2="33.7"/>
<line class="st1" x1="75.3" y1="29.2" x2="71.7" y2="39.1"/>
<line class="st1" x1="75.5" y1="28.8" x2="65.3" y2="37.3"/>
<line class="st1" x1="65.7" y1="31.6" x2="65.1" y2="37.1"/>
<line class="st1" x1="43.9" y1="20.7" x2="44.7" y2="29.6"/>
<line class="st1" x1="49.5" y1="25.2" x2="44.8" y2="29.4"/>
<line class="st1" x1="49.5" y1="25.4" x2="49.1" y2="31.3"/>
<line class="st1" x1="56.4" y1="27.9" x2="49.1" y2="31.6"/>
<line class="st1" x1="61.7" y1="15.2" x2="59.4" y2="33.1"/>
<line class="st1" x1="82.8" y1="31" x2="75.6" y2="20.5"/>
<line class="st1" x1="85.7" y1="46.8" x2="82.6" y2="30.9"/>
<line class="st1" x1="88.4" y1="40.3" x2="80.4" y2="44.2"/>
<line class="st1" x1="76.3" y1="35.7" x2="89.4" y2="44"/>
<line class="st1" x1="77.3" y1="44.3" x2="82.5" y2="30.8"/>
<line class="st1" x1="74.8" y1="42.2" x2="88" y2="31"/>
<line class="st1" x1="76.3" y1="35.3" x2="82.7" y2="17.7"/>
<line class="st1" x1="67.1" y1="25.6" x2="75.9" y2="12"/>
<line class="st1" x1="76.5" y1="12.3" x2="70.2" y2="10.9"/>
<line class="st1" x1="70" y1="10.9" x2="64.3" y2="10.8"/>
<line class="st1" x1="63.7" y1="10.8" x2="58.8" y2="9.6"/>
<line class="st1" x1="58.9" y1="9.3" x2="53.3" y2="8.9"/>
<line class="st1" x1="54.1" y1="9" x2="48.5" y2="7.8"/>
<line class="st1" x1="48.5" y1="7.8" x2="42.6" y2="7.5"/>
<line class="st1" x1="43" y1="7.2" x2="37.1" y2="7"/>
<line class="st1" x1="37.1" y1="6.8" x2="28.4" y2="7.6"/>
<line class="st1" x1="29.9" y1="9.7" x2="23.6" y2="7.6"/>
<line class="st1" x1="28.4" y1="7.3" x2="23.6" y2="6.9"/>
<line class="st1" x1="30.1" y1="10" x2="15.6" y2="8.5"/>
<line class="st1" x1="30.4" y1="14.3" x2="3.4" y2="6.9"/>
<line class="st1" x1="14.6" y1="12.2" x2="1.7" y2="10.7"/>
<line class="st1" x1="30.3" y1="14.8" x2="13.4" y2="12.1"/>
<line class="st1" x1="32.9" y1="17.8" x2="19.8" y2="16.1"/>
<line class="st1" x1="15.5" y1="8.3" x2="3.8" y2="6.9"/>
<line class="st1" x1="19.8" y1="16.1" x2="1.3" y2="11.1"/>
<line class="st1" x1="32.9" y1="17.8" x2="12.9" y2="17.2"/>
<line class="st1" x1="33.7" y1="19.9" x2="12.9" y2="17.1"/>
<line class="st1" x1="33" y1="19.9" x2="19.6" y2="20.9"/>
<line class="st1" x1="27.8" y1="21.7" x2="18.9" y2="20.9"/>
<line class="st1" x1="36.4" y1="22.9" x2="25.2" y2="23.5"/>
<line class="st1" x1="27.8" y1="21.7" x2="25.3" y2="23.7"/>
<line class="st1" x1="36.5" y1="22.6" x2="29.7" y2="25.9"/>
<line class="st1" x1="35.1" y1="25.5" x2="30" y2="25.9"/>
<line class="st1" x1="35.6" y1="25.4" x2="35.9" y2="28.1"/>
<line class="st1" x1="39.6" y1="27.4" x2="36.3" y2="28.2"/>
<line class="st1" x1="44.8" y1="29.4" x2="43.6" y2="31"/>
<line class="st1" x1="44" y1="30.8" x2="48.8" y2="31.3"/>
<line class="st1" x1="48.8" y1="31.4" x2="49.9" y2="34"/>
<line class="st1" x1="53.6" y1="32" x2="49.4" y2="34.1"/>
<line class="st1" x1="59.1" y1="33.4" x2="53.9" y2="36.3"/>
<line class="st1" x1="53.6" y1="31.9" x2="53.9" y2="35.8"/>
<line class="st1" x1="59.1" y1="33.1" x2="57.6" y2="37.1"/>
<line class="st1" x1="57.5" y1="37" x2="61.6" y2="36.1"/>
<line class="st1" x1="61.3" y1="39.2" x2="61.5" y2="36.2"/>
<line class="st1" x1="65.1" y1="37.5" x2="61.3" y2="39.3"/>
<line class="st1" x1="66.2" y1="38.9" x2="64.9" y2="37.5"/>
<line class="st1" x1="68.2" y1="38.2" x2="66.2" y2="38.9"/>
<line class="st1" x1="71.6" y1="39.5" x2="68" y2="38.2"/>
<line class="st1" x1="74.3" y1="42.4" x2="71.4" y2="39.5"/>
<line class="st1" x1="77.3" y1="44.4" x2="74.1" y2="42.4"/>
<line class="st1" x1="80.3" y1="44.2" x2="77.3" y2="44.4"/>
<line class="st1" x1="81.5" y1="46.9" x2="80.1" y2="44.2"/>
<line class="st1" x1="85.8" y1="47.2" x2="81.5" y2="46.9"/>
<line class="st1" x1="89.4" y1="43.6" x2="85.7" y2="47.2"/>
<line class="st1" x1="88.6" y1="40.2" x2="89.3" y2="43.5"/>
<line class="st1" x1="88.3" y1="30.9" x2="88.5" y2="40.2"/>
<line class="st1" x1="88.2" y1="23.9" x2="88.1" y2="30.9"/>
<line class="st1" x1="39.6" y1="27.2" x2="44.7" y2="29.2"/>
<path class="st1" d="M88.5,35.7v3.1l0.5,1.7 M88.5,35.7l-1.2-3.4 M88.5,35.7l0.9,2.1l3.9,5.2 M87.3,32.3l1.2-3.3 M87.3,32.3l2.4,3.1
	 M88.5,29v-7.6l1.2-0.9 M88.5,29l3-3.8 M88.5,29l2.1,2.8 M88.5,29l2.8-2 M88.5,29h5.6l2.8,1.1 M93.3,18.1l5,1.5 M105,26.6h-9.2
	 M89.7,20.4l5.3-4h10.8l1.9,1.4l-5,1.7l-2.3,0.8l-2.1-0.7 M89.7,20.4l1.8,4.8 M91.5,25.2l4.3,1.3 M95.8,26.6l2.5-6.9 M91,32.3
	l-0.3-0.4 M90.6,31.9l-0.9,0.4 M89.7,32.3v3.1 M89.7,32.3l1.8,5.5 M89.7,35.4l1.8,2.5 M91.5,37.8l1.8,5.2 M91.5,37.8l1.3,1.7
	 M93.3,43.1L89,40.5 M93.3,43.1l-3.7-0.8 M93.3,43.1l2,6.7 M93.3,43.1l2.5-3.6 M93.3,43.1l3,1.1 M89,40.5l0.6,1.9 M89.6,42.3
	l0.6,1.9l3.1,4.1l2,1.5 M95.3,49.8l0.8,0.6 M97.2,37.5l-0.7-2.1l2-2.7 M97.2,37.5l0.6,1.3 M97.2,37.5l-1.4,2 M98.6,32.7L95,35.4
	 M98.6,32.7l-1.7-2.5 M98.6,32.7v3.2 M96.9,30.1l0.9-1.1l1.7,2.5v6L98.7,39 M98.6,39.2v-3.2 M98.6,39.2l0.3,1.2 M98.6,39.2l0.1-0.1
	 M98.6,39.2l1.7,1.6 M97.8,38.8l0.8-2.9 M97.8,38.8l-1.5,5.4 M97.8,38.8V40l1.1,0.3 M96.3,44.2l-3.5-4.7 M96.3,44.2l2.6-3.9
	 M96.3,44.2l-1.7,1.2l1.7,2 M96.3,44.2l2.8,2.1 M96.3,44.2h1.9l0.7-0.2l0.4,0.2l1.2,0.4 M96.3,44.2l3.3-1.2 M92.7,39.5h3.1
	 M96.3,47.5l-0.7,0.8l0.5,2.1 M96.3,47.5h1.9 M96.3,47.5l2.8-1.1 M96,50.4l1.2,0.9 M98.5,51.6l-0.7-1.8l1.1-1.5l1.8-0.6 M103,51.8
	h-5.2l-0.6-0.5 M97.2,51.3l-0.5-1.8l1.5-2 M98.2,47.5h5.1 M99.1,46.3L99.1,46.3l0.6,0l-0.8-1l0.7-2.3 M100.9,40.9v-0.1l-0.4,0.1
	l-0.3-0.1 M100.3,40.8L99.6,43 M99.6,43l1,0.5 M98.7,39l1.9,0.7 M98.7,39l1.9,1.5"/>
<circle class="st0" cx="177.1" cy="7.2" r="0.9"/>
<circle class="st0" cx="170.8" cy="9.9" r="0.9"/>
<circle class="st0" cx="197.5" cy="6.8" r="0.9"/>
<circle class="st0" cx="199.6" cy="10.8" r="0.9"/>
<circle class="st0" cx="188" cy="17.3" r="0.9"/>
<circle class="st0" cx="181.9" cy="20.7" r="0.9"/>
<circle class="st0" cx="175.4" cy="23.5" r="0.9"/>
<circle class="st0" cx="171.2" cy="25.7" r="0.9"/>
<circle class="st0" cx="164.4" cy="22.7" r="0.9"/>
<circle class="st0" cx="167.8" cy="19.8" r="0.9"/>
<circle class="st0" cx="165.4" cy="25.3" r="0.9"/>
<circle class="st0" cx="130.7" cy="10.8" r="0.9"/>
<circle class="st0" cx="124.8" cy="12" r="0.9"/>
<circle class="st0" cx="114.2" cy="21.7" r="0.9"/>
<circle class="st0" cx="112.8" cy="23.9" r="0.9"/>
<circle class="st0" cx="111.5" cy="43.4" r="0.9"/>
<circle class="st0" cx="115.1" cy="47" r="0.9"/>
<circle class="st0" cx="129.2" cy="39.9" r="1.5"/>
<circle class="st0" cx="141.8" cy="33.3" r="0.9"/>
<circle class="st0" cx="139.2" cy="36.2" r="0.9"/>
<circle class="st0" cx="151.4" cy="33.9" r="0.9"/>
<circle class="st0" cx="156.9" cy="30.8" r="0.9"/>
<circle class="st0" cx="142" cy="9.4" r="0.6"/>
<circle class="st0" cx="152.3" cy="7.7" r="0.6"/>
<circle class="st0" cx="163.7" cy="6.9" r="0.6"/>
<circle class="st0" cx="172.4" cy="7.5" r="0.6"/>
<circle class="st0" cx="185.2" cy="8.4" r="0.6"/>
<circle class="st0" cx="186.9" cy="12.1" r="0.6"/>
<circle class="st0" cx="191.1" cy="13" r="0.6"/>
<circle class="st0" cx="181" cy="16" r="0.6"/>
<circle class="st0" cx="176.8" cy="16.8" r="0.6"/>
<circle class="st0" cx="161.7" cy="12.2" r="0.9"/>
<circle class="st0" cx="161.9" cy="16.5" r="0.9"/>
<circle class="st0" cx="155.5" cy="15" r="0.9"/>
<circle class="st0" cx="156.5" cy="21" r="0.9"/>
<circle class="st0" cx="147.9" cy="19.6" r="0.9"/>
<circle class="st0" cx="151.6" cy="25.4" r="0.9"/>
<circle class="st0" cx="142.7" cy="22.9" r="1.2"/>
<circle class="st0" cx="144.7" cy="28" r="1.2"/>
<circle class="st0" cx="133.8" cy="26.1" r="1.5"/>
<circle class="st0" cx="135" cy="31.6" r="0.6"/>
<circle class="st0" cx="125.4" cy="29" r="1.2"/>
<circle class="st0" cx="125.4" cy="29" r="1.2"/>
<circle class="st0" cx="124.6" cy="35.8" r="0.6"/>
<circle class="st0" cx="118.4" cy="31.1" r="1.5"/>
<circle class="st0" cx="125" cy="20.3" r="1.2"/>
<circle class="st0" cx="139.4" cy="15.1" r="1.2"/>
<circle class="st0" cx="172.9" cy="21.6" r="0.6"/>
<circle class="st0" cx="165" cy="28.1" r="0.6"/>
<circle class="st0" cx="152" cy="31.4" r="0.6"/>
<circle class="st0" cx="147" cy="36.2" r="0.6"/>
<circle class="st0" cx="139.5" cy="39.2" r="0.6"/>
<circle class="st0" cx="134.5" cy="38.8" r="0.6"/>
<circle class="st0" cx="123.4" cy="44.3" r="0.6"/>
<circle class="st0" cx="120.5" cy="44.1" r="0.6"/>
<circle class="st0" cx="119.2" cy="46.8" r="0.6"/>
<circle class="st0" cx="126.5" cy="42.3" r="0.6"/>
<circle class="st0" cx="143.3" cy="37.1" r="0.6"/>
<circle class="st0" cx="156.1" cy="29.3" r="0.6"/>
<circle class="st0" cx="147.2" cy="32.2" r="0.6"/>
<circle class="st0" cx="135.7" cy="37.4" r="0.6"/>
<circle class="st0" cx="132.6" cy="38.3" r="0.6"/>
<circle class="st0" cx="112.6" cy="30.9" r="0.6"/>
<circle class="st0" cx="118.2" cy="18.1" r="0.9"/>
<circle class="st0" cx="112.3" cy="40.2" r="0.6"/>
<circle class="st0" cx="161.3" cy="27.3" r="0.9"/>
<circle class="st0" cx="136.6" cy="10.6" r="0.9"/>
<circle class="st0" cx="146.7" cy="8.8" r="0.9"/>
<circle class="st0" cx="158" cy="7.4" r="0.9"/>
<circle class="st0" cx="168" cy="17.7" r="0.9"/>
<circle class="st0" cx="170.5" cy="14.1" r="0.9"/>
<line class="st1" x1="112.8" y1="23.8" x2="114.2" y2="21.8"/>
<line class="st1" x1="113.9" y1="21.4" x2="118.1" y2="17.8"/>
<line class="st1" x1="118.1" y1="17.8" x2="124.7" y2="12.3"/>
<line class="st1" x1="158.1" y1="7.2" x2="162" y2="11.8"/>
<line class="st1" x1="162" y1="11.9" x2="162.2" y2="16.8"/>
<line class="st1" x1="162.4" y1="16.6" x2="155.3" y2="15"/>
<line class="st1" x1="155.4" y1="15.4" x2="156.7" y2="20.8"/>
<line class="st1" x1="156.8" y1="20.9" x2="148.7" y2="19.5"/>
<line class="st1" x1="151.7" y1="25.1" x2="148.4" y2="19.2"/>
<line class="st1" x1="142.7" y1="23.1" x2="151.3" y2="25.5"/>
<line class="st1" x1="144.8" y1="27.9" x2="142.5" y2="23.2"/>
<line class="st1" x1="134" y1="25.5" x2="144.4" y2="28.3"/>
<line class="st1" x1="135.1" y1="31.6" x2="133.9" y2="25.7"/>
<line class="st1" x1="125.4" y1="28.8" x2="134.7" y2="32"/>
<line class="st1" x1="124.7" y1="35.8" x2="125.3" y2="29"/>
<line class="st1" x1="118.1" y1="31.1" x2="124.2" y2="36.1"/>
<line class="st1" x1="112.8" y1="24" x2="117.8" y2="31.3"/>
<line class="st1" x1="125" y1="20.4" x2="112.5" y2="24.1"/>
<line class="st1" x1="125" y1="12.7" x2="124.7" y2="20.7"/>
<line class="st1" x1="139" y1="15.1" x2="124.8" y2="12.8"/>
<line class="st1" x1="125.1" y1="20.4" x2="139.3" y2="15.3"/>
<line class="st1" x1="125.6" y1="28.7" x2="125.5" y2="20.3"/>
<line class="st1" x1="139.4" y1="15.1" x2="125.7" y2="28.7"/>
<line class="st1" x1="146.6" y1="9.1" x2="139.7" y2="15.1"/>
<line class="st1" x1="155.3" y1="15.2" x2="147" y2="9.1"/>
<line class="st1" x1="164.4" y1="22.4" x2="155.6" y2="15.3"/>
<line class="st1" x1="163.6" y1="6.9" x2="164.6" y2="22.5"/>
<line class="st1" x1="139.6" y1="15.3" x2="164" y2="7"/>
<line class="st1" x1="142.8" y1="22.9" x2="139.9" y2="15.2"/>
<line class="st1" x1="146.5" y1="9.3" x2="142.9" y2="22.9"/>
<line class="st1" x1="148.2" y1="19.6" x2="147" y2="9.3"/>
<line class="st1" x1="157.5" y1="7.3" x2="148.3" y2="19.5"/>
<line class="st1" x1="169.6" y1="14.1" x2="158" y2="7.3"/>
<line class="st1" x1="170.7" y1="10" x2="169.7" y2="14.2"/>
<line class="st1" x1="163.9" y1="7.2" x2="171.1" y2="10.1"/>
<line class="st1" x1="163.8" y1="7.2" x2="168.3" y2="17.7"/>
<line class="st1" x1="156.8" y1="20.8" x2="161.2" y2="27.4"/>
<line class="st1" x1="142.9" y1="23" x2="151.5" y2="33.8"/>
<line class="st1" x1="133.7" y1="25.5" x2="141.8" y2="33.7"/>
<line class="st1" x1="125.5" y1="29.2" x2="129.1" y2="39.1"/>
<line class="st1" x1="125.3" y1="28.8" x2="135.5" y2="37.3"/>
<line class="st1" x1="135.1" y1="31.6" x2="135.7" y2="37.1"/>
<line class="st1" x1="156.9" y1="20.7" x2="156.1" y2="29.6"/>
<line class="st1" x1="151.3" y1="25.2" x2="156" y2="29.4"/>
<line class="st1" x1="151.3" y1="25.4" x2="151.7" y2="31.3"/>
<line class="st1" x1="144.4" y1="27.9" x2="151.7" y2="31.6"/>
<line class="st1" x1="139.1" y1="15.2" x2="141.4" y2="33.1"/>
<line class="st1" x1="118" y1="31" x2="125.2" y2="20.5"/>
<line class="st1" x1="115.1" y1="46.8" x2="118.2" y2="30.9"/>
<line class="st1" x1="112.4" y1="40.3" x2="120.4" y2="44.2"/>
<line class="st1" x1="124.5" y1="35.7" x2="111.4" y2="44"/>
<line class="st1" x1="123.5" y1="44.3" x2="118.3" y2="30.8"/>
<line class="st1" x1="126" y1="42.2" x2="112.8" y2="31"/>
<line class="st1" x1="124.5" y1="35.3" x2="118.1" y2="17.7"/>
<line class="st1" x1="133.7" y1="25.6" x2="124.9" y2="12"/>
<line class="st1" x1="124.3" y1="12.3" x2="130.6" y2="10.9"/>
<line class="st1" x1="130.8" y1="10.9" x2="136.5" y2="10.8"/>
<line class="st1" x1="137.1" y1="10.8" x2="142" y2="9.6"/>
<line class="st1" x1="141.9" y1="9.3" x2="147.5" y2="8.9"/>
<line class="st1" x1="146.7" y1="9" x2="152.3" y2="7.8"/>
<line class="st1" x1="152.3" y1="7.8" x2="158.2" y2="7.5"/>
<line class="st1" x1="157.8" y1="7.2" x2="163.7" y2="7"/>
<line class="st1" x1="163.7" y1="6.8" x2="172.4" y2="7.6"/>
<line class="st1" x1="170.9" y1="9.7" x2="177.2" y2="7.6"/>
<line class="st1" x1="172.4" y1="7.3" x2="177.2" y2="6.9"/>
<line class="st1" x1="170.7" y1="10" x2="185.2" y2="8.5"/>
<line class="st1" x1="170.4" y1="14.3" x2="197.4" y2="6.9"/>
<line class="st1" x1="186.2" y1="12.2" x2="199.1" y2="10.7"/>
<line class="st1" x1="170.5" y1="14.8" x2="187.4" y2="12.1"/>
<line class="st1" x1="167.9" y1="17.8" x2="181" y2="16.1"/>
<line class="st1" x1="185.3" y1="8.3" x2="197" y2="6.9"/>
<line class="st1" x1="181" y1="16.1" x2="199.5" y2="11.1"/>
<line class="st1" x1="167.9" y1="17.8" x2="187.9" y2="17.2"/>
<line class="st1" x1="167.1" y1="19.9" x2="187.9" y2="17.2"/>
<line class="st1" x1="167.8" y1="19.9" x2="181.2" y2="20.9"/>
<line class="st1" x1="173" y1="21.7" x2="181.9" y2="20.9"/>
<line class="st1" x1="164.4" y1="22.9" x2="175.6" y2="23.5"/>
<line class="st1" x1="173" y1="21.7" x2="175.5" y2="23.7"/>
<line class="st1" x1="164.3" y1="22.6" x2="171.1" y2="25.9"/>
<line class="st1" x1="165.7" y1="25.5" x2="170.8" y2="25.9"/>
<line class="st1" x1="165.2" y1="25.4" x2="164.9" y2="28.1"/>
<line class="st1" x1="161.2" y1="27.4" x2="164.5" y2="28.2"/>
<line class="st1" x1="156" y1="29.4" x2="157.2" y2="31"/>
<line class="st1" x1="156.8" y1="30.8" x2="152" y2="31.3"/>
<line class="st1" x1="152" y1="31.4" x2="150.9" y2="34"/>
<line class="st1" x1="147.2" y1="32" x2="151.4" y2="34.1"/>
<line class="st1" x1="141.7" y1="33.4" x2="146.9" y2="36.3"/>
<line class="st1" x1="147.2" y1="31.9" x2="146.9" y2="35.8"/>
<line class="st1" x1="141.7" y1="33.1" x2="143.2" y2="37.1"/>
<line class="st1" x1="143.3" y1="37" x2="139.2" y2="36.1"/>
<line class="st1" x1="139.5" y1="39.2" x2="139.3" y2="36.2"/>
<line class="st1" x1="135.7" y1="37.5" x2="139.5" y2="39.3"/>
<line class="st1" x1="134.6" y1="38.9" x2="135.9" y2="37.5"/>
<line class="st1" x1="132.6" y1="38.2" x2="134.6" y2="38.9"/>
<line class="st1" x1="129.2" y1="39.5" x2="132.8" y2="38.2"/>
<line class="st1" x1="126.5" y1="42.4" x2="129.4" y2="39.5"/>
<line class="st1" x1="123.5" y1="44.4" x2="126.7" y2="42.4"/>
<line class="st1" x1="120.5" y1="44.2" x2="123.5" y2="44.4"/>
<line class="st1" x1="119.3" y1="46.9" x2="120.7" y2="44.2"/>
<line class="st1" x1="115" y1="47.2" x2="119.3" y2="46.9"/>
<line class="st1" x1="111.4" y1="43.6" x2="115.1" y2="47.2"/>
<line class="st1" x1="112.2" y1="40.2" x2="111.5" y2="43.5"/>
<line class="st1" x1="112.5" y1="30.9" x2="112.3" y2="40.2"/>
<line class="st1" x1="112.6" y1="23.9" x2="112.7" y2="30.9"/>
<line class="st1" x1="161.2" y1="27.2" x2="156.1" y2="29.2"/>
<path class="st1" d="M112.3,35.7v3.1l-0.5,1.7 M112.3,35.7l1.2-3.4 M112.3,35.7l-0.9,2.1l-3.9,5.2 M113.5,32.3l-1.2-3.3 M113.5,32.3
	l-2.4,3.1 M112.3,29v-7.6l-1.2-0.9 M112.3,29l-3-3.8 M112.3,29l-2.1,2.8 M112.3,29l-2.8-2 M112.3,29h-5.6l-2.8,1.1 M107.5,18.1
	l-5,1.5 M95.8,26.6h9.3 M111.1,20.4l-5.3-4H95l-1.9,1.4l5,1.7l2.3,0.8l2.1-0.7 M111.1,20.4l-1.8,4.8 M109.3,25.2l-4.3,1.3 M105,26.6
	l-2.5-6.9 M109.8,32.3l0.3-0.4 M110.2,31.9l0.9,0.4 M111.1,32.3v3.1 M111.1,32.3l-1.8,5.5 M111.1,35.4l-1.8,2.5 M109.3,37.8
	l-1.8,5.2 M109.3,37.8l-1.3,1.7 M107.5,43.1l4.3-2.6 M107.5,43.1l3.7-0.8 M107.5,43.1l-2,6.7 M107.5,43.1l-2.5-3.6 M107.5,43.1
	l-3,1.1 M111.8,40.5l-0.6,1.9 M111.2,42.3l-0.6,1.9l-3.1,4.1l-2,1.5 M105.5,49.8l-0.8,0.6 M103.6,37.5l0.7-2.1l-2-2.7 M103.6,37.5
	l-0.6,1.3 M103.6,37.5l1.4,2 M102.2,32.7l3.6,2.7 M102.2,32.7l1.7-2.5 M102.2,32.7v3.2 M103.9,30.1L103,29l-1.7,2.5v6l0.8,1.5
	 M102.2,39.2v-3.2 M102.2,39.2l-0.3,1.2 M102.2,39.2l-0.1-0.1 M102.2,39.2l-1.7,1.6 M103,38.8l-0.8-2.9 M103,38.8l1.5,5.4 M103,38.8
	V40l-1.1,0.3 M104.5,44.2l3.5-4.7 M104.5,44.2l-2.6-3.9 M104.5,44.2l1.7,1.2l-1.7,2 M104.5,44.2l-2.8,2.1 M104.5,44.2h-1.9l-0.7-0.2
	l-0.4,0.2l-1.2,0.4 M104.5,44.2l-3.3-1.2 M108,39.5H105 M104.5,47.5l0.7,0.8l-0.5,2.1 M104.5,47.5h-1.9 M104.5,47.5l-2.8-1.1
	 M104.8,50.4l-1.2,0.9 M102.3,51.6l0.7-1.8l-1.1-1.5l-1.8-0.6 M97.8,51.8h5.2l0.6-0.5 M103.6,51.3l0.5-1.8l-1.5-2 M102.6,47.5h-5.1
	 M101.7,46.3L101.7,46.3l-0.6,0l0.8-1l-0.7-2.3 M99.9,40.9v-0.1l0.4,0.1l0.3-0.1 M100.5,40.8l0.7,2.3 M101.2,43l-1,0.5 M102.1,39
	l-1.9,0.7 M102.1,39l-1.9,1.5"/>
<path class="st0" d="M50.6,82H49V69h1.6v0h0l7.9,12.3V69h0.4V82h-0.5l-7.8-12.2V82z M73.1,82h-10V69h1.6v0h8.4v0.4h-8.4v6h6.5v0.4
	h-6.5v5.8h8.4V82z M84.7,82h-0.4l-5.6-12.1V82h-1.6V69h1.6v0l0,0l5.7,12.4L90.2,69h0.4V82h-0.4V70L84.7,82z M104.8,82h-10V69h1.6v0
	h8.4v0.4h-8.4v6h6.5v0.4h-6.5v5.8h8.4V82z M118.9,82h-10l7.9-12.5h-7.9V69h9.8v0h0.3l-8,12.5h8V82z M124.7,82h-1.6V69h1.6V82z
	 M130.4,82h-1.6V69h1.6v0c2.7,0.1,4.8,0.7,6.1,1.8c1.4,1.1,2,2.7,2,4.8c0,3.4-1.7,5.5-5.1,6.1C132.5,81.8,131.5,81.9,130.4,82
	L130.4,82z M130.4,81.6c2.4,0,4.2-0.4,5.3-1.1c1.6-0.9,2.5-2.5,2.5-4.9c0-2.3-0.8-3.9-2.5-4.9c-1.2-0.8-3-1.2-5.3-1.3V81.6z
	 M152.7,82h-1.7l-1.2-3.7h-5.6l-1.1,3.7l-0.4,0l3.9-12.9l1.7,0L152.7,82z M149.7,77.9l-2.8-8.3l-2.5,8.3H149.7z"/>
</svg>
