<svg width="991" height="479" viewBox="0 0 991 479" fill="none" xmlns="http://www.w3.org/2000/svg">
<g filter="url(#filter0_d)">
<g filter="url(#filter1_d)">
<circle cx="119.913" cy="95.1376" r="4.37741" transform="rotate(-4 119.913 95.1376)" fill="white"/>
<circle cx="150.553" cy="108.522" r="4.37741" transform="rotate(-4 150.553 108.522)" fill="white"/>
<circle cx="21.2182" cy="93.2627" r="4.37741" transform="rotate(-4 21.2182 93.2627)" fill="white"/>
<circle cx="11.113" cy="112.872" r="4.37741" transform="rotate(-4 11.113 112.872)" fill="white"/>
<circle cx="67.3003" cy="144.048" r="4.37741" transform="rotate(-4 67.3003 144.048)" fill="white"/>
<circle cx="96.8318" cy="160.885" r="4.37741" transform="rotate(-4 96.8318 160.885)" fill="white"/>
<circle cx="128.144" cy="174.223" r="4.37741" transform="rotate(-4 128.144 174.223)" fill="white"/>
<circle cx="148.471" cy="184.953" r="4.37741" transform="rotate(-4 148.471 184.953)" fill="white"/>
<circle cx="181.216" cy="170.512" r="4.37741" transform="rotate(-4 181.216 170.512)" fill="white"/>
<circle cx="164.684" cy="156.141" r="4.37741" transform="rotate(-4 164.684 156.141)" fill="white"/>
<circle cx="176.687" cy="182.98" r="4.37741" transform="rotate(-4 176.687 182.98)" fill="white"/>
<circle cx="344.583" cy="112.507" r="4.37741" transform="rotate(-4 344.583 112.507)" fill="white"/>
<circle cx="373.363" cy="118.595" r="4.37741" transform="rotate(-4 373.363 118.595)" fill="white"/>
<circle cx="424.584" cy="165.646" r="4.37741" transform="rotate(-4 424.584 165.646)" fill="white"/>
<circle cx="431.382" cy="175.971" r="4.37741" transform="rotate(-4 431.382 175.971)" fill="white"/>
<circle cx="437.334" cy="270.743" r="4.37741" transform="rotate(-4 437.334 270.743)" fill="white"/>
<circle cx="420.323" cy="288.135" r="4.37741" transform="rotate(-4 420.323 288.135)" fill="white"/>
<circle cx="351.707" cy="253.706" r="7.20149" transform="rotate(-4 351.707 253.706)" fill="white"/>
<circle cx="290.777" cy="221.584" r="4.37741" transform="rotate(-4 290.777 221.584)" fill="white"/>
<circle cx="303.231" cy="235.565" r="4.37741" transform="rotate(-4 303.231 235.565)" fill="white"/>
<circle cx="244.422" cy="224.825" r="4.37741" transform="rotate(-4 244.422 224.825)" fill="white"/>
<circle cx="217.719" cy="209.815" r="4.37741" transform="rotate(-4 217.719 209.815)" fill="white"/>
<circle cx="289.774" cy="105.875" r="2.69379" transform="rotate(-4 289.774 105.875)" fill="white"/>
<circle cx="239.934" cy="97.8838" r="2.69379" transform="rotate(-4 239.934 97.8838)" fill="white"/>
<circle cx="184.954" cy="93.6273" r="2.69379" transform="rotate(-4 184.954 93.6273)" fill="white"/>
<circle cx="142.63" cy="96.587" r="2.69379" transform="rotate(-4 142.63 96.587)" fill="white"/>
<circle cx="80.8236" cy="100.909" r="2.69379" transform="rotate(-4 80.8236 100.909)" fill="white"/>
<circle cx="72.6395" cy="119.034" r="2.69379" transform="rotate(-4 72.6395 119.034)" fill="white"/>
<circle cx="52.0016" cy="123.177" r="2.69379" transform="rotate(-4 52.0016 123.177)" fill="white"/>
<circle cx="100.968" cy="137.981" r="2.69379" transform="rotate(-4 100.968 137.981)" fill="white"/>
<circle cx="121.498" cy="141.945" r="2.69379" transform="rotate(-4 121.498 141.945)" fill="white"/>
<circle cx="194.475" cy="119.571" r="4.3209" transform="rotate(-4 194.475 119.571)" fill="white"/>
<circle cx="193.432" cy="140.392" r="4.3209" transform="rotate(-4 193.432 140.392)" fill="white"/>
<circle cx="224.485" cy="133.292" r="4.3209" transform="rotate(-4 224.485 133.292)" fill="white"/>
<circle cx="219.745" cy="162.36" r="4.3209" transform="rotate(-4 219.745 162.36)" fill="white"/>
<circle cx="261.115" cy="155.417" r="4.3209" transform="rotate(-4 261.115 155.417)" fill="white"/>
<circle cx="243.318" cy="183.463" r="4.3209" transform="rotate(-4 243.318 183.463)" fill="white"/>
<circle cx="286.663" cy="171.569" r="5.76119" transform="rotate(-4 286.663 171.569)" fill="white"/>
<circle cx="276.887" cy="195.881" r="5.76119" transform="rotate(-4 276.887 195.881)" fill="white"/>
<circle cx="329.661" cy="186.599" r="7.20149" transform="rotate(-4 329.661 186.599)" fill="white"/>
<circle cx="323.632" cy="213.548" r="2.69379" transform="rotate(-4 323.632 213.548)" fill="white"/>
<circle cx="370.395" cy="200.819" r="5.76119" transform="rotate(-4 370.395 200.819)" fill="white"/>
<circle cx="370.395" cy="200.819" r="5.76119" transform="rotate(-4 370.395 200.819)" fill="white"/>
<circle cx="374.318" cy="233.632" r="2.69379" transform="rotate(-4 374.318 233.632)" fill="white"/>
<circle cx="404.112" cy="211.18" r="7.20149" transform="rotate(-4 404.112 211.18)" fill="white"/>
<circle cx="372.185" cy="158.838" r="5.76119" transform="rotate(-4 372.185 158.838)" fill="white"/>
<circle cx="302.219" cy="133.351" r="5.76119" transform="rotate(-4 302.219 133.351)" fill="white"/>
<circle cx="139.985" cy="164.956" r="2.69379" transform="rotate(-4 139.985 164.956)" fill="white"/>
<circle cx="178.658" cy="196.682" r="2.69379" transform="rotate(-4 178.658 196.682)" fill="white"/>
<circle cx="241.202" cy="212.561" r="2.69379" transform="rotate(-4 241.202 212.561)" fill="white"/>
<circle cx="265.782" cy="235.82" r="2.69379" transform="rotate(-4 265.782 235.82)" fill="white"/>
<circle cx="301.89" cy="250.173" r="2.69379" transform="rotate(-4 301.89 250.173)" fill="white"/>
<circle cx="326.075" cy="248.482" r="2.69379" transform="rotate(-4 326.075 248.482)" fill="white"/>
<circle cx="379.918" cy="275.096" r="2.69379" transform="rotate(-4 379.918 275.096)" fill="white"/>
<circle cx="394.026" cy="274.109" r="2.69379" transform="rotate(-4 394.026 274.109)" fill="white"/>
<circle cx="400.34" cy="287.17" r="2.69379" transform="rotate(-4 400.34 287.17)" fill="white"/>
<circle cx="365.059" cy="265.334" r="2.69379" transform="rotate(-4 365.059 265.334)" fill="white"/>
<circle cx="283.624" cy="239.974" r="2.69379" transform="rotate(-4 283.624 239.974)" fill="white"/>
<circle cx="221.593" cy="202.455" r="2.69379" transform="rotate(-4 221.593 202.455)" fill="white"/>
<circle cx="264.419" cy="216.338" r="2.69379" transform="rotate(-4 264.419 216.338)" fill="white"/>
<circle cx="320.184" cy="241.468" r="2.69379" transform="rotate(-4 320.184 241.468)" fill="white"/>
<circle cx="335.34" cy="245.808" r="2.69379" transform="rotate(-4 335.34 245.808)" fill="white"/>
<circle cx="432.075" cy="210.015" r="2.69379" transform="rotate(-4 432.075 210.015)" fill="white"/>
<circle cx="404.877" cy="147.862" r="4.3209" transform="rotate(-4 404.877 147.862)" fill="white"/>
<circle cx="433.879" cy="255.12" r="2.69379" transform="rotate(-4 433.879 255.12)" fill="white"/>
<circle cx="196.25" cy="192.414" r="4.37741" transform="rotate(-4 196.25 192.414)" fill="white"/>
<circle cx="316.179" cy="111.792" r="4.37741" transform="rotate(-4 316.179 111.792)" fill="white"/>
<circle cx="266.964" cy="103.082" r="4.37741" transform="rotate(-4 266.964 103.082)" fill="white"/>
<circle cx="212.467" cy="96.0915" r="4.37741" transform="rotate(-4 212.467 96.0915)" fill="white"/>
<circle cx="163.979" cy="146.064" r="4.37741" transform="rotate(-4 163.979 146.064)" fill="white"/>
<circle cx="151.962" cy="128.676" r="4.37741" transform="rotate(-4 151.962 128.676)" fill="white"/>
<line x1="431.285" y1="175.898" x2="424.534" y2="166.244" stroke="white"/>
<line x1="425.818" y1="164.226" x2="405.692" y2="146.73" stroke="white"/>
<line x1="405.701" y1="146.738" x2="373.45" y2="119.964" stroke="white"/>
<line x1="211.772" y1="95.4761" x2="193.074" y2="117.711" stroke="white"/>
<line x1="193.238" y1="118.083" x2="192.195" y2="141.784" stroke="white"/>
<line x1="190.866" y1="140.65" x2="225.424" y2="132.833" stroke="white"/>
<line x1="224.771" y1="134.875" x2="218.494" y2="160.967" stroke="white"/>
<line x1="218.017" y1="161.702" x2="257.372" y2="154.899" stroke="white"/>
<line x1="242.686" y1="181.797" x2="258.946" y2="153.657" stroke="white"/>
<line x1="286.404" y1="172.086" x2="244.691" y2="183.779" stroke="white"/>
<line x1="276.043" y1="195.698" x2="287.257" y2="172.635" stroke="white"/>
<line x1="328.414" y1="184.001" x2="278.061" y2="197.648" stroke="white"/>
<line x1="323.143" y1="213.444" x2="329.232" y2="184.664" stroke="white"/>
<line x1="370.068" y1="199.984" x2="325.231" y2="215.271" stroke="white"/>
<line x1="373.82" y1="233.677" x2="370.847" y2="200.805" stroke="white"/>
<line x1="405.428" y1="210.936" x2="376.075" y2="235.266" stroke="white"/>
<line x1="431.481" y1="176.615" x2="406.958" y2="212.085" stroke="white"/>
<line x1="371.981" y1="159.066" x2="432.65" y2="177.101" stroke="white"/>
<line x1="372.394" y1="121.718" x2="373.775" y2="160.777" stroke="white"/>
<line x1="304.481" y1="133.377" x2="373.254" y2="122.492" stroke="white"/>
<line x1="371.62" y1="159.343" x2="303.044" y2="134.434" stroke="white"/>
<line x1="369.407" y1="199.504" x2="369.948" y2="158.96" stroke="white"/>
<line x1="302.222" y1="133.702" x2="368.914" y2="199.248" stroke="white"/>
<line x1="267.749" y1="104.364" x2="300.86" y2="133.778" stroke="white"/>
<line x1="225.332" y1="134.262" x2="265.777" y2="104.43" stroke="white"/>
<line x1="181.167" y1="169.092" x2="223.97" y2="134.37" stroke="white"/>
<line x1="185.453" y1="93.6588" x2="180.637" y2="169.606" stroke="white"/>
<line x1="301.71" y1="134.532" x2="183.449" y2="94.1947" stroke="white"/>
<line x1="285.802" y1="171.426" x2="300.061" y2="133.974" stroke="white"/>
<line x1="267.947" y1="105.283" x2="285.409" y2="171.571" stroke="white"/>
<line x1="259.648" y1="155.144" x2="265.624" y2="105.444" stroke="white"/>
<line x1="214.569" y1="96.0083" x2="259.199" y2="154.996" stroke="white"/>
<line x1="156.147" y1="128.947" x2="212.574" y2="95.9722" stroke="white"/>
<line x1="150.727" y1="108.767" x2="155.543" y2="129.359" stroke="white"/>
<line x1="183.89" y1="95.5291" x2="149.082" y2="109.44" stroke="white"/>
<line x1="184.165" y1="95.2592" x2="162.737" y2="146.039" stroke="white"/>
<line x1="218.423" y1="161.129" x2="197.024" y2="193.005" stroke="white"/>
<line x1="285.317" y1="172.01" x2="243.735" y2="224.199" stroke="white"/>
<line x1="329.984" y1="183.774" x2="290.916" y2="223.636" stroke="white"/>
<line x1="369.845" y1="201.746" x2="352.261" y2="249.557" stroke="white"/>
<line x1="370.898" y1="199.848" x2="321.128" y2="241.134" stroke="white"/>
<line x1="323.458" y1="213.648" x2="320.587" y2="240.178" stroke="white"/>
<line x1="217.835" y1="160.855" x2="221.513" y2="203.804" stroke="white"/>
<line x1="244.796" y1="182.326" x2="221.927" y2="202.828" stroke="white"/>
<line x1="245.055" y1="183.333" x2="242.997" y2="211.831" stroke="white"/>
<line x1="278.017" y1="195.596" x2="242.82" y2="213.584" stroke="white"/>
<line x1="303.711" y1="134.027" x2="292.882" y2="220.521" stroke="white"/>
<line x1="406.039" y1="210.738" x2="371.425" y2="159.826" stroke="white"/>
<line x1="420.097" y1="287.198" x2="405.243" y2="209.926" stroke="white"/>
<line x1="433.425" y1="255.617" x2="394.244" y2="274.559" stroke="white"/>
<line x1="374.585" y1="233.209" x2="438.148" y2="273.32" stroke="white"/>
<line x1="379.452" y1="274.916" x2="404.595" y2="209.699" stroke="white"/>
<line x1="367.421" y1="264.765" x2="431.126" y2="210.354" stroke="white"/>
<line x1="374.38" y1="231.397" x2="405.551" y2="146.181" stroke="white"/>
<line x1="329.973" y1="184.449" x2="372.631" y2="118.682" stroke="white"/>
<line x1="375.68" y1="119.927" x2="344.838" y2="113.308" stroke="white"/>
<line x1="344.257" y1="113.366" x2="316.525" y2="112.604" stroke="white"/>
<line x1="313.735" y1="112.779" x2="289.705" y2="107.033" stroke="white"/>
<line x1="290.36" y1="105.655" x2="263.206" y2="103.503" stroke="white"/>
<line x1="267.224" y1="103.885" x2="239.835" y2="98.3742" stroke="white"/>
<line x1="239.91" y1="98.3832" x2="211.459" y2="96.9972" stroke="white"/>
<line x1="213.38" y1="95.5128" x2="184.929" y2="94.1268" stroke="white"/>
<line x1="184.95" y1="93.4537" x2="142.673" y2="97.0851" stroke="white"/>
<line x1="149.943" y1="107.341" x2="119.538" y2="97.3155" stroke="white"/>
<line x1="142.498" y1="95.7417" x2="119.421" y2="93.9799" stroke="white"/>
<line x1="150.814" y1="108.66" x2="80.7719" y2="101.406" stroke="white"/>
<line x1="152.191" y1="129.471" x2="21.4471" y2="94.0577" stroke="white"/>
<line x1="75.9436" y1="119.395" x2="13.3367" y2="112.197" stroke="white"/>
<line x1="151.758" y1="132.217" x2="69.826" y2="119.043" stroke="white"/>
<line x1="164.273" y1="146.871" x2="100.903" y2="138.476" stroke="white"/>
<line x1="80.0446" y1="100.78" x2="23.5329" y2="93.9305" stroke="white"/>
<line x1="100.838" y1="138.463" x2="11.3891" y2="114.339" stroke="white"/>
<line x1="164.322" y1="146.875" x2="67.5484" y2="143.516" stroke="white"/>
<line x1="168.338" y1="156.714" x2="67.5009" y2="143.512" stroke="white"/>
<line x1="165.079" y1="156.952" x2="99.9132" y2="161.509" stroke="white"/>
<line x1="139.942" y1="165.454" x2="96.4766" y2="161.743" stroke="white"/>
<line x1="181.604" y1="171.323" x2="127.141" y2="174.456" stroke="white"/>
<line x1="139.623" y1="165.395" x2="127.47" y2="175.021" stroke="white"/>
<line x1="181.699" y1="169.931" x2="149.048" y2="185.716" stroke="white"/>
<line x1="175.066" y1="183.932" x2="150.209" y2="185.67" stroke="white"/>
<line x1="177.543" y1="183.233" x2="179.155" y2="196.622" stroke="white"/>
<line x1="196.725" y1="193.212" x2="180.79" y2="197.027" stroke="white"/>
<line x1="222.001" y1="202.745" x2="216.471" y2="210.557" stroke="white"/>
<line x1="218.131" y1="209.63" x2="241.254" y2="212.064" stroke="white"/>
<line x1="241.667" y1="212.378" x2="246.59" y2="224.86" stroke="white"/>
<line x1="264.55" y1="215.441" x2="244.335" y2="225.631" stroke="white"/>
<line x1="291.377" y1="222.334" x2="266.022" y2="236.259" stroke="white"/>
<line x1="264.824" y1="214.96" x2="266.139" y2="233.77" stroke="white"/>
<line x1="291.51" y1="220.731" x2="284.091" y2="240.152" stroke="white"/>
<line x1="283.524" y1="239.484" x2="303.49" y2="235.387" stroke="white"/>
<line x1="302.063" y1="250.09" x2="303.092" y2="235.841" stroke="white"/>
<line x1="320.399" y1="241.919" x2="302.105" y2="250.625" stroke="white"/>
<line x1="325.711" y1="248.824" x2="319.148" y2="241.857" stroke="white"/>
<line x1="335.455" y1="245.61" x2="325.565" y2="249.002" stroke="white"/>
<line x1="351.764" y1="251.87" x2="334.452" y2="245.654" stroke="white"/>
<line x1="364.704" y1="265.686" x2="350.906" y2="251.799" stroke="white"/>
<line x1="379.653" y1="275.52" x2="364.122" y2="265.804" stroke="white"/>
<line x1="394.061" y1="274.608" x2="379.281" y2="275.642" stroke="white"/>
<line x1="399.9" y1="287.406" x2="392.914" y2="274.393" stroke="white"/>
<line x1="420.653" y1="288.947" x2="399.639" y2="287.716" stroke="white"/>
<line x1="438.045" y1="271.412" x2="420.362" y2="288.85" stroke="white"/>
<line x1="434.37" y1="255.024" x2="437.513" y2="271.006" stroke="white"/>
<line x1="432.575" y1="210.003" x2="433.707" y2="255.155" stroke="white"/>
<line x1="432.242" y1="176.289" x2="431.903" y2="210.067" stroke="white"/>
<line x1="196.79" y1="192.26" x2="221.774" y2="201.989" stroke="white"/>
</g>
<g filter="url(#filter2_d)">
<path d="M433.643 233.464V248.277L436.274 256.389M433.643 233.464L428 216.887M433.643 233.464L437.875 243.692L456.921 269.086M428 216.887L433.643 201.016M428 216.887L439.628 231.7M433.643 201.016V163.983L439.628 159.461M433.643 201.016L448.103 182.676M433.643 201.016L444.036 214.771M433.643 201.016L447.398 191.493M433.643 201.016H460.8L474.203 206.306M456.921 148.112L480.904 155.529M513.704 189.024H468.912M439.628 159.461L465.385 140H517.584L526.754 146.778L502.418 154.918L491.132 158.693L480.904 155.529M439.628 159.461L448.103 182.676M448.103 182.676L468.912 189.024M468.912 189.024L480.904 155.529M445.635 216.887L444.036 214.771M444.036 214.771L439.628 216.887M439.628 216.887V231.7M439.628 216.887L448.103 243.692M439.628 231.7L448.103 243.692M448.103 243.692L456.921 269.086M448.103 243.692L454.257 251.804M456.921 269.086L436.274 256.389M456.921 269.086L439.191 265.382M456.921 269.086L466.488 301.533M456.921 269.086L469.041 251.804M456.921 269.086L471.381 274.376M436.274 256.389L439.191 265.382M439.191 265.382L442.108 274.376L456.921 294.127L466.488 301.533M466.488 301.533L470.132 304.355M475.966 241.928L472.792 231.7L482.667 218.651M475.966 241.928L478.788 248.277M475.966 241.928L469.041 251.804M482.667 218.651L465.385 231.7M482.667 218.651L474.203 206.306M482.667 218.651V234.345M474.203 206.306L478.788 201.016L486.9 213.007V241.928L483.035 249.335M482.667 250.04V234.345M482.667 250.04L484.078 255.683M482.667 250.04L483.035 249.335M482.667 250.04L490.779 257.799M478.788 248.277L482.667 234.345M478.788 248.277L471.381 274.376M478.788 248.277V254.272L484.078 255.683M471.381 274.376L454.257 251.804M471.381 274.376L484.078 255.683M471.381 274.376L463.269 280.372L471.381 290.247M471.381 274.376L484.882 284.708M471.381 274.376H480.551L484.078 273.318L486.194 274.376L492.19 276.492M471.381 274.376L487.252 268.733M454.257 251.804H469.041M471.381 290.247L467.854 294.127L470.132 304.355M471.381 290.247H480.551M471.381 290.247L484.882 284.708M470.132 304.355L475.966 308.872M481.962 310.351L478.788 301.533L484.078 294.127L492.895 291.305M503.829 311.056H478.788L475.966 308.872M475.966 308.872L473.497 300.122L480.551 290.247M480.551 290.247H505.24M484.882 284.708L485.136 284.604H487.605L483.725 279.666L487.252 268.733M493.953 258.505V257.799L492.19 258.505L490.779 257.799M490.779 257.799L487.252 268.733M487.252 268.733L492.19 271.202M483.035 249.335L492.19 252.509M483.035 249.335L492.19 256.389" stroke="white" stroke-opacity="0.99"/>
</g>
</g>
<g filter="url(#filter3_d)">
<g filter="url(#filter4_d)">
<circle r="4.37741" transform="matrix(-0.997564 -0.0697565 -0.0697565 0.997564 862.663 95.1376)" fill="white"/>
<circle r="4.37741" transform="matrix(-0.997564 -0.0697565 -0.0697565 0.997564 832.023 108.522)" fill="white"/>
<circle r="4.37741" transform="matrix(-0.997564 -0.0697565 -0.0697565 0.997564 961.358 93.2627)" fill="white"/>
<circle r="4.37741" transform="matrix(-0.997564 -0.0697565 -0.0697565 0.997564 971.463 112.872)" fill="white"/>
<circle r="4.37741" transform="matrix(-0.997564 -0.0697565 -0.0697565 0.997564 915.276 144.048)" fill="white"/>
<circle r="4.37741" transform="matrix(-0.997564 -0.0697565 -0.0697565 0.997564 885.745 160.885)" fill="white"/>
<circle r="4.37741" transform="matrix(-0.997564 -0.0697565 -0.0697565 0.997564 854.433 174.223)" fill="white"/>
<circle r="4.37741" transform="matrix(-0.997564 -0.0697565 -0.0697565 0.997564 834.105 184.953)" fill="white"/>
<circle r="4.37741" transform="matrix(-0.997564 -0.0697565 -0.0697565 0.997564 801.36 170.512)" fill="white"/>
<circle r="4.37741" transform="matrix(-0.997564 -0.0697565 -0.0697565 0.997564 817.892 156.141)" fill="white"/>
<circle r="4.37741" transform="matrix(-0.997564 -0.0697565 -0.0697565 0.997564 805.889 182.98)" fill="white"/>
<circle r="4.37741" transform="matrix(-0.997564 -0.0697565 -0.0697565 0.997564 637.993 112.507)" fill="white"/>
<circle r="4.37741" transform="matrix(-0.997564 -0.0697565 -0.0697565 0.997564 609.214 118.595)" fill="white"/>
<circle r="4.37741" transform="matrix(-0.997564 -0.0697565 -0.0697565 0.997564 557.992 165.646)" fill="white"/>
<circle r="4.37741" transform="matrix(-0.997564 -0.0697565 -0.0697565 0.997564 551.194 175.971)" fill="white"/>
<circle r="4.37741" transform="matrix(-0.997564 -0.0697565 -0.0697565 0.997564 545.242 270.743)" fill="white"/>
<circle r="4.37741" transform="matrix(-0.997564 -0.0697565 -0.0697565 0.997564 562.254 288.135)" fill="white"/>
<circle r="7.20149" transform="matrix(-0.997564 -0.0697565 -0.0697565 0.997564 630.87 253.707)" fill="white"/>
<circle r="4.37741" transform="matrix(-0.997564 -0.0697565 -0.0697565 0.997564 691.799 221.584)" fill="white"/>
<circle r="4.37741" transform="matrix(-0.997564 -0.0697565 -0.0697565 0.997564 679.345 235.565)" fill="white"/>
<circle r="4.37741" transform="matrix(-0.997564 -0.0697565 -0.0697565 0.997564 738.154 224.825)" fill="white"/>
<circle r="4.37741" transform="matrix(-0.997564 -0.0697565 -0.0697565 0.997564 764.857 209.815)" fill="white"/>
<circle r="2.69379" transform="matrix(-0.997564 -0.0697565 -0.0697565 0.997564 692.802 105.875)" fill="white"/>
<circle r="2.69379" transform="matrix(-0.997564 -0.0697565 -0.0697565 0.997564 742.643 97.8838)" fill="white"/>
<circle r="2.69379" transform="matrix(-0.997564 -0.0697565 -0.0697565 0.997564 797.623 93.6273)" fill="white"/>
<circle r="2.69379" transform="matrix(-0.997564 -0.0697565 -0.0697565 0.997564 839.947 96.587)" fill="white"/>
<circle r="2.69379" transform="matrix(-0.997564 -0.0697565 -0.0697565 0.997564 901.753 100.909)" fill="white"/>
<circle r="2.69379" transform="matrix(-0.997564 -0.0697565 -0.0697565 0.997564 909.937 119.034)" fill="white"/>
<circle r="2.69379" transform="matrix(-0.997564 -0.0697565 -0.0697565 0.997564 930.575 123.177)" fill="white"/>
<circle r="2.69379" transform="matrix(-0.997564 -0.0697565 -0.0697565 0.997564 881.608 137.981)" fill="white"/>
<circle r="2.69379" transform="matrix(-0.997564 -0.0697565 -0.0697565 0.997564 861.078 141.945)" fill="white"/>
<circle r="4.3209" transform="matrix(-0.997564 -0.0697565 -0.0697565 0.997564 788.102 119.571)" fill="white"/>
<circle r="4.3209" transform="matrix(-0.997564 -0.0697565 -0.0697565 0.997564 789.144 140.392)" fill="white"/>
<circle r="4.3209" transform="matrix(-0.997564 -0.0697565 -0.0697565 0.997564 758.091 133.292)" fill="white"/>
<circle r="4.3209" transform="matrix(-0.997564 -0.0697565 -0.0697565 0.997564 762.831 162.36)" fill="white"/>
<circle r="4.3209" transform="matrix(-0.997564 -0.0697565 -0.0697565 0.997564 721.461 155.417)" fill="white"/>
<circle r="4.3209" transform="matrix(-0.997564 -0.0697565 -0.0697565 0.997564 739.258 183.463)" fill="white"/>
<circle r="5.76119" transform="matrix(-0.997564 -0.0697565 -0.0697565 0.997564 695.913 171.569)" fill="white"/>
<circle r="5.76119" transform="matrix(-0.997564 -0.0697565 -0.0697565 0.997564 705.69 195.881)" fill="white"/>
<circle r="7.20149" transform="matrix(-0.997564 -0.0697565 -0.0697565 0.997564 652.916 186.599)" fill="white"/>
<circle r="2.69379" transform="matrix(-0.997564 -0.0697565 -0.0697565 0.997564 658.944 213.548)" fill="white"/>
<circle r="5.76119" transform="matrix(-0.997564 -0.0697565 -0.0697565 0.997564 612.182 200.819)" fill="white"/>
<circle r="5.76119" transform="matrix(-0.997564 -0.0697565 -0.0697565 0.997564 612.182 200.819)" fill="white"/>
<circle r="2.69379" transform="matrix(-0.997564 -0.0697565 -0.0697565 0.997564 608.258 233.632)" fill="white"/>
<circle r="7.20149" transform="matrix(-0.997564 -0.0697565 -0.0697565 0.997564 578.464 211.18)" fill="white"/>
<circle r="5.76119" transform="matrix(-0.997564 -0.0697565 -0.0697565 0.997564 610.391 158.838)" fill="white"/>
<circle r="5.76119" transform="matrix(-0.997564 -0.0697565 -0.0697565 0.997564 680.358 133.351)" fill="white"/>
<circle r="2.69379" transform="matrix(-0.997564 -0.0697565 -0.0697565 0.997564 842.592 164.956)" fill="white"/>
<circle r="2.69379" transform="matrix(-0.997564 -0.0697565 -0.0697565 0.997564 803.918 196.682)" fill="white"/>
<circle r="2.69379" transform="matrix(-0.997564 -0.0697565 -0.0697565 0.997564 741.374 212.561)" fill="white"/>
<circle r="2.69379" transform="matrix(-0.997564 -0.0697565 -0.0697565 0.997564 716.795 235.82)" fill="white"/>
<circle r="2.69379" transform="matrix(-0.997564 -0.0697565 -0.0697565 0.997564 680.686 250.173)" fill="white"/>
<circle r="2.69379" transform="matrix(-0.997564 -0.0697565 -0.0697565 0.997564 656.501 248.482)" fill="white"/>
<circle r="2.69379" transform="matrix(-0.997564 -0.0697565 -0.0697565 0.997564 602.658 275.096)" fill="white"/>
<circle r="2.69379" transform="matrix(-0.997564 -0.0697565 -0.0697565 0.997564 588.55 274.109)" fill="white"/>
<circle r="2.69379" transform="matrix(-0.997564 -0.0697565 -0.0697565 0.997564 582.236 287.17)" fill="white"/>
<circle r="2.69379" transform="matrix(-0.997564 -0.0697565 -0.0697565 0.997564 617.518 265.334)" fill="white"/>
<circle r="2.69379" transform="matrix(-0.997564 -0.0697565 -0.0697565 0.997564 698.952 239.974)" fill="white"/>
<circle r="2.69379" transform="matrix(-0.997564 -0.0697565 -0.0697565 0.997564 760.984 202.455)" fill="white"/>
<circle r="2.69379" transform="matrix(-0.997564 -0.0697565 -0.0697565 0.997564 718.157 216.338)" fill="white"/>
<circle r="2.69379" transform="matrix(-0.997564 -0.0697565 -0.0697565 0.997564 662.393 241.468)" fill="white"/>
<circle r="2.69379" transform="matrix(-0.997564 -0.0697565 -0.0697565 0.997564 647.237 245.808)" fill="white"/>
<circle r="2.69379" transform="matrix(-0.997564 -0.0697565 -0.0697565 0.997564 550.501 210.015)" fill="white"/>
<circle r="4.3209" transform="matrix(-0.997564 -0.0697565 -0.0697565 0.997564 577.7 147.862)" fill="white"/>
<circle r="2.69379" transform="matrix(-0.997564 -0.0697565 -0.0697565 0.997564 548.697 255.12)" fill="white"/>
<circle r="4.37741" transform="matrix(-0.997564 -0.0697565 -0.0697565 0.997564 786.327 192.414)" fill="white"/>
<circle r="4.37741" transform="matrix(-0.997564 -0.0697565 -0.0697565 0.997564 666.397 111.792)" fill="white"/>
<circle r="4.37741" transform="matrix(-0.997564 -0.0697565 -0.0697565 0.997564 715.613 103.082)" fill="white"/>
<circle r="4.37741" transform="matrix(-0.997564 -0.0697565 -0.0697565 0.997564 770.109 96.0915)" fill="white"/>
<circle r="4.37741" transform="matrix(-0.997564 -0.0697565 -0.0697565 0.997564 818.597 146.064)" fill="white"/>
<circle r="4.37741" transform="matrix(-0.997564 -0.0697565 -0.0697565 0.997564 830.614 128.676)" fill="white"/>
<line y1="-0.5" x2="11.7805" y2="-0.5" transform="matrix(0.573058 -0.819515 -0.819515 -0.573058 550.882 175.612)" stroke="white"/>
<line y1="-0.5" x2="26.6672" y2="-0.5" transform="matrix(0.75471 -0.656059 -0.656059 -0.75471 556.43 163.848)" stroke="white"/>
<line y1="-0.5" x2="41.9164" y2="-0.5" transform="matrix(0.769421 -0.638742 -0.638742 -0.769421 576.556 146.353)" stroke="white"/>
<line y1="-0.5" x2="29.0521" y2="-0.5" transform="matrix(0.6436 0.765362 0.765362 -0.6436 771.187 95.1543)" stroke="white"/>
<line y1="-0.5" x2="23.7241" y2="-0.5" transform="matrix(0.0439647 0.999033 0.999033 -0.0439647 789.838 118.061)" stroke="white"/>
<line y1="-0.5" x2="35.4313" y2="-0.5" transform="matrix(-0.975357 -0.220632 -0.220632 0.975357 791.6 141.138)" stroke="white"/>
<line y1="-0.5" x2="26.8367" y2="-0.5" transform="matrix(0.233879 0.972266 0.972266 -0.233879 758.292 134.758)" stroke="white"/>
<line y1="-0.5" x2="39.9384" y2="-0.5" transform="matrix(-0.985388 -0.170325 -0.170325 0.985388 764.474 162.194)" stroke="white"/>
<line y1="-0.5" x2="32.5004" y2="-0.5" transform="matrix(-0.500292 -0.865857 -0.865857 0.500292 739.458 182.048)" stroke="white"/>
<line y1="-0.5" x2="43.3211" y2="-0.5" transform="matrix(0.962884 0.269916 0.269916 -0.962884 696.307 171.604)" stroke="white"/>
<line y1="-0.5" x2="25.6441" y2="-0.5" transform="matrix(-0.437297 -0.899318 -0.899318 0.437297 706.083 195.916)" stroke="white"/>
<line y1="-0.5" x2="52.1694" y2="-0.5" transform="matrix(0.965177 0.261598 0.261598 -0.965177 654.293 183.518)" stroke="white"/>
<line y1="-0.5" x2="29.4167" y2="-0.5" transform="matrix(-0.206979 -0.978345 -0.978345 0.206979 658.944 213.548)" stroke="white"/>
<line y1="-0.5" x2="47.3717" y2="-0.5" transform="matrix(0.9465 0.322703 0.322703 -0.9465 612.669 199.51)" stroke="white"/>
<line y1="-0.5" x2="33.0058" y2="-0.5" transform="matrix(0.0900962 -0.995933 -0.995933 -0.0900962 608.258 233.632)" stroke="white"/>
<line y1="-0.5" x2="38.1257" y2="-0.5" transform="matrix(0.769898 0.638168 0.638168 -0.769898 577.468 210.551)" stroke="white"/>
<line y1="-0.5" x2="43.1217" y2="-0.5" transform="matrix(0.568703 0.822543 0.822543 -0.568703 551.506 176.331)" stroke="white"/>
<line y1="-0.5" x2="63.2934" y2="-0.5" transform="matrix(-0.958542 0.284953 0.284953 0.958542 610.738 159.545)" stroke="white"/>
<line y1="-0.5" x2="39.0832" y2="-0.5" transform="matrix(-0.0353369 0.999376 0.999376 0.0353369 610.682 121.736)" stroke="white"/>
<line y1="-0.5" x2="69.6294" y2="-0.5" transform="matrix(-0.987706 -0.156327 -0.156327 0.987706 678.018 133.87)" stroke="white"/>
<line y1="-0.5" x2="72.9596" y2="-0.5" transform="matrix(0.939916 -0.341405 -0.341405 -0.939916 610.785 158.873)" stroke="white"/>
<line y1="-0.5" x2="40.5469" y2="-0.5" transform="matrix(-0.0133277 -0.999911 -0.999911 0.0133277 612.669 199.51)" stroke="white"/>
<line y1="-0.5" x2="93.5099" y2="-0.5" transform="matrix(-0.713207 0.700953 0.700953 0.713207 680.705 134.058)" stroke="white"/>
<line y1="-0.5" x2="44.2891" y2="-0.5" transform="matrix(-0.747612 0.664136 0.664136 0.747612 715.16 104.738)" stroke="white"/>
<line y1="-0.5" x2="50.2565" y2="-0.5" transform="matrix(-0.804767 -0.593592 -0.593592 0.804767 756.948 134.664)" stroke="white"/>
<line y1="-0.5" x2="55.1159" y2="-0.5" transform="matrix(-0.776604 -0.62999 -0.62999 0.776604 801.095 169.48)" stroke="white"/>
<line y1="-0.5" x2="76.0996" y2="-0.5" transform="matrix(0.0632808 0.997996 0.997996 -0.0632808 797.623 93.6272)" stroke="white"/>
<line y1="-0.5" x2="124.951" y2="-0.5" transform="matrix(0.94646 -0.322822 -0.322822 -0.94646 680.705 134.058)" stroke="white"/>
<line y1="-0.5" x2="40.0744" y2="-0.5" transform="matrix(-0.355799 -0.934563 -0.934563 0.355799 696.307 171.604)" stroke="white"/>
<line y1="-0.5" x2="68.5496" y2="-0.5" transform="matrix(-0.254737 0.967011 0.967011 0.254737 715.113 105.41)" stroke="white"/>
<line y1="-0.5" x2="50.0576" y2="-0.5" transform="matrix(-0.119382 -0.992849 -0.992849 0.119382 722.432 155.204)" stroke="white"/>
<line y1="-0.5" x2="73.969" y2="-0.5" transform="matrix(-0.603366 0.797465 0.797465 0.603366 768.406 96.3099)" stroke="white"/>
<line y1="-0.5" x2="65.3557" y2="-0.5" transform="matrix(-0.863387 -0.504543 -0.504543 0.863387 826.177 129.379)" stroke="white"/>
<line y1="-0.5" x2="21.1467" y2="-0.5" transform="matrix(-0.227711 0.973729 0.973729 0.227711 832.336 108.881)" stroke="white"/>
<line y1="-0.5" x2="37.4839" y2="-0.5" transform="matrix(0.92859 0.371107 0.371107 -0.92859 798.872 95.0648)" stroke="white"/>
<line y1="-0.5" x2="55.1159" y2="-0.5" transform="matrix(0.388772 0.921334 0.921334 -0.388772 798.872 95.0648)" stroke="white"/>
<line y1="-0.5" x2="38.3924" y2="-0.5" transform="matrix(0.557383 0.830256 0.830256 -0.557383 764.568 160.851)" stroke="white"/>
<line y1="-0.5" x2="66.7291" y2="-0.5" transform="matrix(0.623142 0.782109 0.782109 -0.623142 697.651 171.698)" stroke="white"/>
<line y1="-0.5" x2="55.815" y2="-0.5" transform="matrix(0.699961 0.714181 0.714181 -0.699961 652.949 183.424)" stroke="white"/>
<line y1="-0.5" x2="50.9422" y2="-0.5" transform="matrix(0.345187 0.938534 0.938534 -0.345187 613.2 201.573)" stroke="white"/>
<line y1="-0.5" x2="64.665" y2="-0.5" transform="matrix(0.769663 0.638451 0.638451 -0.769663 611.997 199.464)" stroke="white"/>
<line y1="-0.5" x2="26.6842" y2="-0.5" transform="matrix(0.107574 0.994197 0.994197 -0.107574 659.616 213.594)" stroke="white"/>
<line y1="-0.5" x2="43.1059" y2="-0.5" transform="matrix(-0.085333 0.996353 0.996353 0.085333 765.24 160.897)" stroke="white"/>
<line y1="-0.5" x2="30.7139" y2="-0.5" transform="matrix(0.744603 0.667508 0.667508 -0.744603 738.114 181.953)" stroke="white"/>
<line y1="-0.5" x2="28.572" y2="-0.5" transform="matrix(0.0720215 0.997403 0.997403 -0.0720215 738.02 183.297)" stroke="white"/>
<line y1="-0.5" x2="39.5274" y2="-0.5" transform="matrix(0.890448 0.455085 0.455085 -0.890448 704.787 195.15)" stroke="white"/>
<line y1="-0.5" x2="87.1692" y2="-0.5" transform="matrix(0.12423 0.992254 0.992254 -0.12423 679.361 133.964)" stroke="white"/>
<line y1="-0.5" x2="61.5643" y2="-0.5" transform="matrix(0.562247 -0.82697 -0.82697 -0.562247 576.124 210.457)" stroke="white"/>
<line y1="-0.5" x2="78.6868" y2="-0.5" transform="matrix(0.188782 -0.982019 -0.982019 -0.188782 561.988 287.104)" stroke="white"/>
<line y1="-0.5" x2="43.5195" y2="-0.5" transform="matrix(0.900308 0.435253 0.435253 -0.900308 549.369 255.167)" stroke="white"/>
<line y1="-0.5" x2="75.1611" y2="-0.5" transform="matrix(-0.845692 0.533671 0.533671 0.845692 608.258 233.632)" stroke="white"/>
<line y1="-0.5" x2="69.896" y2="-0.5" transform="matrix(-0.35973 -0.933057 -0.933057 0.35973 602.658 275.096)" stroke="white"/>
<line y1="-0.5" x2="83.7787" y2="-0.5" transform="matrix(-0.76039 -0.649467 -0.649467 0.76039 614.831 265.146)" stroke="white"/>
<line y1="-0.5" x2="90.7382" y2="-0.5" transform="matrix(-0.343529 -0.939142 -0.939142 0.343529 607.727 231.569)" stroke="white"/>
<line y1="-0.5" x2="78.3895" y2="-0.5" transform="matrix(-0.544176 -0.838971 -0.838971 0.544176 652.184 184.721)" stroke="white"/>
<line y1="-0.5" x2="31.5444" y2="-0.5" transform="matrix(0.977734 -0.209848 -0.209848 -0.977734 606.792 119.438)" stroke="white"/>
<line y1="-0.5" x2="27.7425" y2="-0.5" transform="matrix(0.999624 -0.0274366 -0.0274366 -0.999624 638.306 112.866)" stroke="white"/>
<line y1="-0.5" x2="24.7074" y2="-0.5" transform="matrix(0.972585 -0.232549 -0.232549 -0.972585 668.725 112.293)" stroke="white"/>
<line y1="-0.5" x2="27.2393" y2="-0.5" transform="matrix(0.996875 -0.0789944 -0.0789944 -0.996875 692.177 105.156)" stroke="white"/>
<line y1="-0.5" x2="27.9379" y2="-0.5" transform="matrix(0.980353 -0.197251 -0.197251 -0.980353 715.253 103.395)" stroke="white"/>
<line y1="-0.5" x2="28.4845" y2="-0.5" transform="matrix(0.998815 -0.0486576 -0.0486576 -0.998815 742.643 97.8838)" stroke="white"/>
<line y1="-0.5" x2="28.4845" y2="-0.5" transform="matrix(0.998815 -0.0486576 -0.0486576 -0.998815 769.172 95.0134)" stroke="white"/>
<line y1="-0.5" x2="42.4326" y2="-0.5" transform="matrix(0.996331 0.08558 0.08558 -0.996331 797.67 92.9556)" stroke="white"/>
<line y1="-0.5" x2="32.0154" y2="-0.5" transform="matrix(0.949704 -0.313148 -0.313148 -0.949704 832.477 106.866)" stroke="white"/>
<line y1="-0.5" x2="23.1435" y2="-0.5" transform="matrix(0.997098 -0.0761254 -0.0761254 -0.997098 840.041 95.2432)" stroke="white"/>
<line y1="-0.5" x2="70.4164" y2="-0.5" transform="matrix(0.99468 -0.103014 -0.103014 -0.99468 831.711 108.163)" stroke="white"/>
<line y1="-0.5" x2="135.455" y2="-0.5" transform="matrix(0.965219 -0.261441 -0.261441 -0.965219 830.255 128.989)" stroke="white"/>
<line y1="-0.5" x2="63.0194" y2="-0.5" transform="matrix(0.993455 -0.114222 -0.114222 -0.993455 906.576 118.898)" stroke="white"/>
<line y1="-0.5" x2="82.9845" y2="-0.5" transform="matrix(0.98732 -0.158744 -0.158744 -0.98732 830.739 131.723)" stroke="white"/>
<line y1="-0.5" x2="63.9244" y2="-0.5" transform="matrix(0.991338 -0.131334 -0.131334 -0.991338 818.237 146.376)" stroke="white"/>
<line y1="-0.5" x2="56.9253" y2="-0.5" transform="matrix(0.992734 -0.12033 -0.12033 -0.992734 902.472 100.284)" stroke="white"/>
<line y1="-0.5" x2="92.645" y2="-0.5" transform="matrix(0.965502 -0.260395 -0.260395 -0.965502 881.608 137.98)" stroke="white"/>
<line y1="-0.5" x2="96.8314" y2="-0.5" transform="matrix(0.999398 -0.0346928 -0.0346928 -0.999398 818.237 146.376)" stroke="white"/>
<line y1="-0.5" x2="101.697" y2="-0.5" transform="matrix(0.991539 -0.129812 -0.129812 -0.991539 814.174 156.218)" stroke="white"/>
<line y1="-0.5" x2="65.3245" y2="-0.5" transform="matrix(0.997564 0.0697565 0.0697565 -0.997564 817.533 156.453)" stroke="white"/>
<line y1="-0.5" x2="43.6236" y2="-0.5" transform="matrix(0.996374 -0.0850806 -0.0850806 -0.996374 842.592 164.956)" stroke="white"/>
<line y1="-0.5" x2="54.5535" y2="-0.5" transform="matrix(0.998349 0.0574365 0.0574365 -0.998349 801.001 170.824)" stroke="white"/>
<line y1="-0.5" x2="15.5039" y2="-0.5" transform="matrix(0.783906 0.620879 0.620879 -0.783906 843.264 165.003)" stroke="white"/>
<line y1="-0.5" x2="36.2663" y2="-0.5" transform="matrix(0.900308 0.435253 0.435253 -0.900308 801.095 169.48)" stroke="white"/>
<line y1="-0.5" x2="24.9176" y2="-0.5" transform="matrix(0.997564 0.0697565 0.0697565 -0.997564 807.545 183.433)" stroke="white"/>
<line y1="-0.5" x2="13.4858" y2="-0.5" transform="matrix(-0.119485 0.992836 0.992836 0.119485 805.53 183.292)" stroke="white"/>
<line y1="-0.5" x2="16.3857" y2="-0.5" transform="matrix(0.972523 0.232806 0.232806 -0.972523 785.967 192.726)" stroke="white"/>
<line y1="-0.5" x2="9.57149" y2="-0.5" transform="matrix(0.577707 0.816244 0.816244 -0.577707 760.984 202.456)" stroke="white"/>
<line y1="-0.5" x2="23.251" y2="-0.5" transform="matrix(-0.994507 0.104667 0.104667 0.994507 764.498 210.127)" stroke="white"/>
<line y1="-0.5" x2="13.4184" y2="-0.5" transform="matrix(-0.366916 0.930254 0.930254 0.366916 741.375 212.561)" stroke="white"/>
<line y1="-0.5" x2="22.6383" y2="-0.5" transform="matrix(0.892971 0.450114 0.450114 -0.892971 718.251 214.995)" stroke="white"/>
<line y1="-0.5" x2="28.9269" y2="-0.5" transform="matrix(0.876516 0.481373 0.481373 -0.876516 691.44 221.896)" stroke="white"/>
<line y1="-0.5" x2="18.8565" y2="-0.5" transform="matrix(-0.0697565 0.997564 0.997564 0.0697565 718.251 214.995)" stroke="white"/>
<line y1="-0.5" x2="20.7898" y2="-0.5" transform="matrix(0.356816 0.934175 0.934175 -0.356816 691.534 220.552)" stroke="white"/>
<line y1="-0.5" x2="20.3822" y2="-0.5" transform="matrix(-0.979594 -0.200986 -0.200986 0.979594 698.952 239.974)" stroke="white"/>
<line y1="-0.5" x2="14.286" y2="-0.5" transform="matrix(-0.0720214 -0.997403 -0.997403 0.0720214 680.015 250.126)" stroke="white"/>
<line y1="-0.5" x2="20.2595" y2="-0.5" transform="matrix(0.902978 0.429688 0.429688 -0.902978 662.393 241.468)" stroke="white"/>
<line y1="-0.5" x2="9.5715" y2="-0.5" transform="matrix(0.685684 -0.727899 -0.727899 -0.685684 656.501 248.482)" stroke="white"/>
<line y1="-0.5" x2="10.4547" y2="-0.5" transform="matrix(0.945908 0.324436 0.324436 -0.945908 647.284 245.137)" stroke="white"/>
<line y1="-0.5" x2="18.3939" y2="-0.5" transform="matrix(0.941179 -0.337908 -0.337908 -0.941179 630.644 251.399)" stroke="white"/>
<line y1="-0.5" x2="19.5764" y2="-0.5" transform="matrix(0.704821 -0.709385 -0.709385 -0.704821 617.518 265.334)" stroke="white"/>
<line y1="-0.5" x2="18.3198" y2="-0.5" transform="matrix(0.847795 -0.530324 -0.530324 -0.847795 602.658 275.096)" stroke="white"/>
<line y1="-0.5" x2="14.8159" y2="-0.5" transform="matrix(0.997564 0.0697564 0.0697564 -0.997564 588.55 274.109)" stroke="white"/>
<line y1="-0.5" x2="14.7699" y2="-0.5" transform="matrix(0.472977 -0.881075 -0.881075 -0.472977 582.236 287.17)" stroke="white"/>
<line y1="-0.5" x2="21.05" y2="-0.5" transform="matrix(0.998289 -0.0584767 -0.0584767 -0.998289 561.894 288.448)" stroke="white"/>
<line y1="-0.5" x2="24.8355" y2="-0.5" transform="matrix(0.71201 0.702169 0.702169 -0.71201 544.883 271.056)" stroke="white"/>
<line y1="-0.5" x2="16.2885" y2="-0.5" transform="matrix(-0.19295 0.981209 0.981209 0.19295 548.697 255.12)" stroke="white"/>
<line y1="-0.5" x2="45.1662" y2="-0.5" transform="matrix(-0.0250643 0.999686 0.999686 0.0250643 550.501 210.015)" stroke="white"/>
<line y1="-0.5" x2="33.78" y2="-0.5" transform="matrix(0.0100166 0.99995 0.99995 -0.0100166 550.835 176.284)" stroke="white"/>
<line y1="-0.5" x2="26.8114" y2="-0.5" transform="matrix(-0.931832 0.362889 0.362889 0.931832 785.967 192.726)" stroke="white"/>
</g>
<g filter="url(#filter5_d)">
<path d="M548.933 233.464V248.277L546.302 256.389M548.933 233.464L554.576 216.887M548.933 233.464L544.701 243.692L525.656 269.086M554.576 216.887L548.933 201.016M554.576 216.887L542.948 231.7M548.933 201.016V163.983L542.948 159.461M548.933 201.016L534.473 182.676M548.933 201.016L538.541 214.771M548.933 201.016L535.178 191.493M548.933 201.016H521.776L508.374 206.306M525.656 148.112L501.673 155.529M468.872 189.024H513.664M542.948 159.461L517.191 140H464.993L455.823 146.778L480.158 154.918L491.444 158.693L501.673 155.529M542.948 159.461L534.473 182.676M534.473 182.676L513.664 189.024M513.664 189.024L501.673 155.529M536.942 216.887L538.541 214.771M538.541 214.771L542.948 216.887M542.948 216.887V231.7M542.948 216.887L534.473 243.692M542.948 231.7L534.473 243.692M534.473 243.692L525.656 269.086M534.473 243.692L528.319 251.804M525.656 269.086L546.302 256.389M525.656 269.086L543.386 265.382M525.656 269.086L516.089 301.533M525.656 269.086L513.536 251.804M525.656 269.086L511.195 274.376M546.302 256.389L543.386 265.382M543.386 265.382L540.469 274.376L525.656 294.127L516.089 301.533M516.089 301.533L512.444 304.355M506.61 241.928L509.784 231.7L499.909 218.651M506.61 241.928L503.789 248.277M506.61 241.928L513.536 251.804M499.909 218.651L517.191 231.7M499.909 218.651L508.374 206.306M499.909 218.651V234.345M508.374 206.306L503.789 201.016L495.677 213.007V241.928L499.541 249.335M499.909 250.04V234.345M499.909 250.04L498.498 255.683M499.909 250.04L499.541 249.335M499.909 250.04L491.797 257.799M503.789 248.277L499.909 234.345M503.789 248.277L511.195 274.376M503.789 248.277V254.272L498.498 255.683M511.195 274.376L528.319 251.804M511.195 274.376L498.498 255.683M511.195 274.376L519.307 280.372L511.195 290.247M511.195 274.376L497.695 284.708M511.195 274.376H502.025L498.498 273.318L496.382 274.376L490.386 276.492M511.195 274.376L495.324 268.733M528.319 251.804H513.536M511.195 290.247L514.722 294.127L512.444 304.355M511.195 290.247H502.025M511.195 290.247L497.695 284.708M512.444 304.355L506.61 308.872M500.614 310.351L503.789 301.533L498.498 294.127L489.681 291.305M478.748 311.056H503.789L506.61 308.872M506.61 308.872L509.079 300.122L502.025 290.247M502.025 290.247H477.337M497.695 284.708L497.44 284.604H494.971L498.851 279.666L495.324 268.733M488.623 258.505V257.799L490.386 258.505L491.797 257.799M491.797 257.799L495.324 268.733M495.324 268.733L490.386 271.202M499.541 249.335L490.386 252.509M499.541 249.335L490.386 256.389" stroke="white" stroke-opacity="0.99"/>
</g>
</g>
<defs>
<filter id="filter0_d" x="0.440918" y="82.5906" width="541.383" height="242.965" filterUnits="userSpaceOnUse" color-interpolation-filters="sRGB">
<feFlood flood-opacity="0" result="BackgroundImageFix"/>
<feColorMatrix in="SourceAlpha" type="matrix" values="0 0 0 0 0 0 0 0 0 0 0 0 0 0 0 0 0 0 127 0"/>
<feOffset dx="4" dy="4"/>
<feGaussianBlur stdDeviation="5"/>
<feColorMatrix type="matrix" values="0 0 0 0 0 0 0 0 0 0 0 0 0 0 0 0 0 0 0.25 0"/>
<feBlend mode="normal" in2="BackgroundImageFix" result="effect1_dropShadow"/>
<feBlend mode="normal" in="SourceGraphic" in2="effect1_dropShadow" result="shape"/>
</filter>
<filter id="filter1_d" x="2.44092" y="88.5906" width="443.566" height="212.217" filterUnits="userSpaceOnUse" color-interpolation-filters="sRGB">
<feFlood flood-opacity="0" result="BackgroundImageFix"/>
<feColorMatrix in="SourceAlpha" type="matrix" values="0 0 0 0 0 0 0 0 0 0 0 0 0 0 0 0 0 0 127 0"/>
<feOffset dy="4"/>
<feGaussianBlur stdDeviation="2"/>
<feColorMatrix type="matrix" values="0 0 0 0 0 0 0 0 0 0 0 0 0 0 0 0 0 0 0.25 0"/>
<feBlend mode="normal" in2="BackgroundImageFix" result="effect1_dropShadow"/>
<feBlend mode="normal" in="SourceGraphic" in2="effect1_dropShadow" result="shape"/>
</filter>
<filter id="filter2_d" x="423.471" y="139.5" width="108.353" height="180.056" filterUnits="userSpaceOnUse" color-interpolation-filters="sRGB">
<feFlood flood-opacity="0" result="BackgroundImageFix"/>
<feColorMatrix in="SourceAlpha" type="matrix" values="0 0 0 0 0 0 0 0 0 0 0 0 0 0 0 0 0 0 127 0"/>
<feOffset dy="4"/>
<feGaussianBlur stdDeviation="2"/>
<feColorMatrix type="matrix" values="0 0 0 0 0 0 0 0 0 0 0 0 0 0 0 0 0 0 0.25 0"/>
<feBlend mode="normal" in2="BackgroundImageFix" result="effect1_dropShadow"/>
<feBlend mode="normal" in="SourceGraphic" in2="effect1_dropShadow" result="shape"/>
</filter>
<filter id="filter3_d" x="448.752" y="82.5906" width="541.383" height="242.965" filterUnits="userSpaceOnUse" color-interpolation-filters="sRGB">
<feFlood flood-opacity="0" result="BackgroundImageFix"/>
<feColorMatrix in="SourceAlpha" type="matrix" values="0 0 0 0 0 0 0 0 0 0 0 0 0 0 0 0 0 0 127 0"/>
<feOffset dx="4" dy="4"/>
<feGaussianBlur stdDeviation="5"/>
<feColorMatrix type="matrix" values="0 0 0 0 0 0 0 0 0 0 0 0 0 0 0 0 0 0 0.25 0"/>
<feBlend mode="normal" in2="BackgroundImageFix" result="effect1_dropShadow"/>
<feBlend mode="normal" in="SourceGraphic" in2="effect1_dropShadow" result="shape"/>
</filter>
<filter id="filter4_d" x="536.57" y="88.5906" width="443.566" height="212.217" filterUnits="userSpaceOnUse" color-interpolation-filters="sRGB">
<feFlood flood-opacity="0" result="BackgroundImageFix"/>
<feColorMatrix in="SourceAlpha" type="matrix" values="0 0 0 0 0 0 0 0 0 0 0 0 0 0 0 0 0 0 127 0"/>
<feOffset dy="4"/>
<feGaussianBlur stdDeviation="2"/>
<feColorMatrix type="matrix" values="0 0 0 0 0 0 0 0 0 0 0 0 0 0 0 0 0 0 0.25 0"/>
<feBlend mode="normal" in2="BackgroundImageFix" result="effect1_dropShadow"/>
<feBlend mode="normal" in="SourceGraphic" in2="effect1_dropShadow" result="shape"/>
</filter>
<filter id="filter5_d" x="450.752" y="139.5" width="108.353" height="180.056" filterUnits="userSpaceOnUse" color-interpolation-filters="sRGB">
<feFlood flood-opacity="0" result="BackgroundImageFix"/>
<feColorMatrix in="SourceAlpha" type="matrix" values="0 0 0 0 0 0 0 0 0 0 0 0 0 0 0 0 0 0 127 0"/>
<feOffset dy="4"/>
<feGaussianBlur stdDeviation="2"/>
<feColorMatrix type="matrix" values="0 0 0 0 0 0 0 0 0 0 0 0 0 0 0 0 0 0 0.25 0"/>
<feBlend mode="normal" in2="BackgroundImageFix" result="effect1_dropShadow"/>
<feBlend mode="normal" in="SourceGraphic" in2="effect1_dropShadow" result="shape"/>
</filter>
</defs>
</svg>
