<svg width="991" height="483" viewBox="0 0 991 483" fill="none" xmlns="http://www.w3.org/2000/svg">
<g filter="url(#filter0_d)">
<g filter="url(#filter1_d)">
<circle cx="119.913" cy="97.1376" r="4.37741" transform="rotate(-4 119.913 97.1376)" fill="white"/>
<circle cx="150.553" cy="110.522" r="4.37741" transform="rotate(-4 150.553 110.522)" fill="white"/>
<circle cx="21.2182" cy="95.2627" r="4.37741" transform="rotate(-4 21.2182 95.2627)" fill="white"/>
<circle cx="11.113" cy="114.872" r="4.37741" transform="rotate(-4 11.113 114.872)" fill="white"/>
<circle cx="67.3003" cy="146.048" r="4.37741" transform="rotate(-4 67.3003 146.048)" fill="white"/>
<circle cx="96.8318" cy="162.885" r="4.37741" transform="rotate(-4 96.8318 162.885)" fill="white"/>
<circle cx="128.144" cy="176.223" r="4.37741" transform="rotate(-4 128.144 176.223)" fill="white"/>
<circle cx="148.471" cy="186.953" r="4.37741" transform="rotate(-4 148.471 186.953)" fill="white"/>
<circle cx="181.216" cy="172.512" r="4.37741" transform="rotate(-4 181.216 172.512)" fill="white"/>
<circle cx="164.684" cy="158.141" r="4.37741" transform="rotate(-4 164.684 158.141)" fill="white"/>
<circle cx="176.687" cy="184.98" r="4.37741" transform="rotate(-4 176.687 184.98)" fill="white"/>
<circle cx="344.583" cy="114.507" r="4.37741" transform="rotate(-4 344.583 114.507)" fill="white"/>
<circle cx="373.363" cy="120.595" r="4.37741" transform="rotate(-4 373.363 120.595)" fill="white"/>
<circle cx="424.584" cy="167.646" r="4.37741" transform="rotate(-4 424.584 167.646)" fill="white"/>
<circle cx="431.382" cy="177.971" r="4.37741" transform="rotate(-4 431.382 177.971)" fill="white"/>
<circle cx="437.334" cy="272.743" r="4.37741" transform="rotate(-4 437.334 272.743)" fill="white"/>
<circle cx="420.323" cy="290.135" r="4.37741" transform="rotate(-4 420.323 290.135)" fill="white"/>
<circle cx="351.707" cy="255.706" r="7.20149" transform="rotate(-4 351.707 255.706)" fill="white"/>
<circle cx="290.777" cy="223.584" r="4.37741" transform="rotate(-4 290.777 223.584)" fill="white"/>
<circle cx="303.231" cy="237.565" r="4.37741" transform="rotate(-4 303.231 237.565)" fill="white"/>
<circle cx="244.422" cy="226.825" r="4.37741" transform="rotate(-4 244.422 226.825)" fill="white"/>
<circle cx="217.719" cy="211.815" r="4.37741" transform="rotate(-4 217.719 211.815)" fill="white"/>
<circle cx="289.774" cy="107.875" r="2.69379" transform="rotate(-4 289.774 107.875)" fill="white"/>
<circle cx="239.934" cy="99.8838" r="2.69379" transform="rotate(-4 239.934 99.8838)" fill="white"/>
<circle cx="184.954" cy="95.6273" r="2.69379" transform="rotate(-4 184.954 95.6273)" fill="white"/>
<circle cx="142.63" cy="98.587" r="2.69379" transform="rotate(-4 142.63 98.587)" fill="white"/>
<circle cx="80.8236" cy="102.909" r="2.69379" transform="rotate(-4 80.8236 102.909)" fill="white"/>
<circle cx="72.6395" cy="121.034" r="2.69379" transform="rotate(-4 72.6395 121.034)" fill="white"/>
<circle cx="52.0016" cy="125.177" r="2.69379" transform="rotate(-4 52.0016 125.177)" fill="white"/>
<circle cx="100.968" cy="139.981" r="2.69379" transform="rotate(-4 100.968 139.981)" fill="white"/>
<circle cx="121.498" cy="143.945" r="2.69379" transform="rotate(-4 121.498 143.945)" fill="white"/>
<circle cx="194.475" cy="121.571" r="4.3209" transform="rotate(-4 194.475 121.571)" fill="white"/>
<circle cx="193.432" cy="142.392" r="4.3209" transform="rotate(-4 193.432 142.392)" fill="white"/>
<circle cx="224.485" cy="135.292" r="4.3209" transform="rotate(-4 224.485 135.292)" fill="white"/>
<circle cx="219.745" cy="164.36" r="4.3209" transform="rotate(-4 219.745 164.36)" fill="white"/>
<circle cx="261.115" cy="157.417" r="4.3209" transform="rotate(-4 261.115 157.417)" fill="white"/>
<circle cx="243.318" cy="185.463" r="4.3209" transform="rotate(-4 243.318 185.463)" fill="white"/>
<circle cx="286.663" cy="173.569" r="5.76119" transform="rotate(-4 286.663 173.569)" fill="white"/>
<circle cx="276.887" cy="197.881" r="5.76119" transform="rotate(-4 276.887 197.881)" fill="white"/>
<circle cx="329.661" cy="188.599" r="7.20149" transform="rotate(-4 329.661 188.599)" fill="white"/>
<circle cx="323.632" cy="215.548" r="2.69379" transform="rotate(-4 323.632 215.548)" fill="white"/>
<circle cx="370.395" cy="202.819" r="5.76119" transform="rotate(-4 370.395 202.819)" fill="white"/>
<circle cx="370.395" cy="202.819" r="5.76119" transform="rotate(-4 370.395 202.819)" fill="white"/>
<circle cx="374.318" cy="235.632" r="2.69379" transform="rotate(-4 374.318 235.632)" fill="white"/>
<circle cx="404.112" cy="213.18" r="7.20149" transform="rotate(-4 404.112 213.18)" fill="white"/>
<circle cx="372.185" cy="160.838" r="5.76119" transform="rotate(-4 372.185 160.838)" fill="white"/>
<circle cx="302.219" cy="135.351" r="5.76119" transform="rotate(-4 302.219 135.351)" fill="white"/>
<circle cx="139.985" cy="166.956" r="2.69379" transform="rotate(-4 139.985 166.956)" fill="white"/>
<circle cx="178.658" cy="198.682" r="2.69379" transform="rotate(-4 178.658 198.682)" fill="white"/>
<circle cx="241.202" cy="214.561" r="2.69379" transform="rotate(-4 241.202 214.561)" fill="white"/>
<circle cx="265.782" cy="237.82" r="2.69379" transform="rotate(-4 265.782 237.82)" fill="white"/>
<circle cx="301.89" cy="252.173" r="2.69379" transform="rotate(-4 301.89 252.173)" fill="white"/>
<circle cx="326.075" cy="250.482" r="2.69379" transform="rotate(-4 326.075 250.482)" fill="white"/>
<circle cx="379.918" cy="277.096" r="2.69379" transform="rotate(-4 379.918 277.096)" fill="white"/>
<circle cx="394.026" cy="276.109" r="2.69379" transform="rotate(-4 394.026 276.109)" fill="white"/>
<circle cx="400.34" cy="289.17" r="2.69379" transform="rotate(-4 400.34 289.17)" fill="white"/>
<circle cx="365.059" cy="267.334" r="2.69379" transform="rotate(-4 365.059 267.334)" fill="white"/>
<circle cx="283.624" cy="241.974" r="2.69379" transform="rotate(-4 283.624 241.974)" fill="white"/>
<circle cx="221.593" cy="204.455" r="2.69379" transform="rotate(-4 221.593 204.455)" fill="white"/>
<circle cx="264.419" cy="218.338" r="2.69379" transform="rotate(-4 264.419 218.338)" fill="white"/>
<circle cx="320.184" cy="243.468" r="2.69379" transform="rotate(-4 320.184 243.468)" fill="white"/>
<circle cx="335.34" cy="247.808" r="2.69379" transform="rotate(-4 335.34 247.808)" fill="white"/>
<circle cx="432.075" cy="212.015" r="2.69379" transform="rotate(-4 432.075 212.015)" fill="white"/>
<circle cx="404.877" cy="149.862" r="4.3209" transform="rotate(-4 404.877 149.862)" fill="white"/>
<circle cx="433.879" cy="257.12" r="2.69379" transform="rotate(-4 433.879 257.12)" fill="white"/>
<circle cx="196.25" cy="194.414" r="4.37741" transform="rotate(-4 196.25 194.414)" fill="white"/>
<circle cx="316.179" cy="113.792" r="4.37741" transform="rotate(-4 316.179 113.792)" fill="white"/>
<circle cx="266.964" cy="105.082" r="4.37741" transform="rotate(-4 266.964 105.082)" fill="white"/>
<circle cx="212.467" cy="98.0915" r="4.37741" transform="rotate(-4 212.467 98.0915)" fill="white"/>
<circle cx="163.979" cy="148.064" r="4.37741" transform="rotate(-4 163.979 148.064)" fill="white"/>
<circle cx="151.962" cy="130.676" r="4.37741" transform="rotate(-4 151.962 130.676)" fill="white"/>
<line x1="431.285" y1="177.898" x2="424.534" y2="168.244" stroke="white"/>
<line x1="425.818" y1="166.226" x2="405.692" y2="148.73" stroke="white"/>
<line x1="405.701" y1="148.738" x2="373.45" y2="121.964" stroke="white"/>
<line x1="211.772" y1="97.4761" x2="193.074" y2="119.711" stroke="white"/>
<line x1="193.238" y1="120.083" x2="192.195" y2="143.784" stroke="white"/>
<line x1="190.866" y1="142.65" x2="225.424" y2="134.833" stroke="white"/>
<line x1="224.771" y1="136.875" x2="218.494" y2="162.967" stroke="white"/>
<line x1="218.017" y1="163.702" x2="257.372" y2="156.899" stroke="white"/>
<line x1="242.686" y1="183.797" x2="258.946" y2="155.657" stroke="white"/>
<line x1="286.404" y1="174.086" x2="244.691" y2="185.779" stroke="white"/>
<line x1="276.043" y1="197.698" x2="287.257" y2="174.635" stroke="white"/>
<line x1="328.414" y1="186.001" x2="278.061" y2="199.648" stroke="white"/>
<line x1="323.143" y1="215.444" x2="329.232" y2="186.664" stroke="white"/>
<line x1="370.068" y1="201.984" x2="325.231" y2="217.271" stroke="white"/>
<line x1="373.82" y1="235.677" x2="370.847" y2="202.805" stroke="white"/>
<line x1="405.428" y1="212.936" x2="376.075" y2="237.266" stroke="white"/>
<line x1="431.481" y1="178.615" x2="406.958" y2="214.085" stroke="white"/>
<line x1="371.981" y1="161.066" x2="432.65" y2="179.101" stroke="white"/>
<line x1="372.394" y1="123.718" x2="373.775" y2="162.777" stroke="white"/>
<line x1="304.481" y1="135.377" x2="373.254" y2="124.492" stroke="white"/>
<line x1="371.62" y1="161.343" x2="303.044" y2="136.434" stroke="white"/>
<line x1="369.407" y1="201.504" x2="369.948" y2="160.96" stroke="white"/>
<line x1="302.222" y1="135.702" x2="368.914" y2="201.248" stroke="white"/>
<line x1="267.749" y1="106.364" x2="300.86" y2="135.778" stroke="white"/>
<line x1="225.332" y1="136.262" x2="265.777" y2="106.43" stroke="white"/>
<line x1="181.167" y1="171.092" x2="223.97" y2="136.37" stroke="white"/>
<line x1="185.453" y1="95.6588" x2="180.637" y2="171.606" stroke="white"/>
<line x1="301.71" y1="136.532" x2="183.449" y2="96.1947" stroke="white"/>
<line x1="285.802" y1="173.426" x2="300.061" y2="135.974" stroke="white"/>
<line x1="267.947" y1="107.283" x2="285.409" y2="173.571" stroke="white"/>
<line x1="259.648" y1="157.144" x2="265.624" y2="107.444" stroke="white"/>
<line x1="214.569" y1="98.0083" x2="259.199" y2="156.996" stroke="white"/>
<line x1="156.147" y1="130.947" x2="212.574" y2="97.9722" stroke="white"/>
<line x1="150.727" y1="110.767" x2="155.543" y2="131.359" stroke="white"/>
<line x1="183.89" y1="97.5291" x2="149.082" y2="111.44" stroke="white"/>
<line x1="184.165" y1="97.2592" x2="162.737" y2="148.039" stroke="white"/>
<line x1="218.423" y1="163.129" x2="197.024" y2="195.005" stroke="white"/>
<line x1="285.317" y1="174.01" x2="243.735" y2="226.199" stroke="white"/>
<line x1="329.984" y1="185.774" x2="290.916" y2="225.636" stroke="white"/>
<line x1="369.845" y1="203.746" x2="352.261" y2="251.557" stroke="white"/>
<line x1="370.898" y1="201.848" x2="321.128" y2="243.134" stroke="white"/>
<line x1="323.458" y1="215.648" x2="320.587" y2="242.178" stroke="white"/>
<line x1="217.835" y1="162.855" x2="221.513" y2="205.804" stroke="white"/>
<line x1="244.796" y1="184.326" x2="221.927" y2="204.828" stroke="white"/>
<line x1="245.055" y1="185.333" x2="242.997" y2="213.831" stroke="white"/>
<line x1="278.017" y1="197.596" x2="242.82" y2="215.584" stroke="white"/>
<line x1="303.711" y1="136.027" x2="292.882" y2="222.521" stroke="white"/>
<line x1="406.039" y1="212.738" x2="371.425" y2="161.826" stroke="white"/>
<line x1="420.097" y1="289.198" x2="405.243" y2="211.926" stroke="white"/>
<line x1="433.425" y1="257.617" x2="394.244" y2="276.559" stroke="white"/>
<line x1="374.585" y1="235.209" x2="438.148" y2="275.32" stroke="white"/>
<line x1="379.452" y1="276.916" x2="404.595" y2="211.699" stroke="white"/>
<line x1="367.421" y1="266.765" x2="431.126" y2="212.354" stroke="white"/>
<line x1="374.38" y1="233.397" x2="405.551" y2="148.181" stroke="white"/>
<line x1="329.973" y1="186.449" x2="372.631" y2="120.682" stroke="white"/>
<line x1="375.68" y1="121.927" x2="344.838" y2="115.308" stroke="white"/>
<line x1="344.257" y1="115.366" x2="316.525" y2="114.604" stroke="white"/>
<line x1="313.735" y1="114.779" x2="289.705" y2="109.033" stroke="white"/>
<line x1="290.36" y1="107.655" x2="263.206" y2="105.503" stroke="white"/>
<line x1="267.224" y1="105.885" x2="239.835" y2="100.374" stroke="white"/>
<line x1="239.91" y1="100.383" x2="211.459" y2="98.9972" stroke="white"/>
<line x1="213.38" y1="97.5128" x2="184.929" y2="96.1268" stroke="white"/>
<line x1="184.95" y1="95.4537" x2="142.673" y2="99.0851" stroke="white"/>
<line x1="149.943" y1="109.341" x2="119.538" y2="99.3155" stroke="white"/>
<line x1="142.498" y1="97.7417" x2="119.421" y2="95.9799" stroke="white"/>
<line x1="150.814" y1="110.66" x2="80.7719" y2="103.406" stroke="white"/>
<line x1="152.191" y1="131.471" x2="21.4471" y2="96.0577" stroke="white"/>
<line x1="75.9436" y1="121.395" x2="13.3367" y2="114.197" stroke="white"/>
<line x1="151.758" y1="134.217" x2="69.826" y2="121.043" stroke="white"/>
<line x1="164.273" y1="148.871" x2="100.903" y2="140.476" stroke="white"/>
<line x1="80.0446" y1="102.78" x2="23.5329" y2="95.9305" stroke="white"/>
<line x1="100.838" y1="140.463" x2="11.3891" y2="116.339" stroke="white"/>
<line x1="164.322" y1="148.875" x2="67.5484" y2="145.516" stroke="white"/>
<line x1="168.338" y1="158.714" x2="67.5009" y2="145.512" stroke="white"/>
<line x1="165.079" y1="158.952" x2="99.9132" y2="163.509" stroke="white"/>
<line x1="139.942" y1="167.454" x2="96.4766" y2="163.743" stroke="white"/>
<line x1="181.604" y1="173.323" x2="127.141" y2="176.456" stroke="white"/>
<line x1="139.623" y1="167.395" x2="127.47" y2="177.021" stroke="white"/>
<line x1="181.699" y1="171.931" x2="149.048" y2="187.716" stroke="white"/>
<line x1="175.066" y1="185.932" x2="150.209" y2="187.67" stroke="white"/>
<line x1="177.543" y1="185.233" x2="179.155" y2="198.622" stroke="white"/>
<line x1="196.725" y1="195.212" x2="180.79" y2="199.027" stroke="white"/>
<line x1="222.001" y1="204.745" x2="216.471" y2="212.557" stroke="white"/>
<line x1="218.131" y1="211.63" x2="241.254" y2="214.064" stroke="white"/>
<line x1="241.667" y1="214.378" x2="246.59" y2="226.86" stroke="white"/>
<line x1="264.55" y1="217.441" x2="244.335" y2="227.631" stroke="white"/>
<line x1="291.377" y1="224.334" x2="266.022" y2="238.259" stroke="white"/>
<line x1="264.824" y1="216.96" x2="266.139" y2="235.77" stroke="white"/>
<line x1="291.51" y1="222.731" x2="284.091" y2="242.152" stroke="white"/>
<line x1="283.524" y1="241.484" x2="303.49" y2="237.387" stroke="white"/>
<line x1="302.063" y1="252.09" x2="303.092" y2="237.841" stroke="white"/>
<line x1="320.399" y1="243.919" x2="302.105" y2="252.625" stroke="white"/>
<line x1="325.711" y1="250.824" x2="319.148" y2="243.857" stroke="white"/>
<line x1="335.455" y1="247.61" x2="325.565" y2="251.002" stroke="white"/>
<line x1="351.764" y1="253.87" x2="334.452" y2="247.654" stroke="white"/>
<line x1="364.704" y1="267.686" x2="350.906" y2="253.799" stroke="white"/>
<line x1="379.653" y1="277.52" x2="364.122" y2="267.804" stroke="white"/>
<line x1="394.061" y1="276.608" x2="379.281" y2="277.642" stroke="white"/>
<line x1="399.9" y1="289.406" x2="392.914" y2="276.393" stroke="white"/>
<line x1="420.653" y1="290.947" x2="399.639" y2="289.716" stroke="white"/>
<line x1="438.045" y1="273.412" x2="420.362" y2="290.85" stroke="white"/>
<line x1="434.37" y1="257.024" x2="437.513" y2="273.006" stroke="white"/>
<line x1="432.575" y1="212.003" x2="433.707" y2="257.155" stroke="white"/>
<line x1="432.242" y1="178.289" x2="431.903" y2="212.067" stroke="white"/>
<line x1="196.79" y1="194.26" x2="221.774" y2="203.989" stroke="white"/>
</g>
<g filter="url(#filter2_d)">
<path d="M433.643 235.464V250.277L436.274 258.389M433.643 235.464L428 218.887M433.643 235.464L437.875 245.692L456.921 271.086M428 218.887L433.643 203.016M428 218.887L439.628 233.7M433.643 203.016V165.983L439.628 161.461M433.643 203.016L448.103 184.676M433.643 203.016L444.036 216.771M433.643 203.016L447.398 193.493M433.643 203.016H460.8L474.203 208.306M456.921 150.112L480.904 157.529M513.704 191.024H468.912M439.628 161.461L465.385 142H517.584L526.754 148.778L502.418 156.918L491.132 160.693L480.904 157.529M439.628 161.461L448.103 184.676M448.103 184.676L468.912 191.024M468.912 191.024L480.904 157.529M445.635 218.887L444.036 216.771M444.036 216.771L439.628 218.887M439.628 218.887V233.7M439.628 218.887L448.103 245.692M439.628 233.7L448.103 245.692M448.103 245.692L456.921 271.086M448.103 245.692L454.257 253.804M456.921 271.086L436.274 258.389M456.921 271.086L439.191 267.382M456.921 271.086L466.488 303.533M456.921 271.086L469.041 253.804M456.921 271.086L471.381 276.376M436.274 258.389L439.191 267.382M439.191 267.382L442.108 276.376L456.921 296.127L466.488 303.533M466.488 303.533L470.132 306.355M475.966 243.928L472.792 233.7L482.667 220.651M475.966 243.928L478.788 250.277M475.966 243.928L469.041 253.804M482.667 220.651L465.385 233.7M482.667 220.651L474.203 208.306M482.667 220.651V236.345M474.203 208.306L478.788 203.016L486.9 215.007V243.928L483.035 251.335M482.667 252.04V236.345M482.667 252.04L484.078 257.683M482.667 252.04L483.035 251.335M482.667 252.04L490.779 259.799M478.788 250.277L482.667 236.345M478.788 250.277L471.381 276.376M478.788 250.277V256.272L484.078 257.683M471.381 276.376L454.257 253.804M471.381 276.376L484.078 257.683M471.381 276.376L463.269 282.372L471.381 292.247M471.381 276.376L484.882 286.708M471.381 276.376H480.551L484.078 275.318L486.194 276.376L492.19 278.492M471.381 276.376L487.252 270.733M454.257 253.804H469.041M471.381 292.247L467.854 296.127L470.132 306.355M471.381 292.247H480.551M471.381 292.247L484.882 286.708M470.132 306.355L475.966 310.872M481.962 312.351L478.788 303.533L484.078 296.127L492.895 293.305M503.829 313.056H478.788L475.966 310.872M475.966 310.872L473.497 302.122L480.551 292.247M480.551 292.247H505.24M484.882 286.708L485.136 286.604H487.605L483.725 281.666L487.252 270.733M493.953 260.505V259.799L492.19 260.505L490.779 259.799M490.779 259.799L487.252 270.733M487.252 270.733L492.19 273.202M483.035 251.335L492.19 254.509M483.035 251.335L492.19 258.389" stroke="white" stroke-opacity="0.99"/>
</g>
</g>
<g filter="url(#filter3_d)">
<g filter="url(#filter4_d)">
<circle r="4.37741" transform="matrix(-0.997564 -0.0697565 -0.0697565 0.997564 862.663 97.1376)" fill="white"/>
<circle r="4.37741" transform="matrix(-0.997564 -0.0697565 -0.0697565 0.997564 832.023 110.522)" fill="white"/>
<circle r="4.37741" transform="matrix(-0.997564 -0.0697565 -0.0697565 0.997564 961.358 95.2627)" fill="white"/>
<circle r="4.37741" transform="matrix(-0.997564 -0.0697565 -0.0697565 0.997564 971.463 114.872)" fill="white"/>
<circle r="4.37741" transform="matrix(-0.997564 -0.0697565 -0.0697565 0.997564 915.276 146.048)" fill="white"/>
<circle r="4.37741" transform="matrix(-0.997564 -0.0697565 -0.0697565 0.997564 885.745 162.885)" fill="white"/>
<circle r="4.37741" transform="matrix(-0.997564 -0.0697565 -0.0697565 0.997564 854.433 176.223)" fill="white"/>
<circle r="4.37741" transform="matrix(-0.997564 -0.0697565 -0.0697565 0.997564 834.105 186.953)" fill="white"/>
<circle r="4.37741" transform="matrix(-0.997564 -0.0697565 -0.0697565 0.997564 801.36 172.512)" fill="white"/>
<circle r="4.37741" transform="matrix(-0.997564 -0.0697565 -0.0697565 0.997564 817.892 158.141)" fill="white"/>
<circle r="4.37741" transform="matrix(-0.997564 -0.0697565 -0.0697565 0.997564 805.889 184.98)" fill="white"/>
<circle r="4.37741" transform="matrix(-0.997564 -0.0697565 -0.0697565 0.997564 637.993 114.507)" fill="white"/>
<circle r="4.37741" transform="matrix(-0.997564 -0.0697565 -0.0697565 0.997564 609.214 120.595)" fill="white"/>
<circle r="4.37741" transform="matrix(-0.997564 -0.0697565 -0.0697565 0.997564 557.992 167.646)" fill="white"/>
<circle r="4.37741" transform="matrix(-0.997564 -0.0697565 -0.0697565 0.997564 551.194 177.971)" fill="white"/>
<circle r="4.37741" transform="matrix(-0.997564 -0.0697565 -0.0697565 0.997564 545.242 272.743)" fill="white"/>
<circle r="4.37741" transform="matrix(-0.997564 -0.0697565 -0.0697565 0.997564 562.254 290.135)" fill="white"/>
<circle r="7.20149" transform="matrix(-0.997564 -0.0697565 -0.0697565 0.997564 630.87 255.707)" fill="white"/>
<circle r="4.37741" transform="matrix(-0.997564 -0.0697565 -0.0697565 0.997564 691.799 223.584)" fill="white"/>
<circle r="4.37741" transform="matrix(-0.997564 -0.0697565 -0.0697565 0.997564 679.345 237.565)" fill="white"/>
<circle r="4.37741" transform="matrix(-0.997564 -0.0697565 -0.0697565 0.997564 738.154 226.825)" fill="white"/>
<circle r="4.37741" transform="matrix(-0.997564 -0.0697565 -0.0697565 0.997564 764.857 211.815)" fill="white"/>
<circle r="2.69379" transform="matrix(-0.997564 -0.0697565 -0.0697565 0.997564 692.802 107.875)" fill="white"/>
<circle r="2.69379" transform="matrix(-0.997564 -0.0697565 -0.0697565 0.997564 742.643 99.8838)" fill="white"/>
<circle r="2.69379" transform="matrix(-0.997564 -0.0697565 -0.0697565 0.997564 797.623 95.6273)" fill="white"/>
<circle r="2.69379" transform="matrix(-0.997564 -0.0697565 -0.0697565 0.997564 839.947 98.587)" fill="white"/>
<circle r="2.69379" transform="matrix(-0.997564 -0.0697565 -0.0697565 0.997564 901.753 102.909)" fill="white"/>
<circle r="2.69379" transform="matrix(-0.997564 -0.0697565 -0.0697565 0.997564 909.937 121.034)" fill="white"/>
<circle r="2.69379" transform="matrix(-0.997564 -0.0697565 -0.0697565 0.997564 930.575 125.177)" fill="white"/>
<circle r="2.69379" transform="matrix(-0.997564 -0.0697565 -0.0697565 0.997564 881.608 139.981)" fill="white"/>
<circle r="2.69379" transform="matrix(-0.997564 -0.0697565 -0.0697565 0.997564 861.078 143.945)" fill="white"/>
<circle r="4.3209" transform="matrix(-0.997564 -0.0697565 -0.0697565 0.997564 788.102 121.571)" fill="white"/>
<circle r="4.3209" transform="matrix(-0.997564 -0.0697565 -0.0697565 0.997564 789.144 142.392)" fill="white"/>
<circle r="4.3209" transform="matrix(-0.997564 -0.0697565 -0.0697565 0.997564 758.091 135.292)" fill="white"/>
<circle r="4.3209" transform="matrix(-0.997564 -0.0697565 -0.0697565 0.997564 762.831 164.36)" fill="white"/>
<circle r="4.3209" transform="matrix(-0.997564 -0.0697565 -0.0697565 0.997564 721.461 157.417)" fill="white"/>
<circle r="4.3209" transform="matrix(-0.997564 -0.0697565 -0.0697565 0.997564 739.258 185.463)" fill="white"/>
<circle r="5.76119" transform="matrix(-0.997564 -0.0697565 -0.0697565 0.997564 695.913 173.569)" fill="white"/>
<circle r="5.76119" transform="matrix(-0.997564 -0.0697565 -0.0697565 0.997564 705.69 197.881)" fill="white"/>
<circle r="7.20149" transform="matrix(-0.997564 -0.0697565 -0.0697565 0.997564 652.916 188.599)" fill="white"/>
<circle r="2.69379" transform="matrix(-0.997564 -0.0697565 -0.0697565 0.997564 658.944 215.548)" fill="white"/>
<circle r="5.76119" transform="matrix(-0.997564 -0.0697565 -0.0697565 0.997564 612.182 202.819)" fill="white"/>
<circle r="5.76119" transform="matrix(-0.997564 -0.0697565 -0.0697565 0.997564 612.182 202.819)" fill="white"/>
<circle r="2.69379" transform="matrix(-0.997564 -0.0697565 -0.0697565 0.997564 608.258 235.632)" fill="white"/>
<circle r="7.20149" transform="matrix(-0.997564 -0.0697565 -0.0697565 0.997564 578.464 213.18)" fill="white"/>
<circle r="5.76119" transform="matrix(-0.997564 -0.0697565 -0.0697565 0.997564 610.391 160.838)" fill="white"/>
<circle r="5.76119" transform="matrix(-0.997564 -0.0697565 -0.0697565 0.997564 680.358 135.351)" fill="white"/>
<circle r="2.69379" transform="matrix(-0.997564 -0.0697565 -0.0697565 0.997564 842.592 166.956)" fill="white"/>
<circle r="2.69379" transform="matrix(-0.997564 -0.0697565 -0.0697565 0.997564 803.918 198.682)" fill="white"/>
<circle r="2.69379" transform="matrix(-0.997564 -0.0697565 -0.0697565 0.997564 741.374 214.561)" fill="white"/>
<circle r="2.69379" transform="matrix(-0.997564 -0.0697565 -0.0697565 0.997564 716.795 237.82)" fill="white"/>
<circle r="2.69379" transform="matrix(-0.997564 -0.0697565 -0.0697565 0.997564 680.686 252.173)" fill="white"/>
<circle r="2.69379" transform="matrix(-0.997564 -0.0697565 -0.0697565 0.997564 656.501 250.482)" fill="white"/>
<circle r="2.69379" transform="matrix(-0.997564 -0.0697565 -0.0697565 0.997564 602.658 277.096)" fill="white"/>
<circle r="2.69379" transform="matrix(-0.997564 -0.0697565 -0.0697565 0.997564 588.55 276.109)" fill="white"/>
<circle r="2.69379" transform="matrix(-0.997564 -0.0697565 -0.0697565 0.997564 582.236 289.17)" fill="white"/>
<circle r="2.69379" transform="matrix(-0.997564 -0.0697565 -0.0697565 0.997564 617.518 267.334)" fill="white"/>
<circle r="2.69379" transform="matrix(-0.997564 -0.0697565 -0.0697565 0.997564 698.952 241.974)" fill="white"/>
<circle r="2.69379" transform="matrix(-0.997564 -0.0697565 -0.0697565 0.997564 760.984 204.455)" fill="white"/>
<circle r="2.69379" transform="matrix(-0.997564 -0.0697565 -0.0697565 0.997564 718.157 218.338)" fill="white"/>
<circle r="2.69379" transform="matrix(-0.997564 -0.0697565 -0.0697565 0.997564 662.393 243.468)" fill="white"/>
<circle r="2.69379" transform="matrix(-0.997564 -0.0697565 -0.0697565 0.997564 647.237 247.808)" fill="white"/>
<circle r="2.69379" transform="matrix(-0.997564 -0.0697565 -0.0697565 0.997564 550.501 212.015)" fill="white"/>
<circle r="4.3209" transform="matrix(-0.997564 -0.0697565 -0.0697565 0.997564 577.7 149.862)" fill="white"/>
<circle r="2.69379" transform="matrix(-0.997564 -0.0697565 -0.0697565 0.997564 548.697 257.12)" fill="white"/>
<circle r="4.37741" transform="matrix(-0.997564 -0.0697565 -0.0697565 0.997564 786.327 194.414)" fill="white"/>
<circle r="4.37741" transform="matrix(-0.997564 -0.0697565 -0.0697565 0.997564 666.397 113.792)" fill="white"/>
<circle r="4.37741" transform="matrix(-0.997564 -0.0697565 -0.0697565 0.997564 715.613 105.082)" fill="white"/>
<circle r="4.37741" transform="matrix(-0.997564 -0.0697565 -0.0697565 0.997564 770.109 98.0915)" fill="white"/>
<circle r="4.37741" transform="matrix(-0.997564 -0.0697565 -0.0697565 0.997564 818.597 148.064)" fill="white"/>
<circle r="4.37741" transform="matrix(-0.997564 -0.0697565 -0.0697565 0.997564 830.614 130.676)" fill="white"/>
<line y1="-0.5" x2="11.7805" y2="-0.5" transform="matrix(0.573058 -0.819515 -0.819515 -0.573058 550.882 177.612)" stroke="white"/>
<line y1="-0.5" x2="26.6672" y2="-0.5" transform="matrix(0.75471 -0.656059 -0.656059 -0.75471 556.43 165.848)" stroke="white"/>
<line y1="-0.5" x2="41.9164" y2="-0.5" transform="matrix(0.769421 -0.638742 -0.638742 -0.769421 576.556 148.353)" stroke="white"/>
<line y1="-0.5" x2="29.0521" y2="-0.5" transform="matrix(0.6436 0.765362 0.765362 -0.6436 771.187 97.1543)" stroke="white"/>
<line y1="-0.5" x2="23.7241" y2="-0.5" transform="matrix(0.0439647 0.999033 0.999033 -0.0439647 789.838 120.061)" stroke="white"/>
<line y1="-0.5" x2="35.4313" y2="-0.5" transform="matrix(-0.975357 -0.220632 -0.220632 0.975357 791.6 143.138)" stroke="white"/>
<line y1="-0.5" x2="26.8367" y2="-0.5" transform="matrix(0.233879 0.972266 0.972266 -0.233879 758.292 136.758)" stroke="white"/>
<line y1="-0.5" x2="39.9384" y2="-0.5" transform="matrix(-0.985388 -0.170325 -0.170325 0.985388 764.474 164.194)" stroke="white"/>
<line y1="-0.5" x2="32.5004" y2="-0.5" transform="matrix(-0.500292 -0.865857 -0.865857 0.500292 739.458 184.048)" stroke="white"/>
<line y1="-0.5" x2="43.3211" y2="-0.5" transform="matrix(0.962884 0.269916 0.269916 -0.962884 696.307 173.604)" stroke="white"/>
<line y1="-0.5" x2="25.6441" y2="-0.5" transform="matrix(-0.437297 -0.899318 -0.899318 0.437297 706.083 197.916)" stroke="white"/>
<line y1="-0.5" x2="52.1694" y2="-0.5" transform="matrix(0.965177 0.261598 0.261598 -0.965177 654.293 185.518)" stroke="white"/>
<line y1="-0.5" x2="29.4167" y2="-0.5" transform="matrix(-0.206979 -0.978345 -0.978345 0.206979 658.944 215.548)" stroke="white"/>
<line y1="-0.5" x2="47.3717" y2="-0.5" transform="matrix(0.9465 0.322703 0.322703 -0.9465 612.669 201.51)" stroke="white"/>
<line y1="-0.5" x2="33.0058" y2="-0.5" transform="matrix(0.0900962 -0.995933 -0.995933 -0.0900962 608.258 235.632)" stroke="white"/>
<line y1="-0.5" x2="38.1257" y2="-0.5" transform="matrix(0.769898 0.638168 0.638168 -0.769898 577.468 212.551)" stroke="white"/>
<line y1="-0.5" x2="43.1217" y2="-0.5" transform="matrix(0.568703 0.822543 0.822543 -0.568703 551.506 178.331)" stroke="white"/>
<line y1="-0.5" x2="63.2934" y2="-0.5" transform="matrix(-0.958542 0.284953 0.284953 0.958542 610.738 161.545)" stroke="white"/>
<line y1="-0.5" x2="39.0832" y2="-0.5" transform="matrix(-0.0353369 0.999376 0.999376 0.0353369 610.682 123.736)" stroke="white"/>
<line y1="-0.5" x2="69.6294" y2="-0.5" transform="matrix(-0.987706 -0.156327 -0.156327 0.987706 678.018 135.87)" stroke="white"/>
<line y1="-0.5" x2="72.9596" y2="-0.5" transform="matrix(0.939916 -0.341405 -0.341405 -0.939916 610.785 160.873)" stroke="white"/>
<line y1="-0.5" x2="40.5469" y2="-0.5" transform="matrix(-0.0133277 -0.999911 -0.999911 0.0133277 612.669 201.51)" stroke="white"/>
<line y1="-0.5" x2="93.5099" y2="-0.5" transform="matrix(-0.713207 0.700953 0.700953 0.713207 680.705 136.058)" stroke="white"/>
<line y1="-0.5" x2="44.2891" y2="-0.5" transform="matrix(-0.747612 0.664136 0.664136 0.747612 715.16 106.738)" stroke="white"/>
<line y1="-0.5" x2="50.2565" y2="-0.5" transform="matrix(-0.804767 -0.593592 -0.593592 0.804767 756.948 136.664)" stroke="white"/>
<line y1="-0.5" x2="55.1159" y2="-0.5" transform="matrix(-0.776604 -0.62999 -0.62999 0.776604 801.095 171.48)" stroke="white"/>
<line y1="-0.5" x2="76.0996" y2="-0.5" transform="matrix(0.0632808 0.997996 0.997996 -0.0632808 797.623 95.6272)" stroke="white"/>
<line y1="-0.5" x2="124.951" y2="-0.5" transform="matrix(0.94646 -0.322822 -0.322822 -0.94646 680.705 136.058)" stroke="white"/>
<line y1="-0.5" x2="40.0744" y2="-0.5" transform="matrix(-0.355799 -0.934563 -0.934563 0.355799 696.307 173.604)" stroke="white"/>
<line y1="-0.5" x2="68.5496" y2="-0.5" transform="matrix(-0.254737 0.967011 0.967011 0.254737 715.113 107.41)" stroke="white"/>
<line y1="-0.5" x2="50.0576" y2="-0.5" transform="matrix(-0.119382 -0.992849 -0.992849 0.119382 722.432 157.204)" stroke="white"/>
<line y1="-0.5" x2="73.969" y2="-0.5" transform="matrix(-0.603366 0.797465 0.797465 0.603366 768.406 98.3099)" stroke="white"/>
<line y1="-0.5" x2="65.3557" y2="-0.5" transform="matrix(-0.863387 -0.504543 -0.504543 0.863387 826.177 131.379)" stroke="white"/>
<line y1="-0.5" x2="21.1467" y2="-0.5" transform="matrix(-0.227711 0.973729 0.973729 0.227711 832.336 110.881)" stroke="white"/>
<line y1="-0.5" x2="37.4839" y2="-0.5" transform="matrix(0.92859 0.371107 0.371107 -0.92859 798.872 97.0648)" stroke="white"/>
<line y1="-0.5" x2="55.1159" y2="-0.5" transform="matrix(0.388772 0.921334 0.921334 -0.388772 798.872 97.0648)" stroke="white"/>
<line y1="-0.5" x2="38.3924" y2="-0.5" transform="matrix(0.557383 0.830256 0.830256 -0.557383 764.568 162.851)" stroke="white"/>
<line y1="-0.5" x2="66.7291" y2="-0.5" transform="matrix(0.623142 0.782109 0.782109 -0.623142 697.651 173.698)" stroke="white"/>
<line y1="-0.5" x2="55.815" y2="-0.5" transform="matrix(0.699961 0.714181 0.714181 -0.699961 652.949 185.424)" stroke="white"/>
<line y1="-0.5" x2="50.9422" y2="-0.5" transform="matrix(0.345187 0.938534 0.938534 -0.345187 613.2 203.573)" stroke="white"/>
<line y1="-0.5" x2="64.665" y2="-0.5" transform="matrix(0.769663 0.638451 0.638451 -0.769663 611.997 201.464)" stroke="white"/>
<line y1="-0.5" x2="26.6842" y2="-0.5" transform="matrix(0.107574 0.994197 0.994197 -0.107574 659.616 215.594)" stroke="white"/>
<line y1="-0.5" x2="43.1059" y2="-0.5" transform="matrix(-0.085333 0.996353 0.996353 0.085333 765.24 162.897)" stroke="white"/>
<line y1="-0.5" x2="30.7139" y2="-0.5" transform="matrix(0.744603 0.667508 0.667508 -0.744603 738.114 183.953)" stroke="white"/>
<line y1="-0.5" x2="28.572" y2="-0.5" transform="matrix(0.0720215 0.997403 0.997403 -0.0720215 738.02 185.297)" stroke="white"/>
<line y1="-0.5" x2="39.5274" y2="-0.5" transform="matrix(0.890448 0.455085 0.455085 -0.890448 704.787 197.15)" stroke="white"/>
<line y1="-0.5" x2="87.1692" y2="-0.5" transform="matrix(0.12423 0.992254 0.992254 -0.12423 679.361 135.964)" stroke="white"/>
<line y1="-0.5" x2="61.5643" y2="-0.5" transform="matrix(0.562247 -0.82697 -0.82697 -0.562247 576.124 212.457)" stroke="white"/>
<line y1="-0.5" x2="78.6868" y2="-0.5" transform="matrix(0.188782 -0.982019 -0.982019 -0.188782 561.988 289.104)" stroke="white"/>
<line y1="-0.5" x2="43.5195" y2="-0.5" transform="matrix(0.900308 0.435253 0.435253 -0.900308 549.369 257.167)" stroke="white"/>
<line y1="-0.5" x2="75.1611" y2="-0.5" transform="matrix(-0.845692 0.533671 0.533671 0.845692 608.258 235.632)" stroke="white"/>
<line y1="-0.5" x2="69.896" y2="-0.5" transform="matrix(-0.35973 -0.933057 -0.933057 0.35973 602.658 277.096)" stroke="white"/>
<line y1="-0.5" x2="83.7787" y2="-0.5" transform="matrix(-0.76039 -0.649467 -0.649467 0.76039 614.831 267.146)" stroke="white"/>
<line y1="-0.5" x2="90.7382" y2="-0.5" transform="matrix(-0.343529 -0.939142 -0.939142 0.343529 607.727 233.569)" stroke="white"/>
<line y1="-0.5" x2="78.3895" y2="-0.5" transform="matrix(-0.544176 -0.838971 -0.838971 0.544176 652.184 186.721)" stroke="white"/>
<line y1="-0.5" x2="31.5444" y2="-0.5" transform="matrix(0.977734 -0.209848 -0.209848 -0.977734 606.792 121.438)" stroke="white"/>
<line y1="-0.5" x2="27.7425" y2="-0.5" transform="matrix(0.999624 -0.0274366 -0.0274366 -0.999624 638.306 114.866)" stroke="white"/>
<line y1="-0.5" x2="24.7074" y2="-0.5" transform="matrix(0.972585 -0.232549 -0.232549 -0.972585 668.725 114.293)" stroke="white"/>
<line y1="-0.5" x2="27.2393" y2="-0.5" transform="matrix(0.996875 -0.0789944 -0.0789944 -0.996875 692.177 107.156)" stroke="white"/>
<line y1="-0.5" x2="27.9379" y2="-0.5" transform="matrix(0.980353 -0.197251 -0.197251 -0.980353 715.253 105.395)" stroke="white"/>
<line y1="-0.5" x2="28.4845" y2="-0.5" transform="matrix(0.998815 -0.0486576 -0.0486576 -0.998815 742.643 99.8838)" stroke="white"/>
<line y1="-0.5" x2="28.4845" y2="-0.5" transform="matrix(0.998815 -0.0486576 -0.0486576 -0.998815 769.172 97.0134)" stroke="white"/>
<line y1="-0.5" x2="42.4326" y2="-0.5" transform="matrix(0.996331 0.08558 0.08558 -0.996331 797.67 94.9556)" stroke="white"/>
<line y1="-0.5" x2="32.0154" y2="-0.5" transform="matrix(0.949704 -0.313148 -0.313148 -0.949704 832.477 108.866)" stroke="white"/>
<line y1="-0.5" x2="23.1435" y2="-0.5" transform="matrix(0.997098 -0.0761254 -0.0761254 -0.997098 840.041 97.2432)" stroke="white"/>
<line y1="-0.5" x2="70.4164" y2="-0.5" transform="matrix(0.99468 -0.103014 -0.103014 -0.99468 831.711 110.163)" stroke="white"/>
<line y1="-0.5" x2="135.455" y2="-0.5" transform="matrix(0.965219 -0.261441 -0.261441 -0.965219 830.255 130.989)" stroke="white"/>
<line y1="-0.5" x2="63.0194" y2="-0.5" transform="matrix(0.993455 -0.114222 -0.114222 -0.993455 906.576 120.898)" stroke="white"/>
<line y1="-0.5" x2="82.9845" y2="-0.5" transform="matrix(0.98732 -0.158744 -0.158744 -0.98732 830.739 133.723)" stroke="white"/>
<line y1="-0.5" x2="63.9244" y2="-0.5" transform="matrix(0.991338 -0.131334 -0.131334 -0.991338 818.237 148.376)" stroke="white"/>
<line y1="-0.5" x2="56.9253" y2="-0.5" transform="matrix(0.992734 -0.12033 -0.12033 -0.992734 902.472 102.284)" stroke="white"/>
<line y1="-0.5" x2="92.645" y2="-0.5" transform="matrix(0.965502 -0.260395 -0.260395 -0.965502 881.608 139.98)" stroke="white"/>
<line y1="-0.5" x2="96.8314" y2="-0.5" transform="matrix(0.999398 -0.0346928 -0.0346928 -0.999398 818.237 148.376)" stroke="white"/>
<line y1="-0.5" x2="101.697" y2="-0.5" transform="matrix(0.991539 -0.129812 -0.129812 -0.991539 814.174 158.218)" stroke="white"/>
<line y1="-0.5" x2="65.3245" y2="-0.5" transform="matrix(0.997564 0.0697565 0.0697565 -0.997564 817.533 158.453)" stroke="white"/>
<line y1="-0.5" x2="43.6236" y2="-0.5" transform="matrix(0.996374 -0.0850806 -0.0850806 -0.996374 842.592 166.956)" stroke="white"/>
<line y1="-0.5" x2="54.5535" y2="-0.5" transform="matrix(0.998349 0.0574365 0.0574365 -0.998349 801.001 172.824)" stroke="white"/>
<line y1="-0.5" x2="15.5039" y2="-0.5" transform="matrix(0.783906 0.620879 0.620879 -0.783906 843.264 167.003)" stroke="white"/>
<line y1="-0.5" x2="36.2663" y2="-0.5" transform="matrix(0.900308 0.435253 0.435253 -0.900308 801.095 171.48)" stroke="white"/>
<line y1="-0.5" x2="24.9176" y2="-0.5" transform="matrix(0.997564 0.0697565 0.0697565 -0.997564 807.545 185.433)" stroke="white"/>
<line y1="-0.5" x2="13.4858" y2="-0.5" transform="matrix(-0.119485 0.992836 0.992836 0.119485 805.53 185.292)" stroke="white"/>
<line y1="-0.5" x2="16.3857" y2="-0.5" transform="matrix(0.972523 0.232806 0.232806 -0.972523 785.967 194.726)" stroke="white"/>
<line y1="-0.5" x2="9.57149" y2="-0.5" transform="matrix(0.577707 0.816244 0.816244 -0.577707 760.984 204.456)" stroke="white"/>
<line y1="-0.5" x2="23.251" y2="-0.5" transform="matrix(-0.994507 0.104667 0.104667 0.994507 764.498 212.127)" stroke="white"/>
<line y1="-0.5" x2="13.4184" y2="-0.5" transform="matrix(-0.366916 0.930254 0.930254 0.366916 741.375 214.561)" stroke="white"/>
<line y1="-0.5" x2="22.6383" y2="-0.5" transform="matrix(0.892971 0.450114 0.450114 -0.892971 718.251 216.995)" stroke="white"/>
<line y1="-0.5" x2="28.9269" y2="-0.5" transform="matrix(0.876516 0.481373 0.481373 -0.876516 691.44 223.896)" stroke="white"/>
<line y1="-0.5" x2="18.8565" y2="-0.5" transform="matrix(-0.0697565 0.997564 0.997564 0.0697565 718.251 216.995)" stroke="white"/>
<line y1="-0.5" x2="20.7898" y2="-0.5" transform="matrix(0.356816 0.934175 0.934175 -0.356816 691.534 222.552)" stroke="white"/>
<line y1="-0.5" x2="20.3822" y2="-0.5" transform="matrix(-0.979594 -0.200986 -0.200986 0.979594 698.952 241.974)" stroke="white"/>
<line y1="-0.5" x2="14.286" y2="-0.5" transform="matrix(-0.0720214 -0.997403 -0.997403 0.0720214 680.015 252.126)" stroke="white"/>
<line y1="-0.5" x2="20.2595" y2="-0.5" transform="matrix(0.902978 0.429688 0.429688 -0.902978 662.393 243.468)" stroke="white"/>
<line y1="-0.5" x2="9.5715" y2="-0.5" transform="matrix(0.685684 -0.727899 -0.727899 -0.685684 656.501 250.482)" stroke="white"/>
<line y1="-0.5" x2="10.4547" y2="-0.5" transform="matrix(0.945908 0.324436 0.324436 -0.945908 647.284 247.137)" stroke="white"/>
<line y1="-0.5" x2="18.3939" y2="-0.5" transform="matrix(0.941179 -0.337908 -0.337908 -0.941179 630.644 253.399)" stroke="white"/>
<line y1="-0.5" x2="19.5764" y2="-0.5" transform="matrix(0.704821 -0.709385 -0.709385 -0.704821 617.518 267.334)" stroke="white"/>
<line y1="-0.5" x2="18.3198" y2="-0.5" transform="matrix(0.847795 -0.530324 -0.530324 -0.847795 602.658 277.096)" stroke="white"/>
<line y1="-0.5" x2="14.8159" y2="-0.5" transform="matrix(0.997564 0.0697564 0.0697564 -0.997564 588.55 276.109)" stroke="white"/>
<line y1="-0.5" x2="14.7699" y2="-0.5" transform="matrix(0.472977 -0.881075 -0.881075 -0.472977 582.236 289.17)" stroke="white"/>
<line y1="-0.5" x2="21.05" y2="-0.5" transform="matrix(0.998289 -0.0584767 -0.0584767 -0.998289 561.894 290.448)" stroke="white"/>
<line y1="-0.5" x2="24.8355" y2="-0.5" transform="matrix(0.71201 0.702169 0.702169 -0.71201 544.883 273.056)" stroke="white"/>
<line y1="-0.5" x2="16.2885" y2="-0.5" transform="matrix(-0.19295 0.981209 0.981209 0.19295 548.697 257.12)" stroke="white"/>
<line y1="-0.5" x2="45.1662" y2="-0.5" transform="matrix(-0.0250643 0.999686 0.999686 0.0250643 550.501 212.015)" stroke="white"/>
<line y1="-0.5" x2="33.78" y2="-0.5" transform="matrix(0.0100166 0.99995 0.99995 -0.0100166 550.835 178.284)" stroke="white"/>
<line y1="-0.5" x2="26.8114" y2="-0.5" transform="matrix(-0.931832 0.362889 0.362889 0.931832 785.967 194.726)" stroke="white"/>
</g>
<g filter="url(#filter5_d)">
<path d="M548.933 235.464V250.277L546.302 258.389M548.933 235.464L554.576 218.887M548.933 235.464L544.701 245.692L525.656 271.086M554.576 218.887L548.933 203.016M554.576 218.887L542.948 233.7M548.933 203.016V165.983L542.948 161.461M548.933 203.016L534.473 184.676M548.933 203.016L538.541 216.771M548.933 203.016L535.178 193.493M548.933 203.016H521.776L508.374 208.306M525.656 150.112L501.673 157.529M468.872 191.024H513.664M542.948 161.461L517.191 142H464.993L455.823 148.778L480.158 156.918L491.444 160.693L501.673 157.529M542.948 161.461L534.473 184.676M534.473 184.676L513.664 191.024M513.664 191.024L501.673 157.529M536.942 218.887L538.541 216.771M538.541 216.771L542.948 218.887M542.948 218.887V233.7M542.948 218.887L534.473 245.692M542.948 233.7L534.473 245.692M534.473 245.692L525.656 271.086M534.473 245.692L528.319 253.804M525.656 271.086L546.302 258.389M525.656 271.086L543.386 267.382M525.656 271.086L516.089 303.533M525.656 271.086L513.536 253.804M525.656 271.086L511.195 276.376M546.302 258.389L543.386 267.382M543.386 267.382L540.469 276.376L525.656 296.127L516.089 303.533M516.089 303.533L512.444 306.355M506.61 243.928L509.784 233.7L499.909 220.651M506.61 243.928L503.789 250.277M506.61 243.928L513.536 253.804M499.909 220.651L517.191 233.7M499.909 220.651L508.374 208.306M499.909 220.651V236.345M508.374 208.306L503.789 203.016L495.677 215.007V243.928L499.541 251.335M499.909 252.04V236.345M499.909 252.04L498.498 257.683M499.909 252.04L499.541 251.335M499.909 252.04L491.797 259.799M503.789 250.277L499.909 236.345M503.789 250.277L511.195 276.376M503.789 250.277V256.272L498.498 257.683M511.195 276.376L528.319 253.804M511.195 276.376L498.498 257.683M511.195 276.376L519.307 282.372L511.195 292.247M511.195 276.376L497.695 286.708M511.195 276.376H502.025L498.498 275.318L496.382 276.376L490.386 278.492M511.195 276.376L495.324 270.733M528.319 253.804H513.536M511.195 292.247L514.722 296.127L512.444 306.355M511.195 292.247H502.025M511.195 292.247L497.695 286.708M512.444 306.355L506.61 310.872M500.614 312.351L503.789 303.533L498.498 296.127L489.681 293.305M478.748 313.056H503.789L506.61 310.872M506.61 310.872L509.079 302.122L502.025 292.247M502.025 292.247H477.337M497.695 286.708L497.44 286.604H494.971L498.851 281.666L495.324 270.733M488.623 260.505V259.799L490.386 260.505L491.797 259.799M491.797 259.799L495.324 270.733M495.324 270.733L490.386 273.202M499.541 251.335L490.386 254.509M499.541 251.335L490.386 258.389" stroke="white" stroke-opacity="0.99"/>
</g>
</g>
<g filter="url(#filter6_f)">
<g filter="url(#filter7_d)">
<g filter="url(#filter8_d)">
<circle cx="119.913" cy="116.138" r="4.37741" transform="rotate(-4 119.913 116.138)" fill="white" fill-opacity="0.5"/>
<circle cx="150.553" cy="129.522" r="4.37741" transform="rotate(-4 150.553 129.522)" fill="white" fill-opacity="0.5"/>
<circle cx="21.2182" cy="114.263" r="4.37741" transform="rotate(-4 21.2182 114.263)" fill="white" fill-opacity="0.5"/>
<circle cx="11.113" cy="133.872" r="4.37741" transform="rotate(-4 11.113 133.872)" fill="white" fill-opacity="0.5"/>
<circle cx="67.3003" cy="165.048" r="4.37741" transform="rotate(-4 67.3003 165.048)" fill="white" fill-opacity="0.5"/>
<circle cx="96.8318" cy="181.885" r="4.37741" transform="rotate(-4 96.8318 181.885)" fill="white" fill-opacity="0.5"/>
<circle cx="128.144" cy="195.223" r="4.37741" transform="rotate(-4 128.144 195.223)" fill="white" fill-opacity="0.5"/>
<circle cx="148.471" cy="205.953" r="4.37741" transform="rotate(-4 148.471 205.953)" fill="white" fill-opacity="0.5"/>
<circle cx="181.216" cy="191.512" r="4.37741" transform="rotate(-4 181.216 191.512)" fill="white" fill-opacity="0.5"/>
<circle cx="164.684" cy="177.141" r="4.37741" transform="rotate(-4 164.684 177.141)" fill="white" fill-opacity="0.5"/>
<circle cx="176.687" cy="203.98" r="4.37741" transform="rotate(-4 176.687 203.98)" fill="white" fill-opacity="0.5"/>
<circle cx="344.583" cy="133.507" r="4.37741" transform="rotate(-4 344.583 133.507)" fill="white" fill-opacity="0.5"/>
<circle cx="373.363" cy="139.595" r="4.37741" transform="rotate(-4 373.363 139.595)" fill="white" fill-opacity="0.5"/>
<circle cx="424.584" cy="186.646" r="4.37741" transform="rotate(-4 424.584 186.646)" fill="white" fill-opacity="0.5"/>
<circle cx="431.382" cy="196.971" r="4.37741" transform="rotate(-4 431.382 196.971)" fill="white" fill-opacity="0.5"/>
<circle cx="437.334" cy="291.743" r="4.37741" transform="rotate(-4 437.334 291.743)" fill="white" fill-opacity="0.5"/>
<circle cx="420.323" cy="309.135" r="4.37741" transform="rotate(-4 420.323 309.135)" fill="white" fill-opacity="0.5"/>
<circle cx="351.707" cy="274.707" r="7.20149" transform="rotate(-4 351.707 274.707)" fill="white" fill-opacity="0.5"/>
<circle cx="290.777" cy="242.584" r="4.37741" transform="rotate(-4 290.777 242.584)" fill="white" fill-opacity="0.5"/>
<circle cx="303.231" cy="256.565" r="4.37741" transform="rotate(-4 303.231 256.565)" fill="white" fill-opacity="0.5"/>
<circle cx="244.422" cy="245.825" r="4.37741" transform="rotate(-4 244.422 245.825)" fill="white" fill-opacity="0.5"/>
<circle cx="217.719" cy="230.815" r="4.37741" transform="rotate(-4 217.719 230.815)" fill="white" fill-opacity="0.5"/>
<circle cx="289.774" cy="126.875" r="2.69379" transform="rotate(-4 289.774 126.875)" fill="white" fill-opacity="0.5"/>
<circle cx="239.934" cy="118.884" r="2.69379" transform="rotate(-4 239.934 118.884)" fill="white" fill-opacity="0.5"/>
<circle cx="184.954" cy="114.627" r="2.69379" transform="rotate(-4 184.954 114.627)" fill="white" fill-opacity="0.5"/>
<circle cx="142.63" cy="117.587" r="2.69379" transform="rotate(-4 142.63 117.587)" fill="white" fill-opacity="0.5"/>
<circle cx="80.8236" cy="121.909" r="2.69379" transform="rotate(-4 80.8236 121.909)" fill="white" fill-opacity="0.5"/>
<circle cx="72.6395" cy="140.034" r="2.69379" transform="rotate(-4 72.6395 140.034)" fill="white" fill-opacity="0.5"/>
<circle cx="52.0016" cy="144.177" r="2.69379" transform="rotate(-4 52.0016 144.177)" fill="white" fill-opacity="0.5"/>
<circle cx="100.968" cy="158.981" r="2.69379" transform="rotate(-4 100.968 158.981)" fill="white" fill-opacity="0.5"/>
<circle cx="121.498" cy="162.945" r="2.69379" transform="rotate(-4 121.498 162.945)" fill="white" fill-opacity="0.5"/>
<circle cx="194.475" cy="140.571" r="4.3209" transform="rotate(-4 194.475 140.571)" fill="white" fill-opacity="0.5"/>
<circle cx="193.432" cy="161.392" r="4.3209" transform="rotate(-4 193.432 161.392)" fill="white" fill-opacity="0.5"/>
<circle cx="224.485" cy="154.292" r="4.3209" transform="rotate(-4 224.485 154.292)" fill="white" fill-opacity="0.5"/>
<circle cx="219.745" cy="183.36" r="4.3209" transform="rotate(-4 219.745 183.36)" fill="white" fill-opacity="0.5"/>
<circle cx="261.115" cy="176.417" r="4.3209" transform="rotate(-4 261.115 176.417)" fill="white" fill-opacity="0.5"/>
<circle cx="243.318" cy="204.463" r="4.3209" transform="rotate(-4 243.318 204.463)" fill="white" fill-opacity="0.5"/>
<circle cx="286.663" cy="192.569" r="5.76119" transform="rotate(-4 286.663 192.569)" fill="white" fill-opacity="0.5"/>
<circle cx="276.887" cy="216.881" r="5.76119" transform="rotate(-4 276.887 216.881)" fill="white" fill-opacity="0.5"/>
<circle cx="329.661" cy="207.599" r="7.20149" transform="rotate(-4 329.661 207.599)" fill="white" fill-opacity="0.5"/>
<circle cx="323.632" cy="234.548" r="2.69379" transform="rotate(-4 323.632 234.548)" fill="white" fill-opacity="0.5"/>
<circle cx="370.395" cy="221.819" r="5.76119" transform="rotate(-4 370.395 221.819)" fill="white" fill-opacity="0.5"/>
<circle cx="370.395" cy="221.819" r="5.76119" transform="rotate(-4 370.395 221.819)" fill="white" fill-opacity="0.5"/>
<circle cx="374.318" cy="254.632" r="2.69379" transform="rotate(-4 374.318 254.632)" fill="white" fill-opacity="0.5"/>
<circle cx="404.112" cy="232.18" r="7.20149" transform="rotate(-4 404.112 232.18)" fill="white" fill-opacity="0.5"/>
<circle cx="372.185" cy="179.838" r="5.76119" transform="rotate(-4 372.185 179.838)" fill="white" fill-opacity="0.5"/>
<circle cx="302.219" cy="154.351" r="5.76119" transform="rotate(-4 302.219 154.351)" fill="white" fill-opacity="0.5"/>
<circle cx="139.985" cy="185.956" r="2.69379" transform="rotate(-4 139.985 185.956)" fill="white" fill-opacity="0.5"/>
<circle cx="178.658" cy="217.682" r="2.69379" transform="rotate(-4 178.658 217.682)" fill="white" fill-opacity="0.5"/>
<circle cx="241.202" cy="233.561" r="2.69379" transform="rotate(-4 241.202 233.561)" fill="white" fill-opacity="0.5"/>
<circle cx="265.782" cy="256.82" r="2.69379" transform="rotate(-4 265.782 256.82)" fill="white" fill-opacity="0.5"/>
<circle cx="301.89" cy="271.173" r="2.69379" transform="rotate(-4 301.89 271.173)" fill="white" fill-opacity="0.5"/>
<circle cx="326.075" cy="269.482" r="2.69379" transform="rotate(-4 326.075 269.482)" fill="white" fill-opacity="0.5"/>
<circle cx="379.918" cy="296.096" r="2.69379" transform="rotate(-4 379.918 296.096)" fill="white" fill-opacity="0.5"/>
<circle cx="394.026" cy="295.109" r="2.69379" transform="rotate(-4 394.026 295.109)" fill="white" fill-opacity="0.5"/>
<circle cx="400.34" cy="308.17" r="2.69379" transform="rotate(-4 400.34 308.17)" fill="white" fill-opacity="0.5"/>
<circle cx="365.059" cy="286.334" r="2.69379" transform="rotate(-4 365.059 286.334)" fill="white" fill-opacity="0.5"/>
<circle cx="283.624" cy="260.974" r="2.69379" transform="rotate(-4 283.624 260.974)" fill="white" fill-opacity="0.5"/>
<circle cx="221.593" cy="223.455" r="2.69379" transform="rotate(-4 221.593 223.455)" fill="white" fill-opacity="0.5"/>
<circle cx="264.419" cy="237.338" r="2.69379" transform="rotate(-4 264.419 237.338)" fill="white" fill-opacity="0.5"/>
<circle cx="320.184" cy="262.468" r="2.69379" transform="rotate(-4 320.184 262.468)" fill="white" fill-opacity="0.5"/>
<circle cx="335.34" cy="266.808" r="2.69379" transform="rotate(-4 335.34 266.808)" fill="white" fill-opacity="0.5"/>
<circle cx="432.075" cy="231.015" r="2.69379" transform="rotate(-4 432.075 231.015)" fill="white" fill-opacity="0.5"/>
<circle cx="404.877" cy="168.862" r="4.3209" transform="rotate(-4 404.877 168.862)" fill="white" fill-opacity="0.5"/>
<circle cx="433.879" cy="276.12" r="2.69379" transform="rotate(-4 433.879 276.12)" fill="white" fill-opacity="0.5"/>
<circle cx="196.25" cy="213.414" r="4.37741" transform="rotate(-4 196.25 213.414)" fill="white" fill-opacity="0.5"/>
<circle cx="316.179" cy="132.792" r="4.37741" transform="rotate(-4 316.179 132.792)" fill="white" fill-opacity="0.5"/>
<circle cx="266.964" cy="124.082" r="4.37741" transform="rotate(-4 266.964 124.082)" fill="white" fill-opacity="0.5"/>
<circle cx="212.467" cy="117.092" r="4.37741" transform="rotate(-4 212.467 117.092)" fill="white" fill-opacity="0.5"/>
<circle cx="163.979" cy="167.064" r="4.37741" transform="rotate(-4 163.979 167.064)" fill="white" fill-opacity="0.5"/>
<circle cx="151.962" cy="149.676" r="4.37741" transform="rotate(-4 151.962 149.676)" fill="white" fill-opacity="0.5"/>
<line x1="431.285" y1="196.898" x2="424.534" y2="187.244" stroke="white" stroke-opacity="0.5"/>
<line x1="425.818" y1="185.226" x2="405.692" y2="167.73" stroke="white" stroke-opacity="0.5"/>
<line x1="405.701" y1="167.738" x2="373.45" y2="140.964" stroke="white" stroke-opacity="0.5"/>
<line x1="211.772" y1="116.476" x2="193.074" y2="138.711" stroke="white" stroke-opacity="0.5"/>
<line x1="193.238" y1="139.083" x2="192.195" y2="162.784" stroke="white" stroke-opacity="0.5"/>
<line x1="190.866" y1="161.65" x2="225.424" y2="153.833" stroke="white" stroke-opacity="0.5"/>
<line x1="224.771" y1="155.875" x2="218.494" y2="181.967" stroke="white" stroke-opacity="0.5"/>
<line x1="218.017" y1="182.702" x2="257.372" y2="175.899" stroke="white" stroke-opacity="0.5"/>
<line x1="242.686" y1="202.797" x2="258.946" y2="174.657" stroke="white" stroke-opacity="0.5"/>
<line x1="286.404" y1="193.086" x2="244.691" y2="204.779" stroke="white" stroke-opacity="0.5"/>
<line x1="276.043" y1="216.698" x2="287.257" y2="193.635" stroke="white" stroke-opacity="0.5"/>
<line x1="328.414" y1="205.001" x2="278.061" y2="218.648" stroke="white" stroke-opacity="0.5"/>
<line x1="323.143" y1="234.444" x2="329.232" y2="205.664" stroke="white" stroke-opacity="0.5"/>
<line x1="370.068" y1="220.984" x2="325.231" y2="236.271" stroke="white" stroke-opacity="0.5"/>
<line x1="373.82" y1="254.677" x2="370.847" y2="221.805" stroke="white" stroke-opacity="0.5"/>
<line x1="405.428" y1="231.936" x2="376.075" y2="256.266" stroke="white" stroke-opacity="0.5"/>
<line x1="431.481" y1="197.615" x2="406.958" y2="233.085" stroke="white" stroke-opacity="0.5"/>
<line x1="371.981" y1="180.066" x2="432.65" y2="198.101" stroke="white" stroke-opacity="0.5"/>
<line x1="372.394" y1="142.718" x2="373.775" y2="181.777" stroke="white" stroke-opacity="0.5"/>
<line x1="304.481" y1="154.377" x2="373.254" y2="143.492" stroke="white" stroke-opacity="0.5"/>
<line x1="371.62" y1="180.343" x2="303.044" y2="155.434" stroke="white" stroke-opacity="0.5"/>
<line x1="369.407" y1="220.504" x2="369.948" y2="179.96" stroke="white" stroke-opacity="0.5"/>
<line x1="302.222" y1="154.702" x2="368.914" y2="220.248" stroke="white" stroke-opacity="0.5"/>
<line x1="267.749" y1="125.364" x2="300.86" y2="154.778" stroke="white" stroke-opacity="0.5"/>
<line x1="225.332" y1="155.262" x2="265.777" y2="125.43" stroke="white" stroke-opacity="0.5"/>
<line x1="181.167" y1="190.092" x2="223.97" y2="155.37" stroke="white" stroke-opacity="0.5"/>
<line x1="185.453" y1="114.659" x2="180.637" y2="190.606" stroke="white" stroke-opacity="0.5"/>
<line x1="301.71" y1="155.532" x2="183.449" y2="115.195" stroke="white" stroke-opacity="0.5"/>
<line x1="285.802" y1="192.426" x2="300.061" y2="154.974" stroke="white" stroke-opacity="0.5"/>
<line x1="267.947" y1="126.283" x2="285.409" y2="192.571" stroke="white" stroke-opacity="0.5"/>
<line x1="259.648" y1="176.144" x2="265.624" y2="126.444" stroke="white" stroke-opacity="0.5"/>
<line x1="214.569" y1="117.008" x2="259.199" y2="175.996" stroke="white" stroke-opacity="0.5"/>
<line x1="156.147" y1="149.947" x2="212.574" y2="116.972" stroke="white" stroke-opacity="0.5"/>
<line x1="150.727" y1="129.767" x2="155.543" y2="150.359" stroke="white" stroke-opacity="0.5"/>
<line x1="183.89" y1="116.529" x2="149.082" y2="130.44" stroke="white" stroke-opacity="0.5"/>
<line x1="184.165" y1="116.259" x2="162.737" y2="167.039" stroke="white" stroke-opacity="0.5"/>
<line x1="218.423" y1="182.129" x2="197.024" y2="214.005" stroke="white" stroke-opacity="0.5"/>
<line x1="285.317" y1="193.01" x2="243.735" y2="245.199" stroke="white" stroke-opacity="0.5"/>
<line x1="329.984" y1="204.774" x2="290.916" y2="244.636" stroke="white" stroke-opacity="0.5"/>
<line x1="369.845" y1="222.746" x2="352.261" y2="270.557" stroke="white" stroke-opacity="0.5"/>
<line x1="370.898" y1="220.848" x2="321.128" y2="262.134" stroke="white" stroke-opacity="0.5"/>
<line x1="323.458" y1="234.648" x2="320.587" y2="261.178" stroke="white" stroke-opacity="0.5"/>
<line x1="217.835" y1="181.855" x2="221.513" y2="224.804" stroke="white" stroke-opacity="0.5"/>
<line x1="244.796" y1="203.326" x2="221.927" y2="223.828" stroke="white" stroke-opacity="0.5"/>
<line x1="245.055" y1="204.333" x2="242.997" y2="232.831" stroke="white" stroke-opacity="0.5"/>
<line x1="278.017" y1="216.596" x2="242.82" y2="234.584" stroke="white" stroke-opacity="0.5"/>
<line x1="303.711" y1="155.027" x2="292.882" y2="241.521" stroke="white" stroke-opacity="0.5"/>
<line x1="406.039" y1="231.738" x2="371.425" y2="180.826" stroke="white" stroke-opacity="0.5"/>
<line x1="420.097" y1="308.198" x2="405.243" y2="230.926" stroke="white" stroke-opacity="0.5"/>
<line x1="433.425" y1="276.617" x2="394.244" y2="295.559" stroke="white" stroke-opacity="0.5"/>
<line x1="374.585" y1="254.209" x2="438.148" y2="294.32" stroke="white" stroke-opacity="0.5"/>
<line x1="379.452" y1="295.916" x2="404.595" y2="230.699" stroke="white" stroke-opacity="0.5"/>
<line x1="367.421" y1="285.765" x2="431.126" y2="231.354" stroke="white" stroke-opacity="0.5"/>
<line x1="374.38" y1="252.397" x2="405.551" y2="167.181" stroke="white" stroke-opacity="0.5"/>
<line x1="329.973" y1="205.449" x2="372.631" y2="139.682" stroke="white" stroke-opacity="0.5"/>
<line x1="375.68" y1="140.927" x2="344.838" y2="134.308" stroke="white" stroke-opacity="0.5"/>
<line x1="344.257" y1="134.366" x2="316.525" y2="133.604" stroke="white" stroke-opacity="0.5"/>
<line x1="313.735" y1="133.779" x2="289.705" y2="128.033" stroke="white" stroke-opacity="0.5"/>
<line x1="290.36" y1="126.655" x2="263.206" y2="124.503" stroke="white" stroke-opacity="0.5"/>
<line x1="267.224" y1="124.885" x2="239.835" y2="119.374" stroke="white" stroke-opacity="0.5"/>
<line x1="239.91" y1="119.383" x2="211.459" y2="117.997" stroke="white" stroke-opacity="0.5"/>
<line x1="213.38" y1="116.513" x2="184.929" y2="115.127" stroke="white" stroke-opacity="0.5"/>
<line x1="184.95" y1="114.454" x2="142.673" y2="118.085" stroke="white" stroke-opacity="0.5"/>
<line x1="149.943" y1="128.341" x2="119.538" y2="118.316" stroke="white" stroke-opacity="0.5"/>
<line x1="142.498" y1="116.742" x2="119.421" y2="114.98" stroke="white" stroke-opacity="0.5"/>
<line x1="150.814" y1="129.66" x2="80.7719" y2="122.406" stroke="white" stroke-opacity="0.5"/>
<line x1="152.191" y1="150.471" x2="21.4471" y2="115.058" stroke="white" stroke-opacity="0.5"/>
<line x1="75.9436" y1="140.395" x2="13.3367" y2="133.197" stroke="white" stroke-opacity="0.5"/>
<line x1="151.758" y1="153.217" x2="69.826" y2="140.043" stroke="white" stroke-opacity="0.5"/>
<line x1="164.273" y1="167.871" x2="100.903" y2="159.476" stroke="white" stroke-opacity="0.5"/>
<line x1="80.0446" y1="121.78" x2="23.5329" y2="114.931" stroke="white" stroke-opacity="0.5"/>
<line x1="100.838" y1="159.463" x2="11.3891" y2="135.339" stroke="white" stroke-opacity="0.5"/>
<line x1="164.322" y1="167.875" x2="67.5484" y2="164.516" stroke="white" stroke-opacity="0.5"/>
<line x1="168.338" y1="177.714" x2="67.5009" y2="164.512" stroke="white" stroke-opacity="0.5"/>
<line x1="165.079" y1="177.952" x2="99.9132" y2="182.509" stroke="white" stroke-opacity="0.5"/>
<line x1="139.942" y1="186.454" x2="96.4766" y2="182.743" stroke="white" stroke-opacity="0.5"/>
<line x1="181.604" y1="192.323" x2="127.141" y2="195.456" stroke="white" stroke-opacity="0.5"/>
<line x1="139.623" y1="186.395" x2="127.47" y2="196.021" stroke="white" stroke-opacity="0.5"/>
<line x1="181.699" y1="190.931" x2="149.048" y2="206.716" stroke="white" stroke-opacity="0.5"/>
<line x1="175.066" y1="204.932" x2="150.209" y2="206.67" stroke="white" stroke-opacity="0.5"/>
<line x1="177.543" y1="204.233" x2="179.155" y2="217.622" stroke="white" stroke-opacity="0.5"/>
<line x1="196.725" y1="214.212" x2="180.79" y2="218.027" stroke="white" stroke-opacity="0.5"/>
<line x1="222.001" y1="223.745" x2="216.471" y2="231.557" stroke="white" stroke-opacity="0.5"/>
<line x1="218.131" y1="230.63" x2="241.254" y2="233.064" stroke="white" stroke-opacity="0.5"/>
<line x1="241.667" y1="233.378" x2="246.59" y2="245.86" stroke="white" stroke-opacity="0.5"/>
<line x1="264.55" y1="236.441" x2="244.335" y2="246.631" stroke="white" stroke-opacity="0.5"/>
<line x1="291.377" y1="243.334" x2="266.022" y2="257.259" stroke="white" stroke-opacity="0.5"/>
<line x1="264.824" y1="235.96" x2="266.139" y2="254.77" stroke="white" stroke-opacity="0.5"/>
<line x1="291.51" y1="241.731" x2="284.091" y2="261.152" stroke="white" stroke-opacity="0.5"/>
<line x1="283.524" y1="260.484" x2="303.49" y2="256.387" stroke="white" stroke-opacity="0.5"/>
<line x1="302.063" y1="271.09" x2="303.092" y2="256.841" stroke="white" stroke-opacity="0.5"/>
<line x1="320.399" y1="262.919" x2="302.105" y2="271.625" stroke="white" stroke-opacity="0.5"/>
<line x1="325.711" y1="269.824" x2="319.148" y2="262.857" stroke="white" stroke-opacity="0.5"/>
<line x1="335.455" y1="266.61" x2="325.565" y2="270.002" stroke="white" stroke-opacity="0.5"/>
<line x1="351.764" y1="272.87" x2="334.452" y2="266.654" stroke="white" stroke-opacity="0.5"/>
<line x1="364.704" y1="286.686" x2="350.906" y2="272.799" stroke="white" stroke-opacity="0.5"/>
<line x1="379.653" y1="296.52" x2="364.122" y2="286.804" stroke="white" stroke-opacity="0.5"/>
<line x1="394.061" y1="295.608" x2="379.281" y2="296.642" stroke="white" stroke-opacity="0.5"/>
<line x1="399.9" y1="308.406" x2="392.914" y2="295.393" stroke="white" stroke-opacity="0.5"/>
<line x1="420.653" y1="309.947" x2="399.639" y2="308.716" stroke="white" stroke-opacity="0.5"/>
<line x1="438.045" y1="292.412" x2="420.362" y2="309.85" stroke="white" stroke-opacity="0.5"/>
<line x1="434.37" y1="276.024" x2="437.513" y2="292.006" stroke="white" stroke-opacity="0.5"/>
<line x1="432.575" y1="231.003" x2="433.707" y2="276.155" stroke="white" stroke-opacity="0.5"/>
<line x1="432.242" y1="197.289" x2="431.903" y2="231.067" stroke="white" stroke-opacity="0.5"/>
<line x1="196.79" y1="213.26" x2="221.774" y2="222.989" stroke="white" stroke-opacity="0.5"/>
</g>
<g filter="url(#filter9_d)">
<path d="M433.643 254.464V269.277L436.274 277.389M433.643 254.464L428 237.887M433.643 254.464L437.875 264.692L456.921 290.086M428 237.887L433.643 222.016M428 237.887L439.628 252.7M433.643 222.016V184.983L439.628 180.461M433.643 222.016L448.103 203.676M433.643 222.016L444.036 235.771M433.643 222.016L447.398 212.493M433.643 222.016H460.8L474.203 227.306M456.921 169.112L480.904 176.529M513.704 210.024H468.912M439.628 180.461L465.385 161H517.584L526.754 167.778L502.418 175.918L491.132 179.693L480.904 176.529M439.628 180.461L448.103 203.676M448.103 203.676L468.912 210.024M468.912 210.024L480.904 176.529M445.635 237.887L444.036 235.771M444.036 235.771L439.628 237.887M439.628 237.887V252.7M439.628 237.887L448.103 264.692M439.628 252.7L448.103 264.692M448.103 264.692L456.921 290.086M448.103 264.692L454.257 272.804M456.921 290.086L436.274 277.389M456.921 290.086L439.191 286.382M456.921 290.086L466.488 322.533M456.921 290.086L469.041 272.804M456.921 290.086L471.381 295.376M436.274 277.389L439.191 286.382M439.191 286.382L442.108 295.376L456.921 315.127L466.488 322.533M466.488 322.533L470.132 325.355M475.966 262.928L472.792 252.7L482.667 239.651M475.966 262.928L478.788 269.277M475.966 262.928L469.041 272.804M482.667 239.651L465.385 252.7M482.667 239.651L474.203 227.306M482.667 239.651V255.345M474.203 227.306L478.788 222.016L486.9 234.007V262.928L483.035 270.335M482.667 271.04V255.345M482.667 271.04L484.078 276.683M482.667 271.04L483.035 270.335M482.667 271.04L490.779 278.799M478.788 269.277L482.667 255.345M478.788 269.277L471.381 295.376M478.788 269.277V275.272L484.078 276.683M471.381 295.376L454.257 272.804M471.381 295.376L484.078 276.683M471.381 295.376L463.269 301.372L471.381 311.247M471.381 295.376L484.882 305.708M471.381 295.376H480.551L484.078 294.318L486.194 295.376L492.19 297.492M471.381 295.376L487.252 289.733M454.257 272.804H469.041M471.381 311.247L467.854 315.127L470.132 325.355M471.381 311.247H480.551M471.381 311.247L484.882 305.708M470.132 325.355L475.966 329.872M481.962 331.351L478.788 322.533L484.078 315.127L492.895 312.305M503.829 332.056H478.788L475.966 329.872M475.966 329.872L473.497 321.122L480.551 311.247M480.551 311.247H505.24M484.882 305.708L485.136 305.604H487.605L483.725 300.666L487.252 289.733M493.953 279.505V278.799L492.19 279.505L490.779 278.799M490.779 278.799L487.252 289.733M487.252 289.733L492.19 292.202M483.035 270.335L492.19 273.509M483.035 270.335L492.19 277.389" stroke="white" stroke-opacity="0.5"/>
</g>
</g>
<g filter="url(#filter10_d)">
<g filter="url(#filter11_d)">
<circle r="4.37741" transform="matrix(-0.997564 -0.0697565 -0.0697565 0.997564 862.663 116.138)" fill="white" fill-opacity="0.5"/>
<circle r="4.37741" transform="matrix(-0.997564 -0.0697565 -0.0697565 0.997564 832.023 129.522)" fill="white" fill-opacity="0.5"/>
<circle r="4.37741" transform="matrix(-0.997564 -0.0697565 -0.0697565 0.997564 961.358 114.263)" fill="white" fill-opacity="0.5"/>
<circle r="4.37741" transform="matrix(-0.997564 -0.0697565 -0.0697565 0.997564 971.463 133.872)" fill="white" fill-opacity="0.5"/>
<circle r="4.37741" transform="matrix(-0.997564 -0.0697565 -0.0697565 0.997564 915.276 165.048)" fill="white" fill-opacity="0.5"/>
<circle r="4.37741" transform="matrix(-0.997564 -0.0697565 -0.0697565 0.997564 885.745 181.885)" fill="white" fill-opacity="0.5"/>
<circle r="4.37741" transform="matrix(-0.997564 -0.0697565 -0.0697565 0.997564 854.433 195.223)" fill="white" fill-opacity="0.5"/>
<circle r="4.37741" transform="matrix(-0.997564 -0.0697565 -0.0697565 0.997564 834.105 205.953)" fill="white" fill-opacity="0.5"/>
<circle r="4.37741" transform="matrix(-0.997564 -0.0697565 -0.0697565 0.997564 801.36 191.512)" fill="white" fill-opacity="0.5"/>
<circle r="4.37741" transform="matrix(-0.997564 -0.0697565 -0.0697565 0.997564 817.892 177.141)" fill="white" fill-opacity="0.5"/>
<circle r="4.37741" transform="matrix(-0.997564 -0.0697565 -0.0697565 0.997564 805.889 203.98)" fill="white" fill-opacity="0.5"/>
<circle r="4.37741" transform="matrix(-0.997564 -0.0697565 -0.0697565 0.997564 637.993 133.507)" fill="white" fill-opacity="0.5"/>
<circle r="4.37741" transform="matrix(-0.997564 -0.0697565 -0.0697565 0.997564 609.214 139.595)" fill="white" fill-opacity="0.5"/>
<circle r="4.37741" transform="matrix(-0.997564 -0.0697565 -0.0697565 0.997564 557.992 186.646)" fill="white" fill-opacity="0.5"/>
<circle r="4.37741" transform="matrix(-0.997564 -0.0697565 -0.0697565 0.997564 551.194 196.971)" fill="white" fill-opacity="0.5"/>
<circle r="4.37741" transform="matrix(-0.997564 -0.0697565 -0.0697565 0.997564 545.242 291.743)" fill="white" fill-opacity="0.5"/>
<circle r="4.37741" transform="matrix(-0.997564 -0.0697565 -0.0697565 0.997564 562.254 309.135)" fill="white" fill-opacity="0.5"/>
<circle r="7.20149" transform="matrix(-0.997564 -0.0697565 -0.0697565 0.997564 630.87 274.707)" fill="white" fill-opacity="0.5"/>
<circle r="4.37741" transform="matrix(-0.997564 -0.0697565 -0.0697565 0.997564 691.799 242.584)" fill="white" fill-opacity="0.5"/>
<circle r="4.37741" transform="matrix(-0.997564 -0.0697565 -0.0697565 0.997564 679.345 256.565)" fill="white" fill-opacity="0.5"/>
<circle r="4.37741" transform="matrix(-0.997564 -0.0697565 -0.0697565 0.997564 738.154 245.825)" fill="white" fill-opacity="0.5"/>
<circle r="4.37741" transform="matrix(-0.997564 -0.0697565 -0.0697565 0.997564 764.857 230.815)" fill="white" fill-opacity="0.5"/>
<circle r="2.69379" transform="matrix(-0.997564 -0.0697565 -0.0697565 0.997564 692.802 126.875)" fill="white" fill-opacity="0.5"/>
<circle r="2.69379" transform="matrix(-0.997564 -0.0697565 -0.0697565 0.997564 742.643 118.884)" fill="white" fill-opacity="0.5"/>
<circle r="2.69379" transform="matrix(-0.997564 -0.0697565 -0.0697565 0.997564 797.623 114.627)" fill="white" fill-opacity="0.5"/>
<circle r="2.69379" transform="matrix(-0.997564 -0.0697565 -0.0697565 0.997564 839.947 117.587)" fill="white" fill-opacity="0.5"/>
<circle r="2.69379" transform="matrix(-0.997564 -0.0697565 -0.0697565 0.997564 901.753 121.909)" fill="white" fill-opacity="0.5"/>
<circle r="2.69379" transform="matrix(-0.997564 -0.0697565 -0.0697565 0.997564 909.937 140.034)" fill="white" fill-opacity="0.5"/>
<circle r="2.69379" transform="matrix(-0.997564 -0.0697565 -0.0697565 0.997564 930.575 144.177)" fill="white" fill-opacity="0.5"/>
<circle r="2.69379" transform="matrix(-0.997564 -0.0697565 -0.0697565 0.997564 881.608 158.981)" fill="white" fill-opacity="0.5"/>
<circle r="2.69379" transform="matrix(-0.997564 -0.0697565 -0.0697565 0.997564 861.078 162.945)" fill="white" fill-opacity="0.5"/>
<circle r="4.3209" transform="matrix(-0.997564 -0.0697565 -0.0697565 0.997564 788.102 140.571)" fill="white" fill-opacity="0.5"/>
<circle r="4.3209" transform="matrix(-0.997564 -0.0697565 -0.0697565 0.997564 789.144 161.392)" fill="white" fill-opacity="0.5"/>
<circle r="4.3209" transform="matrix(-0.997564 -0.0697565 -0.0697565 0.997564 758.091 154.292)" fill="white" fill-opacity="0.5"/>
<circle r="4.3209" transform="matrix(-0.997564 -0.0697565 -0.0697565 0.997564 762.831 183.36)" fill="white" fill-opacity="0.5"/>
<circle r="4.3209" transform="matrix(-0.997564 -0.0697565 -0.0697565 0.997564 721.461 176.417)" fill="white" fill-opacity="0.5"/>
<circle r="4.3209" transform="matrix(-0.997564 -0.0697565 -0.0697565 0.997564 739.258 204.463)" fill="white" fill-opacity="0.5"/>
<circle r="5.76119" transform="matrix(-0.997564 -0.0697565 -0.0697565 0.997564 695.913 192.569)" fill="white" fill-opacity="0.5"/>
<circle r="5.76119" transform="matrix(-0.997564 -0.0697565 -0.0697565 0.997564 705.69 216.881)" fill="white" fill-opacity="0.5"/>
<circle r="7.20149" transform="matrix(-0.997564 -0.0697565 -0.0697565 0.997564 652.916 207.599)" fill="white" fill-opacity="0.5"/>
<circle r="2.69379" transform="matrix(-0.997564 -0.0697565 -0.0697565 0.997564 658.944 234.548)" fill="white" fill-opacity="0.5"/>
<circle r="5.76119" transform="matrix(-0.997564 -0.0697565 -0.0697565 0.997564 612.182 221.819)" fill="white" fill-opacity="0.5"/>
<circle r="5.76119" transform="matrix(-0.997564 -0.0697565 -0.0697565 0.997564 612.182 221.819)" fill="white" fill-opacity="0.5"/>
<circle r="2.69379" transform="matrix(-0.997564 -0.0697565 -0.0697565 0.997564 608.258 254.632)" fill="white" fill-opacity="0.5"/>
<circle r="7.20149" transform="matrix(-0.997564 -0.0697565 -0.0697565 0.997564 578.464 232.18)" fill="white" fill-opacity="0.5"/>
<circle r="5.76119" transform="matrix(-0.997564 -0.0697565 -0.0697565 0.997564 610.391 179.838)" fill="white" fill-opacity="0.5"/>
<circle r="5.76119" transform="matrix(-0.997564 -0.0697565 -0.0697565 0.997564 680.358 154.351)" fill="white" fill-opacity="0.5"/>
<circle r="2.69379" transform="matrix(-0.997564 -0.0697565 -0.0697565 0.997564 842.592 185.956)" fill="white" fill-opacity="0.5"/>
<circle r="2.69379" transform="matrix(-0.997564 -0.0697565 -0.0697565 0.997564 803.918 217.682)" fill="white" fill-opacity="0.5"/>
<circle r="2.69379" transform="matrix(-0.997564 -0.0697565 -0.0697565 0.997564 741.374 233.561)" fill="white" fill-opacity="0.5"/>
<circle r="2.69379" transform="matrix(-0.997564 -0.0697565 -0.0697565 0.997564 716.795 256.82)" fill="white" fill-opacity="0.5"/>
<circle r="2.69379" transform="matrix(-0.997564 -0.0697565 -0.0697565 0.997564 680.686 271.173)" fill="white" fill-opacity="0.5"/>
<circle r="2.69379" transform="matrix(-0.997564 -0.0697565 -0.0697565 0.997564 656.501 269.482)" fill="white" fill-opacity="0.5"/>
<circle r="2.69379" transform="matrix(-0.997564 -0.0697565 -0.0697565 0.997564 602.658 296.096)" fill="white" fill-opacity="0.5"/>
<circle r="2.69379" transform="matrix(-0.997564 -0.0697565 -0.0697565 0.997564 588.55 295.109)" fill="white" fill-opacity="0.5"/>
<circle r="2.69379" transform="matrix(-0.997564 -0.0697565 -0.0697565 0.997564 582.236 308.17)" fill="white" fill-opacity="0.5"/>
<circle r="2.69379" transform="matrix(-0.997564 -0.0697565 -0.0697565 0.997564 617.518 286.334)" fill="white" fill-opacity="0.5"/>
<circle r="2.69379" transform="matrix(-0.997564 -0.0697565 -0.0697565 0.997564 698.952 260.974)" fill="white" fill-opacity="0.5"/>
<circle r="2.69379" transform="matrix(-0.997564 -0.0697565 -0.0697565 0.997564 760.984 223.455)" fill="white" fill-opacity="0.5"/>
<circle r="2.69379" transform="matrix(-0.997564 -0.0697565 -0.0697565 0.997564 718.157 237.338)" fill="white" fill-opacity="0.5"/>
<circle r="2.69379" transform="matrix(-0.997564 -0.0697565 -0.0697565 0.997564 662.393 262.468)" fill="white" fill-opacity="0.5"/>
<circle r="2.69379" transform="matrix(-0.997564 -0.0697565 -0.0697565 0.997564 647.237 266.808)" fill="white" fill-opacity="0.5"/>
<circle r="2.69379" transform="matrix(-0.997564 -0.0697565 -0.0697565 0.997564 550.501 231.015)" fill="white" fill-opacity="0.5"/>
<circle r="4.3209" transform="matrix(-0.997564 -0.0697565 -0.0697565 0.997564 577.7 168.862)" fill="white" fill-opacity="0.5"/>
<circle r="2.69379" transform="matrix(-0.997564 -0.0697565 -0.0697565 0.997564 548.697 276.12)" fill="white" fill-opacity="0.5"/>
<circle r="4.37741" transform="matrix(-0.997564 -0.0697565 -0.0697565 0.997564 786.327 213.414)" fill="white" fill-opacity="0.5"/>
<circle r="4.37741" transform="matrix(-0.997564 -0.0697565 -0.0697565 0.997564 666.397 132.792)" fill="white" fill-opacity="0.5"/>
<circle r="4.37741" transform="matrix(-0.997564 -0.0697565 -0.0697565 0.997564 715.613 124.082)" fill="white" fill-opacity="0.5"/>
<circle r="4.37741" transform="matrix(-0.997564 -0.0697565 -0.0697565 0.997564 770.109 117.092)" fill="white" fill-opacity="0.5"/>
<circle r="4.37741" transform="matrix(-0.997564 -0.0697565 -0.0697565 0.997564 818.597 167.064)" fill="white" fill-opacity="0.5"/>
<circle r="4.37741" transform="matrix(-0.997564 -0.0697565 -0.0697565 0.997564 830.614 149.676)" fill="white" fill-opacity="0.5"/>
<line y1="-0.5" x2="11.7805" y2="-0.5" transform="matrix(0.573058 -0.819515 -0.819515 -0.573058 550.882 196.612)" stroke="white" stroke-opacity="0.5"/>
<line y1="-0.5" x2="26.6672" y2="-0.5" transform="matrix(0.75471 -0.656059 -0.656059 -0.75471 556.43 184.848)" stroke="white" stroke-opacity="0.5"/>
<line y1="-0.5" x2="41.9164" y2="-0.5" transform="matrix(0.769421 -0.638742 -0.638742 -0.769421 576.556 167.353)" stroke="white" stroke-opacity="0.5"/>
<line y1="-0.5" x2="29.0521" y2="-0.5" transform="matrix(0.6436 0.765362 0.765362 -0.6436 771.187 116.154)" stroke="white" stroke-opacity="0.5"/>
<line y1="-0.5" x2="23.7241" y2="-0.5" transform="matrix(0.0439647 0.999033 0.999033 -0.0439647 789.838 139.061)" stroke="white" stroke-opacity="0.5"/>
<line y1="-0.5" x2="35.4313" y2="-0.5" transform="matrix(-0.975357 -0.220632 -0.220632 0.975357 791.6 162.138)" stroke="white" stroke-opacity="0.5"/>
<line y1="-0.5" x2="26.8367" y2="-0.5" transform="matrix(0.233879 0.972266 0.972266 -0.233879 758.292 155.758)" stroke="white" stroke-opacity="0.5"/>
<line y1="-0.5" x2="39.9384" y2="-0.5" transform="matrix(-0.985388 -0.170325 -0.170325 0.985388 764.474 183.194)" stroke="white" stroke-opacity="0.5"/>
<line y1="-0.5" x2="32.5004" y2="-0.5" transform="matrix(-0.500292 -0.865857 -0.865857 0.500292 739.458 203.048)" stroke="white" stroke-opacity="0.5"/>
<line y1="-0.5" x2="43.3211" y2="-0.5" transform="matrix(0.962884 0.269916 0.269916 -0.962884 696.307 192.604)" stroke="white" stroke-opacity="0.5"/>
<line y1="-0.5" x2="25.6441" y2="-0.5" transform="matrix(-0.437297 -0.899318 -0.899318 0.437297 706.083 216.916)" stroke="white" stroke-opacity="0.5"/>
<line y1="-0.5" x2="52.1694" y2="-0.5" transform="matrix(0.965177 0.261598 0.261598 -0.965177 654.293 204.518)" stroke="white" stroke-opacity="0.5"/>
<line y1="-0.5" x2="29.4167" y2="-0.5" transform="matrix(-0.206979 -0.978345 -0.978345 0.206979 658.944 234.548)" stroke="white" stroke-opacity="0.5"/>
<line y1="-0.5" x2="47.3717" y2="-0.5" transform="matrix(0.9465 0.322703 0.322703 -0.9465 612.669 220.51)" stroke="white" stroke-opacity="0.5"/>
<line y1="-0.5" x2="33.0058" y2="-0.5" transform="matrix(0.0900962 -0.995933 -0.995933 -0.0900962 608.258 254.632)" stroke="white" stroke-opacity="0.5"/>
<line y1="-0.5" x2="38.1257" y2="-0.5" transform="matrix(0.769898 0.638168 0.638168 -0.769898 577.468 231.551)" stroke="white" stroke-opacity="0.5"/>
<line y1="-0.5" x2="43.1217" y2="-0.5" transform="matrix(0.568703 0.822543 0.822543 -0.568703 551.506 197.331)" stroke="white" stroke-opacity="0.5"/>
<line y1="-0.5" x2="63.2934" y2="-0.5" transform="matrix(-0.958542 0.284953 0.284953 0.958542 610.738 180.545)" stroke="white" stroke-opacity="0.5"/>
<line y1="-0.5" x2="39.0832" y2="-0.5" transform="matrix(-0.0353369 0.999376 0.999376 0.0353369 610.682 142.736)" stroke="white" stroke-opacity="0.5"/>
<line y1="-0.5" x2="69.6294" y2="-0.5" transform="matrix(-0.987706 -0.156327 -0.156327 0.987706 678.018 154.87)" stroke="white" stroke-opacity="0.5"/>
<line y1="-0.5" x2="72.9596" y2="-0.5" transform="matrix(0.939916 -0.341405 -0.341405 -0.939916 610.785 179.873)" stroke="white" stroke-opacity="0.5"/>
<line y1="-0.5" x2="40.5469" y2="-0.5" transform="matrix(-0.0133277 -0.999911 -0.999911 0.0133277 612.669 220.51)" stroke="white" stroke-opacity="0.5"/>
<line y1="-0.5" x2="93.5099" y2="-0.5" transform="matrix(-0.713207 0.700953 0.700953 0.713207 680.705 155.058)" stroke="white" stroke-opacity="0.5"/>
<line y1="-0.5" x2="44.2891" y2="-0.5" transform="matrix(-0.747612 0.664136 0.664136 0.747612 715.16 125.738)" stroke="white" stroke-opacity="0.5"/>
<line y1="-0.5" x2="50.2565" y2="-0.5" transform="matrix(-0.804767 -0.593592 -0.593592 0.804767 756.948 155.664)" stroke="white" stroke-opacity="0.5"/>
<line y1="-0.5" x2="55.1159" y2="-0.5" transform="matrix(-0.776604 -0.62999 -0.62999 0.776604 801.095 190.48)" stroke="white" stroke-opacity="0.5"/>
<line y1="-0.5" x2="76.0996" y2="-0.5" transform="matrix(0.0632808 0.997996 0.997996 -0.0632808 797.623 114.627)" stroke="white" stroke-opacity="0.5"/>
<line y1="-0.5" x2="124.951" y2="-0.5" transform="matrix(0.94646 -0.322822 -0.322822 -0.94646 680.705 155.058)" stroke="white" stroke-opacity="0.5"/>
<line y1="-0.5" x2="40.0744" y2="-0.5" transform="matrix(-0.355799 -0.934563 -0.934563 0.355799 696.307 192.604)" stroke="white" stroke-opacity="0.5"/>
<line y1="-0.5" x2="68.5496" y2="-0.5" transform="matrix(-0.254737 0.967011 0.967011 0.254737 715.113 126.41)" stroke="white" stroke-opacity="0.5"/>
<line y1="-0.5" x2="50.0576" y2="-0.5" transform="matrix(-0.119382 -0.992849 -0.992849 0.119382 722.432 176.204)" stroke="white" stroke-opacity="0.5"/>
<line y1="-0.5" x2="73.969" y2="-0.5" transform="matrix(-0.603366 0.797465 0.797465 0.603366 768.406 117.31)" stroke="white" stroke-opacity="0.5"/>
<line y1="-0.5" x2="65.3557" y2="-0.5" transform="matrix(-0.863387 -0.504543 -0.504543 0.863387 826.177 150.379)" stroke="white" stroke-opacity="0.5"/>
<line y1="-0.5" x2="21.1467" y2="-0.5" transform="matrix(-0.227711 0.973729 0.973729 0.227711 832.336 129.881)" stroke="white" stroke-opacity="0.5"/>
<line y1="-0.5" x2="37.4839" y2="-0.5" transform="matrix(0.92859 0.371107 0.371107 -0.92859 798.872 116.065)" stroke="white" stroke-opacity="0.5"/>
<line y1="-0.5" x2="55.1159" y2="-0.5" transform="matrix(0.388772 0.921334 0.921334 -0.388772 798.872 116.065)" stroke="white" stroke-opacity="0.5"/>
<line y1="-0.5" x2="38.3924" y2="-0.5" transform="matrix(0.557383 0.830256 0.830256 -0.557383 764.568 181.851)" stroke="white" stroke-opacity="0.5"/>
<line y1="-0.5" x2="66.7291" y2="-0.5" transform="matrix(0.623142 0.782109 0.782109 -0.623142 697.651 192.698)" stroke="white" stroke-opacity="0.5"/>
<line y1="-0.5" x2="55.815" y2="-0.5" transform="matrix(0.699961 0.714181 0.714181 -0.699961 652.949 204.424)" stroke="white" stroke-opacity="0.5"/>
<line y1="-0.5" x2="50.9422" y2="-0.5" transform="matrix(0.345187 0.938534 0.938534 -0.345187 613.2 222.573)" stroke="white" stroke-opacity="0.5"/>
<line y1="-0.5" x2="64.665" y2="-0.5" transform="matrix(0.769663 0.638451 0.638451 -0.769663 611.997 220.464)" stroke="white" stroke-opacity="0.5"/>
<line y1="-0.5" x2="26.6842" y2="-0.5" transform="matrix(0.107574 0.994197 0.994197 -0.107574 659.616 234.594)" stroke="white" stroke-opacity="0.5"/>
<line y1="-0.5" x2="43.1059" y2="-0.5" transform="matrix(-0.085333 0.996353 0.996353 0.085333 765.24 181.897)" stroke="white" stroke-opacity="0.5"/>
<line y1="-0.5" x2="30.7139" y2="-0.5" transform="matrix(0.744603 0.667508 0.667508 -0.744603 738.114 202.953)" stroke="white" stroke-opacity="0.5"/>
<line y1="-0.5" x2="28.572" y2="-0.5" transform="matrix(0.0720215 0.997403 0.997403 -0.0720215 738.02 204.297)" stroke="white" stroke-opacity="0.5"/>
<line y1="-0.5" x2="39.5274" y2="-0.5" transform="matrix(0.890448 0.455085 0.455085 -0.890448 704.787 216.15)" stroke="white" stroke-opacity="0.5"/>
<line y1="-0.5" x2="87.1692" y2="-0.5" transform="matrix(0.12423 0.992254 0.992254 -0.12423 679.361 154.964)" stroke="white" stroke-opacity="0.5"/>
<line y1="-0.5" x2="61.5643" y2="-0.5" transform="matrix(0.562247 -0.82697 -0.82697 -0.562247 576.124 231.457)" stroke="white" stroke-opacity="0.5"/>
<line y1="-0.5" x2="78.6868" y2="-0.5" transform="matrix(0.188782 -0.982019 -0.982019 -0.188782 561.988 308.104)" stroke="white" stroke-opacity="0.5"/>
<line y1="-0.5" x2="43.5195" y2="-0.5" transform="matrix(0.900308 0.435253 0.435253 -0.900308 549.369 276.167)" stroke="white" stroke-opacity="0.5"/>
<line y1="-0.5" x2="75.1611" y2="-0.5" transform="matrix(-0.845692 0.533671 0.533671 0.845692 608.258 254.632)" stroke="white" stroke-opacity="0.5"/>
<line y1="-0.5" x2="69.896" y2="-0.5" transform="matrix(-0.35973 -0.933057 -0.933057 0.35973 602.658 296.096)" stroke="white" stroke-opacity="0.5"/>
<line y1="-0.5" x2="83.7787" y2="-0.5" transform="matrix(-0.76039 -0.649467 -0.649467 0.76039 614.831 286.146)" stroke="white" stroke-opacity="0.5"/>
<line y1="-0.5" x2="90.7382" y2="-0.5" transform="matrix(-0.343529 -0.939142 -0.939142 0.343529 607.727 252.569)" stroke="white" stroke-opacity="0.5"/>
<line y1="-0.5" x2="78.3895" y2="-0.5" transform="matrix(-0.544176 -0.838971 -0.838971 0.544176 652.184 205.721)" stroke="white" stroke-opacity="0.5"/>
<line y1="-0.5" x2="31.5444" y2="-0.5" transform="matrix(0.977734 -0.209848 -0.209848 -0.977734 606.792 140.438)" stroke="white" stroke-opacity="0.5"/>
<line y1="-0.5" x2="27.7425" y2="-0.5" transform="matrix(0.999624 -0.0274366 -0.0274366 -0.999624 638.306 133.866)" stroke="white" stroke-opacity="0.5"/>
<line y1="-0.5" x2="24.7074" y2="-0.5" transform="matrix(0.972585 -0.232549 -0.232549 -0.972585 668.725 133.293)" stroke="white" stroke-opacity="0.5"/>
<line y1="-0.5" x2="27.2393" y2="-0.5" transform="matrix(0.996875 -0.0789944 -0.0789944 -0.996875 692.177 126.156)" stroke="white" stroke-opacity="0.5"/>
<line y1="-0.5" x2="27.9379" y2="-0.5" transform="matrix(0.980353 -0.197251 -0.197251 -0.980353 715.253 124.395)" stroke="white" stroke-opacity="0.5"/>
<line y1="-0.5" x2="28.4845" y2="-0.5" transform="matrix(0.998815 -0.0486576 -0.0486576 -0.998815 742.643 118.884)" stroke="white" stroke-opacity="0.5"/>
<line y1="-0.5" x2="28.4845" y2="-0.5" transform="matrix(0.998815 -0.0486576 -0.0486576 -0.998815 769.172 116.013)" stroke="white" stroke-opacity="0.5"/>
<line y1="-0.5" x2="42.4326" y2="-0.5" transform="matrix(0.996331 0.08558 0.08558 -0.996331 797.67 113.956)" stroke="white" stroke-opacity="0.5"/>
<line y1="-0.5" x2="32.0154" y2="-0.5" transform="matrix(0.949704 -0.313148 -0.313148 -0.949704 832.477 127.866)" stroke="white" stroke-opacity="0.5"/>
<line y1="-0.5" x2="23.1435" y2="-0.5" transform="matrix(0.997098 -0.0761254 -0.0761254 -0.997098 840.041 116.243)" stroke="white" stroke-opacity="0.5"/>
<line y1="-0.5" x2="70.4164" y2="-0.5" transform="matrix(0.99468 -0.103014 -0.103014 -0.99468 831.711 129.163)" stroke="white" stroke-opacity="0.5"/>
<line y1="-0.5" x2="135.455" y2="-0.5" transform="matrix(0.965219 -0.261441 -0.261441 -0.965219 830.255 149.989)" stroke="white" stroke-opacity="0.5"/>
<line y1="-0.5" x2="63.0194" y2="-0.5" transform="matrix(0.993455 -0.114222 -0.114222 -0.993455 906.576 139.898)" stroke="white" stroke-opacity="0.5"/>
<line y1="-0.5" x2="82.9845" y2="-0.5" transform="matrix(0.98732 -0.158744 -0.158744 -0.98732 830.739 152.723)" stroke="white" stroke-opacity="0.5"/>
<line y1="-0.5" x2="63.9244" y2="-0.5" transform="matrix(0.991338 -0.131334 -0.131334 -0.991338 818.237 167.376)" stroke="white" stroke-opacity="0.5"/>
<line y1="-0.5" x2="56.9253" y2="-0.5" transform="matrix(0.992734 -0.12033 -0.12033 -0.992734 902.472 121.284)" stroke="white" stroke-opacity="0.5"/>
<line y1="-0.5" x2="92.645" y2="-0.5" transform="matrix(0.965502 -0.260395 -0.260395 -0.965502 881.608 158.98)" stroke="white" stroke-opacity="0.5"/>
<line y1="-0.5" x2="96.8314" y2="-0.5" transform="matrix(0.999398 -0.0346928 -0.0346928 -0.999398 818.237 167.376)" stroke="white" stroke-opacity="0.5"/>
<line y1="-0.5" x2="101.697" y2="-0.5" transform="matrix(0.991539 -0.129812 -0.129812 -0.991539 814.174 177.218)" stroke="white" stroke-opacity="0.5"/>
<line y1="-0.5" x2="65.3245" y2="-0.5" transform="matrix(0.997564 0.0697565 0.0697565 -0.997564 817.533 177.453)" stroke="white" stroke-opacity="0.5"/>
<line y1="-0.5" x2="43.6236" y2="-0.5" transform="matrix(0.996374 -0.0850806 -0.0850806 -0.996374 842.592 185.956)" stroke="white" stroke-opacity="0.5"/>
<line y1="-0.5" x2="54.5535" y2="-0.5" transform="matrix(0.998349 0.0574365 0.0574365 -0.998349 801.001 191.824)" stroke="white" stroke-opacity="0.5"/>
<line y1="-0.5" x2="15.5039" y2="-0.5" transform="matrix(0.783906 0.620879 0.620879 -0.783906 843.264 186.003)" stroke="white" stroke-opacity="0.5"/>
<line y1="-0.5" x2="36.2663" y2="-0.5" transform="matrix(0.900308 0.435253 0.435253 -0.900308 801.095 190.48)" stroke="white" stroke-opacity="0.5"/>
<line y1="-0.5" x2="24.9176" y2="-0.5" transform="matrix(0.997564 0.0697565 0.0697565 -0.997564 807.545 204.433)" stroke="white" stroke-opacity="0.5"/>
<line y1="-0.5" x2="13.4858" y2="-0.5" transform="matrix(-0.119485 0.992836 0.992836 0.119485 805.53 204.292)" stroke="white" stroke-opacity="0.5"/>
<line y1="-0.5" x2="16.3857" y2="-0.5" transform="matrix(0.972523 0.232806 0.232806 -0.972523 785.967 213.726)" stroke="white" stroke-opacity="0.5"/>
<line y1="-0.5" x2="9.57149" y2="-0.5" transform="matrix(0.577707 0.816244 0.816244 -0.577707 760.984 223.456)" stroke="white" stroke-opacity="0.5"/>
<line y1="-0.5" x2="23.251" y2="-0.5" transform="matrix(-0.994507 0.104667 0.104667 0.994507 764.498 231.127)" stroke="white" stroke-opacity="0.5"/>
<line y1="-0.5" x2="13.4184" y2="-0.5" transform="matrix(-0.366916 0.930254 0.930254 0.366916 741.375 233.561)" stroke="white" stroke-opacity="0.5"/>
<line y1="-0.5" x2="22.6383" y2="-0.5" transform="matrix(0.892971 0.450114 0.450114 -0.892971 718.251 235.995)" stroke="white" stroke-opacity="0.5"/>
<line y1="-0.5" x2="28.9269" y2="-0.5" transform="matrix(0.876516 0.481373 0.481373 -0.876516 691.44 242.896)" stroke="white" stroke-opacity="0.5"/>
<line y1="-0.5" x2="18.8565" y2="-0.5" transform="matrix(-0.0697565 0.997564 0.997564 0.0697565 718.251 235.995)" stroke="white" stroke-opacity="0.5"/>
<line y1="-0.5" x2="20.7898" y2="-0.5" transform="matrix(0.356816 0.934175 0.934175 -0.356816 691.534 241.552)" stroke="white" stroke-opacity="0.5"/>
<line y1="-0.5" x2="20.3822" y2="-0.5" transform="matrix(-0.979594 -0.200986 -0.200986 0.979594 698.952 260.974)" stroke="white" stroke-opacity="0.5"/>
<line y1="-0.5" x2="14.286" y2="-0.5" transform="matrix(-0.0720214 -0.997403 -0.997403 0.0720214 680.015 271.126)" stroke="white" stroke-opacity="0.5"/>
<line y1="-0.5" x2="20.2595" y2="-0.5" transform="matrix(0.902978 0.429688 0.429688 -0.902978 662.393 262.468)" stroke="white" stroke-opacity="0.5"/>
<line y1="-0.5" x2="9.5715" y2="-0.5" transform="matrix(0.685684 -0.727899 -0.727899 -0.685684 656.501 269.482)" stroke="white" stroke-opacity="0.5"/>
<line y1="-0.5" x2="10.4547" y2="-0.5" transform="matrix(0.945908 0.324436 0.324436 -0.945908 647.284 266.137)" stroke="white" stroke-opacity="0.5"/>
<line y1="-0.5" x2="18.3939" y2="-0.5" transform="matrix(0.941179 -0.337908 -0.337908 -0.941179 630.644 272.399)" stroke="white" stroke-opacity="0.5"/>
<line y1="-0.5" x2="19.5764" y2="-0.5" transform="matrix(0.704821 -0.709385 -0.709385 -0.704821 617.518 286.334)" stroke="white" stroke-opacity="0.5"/>
<line y1="-0.5" x2="18.3198" y2="-0.5" transform="matrix(0.847795 -0.530324 -0.530324 -0.847795 602.658 296.096)" stroke="white" stroke-opacity="0.5"/>
<line y1="-0.5" x2="14.8159" y2="-0.5" transform="matrix(0.997564 0.0697564 0.0697564 -0.997564 588.55 295.109)" stroke="white" stroke-opacity="0.5"/>
<line y1="-0.5" x2="14.7699" y2="-0.5" transform="matrix(0.472977 -0.881075 -0.881075 -0.472977 582.236 308.17)" stroke="white" stroke-opacity="0.5"/>
<line y1="-0.5" x2="21.05" y2="-0.5" transform="matrix(0.998289 -0.0584767 -0.0584767 -0.998289 561.894 309.448)" stroke="white" stroke-opacity="0.5"/>
<line y1="-0.5" x2="24.8355" y2="-0.5" transform="matrix(0.71201 0.702169 0.702169 -0.71201 544.883 292.056)" stroke="white" stroke-opacity="0.5"/>
<line y1="-0.5" x2="16.2885" y2="-0.5" transform="matrix(-0.19295 0.981209 0.981209 0.19295 548.697 276.12)" stroke="white" stroke-opacity="0.5"/>
<line y1="-0.5" x2="45.1662" y2="-0.5" transform="matrix(-0.0250643 0.999686 0.999686 0.0250643 550.501 231.015)" stroke="white" stroke-opacity="0.5"/>
<line y1="-0.5" x2="33.78" y2="-0.5" transform="matrix(0.0100166 0.99995 0.99995 -0.0100166 550.835 197.284)" stroke="white" stroke-opacity="0.5"/>
<line y1="-0.5" x2="26.8114" y2="-0.5" transform="matrix(-0.931832 0.362889 0.362889 0.931832 785.967 213.726)" stroke="white" stroke-opacity="0.5"/>
</g>
<g filter="url(#filter12_d)">
<path d="M548.933 254.464V269.277L546.302 277.389M548.933 254.464L554.576 237.887M548.933 254.464L544.701 264.692L525.656 290.086M554.576 237.887L548.933 222.016M554.576 237.887L542.948 252.7M548.933 222.016V184.983L542.948 180.461M548.933 222.016L534.473 203.676M548.933 222.016L538.541 235.771M548.933 222.016L535.178 212.493M548.933 222.016H521.776L508.374 227.306M525.656 169.112L501.673 176.529M468.872 210.024H513.664M542.948 180.461L517.191 161H464.993L455.823 167.778L480.158 175.918L491.444 179.693L501.673 176.529M542.948 180.461L534.473 203.676M534.473 203.676L513.664 210.024M513.664 210.024L501.673 176.529M536.942 237.887L538.541 235.771M538.541 235.771L542.948 237.887M542.948 237.887V252.7M542.948 237.887L534.473 264.692M542.948 252.7L534.473 264.692M534.473 264.692L525.656 290.086M534.473 264.692L528.319 272.804M525.656 290.086L546.302 277.389M525.656 290.086L543.386 286.382M525.656 290.086L516.089 322.533M525.656 290.086L513.536 272.804M525.656 290.086L511.195 295.376M546.302 277.389L543.386 286.382M543.386 286.382L540.469 295.376L525.656 315.127L516.089 322.533M516.089 322.533L512.444 325.355M506.61 262.928L509.784 252.7L499.909 239.651M506.61 262.928L503.789 269.277M506.61 262.928L513.536 272.804M499.909 239.651L517.191 252.7M499.909 239.651L508.374 227.306M499.909 239.651V255.345M508.374 227.306L503.789 222.016L495.677 234.007V262.928L499.541 270.335M499.909 271.04V255.345M499.909 271.04L498.498 276.683M499.909 271.04L499.541 270.335M499.909 271.04L491.797 278.799M503.789 269.277L499.909 255.345M503.789 269.277L511.195 295.376M503.789 269.277V275.272L498.498 276.683M511.195 295.376L528.319 272.804M511.195 295.376L498.498 276.683M511.195 295.376L519.307 301.372L511.195 311.247M511.195 295.376L497.695 305.708M511.195 295.376H502.025L498.498 294.318L496.382 295.376L490.386 297.492M511.195 295.376L495.324 289.733M528.319 272.804H513.536M511.195 311.247L514.722 315.127L512.444 325.355M511.195 311.247H502.025M511.195 311.247L497.695 305.708M512.444 325.355L506.61 329.872M500.614 331.351L503.789 322.533L498.498 315.127L489.681 312.305M478.748 332.056H503.789L506.61 329.872M506.61 329.872L509.079 321.122L502.025 311.247M502.025 311.247H477.337M497.695 305.708L497.44 305.604H494.971L498.851 300.666L495.324 289.733M488.623 279.505V278.799L490.386 279.505L491.797 278.799M491.797 278.799L495.324 289.733M495.324 289.733L490.386 292.202M499.541 270.335L490.386 273.509M499.541 270.335L490.386 277.389" stroke="white" stroke-opacity="0.5"/>
</g>
</g>
</g>
<g filter="url(#filter13_f)">
<circle cx="490.38" cy="239.696" r="190.56" stroke="#FDD947" stroke-opacity="0.2" stroke-width="2"/>
<circle cx="490.38" cy="239.696" r="190.56" stroke="#FDD947" stroke-opacity="0.2" stroke-width="2"/>
</g>
<g filter="url(#filter14_f)">
<circle cx="491.821" cy="241.136" r="238.09" stroke="#FDD947" stroke-opacity="0.2" stroke-width="2"/>
<circle cx="491.821" cy="241.136" r="238.09" stroke="#FDD947" stroke-opacity="0.2" stroke-width="2"/>
</g>
<defs>
<filter id="filter0_d" x="0.440918" y="84.5906" width="541.383" height="242.965" filterUnits="userSpaceOnUse" color-interpolation-filters="sRGB">
<feFlood flood-opacity="0" result="BackgroundImageFix"/>
<feColorMatrix in="SourceAlpha" type="matrix" values="0 0 0 0 0 0 0 0 0 0 0 0 0 0 0 0 0 0 127 0"/>
<feOffset dx="4" dy="4"/>
<feGaussianBlur stdDeviation="5"/>
<feColorMatrix type="matrix" values="0 0 0 0 0 0 0 0 0 0 0 0 0 0 0 0 0 0 0.25 0"/>
<feBlend mode="normal" in2="BackgroundImageFix" result="effect1_dropShadow"/>
<feBlend mode="normal" in="SourceGraphic" in2="effect1_dropShadow" result="shape"/>
</filter>
<filter id="filter1_d" x="2.44092" y="90.5906" width="443.566" height="212.217" filterUnits="userSpaceOnUse" color-interpolation-filters="sRGB">
<feFlood flood-opacity="0" result="BackgroundImageFix"/>
<feColorMatrix in="SourceAlpha" type="matrix" values="0 0 0 0 0 0 0 0 0 0 0 0 0 0 0 0 0 0 127 0"/>
<feOffset dy="4"/>
<feGaussianBlur stdDeviation="2"/>
<feColorMatrix type="matrix" values="0 0 0 0 0 0 0 0 0 0 0 0 0 0 0 0 0 0 0.25 0"/>
<feBlend mode="normal" in2="BackgroundImageFix" result="effect1_dropShadow"/>
<feBlend mode="normal" in="SourceGraphic" in2="effect1_dropShadow" result="shape"/>
</filter>
<filter id="filter2_d" x="423.471" y="141.5" width="108.353" height="180.056" filterUnits="userSpaceOnUse" color-interpolation-filters="sRGB">
<feFlood flood-opacity="0" result="BackgroundImageFix"/>
<feColorMatrix in="SourceAlpha" type="matrix" values="0 0 0 0 0 0 0 0 0 0 0 0 0 0 0 0 0 0 127 0"/>
<feOffset dy="4"/>
<feGaussianBlur stdDeviation="2"/>
<feColorMatrix type="matrix" values="0 0 0 0 0 0 0 0 0 0 0 0 0 0 0 0 0 0 0.25 0"/>
<feBlend mode="normal" in2="BackgroundImageFix" result="effect1_dropShadow"/>
<feBlend mode="normal" in="SourceGraphic" in2="effect1_dropShadow" result="shape"/>
</filter>
<filter id="filter3_d" x="448.752" y="84.5906" width="541.383" height="242.965" filterUnits="userSpaceOnUse" color-interpolation-filters="sRGB">
<feFlood flood-opacity="0" result="BackgroundImageFix"/>
<feColorMatrix in="SourceAlpha" type="matrix" values="0 0 0 0 0 0 0 0 0 0 0 0 0 0 0 0 0 0 127 0"/>
<feOffset dx="4" dy="4"/>
<feGaussianBlur stdDeviation="5"/>
<feColorMatrix type="matrix" values="0 0 0 0 0 0 0 0 0 0 0 0 0 0 0 0 0 0 0.25 0"/>
<feBlend mode="normal" in2="BackgroundImageFix" result="effect1_dropShadow"/>
<feBlend mode="normal" in="SourceGraphic" in2="effect1_dropShadow" result="shape"/>
</filter>
<filter id="filter4_d" x="536.57" y="90.5906" width="443.566" height="212.217" filterUnits="userSpaceOnUse" color-interpolation-filters="sRGB">
<feFlood flood-opacity="0" result="BackgroundImageFix"/>
<feColorMatrix in="SourceAlpha" type="matrix" values="0 0 0 0 0 0 0 0 0 0 0 0 0 0 0 0 0 0 127 0"/>
<feOffset dy="4"/>
<feGaussianBlur stdDeviation="2"/>
<feColorMatrix type="matrix" values="0 0 0 0 0 0 0 0 0 0 0 0 0 0 0 0 0 0 0.25 0"/>
<feBlend mode="normal" in2="BackgroundImageFix" result="effect1_dropShadow"/>
<feBlend mode="normal" in="SourceGraphic" in2="effect1_dropShadow" result="shape"/>
</filter>
<filter id="filter5_d" x="450.752" y="141.5" width="108.353" height="180.056" filterUnits="userSpaceOnUse" color-interpolation-filters="sRGB">
<feFlood flood-opacity="0" result="BackgroundImageFix"/>
<feColorMatrix in="SourceAlpha" type="matrix" values="0 0 0 0 0 0 0 0 0 0 0 0 0 0 0 0 0 0 127 0"/>
<feOffset dy="4"/>
<feGaussianBlur stdDeviation="2"/>
<feColorMatrix type="matrix" values="0 0 0 0 0 0 0 0 0 0 0 0 0 0 0 0 0 0 0.25 0"/>
<feBlend mode="normal" in2="BackgroundImageFix" result="effect1_dropShadow"/>
<feBlend mode="normal" in="SourceGraphic" in2="effect1_dropShadow" result="shape"/>
</filter>
<filter id="filter6_f" x="2.44092" y="105.591" width="977.695" height="230.965" filterUnits="userSpaceOnUse" color-interpolation-filters="sRGB">
<feFlood flood-opacity="0" result="BackgroundImageFix"/>
<feBlend mode="normal" in="SourceGraphic" in2="BackgroundImageFix" result="shape"/>
<feGaussianBlur stdDeviation="2" result="effect1_foregroundBlur"/>
</filter>
<filter id="filter7_d" x="0.440918" y="103.591" width="541.383" height="242.965" filterUnits="userSpaceOnUse" color-interpolation-filters="sRGB">
<feFlood flood-opacity="0" result="BackgroundImageFix"/>
<feColorMatrix in="SourceAlpha" type="matrix" values="0 0 0 0 0 0 0 0 0 0 0 0 0 0 0 0 0 0 127 0"/>
<feOffset dx="4" dy="4"/>
<feGaussianBlur stdDeviation="5"/>
<feColorMatrix type="matrix" values="0 0 0 0 0 0 0 0 0 0 0 0 0 0 0 0 0 0 0.25 0"/>
<feBlend mode="normal" in2="BackgroundImageFix" result="effect1_dropShadow"/>
<feBlend mode="normal" in="SourceGraphic" in2="effect1_dropShadow" result="shape"/>
</filter>
<filter id="filter8_d" x="2.44092" y="109.591" width="443.566" height="212.217" filterUnits="userSpaceOnUse" color-interpolation-filters="sRGB">
<feFlood flood-opacity="0" result="BackgroundImageFix"/>
<feColorMatrix in="SourceAlpha" type="matrix" values="0 0 0 0 0 0 0 0 0 0 0 0 0 0 0 0 0 0 127 0"/>
<feOffset dy="4"/>
<feGaussianBlur stdDeviation="2"/>
<feColorMatrix type="matrix" values="0 0 0 0 0 0 0 0 0 0 0 0 0 0 0 0 0 0 0.25 0"/>
<feBlend mode="normal" in2="BackgroundImageFix" result="effect1_dropShadow"/>
<feBlend mode="normal" in="SourceGraphic" in2="effect1_dropShadow" result="shape"/>
</filter>
<filter id="filter9_d" x="423.471" y="160.5" width="108.353" height="180.056" filterUnits="userSpaceOnUse" color-interpolation-filters="sRGB">
<feFlood flood-opacity="0" result="BackgroundImageFix"/>
<feColorMatrix in="SourceAlpha" type="matrix" values="0 0 0 0 0 0 0 0 0 0 0 0 0 0 0 0 0 0 127 0"/>
<feOffset dy="4"/>
<feGaussianBlur stdDeviation="2"/>
<feColorMatrix type="matrix" values="0 0 0 0 0 0 0 0 0 0 0 0 0 0 0 0 0 0 0.25 0"/>
<feBlend mode="normal" in2="BackgroundImageFix" result="effect1_dropShadow"/>
<feBlend mode="normal" in="SourceGraphic" in2="effect1_dropShadow" result="shape"/>
</filter>
<filter id="filter10_d" x="448.752" y="103.591" width="541.383" height="242.965" filterUnits="userSpaceOnUse" color-interpolation-filters="sRGB">
<feFlood flood-opacity="0" result="BackgroundImageFix"/>
<feColorMatrix in="SourceAlpha" type="matrix" values="0 0 0 0 0 0 0 0 0 0 0 0 0 0 0 0 0 0 127 0"/>
<feOffset dx="4" dy="4"/>
<feGaussianBlur stdDeviation="5"/>
<feColorMatrix type="matrix" values="0 0 0 0 0 0 0 0 0 0 0 0 0 0 0 0 0 0 0.25 0"/>
<feBlend mode="normal" in2="BackgroundImageFix" result="effect1_dropShadow"/>
<feBlend mode="normal" in="SourceGraphic" in2="effect1_dropShadow" result="shape"/>
</filter>
<filter id="filter11_d" x="536.57" y="109.591" width="443.566" height="212.217" filterUnits="userSpaceOnUse" color-interpolation-filters="sRGB">
<feFlood flood-opacity="0" result="BackgroundImageFix"/>
<feColorMatrix in="SourceAlpha" type="matrix" values="0 0 0 0 0 0 0 0 0 0 0 0 0 0 0 0 0 0 127 0"/>
<feOffset dy="4"/>
<feGaussianBlur stdDeviation="2"/>
<feColorMatrix type="matrix" values="0 0 0 0 0 0 0 0 0 0 0 0 0 0 0 0 0 0 0.25 0"/>
<feBlend mode="normal" in2="BackgroundImageFix" result="effect1_dropShadow"/>
<feBlend mode="normal" in="SourceGraphic" in2="effect1_dropShadow" result="shape"/>
</filter>
<filter id="filter12_d" x="450.752" y="160.5" width="108.353" height="180.056" filterUnits="userSpaceOnUse" color-interpolation-filters="sRGB">
<feFlood flood-opacity="0" result="BackgroundImageFix"/>
<feColorMatrix in="SourceAlpha" type="matrix" values="0 0 0 0 0 0 0 0 0 0 0 0 0 0 0 0 0 0 127 0"/>
<feOffset dy="4"/>
<feGaussianBlur stdDeviation="2"/>
<feColorMatrix type="matrix" values="0 0 0 0 0 0 0 0 0 0 0 0 0 0 0 0 0 0 0.25 0"/>
<feBlend mode="normal" in2="BackgroundImageFix" result="effect1_dropShadow"/>
<feBlend mode="normal" in="SourceGraphic" in2="effect1_dropShadow" result="shape"/>
</filter>
<filter id="filter13_f" x="294.821" y="44.1361" width="391.119" height="391.119" filterUnits="userSpaceOnUse" color-interpolation-filters="sRGB">
<feFlood flood-opacity="0" result="BackgroundImageFix"/>
<feBlend mode="normal" in="SourceGraphic" in2="BackgroundImageFix" result="shape"/>
<feGaussianBlur stdDeviation="2" result="effect1_foregroundBlur"/>
</filter>
<filter id="filter14_f" x="250.731" y="0.0466309" width="482.179" height="482.179" filterUnits="userSpaceOnUse" color-interpolation-filters="sRGB">
<feFlood flood-opacity="0" result="BackgroundImageFix"/>
<feBlend mode="normal" in="SourceGraphic" in2="BackgroundImageFix" result="shape"/>
<feGaussianBlur stdDeviation="1" result="effect1_foregroundBlur"/>
</filter>
</defs>
</svg>
