<svg width="551" height="331" viewBox="0 0 551 331" fill="none" xmlns="http://www.w3.org/2000/svg">
<path d="M183.365 323.458C183.365 324.638 183.121 325.54 182.633 326.165C182.145 326.79 181.43 327.103 180.488 327.103C179.559 327.103 178.848 326.796 178.356 326.183C177.863 325.57 177.611 324.691 177.6 323.546V321.976C177.6 320.784 177.846 319.88 178.338 319.263C178.834 318.646 179.547 318.337 180.477 318.337C181.406 318.337 182.117 318.644 182.61 319.257C183.102 319.866 183.354 320.743 183.365 321.888V323.458ZM181.672 321.736C181.672 321.029 181.574 320.515 181.379 320.195C181.188 319.87 180.887 319.708 180.477 319.708C180.078 319.708 179.783 319.863 179.592 320.171C179.404 320.476 179.305 320.954 179.293 321.607V323.681C179.293 324.376 179.387 324.894 179.574 325.234C179.766 325.57 180.07 325.738 180.488 325.738C180.902 325.738 181.201 325.575 181.385 325.251C181.568 324.927 181.664 324.431 181.672 323.763V321.736ZM187.132 326.154C187.132 325.884 187.222 325.665 187.402 325.497C187.585 325.329 187.814 325.245 188.087 325.245C188.364 325.245 188.593 325.329 188.773 325.497C188.956 325.665 189.048 325.884 189.048 326.154C189.048 326.419 188.958 326.636 188.778 326.804C188.599 326.968 188.368 327.05 188.087 327.05C187.81 327.05 187.581 326.968 187.402 326.804C187.222 326.636 187.132 326.419 187.132 326.154ZM198.668 323.458C198.668 324.638 198.424 325.54 197.936 326.165C197.447 326.79 196.733 327.103 195.791 327.103C194.862 327.103 194.151 326.796 193.658 326.183C193.166 325.57 192.914 324.691 192.903 323.546V321.976C192.903 320.784 193.149 319.88 193.641 319.263C194.137 318.646 194.85 318.337 195.78 318.337C196.709 318.337 197.42 318.644 197.912 319.257C198.405 319.866 198.656 320.743 198.668 321.888V323.458ZM196.975 321.736C196.975 321.029 196.877 320.515 196.682 320.195C196.49 319.87 196.19 319.708 195.78 319.708C195.381 319.708 195.086 319.863 194.895 320.171C194.707 320.476 194.608 320.954 194.596 321.607V323.681C194.596 324.376 194.69 324.894 194.877 325.234C195.069 325.57 195.373 325.738 195.791 325.738C196.205 325.738 196.504 325.575 196.688 325.251C196.871 324.927 196.967 324.431 196.975 323.763V321.736ZM206.39 326.986H204.697V320.458L202.675 321.085V319.708L206.208 318.443H206.39V326.986Z" fill="white"/>
<path d="M239.406 323.458C239.406 324.638 239.162 325.54 238.673 326.165C238.185 326.79 237.47 327.103 236.529 327.103C235.599 327.103 234.888 326.796 234.396 326.183C233.904 325.57 233.652 324.691 233.64 323.546V321.976C233.64 320.784 233.886 319.88 234.379 319.263C234.875 318.646 235.588 318.337 236.517 318.337C237.447 318.337 238.158 318.644 238.65 319.257C239.142 319.866 239.394 320.743 239.406 321.888V323.458ZM237.713 321.736C237.713 321.029 237.615 320.515 237.42 320.195C237.228 319.87 236.927 319.708 236.517 319.708C236.119 319.708 235.824 319.863 235.632 320.171C235.445 320.476 235.345 320.954 235.334 321.607V323.681C235.334 324.376 235.427 324.894 235.615 325.234C235.806 325.57 236.111 325.738 236.529 325.738C236.943 325.738 237.242 325.575 237.425 325.251C237.609 324.927 237.705 324.431 237.713 323.763V321.736ZM243.173 326.154C243.173 325.884 243.262 325.665 243.442 325.497C243.626 325.329 243.854 325.245 244.128 325.245C244.405 325.245 244.633 325.329 244.813 325.497C244.997 325.665 245.089 325.884 245.089 326.154C245.089 326.419 244.999 326.636 244.819 326.804C244.639 326.968 244.409 327.05 244.128 327.05C243.85 327.05 243.622 326.968 243.442 326.804C243.262 326.636 243.173 326.419 243.173 326.154ZM253.08 326.986H251.386V320.458L249.365 321.085V319.708L252.898 318.443H253.08V326.986ZM263.878 320.722C263.878 321.136 263.774 321.503 263.567 321.823C263.36 322.144 263.075 322.4 262.712 322.591C263.126 322.79 263.454 323.066 263.696 323.417C263.938 323.765 264.059 324.175 264.059 324.648C264.059 325.406 263.802 326.005 263.286 326.447C262.77 326.884 262.069 327.103 261.182 327.103C260.296 327.103 259.593 326.882 259.073 326.441C258.553 325.999 258.294 325.402 258.294 324.648C258.294 324.175 258.415 323.763 258.657 323.411C258.899 323.06 259.225 322.786 259.636 322.591C259.272 322.4 258.987 322.144 258.78 321.823C258.577 321.503 258.475 321.136 258.475 320.722C258.475 319.995 258.718 319.417 259.202 318.988C259.686 318.554 260.344 318.337 261.177 318.337C262.005 318.337 262.661 318.552 263.145 318.982C263.634 319.407 263.878 319.988 263.878 320.722ZM262.36 324.525C262.36 324.154 262.253 323.857 262.038 323.634C261.823 323.411 261.534 323.3 261.171 323.3C260.811 323.3 260.524 323.411 260.309 323.634C260.094 323.853 259.987 324.15 259.987 324.525C259.987 324.888 260.093 325.181 260.303 325.404C260.514 325.626 260.807 325.738 261.182 325.738C261.55 325.738 261.837 325.63 262.044 325.415C262.255 325.2 262.36 324.904 262.36 324.525ZM262.184 320.804C262.184 320.472 262.096 320.206 261.921 320.007C261.745 319.804 261.497 319.702 261.177 319.702C260.86 319.702 260.614 319.8 260.438 319.995C260.262 320.191 260.175 320.46 260.175 320.804C260.175 321.144 260.262 321.417 260.438 321.624C260.614 321.831 260.862 321.935 261.182 321.935C261.503 321.935 261.749 321.831 261.921 321.624C262.096 321.417 262.184 321.144 262.184 320.804Z" fill="white"/>
<path d="M293.817 326.986H292.124V320.458L290.102 321.085V319.708L293.635 318.443H293.817V326.986ZM299.213 326.154C299.213 325.884 299.302 325.665 299.482 325.497C299.666 325.329 299.894 325.245 300.168 325.245C300.445 325.245 300.674 325.329 300.853 325.497C301.037 325.665 301.129 325.884 301.129 326.154C301.129 326.419 301.039 326.636 300.859 326.804C300.679 326.968 300.449 327.05 300.168 327.05C299.89 327.05 299.662 326.968 299.482 326.804C299.302 326.636 299.213 326.419 299.213 326.154ZM310.016 323.775H310.983V325.14H310.016V326.986H308.323V325.14H304.825L304.749 324.073L308.305 318.454H310.016V323.775ZM306.436 323.775H308.323V320.763L308.212 320.956L306.436 323.775ZM320.205 326.986H314.357V325.825L317.117 322.884C317.496 322.47 317.775 322.109 317.955 321.8C318.138 321.491 318.23 321.198 318.23 320.921C318.23 320.542 318.135 320.245 317.943 320.031C317.752 319.812 317.478 319.702 317.123 319.702C316.74 319.702 316.437 319.835 316.215 320.101C315.996 320.363 315.886 320.708 315.886 321.138H314.187C314.187 320.618 314.31 320.144 314.556 319.714C314.806 319.284 315.158 318.948 315.611 318.706C316.064 318.46 316.578 318.337 317.152 318.337C318.031 318.337 318.713 318.548 319.197 318.97C319.685 319.392 319.929 319.988 319.929 320.757C319.929 321.179 319.82 321.609 319.601 322.046C319.383 322.484 319.008 322.993 318.476 323.575L316.537 325.62H320.205V326.986Z" fill="white"/>
<path d="M355.429 323.775H356.396V325.14H355.429V326.986H353.736V325.14H350.237L350.161 324.073L353.718 318.454H355.429V323.775ZM351.849 323.775H353.736V320.763L353.624 320.956L351.849 323.775ZM359.928 326.154C359.928 325.884 360.018 325.665 360.197 325.497C360.381 325.329 360.61 325.245 360.883 325.245C361.16 325.245 361.389 325.329 361.569 325.497C361.752 325.665 361.844 325.884 361.844 326.154C361.844 326.419 361.754 326.636 361.574 326.804C361.395 326.968 361.164 327.05 360.883 327.05C360.606 327.05 360.377 326.968 360.197 326.804C360.018 326.636 359.928 326.419 359.928 326.154ZM370.732 323.775H371.698V325.14H370.732V326.986H369.038V325.14H365.54L365.464 324.073L369.021 318.454H370.732V323.775ZM367.152 323.775H369.038V320.763L368.927 320.956L367.152 323.775Z" fill="white"/>
<path d="M406.794 323.775H407.761V325.14H406.794V326.986H405.101V325.14H401.603L401.527 324.073L405.083 318.454H406.794V323.775ZM403.214 323.775H405.101V320.763L404.989 320.956L403.214 323.775ZM415.248 326.986H413.555V320.458L411.533 321.085V319.708L415.067 318.443H415.248V326.986ZM420.644 326.154C420.644 325.884 420.734 325.665 420.913 325.497C421.097 325.329 421.325 325.245 421.599 325.245C421.876 325.245 422.105 325.329 422.284 325.497C422.468 325.665 422.56 325.884 422.56 326.154C422.56 326.419 422.47 326.636 422.29 326.804C422.111 326.968 421.88 327.05 421.599 327.05C421.322 327.05 421.093 326.968 420.913 326.804C420.734 326.636 420.644 326.419 420.644 326.154ZM432.285 326.986H426.438V325.825L429.198 322.884C429.576 322.47 429.856 322.109 430.035 321.8C430.219 321.491 430.311 321.198 430.311 320.921C430.311 320.542 430.215 320.245 430.024 320.031C429.832 319.812 429.559 319.702 429.203 319.702C428.821 319.702 428.518 319.835 428.295 320.101C428.076 320.363 427.967 320.708 427.967 321.138H426.268C426.268 320.618 426.391 320.144 426.637 319.714C426.887 319.284 427.239 318.948 427.692 318.706C428.145 318.46 428.658 318.337 429.233 318.337C430.112 318.337 430.793 318.548 431.278 318.97C431.766 319.392 432.01 319.988 432.01 320.757C432.01 321.179 431.901 321.609 431.682 322.046C431.463 322.484 431.088 322.993 430.557 323.575L428.617 325.62H432.285V326.986Z" fill="white"/>
<path d="M461.052 322.79L461.545 318.454H466.326V319.866H462.933L462.722 321.7C463.125 321.486 463.552 321.378 464.006 321.378C464.818 321.378 465.455 321.63 465.916 322.134C466.377 322.638 466.607 323.343 466.607 324.249C466.607 324.8 466.49 325.294 466.256 325.732C466.025 326.165 465.693 326.503 465.259 326.745C464.826 326.984 464.314 327.103 463.724 327.103C463.209 327.103 462.73 326.999 462.289 326.792C461.847 326.581 461.498 326.286 461.24 325.907C460.986 325.529 460.851 325.097 460.836 324.613H462.511C462.547 324.968 462.67 325.245 462.881 325.445C463.095 325.64 463.375 325.738 463.718 325.738C464.101 325.738 464.396 325.601 464.603 325.327C464.81 325.05 464.914 324.659 464.914 324.156C464.914 323.671 464.795 323.3 464.556 323.042C464.318 322.784 463.98 322.656 463.543 322.656C463.14 322.656 462.814 322.761 462.564 322.972L462.4 323.124L461.052 322.79ZM474.264 326.986H472.571V320.458L470.55 321.085V319.708L474.083 318.443H474.264V326.986ZM485.349 326.986H479.502V325.825L482.261 322.884C482.64 322.47 482.92 322.109 483.099 321.8C483.283 321.491 483.375 321.198 483.375 320.921C483.375 320.542 483.279 320.245 483.088 320.031C482.896 319.812 482.623 319.702 482.267 319.702C481.885 319.702 481.582 319.835 481.359 320.101C481.14 320.363 481.031 320.708 481.031 321.138H479.332C479.332 320.618 479.455 320.144 479.701 319.714C479.951 319.284 480.302 318.948 480.756 318.706C481.209 318.46 481.722 318.337 482.297 318.337C483.176 318.337 483.857 318.548 484.342 318.97C484.83 319.392 485.074 319.988 485.074 320.757C485.074 321.179 484.965 321.609 484.746 322.046C484.527 322.484 484.152 322.993 483.621 323.575L481.681 325.62H485.349V326.986Z" fill="white"/>
<line x1="141.164" y1="272.449" x2="551" y2="272.449" stroke="white" stroke-width="2"/>
<line x1="140.164" y1="273.449" x2="140.164" y2="-0.000122027" stroke="white" stroke-width="2"/>
<line x1="191.627" y1="280.876" x2="191.627" y2="309.909" stroke="white"/>
<path d="M140.489 271.424C339.113 234.356 425.299 183.985 519.604 24.3066" stroke="#FDD947" stroke-width="4"/>
<line x1="248.343" y1="280.876" x2="248.343" y2="309.909" stroke="white"/>
<line x1="305.733" y1="280.876" x2="305.733" y2="309.909" stroke="white"/>
<line x1="362.449" y1="280.876" x2="362.449" y2="309.909" stroke="white"/>
<line x1="419.165" y1="280.876" x2="419.165" y2="309.909" stroke="white"/>
<line x1="476.555" y1="280.876" x2="476.555" y2="309.909" stroke="white"/>
<path d="M6.17383 19.3809V20.7754H6.00977C5.24414 20.7871 4.62695 20.9863 4.1582 21.373C3.69336 21.7598 3.41406 22.2969 3.32031 22.9844C3.77344 22.5234 4.3457 22.293 5.03711 22.293C5.7793 22.293 6.36914 22.5586 6.80664 23.0898C7.24414 23.6211 7.46289 24.3203 7.46289 25.1875C7.46289 25.7422 7.3418 26.2441 7.09961 26.6934C6.86133 27.1426 6.52148 27.4922 6.08008 27.7422C5.64258 27.9922 5.14648 28.1172 4.5918 28.1172C3.69336 28.1172 2.9668 27.8047 2.41211 27.1797C1.86133 26.5547 1.58594 25.7207 1.58594 24.6777V24.0684C1.58594 23.1426 1.75977 22.3262 2.10742 21.6191C2.45898 20.9082 2.96094 20.3594 3.61328 19.9727C4.26953 19.582 5.0293 19.3848 5.89258 19.3809H6.17383ZM4.52148 23.6523C4.24805 23.6523 4 23.7246 3.77734 23.8691C3.55469 24.0098 3.39062 24.1973 3.28516 24.4316V24.9473C3.28516 25.5137 3.39648 25.957 3.61914 26.2773C3.8418 26.5938 4.1543 26.752 4.55664 26.752C4.91992 26.752 5.21289 26.6094 5.43555 26.3242C5.66211 26.0352 5.77539 25.6621 5.77539 25.2051C5.77539 24.7402 5.66211 24.3652 5.43555 24.0801C5.20898 23.7949 4.9043 23.6523 4.52148 23.6523ZM19.7598 23.5L21.3126 19.4688H23.211L20.2286 26.5059L19.9884 26.9688C19.547 27.7383 18.8712 28.123 17.961 28.123L17.3458 28.0996L17.3282 26.6875C17.422 26.7031 17.5743 26.7109 17.7852 26.7109C18.0313 26.7109 18.2286 26.668 18.377 26.582C18.5294 26.4961 18.6563 26.3379 18.7579 26.1074L18.9747 25.5508L15.9805 19.4688H17.8731L19.7598 23.5ZM28.3605 24.9941V28H26.6027V19.4688H29.9308C30.5714 19.4688 31.1339 19.5859 31.6183 19.8203C32.1066 20.0547 32.4816 20.3887 32.7433 20.8223C33.005 21.252 33.1359 21.7422 33.1359 22.293C33.1359 23.1289 32.8488 23.7891 32.2745 24.2734C31.7042 24.7539 30.9132 24.9941 29.9015 24.9941H28.3605ZM28.3605 23.5703H29.9308C30.3956 23.5703 30.7491 23.4609 30.9913 23.2422C31.2374 23.0234 31.3605 22.7109 31.3605 22.3047C31.3605 21.8867 31.2374 21.5488 30.9913 21.291C30.7452 21.0332 30.4054 20.9004 29.9718 20.8926H28.3605V23.5703ZM43.8166 23.9277C43.8166 24.7676 43.6681 25.5039 43.3713 26.1367C43.0744 26.7695 42.6486 27.2578 42.0939 27.6016C41.5431 27.9453 40.9103 28.1172 40.1955 28.1172C39.4884 28.1172 38.8576 27.9473 38.3029 27.6074C37.7482 27.2676 37.3185 26.7832 37.0138 26.1543C36.7091 25.5215 36.5548 24.7949 36.5509 23.9746V23.5527C36.5509 22.7129 36.7013 21.9746 37.0021 21.3379C37.3068 20.6973 37.7345 20.207 38.2853 19.8672C38.84 19.5234 39.4728 19.3516 40.1838 19.3516C40.8947 19.3516 41.5255 19.5234 42.0763 19.8672C42.631 20.207 43.0588 20.6973 43.3595 21.3379C43.6642 21.9746 43.8166 22.7109 43.8166 23.5469V23.9277ZM42.0353 23.541C42.0353 22.6465 41.8752 21.9668 41.5548 21.502C41.2345 21.0371 40.7775 20.8047 40.1838 20.8047C39.5939 20.8047 39.1388 21.0352 38.8185 21.4961C38.4982 21.9531 38.3361 22.625 38.3322 23.5117V23.9277C38.3322 24.7988 38.4923 25.4746 38.8127 25.9551C39.133 26.4355 39.5939 26.6758 40.1955 26.6758C40.7853 26.6758 41.2384 26.4453 41.5548 25.9844C41.8713 25.5195 42.0314 24.8438 42.0353 23.957V23.541ZM47.5539 28V19.4688H50.5422C51.5773 19.4688 52.3625 19.668 52.8977 20.0664C53.4328 20.4609 53.7004 21.041 53.7004 21.8066C53.7004 22.2246 53.593 22.5938 53.3781 22.9141C53.1633 23.2305 52.8645 23.4629 52.4816 23.6113C52.9191 23.7207 53.2629 23.9414 53.5129 24.2734C53.7668 24.6055 53.8937 25.0117 53.8937 25.4922C53.8937 26.3125 53.632 26.9336 53.1086 27.3555C52.5852 27.7773 51.8391 27.9922 50.8703 28H47.5539ZM49.3117 24.2852V26.5879H50.8176C51.2316 26.5879 51.5539 26.4902 51.7844 26.2949C52.0187 26.0957 52.1359 25.8223 52.1359 25.4746C52.1359 24.6934 51.7316 24.2969 50.923 24.2852H49.3117ZM49.3117 23.043H50.6125C51.4992 23.0273 51.9426 22.6738 51.9426 21.9824C51.9426 21.5957 51.8293 21.3184 51.6027 21.1504C51.3801 20.9785 51.0266 20.8926 50.5422 20.8926H49.3117V23.043ZM62.8108 24.3027H59.4358V26.5879H63.3967V28H57.678V19.4688H63.385V20.8926H59.4358V22.9258H62.8108V24.3027ZM73.8313 28H72.0735V24.3438H68.6458V28H66.888V19.4688H68.6458V22.9258H72.0735V19.4688H73.8313V28ZM79.5902 22.5449H80.9613C81.9652 22.5449 82.7601 22.7891 83.346 23.2773C83.9359 23.7617 84.2308 24.416 84.2308 25.2402C84.2308 26.0684 83.9378 26.7344 83.3519 27.2383C82.7698 27.7383 81.9945 27.9922 81.0257 28H77.8206V19.4688H79.5902V22.5449ZM79.5902 23.9629V26.5879H80.9905C81.4398 26.5879 81.7972 26.4648 82.0628 26.2188C82.3323 25.9727 82.4671 25.6426 82.4671 25.2285C82.4671 24.8418 82.3382 24.5371 82.0804 24.3145C81.8265 24.0879 81.4769 23.9707 81.0316 23.9629H79.5902Z" fill="white"/>
<path d="M1.83203 65.8047L2.32422 61.4688H7.10547V62.8809H3.71289L3.50195 64.7148C3.9043 64.5 4.33203 64.3926 4.78516 64.3926C5.59766 64.3926 6.23438 64.6445 6.69531 65.1484C7.15625 65.6523 7.38672 66.3574 7.38672 67.2637C7.38672 67.8145 7.26953 68.3086 7.03516 68.7461C6.80469 69.1797 6.47266 69.5176 6.03906 69.7598C5.60547 69.998 5.09375 70.1172 4.50391 70.1172C3.98828 70.1172 3.50977 70.0137 3.06836 69.8066C2.62695 69.5957 2.27734 69.3008 2.01953 68.9219C1.76562 68.543 1.63086 68.1113 1.61523 67.627H3.29102C3.32617 67.9824 3.44922 68.2598 3.66016 68.459C3.875 68.6543 4.1543 68.752 4.49805 68.752C4.88086 68.752 5.17578 68.6152 5.38281 68.3418C5.58984 68.0645 5.69336 67.6738 5.69336 67.1699C5.69336 66.6855 5.57422 66.3145 5.33594 66.0566C5.09766 65.7988 4.75977 65.6699 4.32227 65.6699C3.91992 65.6699 3.59375 65.7754 3.34375 65.9863L3.17969 66.1387L1.83203 65.8047ZM19.7598 65.5L21.3126 61.4688H23.211L20.2286 68.5059L19.9884 68.9688C19.547 69.7383 18.8712 70.123 17.961 70.123L17.3458 70.0996L17.3282 68.6875C17.422 68.7031 17.5743 68.7109 17.7852 68.7109C18.0313 68.7109 18.2286 68.668 18.377 68.582C18.5294 68.4961 18.6563 68.3379 18.7579 68.1074L18.9747 67.5508L15.9805 61.4688H17.8731L19.7598 65.5ZM28.3605 66.9941V70H26.6027V61.4688H29.9308C30.5714 61.4688 31.1339 61.5859 31.6183 61.8203C32.1066 62.0547 32.4816 62.3887 32.7433 62.8223C33.005 63.252 33.1359 63.7422 33.1359 64.293C33.1359 65.1289 32.8488 65.7891 32.2745 66.2734C31.7042 66.7539 30.9132 66.9941 29.9015 66.9941H28.3605ZM28.3605 65.5703H29.9308C30.3956 65.5703 30.7491 65.4609 30.9913 65.2422C31.2374 65.0234 31.3605 64.7109 31.3605 64.3047C31.3605 63.8867 31.2374 63.5488 30.9913 63.291C30.7452 63.0332 30.4054 62.9004 29.9718 62.8926H28.3605V65.5703ZM43.8166 65.9277C43.8166 66.7676 43.6681 67.5039 43.3713 68.1367C43.0744 68.7695 42.6486 69.2578 42.0939 69.6016C41.5431 69.9453 40.9103 70.1172 40.1955 70.1172C39.4884 70.1172 38.8576 69.9473 38.3029 69.6074C37.7482 69.2676 37.3185 68.7832 37.0138 68.1543C36.7091 67.5215 36.5548 66.7949 36.5509 65.9746V65.5527C36.5509 64.7129 36.7013 63.9746 37.0021 63.3379C37.3068 62.6973 37.7345 62.207 38.2853 61.8672C38.84 61.5234 39.4728 61.3516 40.1838 61.3516C40.8947 61.3516 41.5255 61.5234 42.0763 61.8672C42.631 62.207 43.0588 62.6973 43.3595 63.3379C43.6642 63.9746 43.8166 64.7109 43.8166 65.5469V65.9277ZM42.0353 65.541C42.0353 64.6465 41.8752 63.9668 41.5548 63.502C41.2345 63.0371 40.7775 62.8047 40.1838 62.8047C39.5939 62.8047 39.1388 63.0352 38.8185 63.4961C38.4982 63.9531 38.3361 64.625 38.3322 65.5117V65.9277C38.3322 66.7988 38.4923 67.4746 38.8127 67.9551C39.133 68.4355 39.5939 68.6758 40.1955 68.6758C40.7853 68.6758 41.2384 68.4453 41.5548 67.9844C41.8713 67.5195 42.0314 66.8438 42.0353 65.957V65.541ZM47.5539 70V61.4688H50.5422C51.5773 61.4688 52.3625 61.668 52.8977 62.0664C53.4328 62.4609 53.7004 63.041 53.7004 63.8066C53.7004 64.2246 53.593 64.5938 53.3781 64.9141C53.1633 65.2305 52.8645 65.4629 52.4816 65.6113C52.9191 65.7207 53.2629 65.9414 53.5129 66.2734C53.7668 66.6055 53.8937 67.0117 53.8937 67.4922C53.8937 68.3125 53.632 68.9336 53.1086 69.3555C52.5852 69.7773 51.8391 69.9922 50.8703 70H47.5539ZM49.3117 66.2852V68.5879H50.8176C51.2316 68.5879 51.5539 68.4902 51.7844 68.2949C52.0187 68.0957 52.1359 67.8223 52.1359 67.4746C52.1359 66.6934 51.7316 66.2969 50.923 66.2852H49.3117ZM49.3117 65.043H50.6125C51.4992 65.0273 51.9426 64.6738 51.9426 63.9824C51.9426 63.5957 51.8293 63.3184 51.6027 63.1504C51.3801 62.9785 51.0266 62.8926 50.5422 62.8926H49.3117V65.043ZM62.8108 66.3027H59.4358V68.5879H63.3967V70H57.678V61.4688H63.385V62.8926H59.4358V64.9258H62.8108V66.3027ZM73.8313 70H72.0735V66.3438H68.6458V70H66.888V61.4688H68.6458V64.9258H72.0735V61.4688H73.8313V70ZM79.5902 64.5449H80.9613C81.9652 64.5449 82.7601 64.7891 83.346 65.2773C83.9359 65.7617 84.2308 66.416 84.2308 67.2402C84.2308 68.0684 83.9378 68.7344 83.3519 69.2383C82.7698 69.7383 81.9945 69.9922 81.0257 70H77.8206V61.4688H79.5902V64.5449ZM79.5902 65.9629V68.5879H80.9905C81.4398 68.5879 81.7972 68.4648 82.0628 68.2188C82.3323 67.9727 82.4671 67.6426 82.4671 67.2285C82.4671 66.8418 82.3382 66.5371 82.0804 66.3145C81.8265 66.0879 81.4769 65.9707 81.0316 65.9629H79.5902Z" fill="white"/>
<path d="M6.58984 108.789H7.55664V110.154H6.58984V112H4.89648V110.154H1.39844L1.32227 109.088L4.87891 103.469H6.58984V108.789ZM3.00977 108.789H4.89648V105.777L4.78516 105.971L3.00977 108.789ZM19.7598 107.5L21.3126 103.469H23.211L20.2286 110.506L19.9884 110.969C19.547 111.738 18.8712 112.123 17.961 112.123L17.3458 112.1L17.3282 110.688C17.422 110.703 17.5743 110.711 17.7852 110.711C18.0313 110.711 18.2286 110.668 18.377 110.582C18.5294 110.496 18.6563 110.338 18.7579 110.107L18.9747 109.551L15.9805 103.469H17.8731L19.7598 107.5ZM28.3605 108.994V112H26.6027V103.469H29.9308C30.5714 103.469 31.1339 103.586 31.6183 103.82C32.1066 104.055 32.4816 104.389 32.7433 104.822C33.005 105.252 33.1359 105.742 33.1359 106.293C33.1359 107.129 32.8488 107.789 32.2745 108.273C31.7042 108.754 30.9132 108.994 29.9015 108.994H28.3605ZM28.3605 107.57H29.9308C30.3956 107.57 30.7491 107.461 30.9913 107.242C31.2374 107.023 31.3605 106.711 31.3605 106.305C31.3605 105.887 31.2374 105.549 30.9913 105.291C30.7452 105.033 30.4054 104.9 29.9718 104.893H28.3605V107.57ZM43.8166 107.928C43.8166 108.768 43.6681 109.504 43.3713 110.137C43.0744 110.77 42.6486 111.258 42.0939 111.602C41.5431 111.945 40.9103 112.117 40.1955 112.117C39.4884 112.117 38.8576 111.947 38.3029 111.607C37.7482 111.268 37.3185 110.783 37.0138 110.154C36.7091 109.521 36.5548 108.795 36.5509 107.975V107.553C36.5509 106.713 36.7013 105.975 37.0021 105.338C37.3068 104.697 37.7345 104.207 38.2853 103.867C38.84 103.523 39.4728 103.352 40.1838 103.352C40.8947 103.352 41.5255 103.523 42.0763 103.867C42.631 104.207 43.0588 104.697 43.3595 105.338C43.6642 105.975 43.8166 106.711 43.8166 107.547V107.928ZM42.0353 107.541C42.0353 106.646 41.8752 105.967 41.5548 105.502C41.2345 105.037 40.7775 104.805 40.1838 104.805C39.5939 104.805 39.1388 105.035 38.8185 105.496C38.4982 105.953 38.3361 106.625 38.3322 107.512V107.928C38.3322 108.799 38.4923 109.475 38.8127 109.955C39.133 110.436 39.5939 110.676 40.1955 110.676C40.7853 110.676 41.2384 110.445 41.5548 109.984C41.8713 109.52 42.0314 108.844 42.0353 107.957V107.541ZM47.5539 112V103.469H50.5422C51.5773 103.469 52.3625 103.668 52.8977 104.066C53.4328 104.461 53.7004 105.041 53.7004 105.807C53.7004 106.225 53.593 106.594 53.3781 106.914C53.1633 107.23 52.8645 107.463 52.4816 107.611C52.9191 107.721 53.2629 107.941 53.5129 108.273C53.7668 108.605 53.8937 109.012 53.8937 109.492C53.8937 110.312 53.632 110.934 53.1086 111.355C52.5852 111.777 51.8391 111.992 50.8703 112H47.5539ZM49.3117 108.285V110.588H50.8176C51.2316 110.588 51.5539 110.49 51.7844 110.295C52.0187 110.096 52.1359 109.822 52.1359 109.475C52.1359 108.693 51.7316 108.297 50.923 108.285H49.3117ZM49.3117 107.043H50.6125C51.4992 107.027 51.9426 106.674 51.9426 105.982C51.9426 105.596 51.8293 105.318 51.6027 105.15C51.3801 104.979 51.0266 104.893 50.5422 104.893H49.3117V107.043ZM62.8108 108.303H59.4358V110.588H63.3967V112H57.678V103.469H63.385V104.893H59.4358V106.926H62.8108V108.303ZM73.8313 112H72.0735V108.344H68.6458V112H66.888V103.469H68.6458V106.926H72.0735V103.469H73.8313V112ZM79.5902 106.545H80.9613C81.9652 106.545 82.7601 106.789 83.346 107.277C83.9359 107.762 84.2308 108.416 84.2308 109.24C84.2308 110.068 83.9378 110.734 83.3519 111.238C82.7698 111.738 81.9945 111.992 81.0257 112H77.8206V103.469H79.5902V106.545ZM79.5902 107.963V110.588H80.9905C81.4398 110.588 81.7972 110.465 82.0628 110.219C82.3323 109.973 82.4671 109.643 82.4671 109.229C82.4671 108.842 82.3382 108.537 82.0804 108.314C81.8265 108.088 81.4769 107.971 81.0316 107.963H79.5902Z" fill="white"/>
<path d="M3.30273 148.984H4.20508C4.63477 148.984 4.95312 148.877 5.16016 148.662C5.36719 148.447 5.4707 148.162 5.4707 147.807C5.4707 147.463 5.36719 147.195 5.16016 147.004C4.95703 146.812 4.67578 146.717 4.31641 146.717C3.99219 146.717 3.7207 146.807 3.50195 146.986C3.2832 147.162 3.17383 147.393 3.17383 147.678H1.48047C1.48047 147.232 1.59961 146.834 1.83789 146.482C2.08008 146.127 2.41602 145.85 2.8457 145.65C3.2793 145.451 3.75586 145.352 4.27539 145.352C5.17773 145.352 5.88477 145.568 6.39648 146.002C6.9082 146.432 7.16406 147.025 7.16406 147.783C7.16406 148.174 7.04492 148.533 6.80664 148.861C6.56836 149.189 6.25586 149.441 5.86914 149.617C6.34961 149.789 6.70703 150.047 6.94141 150.391C7.17969 150.734 7.29883 151.141 7.29883 151.609C7.29883 152.367 7.02148 152.975 6.4668 153.432C5.91602 153.889 5.18555 154.117 4.27539 154.117C3.42383 154.117 2.72656 153.893 2.18359 153.443C1.64453 152.994 1.375 152.4 1.375 151.662H3.06836C3.06836 151.982 3.1875 152.244 3.42578 152.447C3.66797 152.65 3.96484 152.752 4.31641 152.752C4.71875 152.752 5.0332 152.646 5.25977 152.436C5.49023 152.221 5.60547 151.938 5.60547 151.586C5.60547 150.734 5.13672 150.309 4.19922 150.309H3.30273V148.984ZM19.7598 149.5L21.3126 145.469H23.211L20.2286 152.506L19.9884 152.969C19.547 153.738 18.8712 154.123 17.961 154.123L17.3458 154.1L17.3282 152.688C17.422 152.703 17.5743 152.711 17.7852 152.711C18.0313 152.711 18.2286 152.668 18.377 152.582C18.5294 152.496 18.6563 152.338 18.7579 152.107L18.9747 151.551L15.9805 145.469H17.8731L19.7598 149.5ZM28.3605 150.994V154H26.6027V145.469H29.9308C30.5714 145.469 31.1339 145.586 31.6183 145.82C32.1066 146.055 32.4816 146.389 32.7433 146.822C33.005 147.252 33.1359 147.742 33.1359 148.293C33.1359 149.129 32.8488 149.789 32.2745 150.273C31.7042 150.754 30.9132 150.994 29.9015 150.994H28.3605ZM28.3605 149.57H29.9308C30.3956 149.57 30.7491 149.461 30.9913 149.242C31.2374 149.023 31.3605 148.711 31.3605 148.305C31.3605 147.887 31.2374 147.549 30.9913 147.291C30.7452 147.033 30.4054 146.9 29.9718 146.893H28.3605V149.57ZM43.8166 149.928C43.8166 150.768 43.6681 151.504 43.3713 152.137C43.0744 152.77 42.6486 153.258 42.0939 153.602C41.5431 153.945 40.9103 154.117 40.1955 154.117C39.4884 154.117 38.8576 153.947 38.3029 153.607C37.7482 153.268 37.3185 152.783 37.0138 152.154C36.7091 151.521 36.5548 150.795 36.5509 149.975V149.553C36.5509 148.713 36.7013 147.975 37.0021 147.338C37.3068 146.697 37.7345 146.207 38.2853 145.867C38.84 145.523 39.4728 145.352 40.1838 145.352C40.8947 145.352 41.5255 145.523 42.0763 145.867C42.631 146.207 43.0588 146.697 43.3595 147.338C43.6642 147.975 43.8166 148.711 43.8166 149.547V149.928ZM42.0353 149.541C42.0353 148.646 41.8752 147.967 41.5548 147.502C41.2345 147.037 40.7775 146.805 40.1838 146.805C39.5939 146.805 39.1388 147.035 38.8185 147.496C38.4982 147.953 38.3361 148.625 38.3322 149.512V149.928C38.3322 150.799 38.4923 151.475 38.8127 151.955C39.133 152.436 39.5939 152.676 40.1955 152.676C40.7853 152.676 41.2384 152.445 41.5548 151.984C41.8713 151.52 42.0314 150.844 42.0353 149.957V149.541ZM47.5539 154V145.469H50.5422C51.5773 145.469 52.3625 145.668 52.8977 146.066C53.4328 146.461 53.7004 147.041 53.7004 147.807C53.7004 148.225 53.593 148.594 53.3781 148.914C53.1633 149.23 52.8645 149.463 52.4816 149.611C52.9191 149.721 53.2629 149.941 53.5129 150.273C53.7668 150.605 53.8937 151.012 53.8937 151.492C53.8937 152.312 53.632 152.934 53.1086 153.355C52.5852 153.777 51.8391 153.992 50.8703 154H47.5539ZM49.3117 150.285V152.588H50.8176C51.2316 152.588 51.5539 152.49 51.7844 152.295C52.0187 152.096 52.1359 151.822 52.1359 151.475C52.1359 150.693 51.7316 150.297 50.923 150.285H49.3117ZM49.3117 149.043H50.6125C51.4992 149.027 51.9426 148.674 51.9426 147.982C51.9426 147.596 51.8293 147.318 51.6027 147.15C51.3801 146.979 51.0266 146.893 50.5422 146.893H49.3117V149.043ZM62.8108 150.303H59.4358V152.588H63.3967V154H57.678V145.469H63.385V146.893H59.4358V148.926H62.8108V150.303ZM73.8313 154H72.0735V150.344H68.6458V154H66.888V145.469H68.6458V148.926H72.0735V145.469H73.8313V154ZM79.5902 148.545H80.9613C81.9652 148.545 82.7601 148.789 83.346 149.277C83.9359 149.762 84.2308 150.416 84.2308 151.24C84.2308 152.068 83.9378 152.734 83.3519 153.238C82.7698 153.738 81.9945 153.992 81.0257 154H77.8206V145.469H79.5902V148.545ZM79.5902 149.963V152.588H80.9905C81.4398 152.588 81.7972 152.465 82.0628 152.219C82.3323 151.973 82.4671 151.643 82.4671 151.229C82.4671 150.842 82.3382 150.537 82.0804 150.314C81.8265 150.088 81.4769 149.971 81.0316 149.963H79.5902Z" fill="white"/>
<path d="M7.42773 196H1.58008V194.84L4.33984 191.898C4.71875 191.484 4.99805 191.123 5.17773 190.814C5.36133 190.506 5.45312 190.213 5.45312 189.936C5.45312 189.557 5.35742 189.26 5.16602 189.045C4.97461 188.826 4.70117 188.717 4.3457 188.717C3.96289 188.717 3.66016 188.85 3.4375 189.115C3.21875 189.377 3.10938 189.723 3.10938 190.152H1.41016C1.41016 189.633 1.5332 189.158 1.7793 188.729C2.0293 188.299 2.38086 187.963 2.83398 187.721C3.28711 187.475 3.80078 187.352 4.375 187.352C5.25391 187.352 5.93555 187.562 6.41992 187.984C6.9082 188.406 7.15234 189.002 7.15234 189.771C7.15234 190.193 7.04297 190.623 6.82422 191.061C6.60547 191.498 6.23047 192.008 5.69922 192.59L3.75977 194.635H7.42773V196ZM19.7598 191.5L21.3126 187.469H23.211L20.2286 194.506L19.9884 194.969C19.547 195.738 18.8712 196.123 17.961 196.123L17.3458 196.1L17.3282 194.688C17.422 194.703 17.5743 194.711 17.7852 194.711C18.0313 194.711 18.2286 194.668 18.377 194.582C18.5294 194.496 18.6563 194.338 18.7579 194.107L18.9747 193.551L15.9805 187.469H17.8731L19.7598 191.5ZM28.3605 192.994V196H26.6027V187.469H29.9308C30.5714 187.469 31.1339 187.586 31.6183 187.82C32.1066 188.055 32.4816 188.389 32.7433 188.822C33.005 189.252 33.1359 189.742 33.1359 190.293C33.1359 191.129 32.8488 191.789 32.2745 192.273C31.7042 192.754 30.9132 192.994 29.9015 192.994H28.3605ZM28.3605 191.57H29.9308C30.3956 191.57 30.7491 191.461 30.9913 191.242C31.2374 191.023 31.3605 190.711 31.3605 190.305C31.3605 189.887 31.2374 189.549 30.9913 189.291C30.7452 189.033 30.4054 188.9 29.9718 188.893H28.3605V191.57ZM43.8166 191.928C43.8166 192.768 43.6681 193.504 43.3713 194.137C43.0744 194.77 42.6486 195.258 42.0939 195.602C41.5431 195.945 40.9103 196.117 40.1955 196.117C39.4884 196.117 38.8576 195.947 38.3029 195.607C37.7482 195.268 37.3185 194.783 37.0138 194.154C36.7091 193.521 36.5548 192.795 36.5509 191.975V191.553C36.5509 190.713 36.7013 189.975 37.0021 189.338C37.3068 188.697 37.7345 188.207 38.2853 187.867C38.84 187.523 39.4728 187.352 40.1838 187.352C40.8947 187.352 41.5255 187.523 42.0763 187.867C42.631 188.207 43.0588 188.697 43.3595 189.338C43.6642 189.975 43.8166 190.711 43.8166 191.547V191.928ZM42.0353 191.541C42.0353 190.646 41.8752 189.967 41.5548 189.502C41.2345 189.037 40.7775 188.805 40.1838 188.805C39.5939 188.805 39.1388 189.035 38.8185 189.496C38.4982 189.953 38.3361 190.625 38.3322 191.512V191.928C38.3322 192.799 38.4923 193.475 38.8127 193.955C39.133 194.436 39.5939 194.676 40.1955 194.676C40.7853 194.676 41.2384 194.445 41.5548 193.984C41.8713 193.52 42.0314 192.844 42.0353 191.957V191.541ZM47.5539 196V187.469H50.5422C51.5773 187.469 52.3625 187.668 52.8977 188.066C53.4328 188.461 53.7004 189.041 53.7004 189.807C53.7004 190.225 53.593 190.594 53.3781 190.914C53.1633 191.23 52.8645 191.463 52.4816 191.611C52.9191 191.721 53.2629 191.941 53.5129 192.273C53.7668 192.605 53.8937 193.012 53.8937 193.492C53.8937 194.312 53.632 194.934 53.1086 195.355C52.5852 195.777 51.8391 195.992 50.8703 196H47.5539ZM49.3117 192.285V194.588H50.8176C51.2316 194.588 51.5539 194.49 51.7844 194.295C52.0187 194.096 52.1359 193.822 52.1359 193.475C52.1359 192.693 51.7316 192.297 50.923 192.285H49.3117ZM49.3117 191.043H50.6125C51.4992 191.027 51.9426 190.674 51.9426 189.982C51.9426 189.596 51.8293 189.318 51.6027 189.15C51.3801 188.979 51.0266 188.893 50.5422 188.893H49.3117V191.043ZM62.8108 192.303H59.4358V194.588H63.3967V196H57.678V187.469H63.385V188.893H59.4358V190.926H62.8108V192.303ZM73.8313 196H72.0735V192.344H68.6458V196H66.888V187.469H68.6458V190.926H72.0735V187.469H73.8313V196ZM79.5902 190.545H80.9613C81.9652 190.545 82.7601 190.789 83.346 191.277C83.9359 191.762 84.2308 192.416 84.2308 193.24C84.2308 194.068 83.9378 194.734 83.3519 195.238C82.7698 195.738 81.9945 195.992 81.0257 196H77.8206V187.469H79.5902V190.545ZM79.5902 191.963V194.588H80.9905C81.4398 194.588 81.7972 194.465 82.0628 194.219C82.3323 193.973 82.4671 193.643 82.4671 193.229C82.4671 192.842 82.3382 192.537 82.0804 192.314C81.8265 192.088 81.4769 191.971 81.0316 191.963H79.5902Z" fill="white"/>
<path d="M5.69336 238H4V231.473L1.97852 232.1V230.723L5.51172 229.457H5.69336V238ZM19.7598 233.5L21.3126 229.469H23.211L20.2286 236.506L19.9884 236.969C19.547 237.738 18.8712 238.123 17.961 238.123L17.3458 238.1L17.3282 236.688C17.422 236.703 17.5743 236.711 17.7852 236.711C18.0313 236.711 18.2286 236.668 18.377 236.582C18.5294 236.496 18.6563 236.338 18.7579 236.107L18.9747 235.551L15.9805 229.469H17.8731L19.7598 233.5ZM28.3605 234.994V238H26.6027V229.469H29.9308C30.5714 229.469 31.1339 229.586 31.6183 229.82C32.1066 230.055 32.4816 230.389 32.7433 230.822C33.005 231.252 33.1359 231.742 33.1359 232.293C33.1359 233.129 32.8488 233.789 32.2745 234.273C31.7042 234.754 30.9132 234.994 29.9015 234.994H28.3605ZM28.3605 233.57H29.9308C30.3956 233.57 30.7491 233.461 30.9913 233.242C31.2374 233.023 31.3605 232.711 31.3605 232.305C31.3605 231.887 31.2374 231.549 30.9913 231.291C30.7452 231.033 30.4054 230.9 29.9718 230.893H28.3605V233.57ZM43.8166 233.928C43.8166 234.768 43.6681 235.504 43.3713 236.137C43.0744 236.77 42.6486 237.258 42.0939 237.602C41.5431 237.945 40.9103 238.117 40.1955 238.117C39.4884 238.117 38.8576 237.947 38.3029 237.607C37.7482 237.268 37.3185 236.783 37.0138 236.154C36.7091 235.521 36.5548 234.795 36.5509 233.975V233.553C36.5509 232.713 36.7013 231.975 37.0021 231.338C37.3068 230.697 37.7345 230.207 38.2853 229.867C38.84 229.523 39.4728 229.352 40.1838 229.352C40.8947 229.352 41.5255 229.523 42.0763 229.867C42.631 230.207 43.0588 230.697 43.3595 231.338C43.6642 231.975 43.8166 232.711 43.8166 233.547V233.928ZM42.0353 233.541C42.0353 232.646 41.8752 231.967 41.5548 231.502C41.2345 231.037 40.7775 230.805 40.1838 230.805C39.5939 230.805 39.1388 231.035 38.8185 231.496C38.4982 231.953 38.3361 232.625 38.3322 233.512V233.928C38.3322 234.799 38.4923 235.475 38.8127 235.955C39.133 236.436 39.5939 236.676 40.1955 236.676C40.7853 236.676 41.2384 236.445 41.5548 235.984C41.8713 235.52 42.0314 234.844 42.0353 233.957V233.541ZM47.5539 238V229.469H50.5422C51.5773 229.469 52.3625 229.668 52.8977 230.066C53.4328 230.461 53.7004 231.041 53.7004 231.807C53.7004 232.225 53.593 232.594 53.3781 232.914C53.1633 233.23 52.8645 233.463 52.4816 233.611C52.9191 233.721 53.2629 233.941 53.5129 234.273C53.7668 234.605 53.8937 235.012 53.8937 235.492C53.8937 236.312 53.632 236.934 53.1086 237.355C52.5852 237.777 51.8391 237.992 50.8703 238H47.5539ZM49.3117 234.285V236.588H50.8176C51.2316 236.588 51.5539 236.49 51.7844 236.295C52.0187 236.096 52.1359 235.822 52.1359 235.475C52.1359 234.693 51.7316 234.297 50.923 234.285H49.3117ZM49.3117 233.043H50.6125C51.4992 233.027 51.9426 232.674 51.9426 231.982C51.9426 231.596 51.8293 231.318 51.6027 231.15C51.3801 230.979 51.0266 230.893 50.5422 230.893H49.3117V233.043ZM62.8108 234.303H59.4358V236.588H63.3967V238H57.678V229.469H63.385V230.893H59.4358V232.926H62.8108V234.303ZM73.8313 238H72.0735V234.344H68.6458V238H66.888V229.469H68.6458V232.926H72.0735V229.469H73.8313V238ZM79.5902 232.545H80.9613C81.9652 232.545 82.7601 232.789 83.346 233.277C83.9359 233.762 84.2308 234.416 84.2308 235.24C84.2308 236.068 83.9378 236.734 83.3519 237.238C82.7698 237.738 81.9945 237.992 81.0257 238H77.8206V229.469H79.5902V232.545ZM79.5902 233.963V236.588H80.9905C81.4398 236.588 81.7972 236.465 82.0628 236.219C82.3323 235.973 82.4671 235.643 82.4671 235.229C82.4671 234.842 82.3382 234.537 82.0804 234.314C81.8265 234.088 81.4769 233.971 81.0316 233.963H79.5902Z" fill="white"/>
<path d="M6.42578 305H4.95605V299.077H2.10938V305H0.644531V297.891H6.42578V305ZM11.2297 302.495V305H9.76484V297.891H12.5383C13.0721 297.891 13.5409 297.988 13.9445 298.184C14.3514 298.379 14.6639 298.657 14.882 299.019C15.1001 299.377 15.2092 299.785 15.2092 300.244C15.2092 300.941 14.9699 301.491 14.4914 301.895C14.0161 302.295 13.357 302.495 12.5139 302.495H11.2297ZM11.2297 301.309H12.5383C12.9257 301.309 13.2202 301.217 13.4221 301.035C13.6271 300.853 13.7297 300.592 13.7297 300.254C13.7297 299.906 13.6271 299.624 13.4221 299.409C13.217 299.194 12.9338 299.084 12.5725 299.077H11.2297V301.309ZM24.1098 301.606C24.1098 302.306 23.9861 302.92 23.7387 303.447C23.4913 303.975 23.1365 304.382 22.6742 304.668C22.2152 304.954 21.6879 305.098 21.0922 305.098C20.503 305.098 19.9773 304.956 19.515 304.673C19.0528 304.39 18.6947 303.986 18.4408 303.462C18.1869 302.935 18.0583 302.329 18.0551 301.646V301.294C18.0551 300.594 18.1804 299.979 18.4311 299.448C18.685 298.914 19.0414 298.506 19.5004 298.223C19.9626 297.936 20.49 297.793 21.0824 297.793C21.6749 297.793 22.2006 297.936 22.6596 298.223C23.1218 298.506 23.4783 298.914 23.7289 299.448C23.9828 299.979 24.1098 300.592 24.1098 301.289V301.606ZM22.6254 301.284C22.6254 300.539 22.4919 299.972 22.225 299.585C21.9581 299.198 21.5772 299.004 21.0824 299.004C20.5909 299.004 20.2117 299.196 19.9447 299.58C19.6778 299.961 19.5427 300.521 19.5395 301.26V301.606C19.5395 302.332 19.6729 302.896 19.9398 303.296C20.2068 303.696 20.5909 303.896 21.0922 303.896C21.5837 303.896 21.9613 303.704 22.225 303.32C22.4887 302.933 22.6221 302.37 22.6254 301.631V301.284ZM31.399 298.525H31.4869C32.0436 298.525 32.5465 298.649 32.9957 298.896C33.4482 299.141 33.7997 299.489 34.0504 299.941C34.301 300.394 34.4264 300.908 34.4264 301.484C34.4264 302.337 34.1529 303.034 33.6061 303.574C33.0624 304.115 32.3268 304.385 31.399 304.385V305.293H29.9879V304.385H29.8951C29.332 304.385 28.8242 304.264 28.3717 304.023C27.9192 303.779 27.5676 303.438 27.317 302.998C27.0696 302.559 26.9459 302.057 26.9459 301.494C26.9459 300.924 27.0696 300.415 27.317 299.966C27.5644 299.517 27.9111 299.167 28.357 298.916C28.803 298.662 29.301 298.532 29.8512 298.525H29.9879V297.598H31.399V298.525ZM29.8951 299.741C29.4101 299.741 29.0276 299.894 28.7477 300.2C28.471 300.506 28.3326 300.938 28.3326 301.494C28.3326 302.015 28.471 302.425 28.7477 302.725C29.0243 303.021 29.4133 303.169 29.9146 303.169H29.9879V299.741H29.8951ZM31.399 299.741V303.169H31.4967C31.9752 303.169 32.3512 303.019 32.6246 302.72C32.9013 302.417 33.0396 302.005 33.0396 301.484C33.0396 300.941 32.9046 300.514 32.6344 300.205C32.3642 299.896 31.9768 299.741 31.4723 299.741H31.399ZM41.701 297.891H43.1707V305H41.701V300.278L38.8543 305H37.3895V297.891H38.8543V302.622L41.701 297.891ZM51.6953 299.077H49.5176V305H48.0527V299.077H45.9043V297.891H51.6953V299.077ZM64.6186 305H63.1537V301.953H60.2973V305H58.8324V297.891H60.2973V300.771H63.1537V297.891H64.6186V305ZM72.0543 303.535H69.4859L68.9977 305H67.44L70.0865 297.891H71.4439L74.1051 305H72.5475L72.0543 303.535ZM69.8814 302.349H71.6588L70.7652 299.688L69.8814 302.349ZM2.9541 314.095H2.10938V317H0.644531V309.891H2.10938V312.737H2.77832L4.5166 309.891H6.30371L4.11133 313.255L6.5332 317H4.78516L2.9541 314.095ZM13.1633 315.535H10.5949L10.1066 317H8.54902L11.1955 309.891H12.5529L15.2141 317H13.6564L13.1633 315.535ZM10.9904 314.349H12.7678L11.8742 311.688L10.9904 314.349ZM23.9242 314.104H23.0795V317H21.6146V314.104H20.7504L19.2025 317H17.3764L19.5932 313.187L17.4838 309.891H19.3051L20.8871 312.757H21.6146V309.891H23.0795V312.757H23.7924L25.3354 309.891H27.1518L25.0814 313.182L27.2641 317H25.433L23.9242 314.104ZM36.6383 318.748H35.2857V317H30.9986V318.743H29.6119L29.5338 315.823H30.0709C30.3606 315.582 30.5836 315.229 30.7398 314.764C30.8993 314.295 31.0068 313.715 31.0621 313.025L31.2672 309.891H35.9254V315.823H36.7555L36.6383 318.748ZM31.7506 315.823H34.4605V311.077H32.6588L32.5367 312.947C32.4391 314.201 32.177 315.159 31.7506 315.823ZM45.2996 313.606C45.2996 314.306 45.1759 314.92 44.9285 315.447C44.6811 315.975 44.3263 316.382 43.8641 316.668C43.4051 316.954 42.8777 317.098 42.282 317.098C41.6928 317.098 41.1671 316.956 40.7049 316.673C40.2426 316.39 39.8846 315.986 39.6307 315.462C39.3768 314.935 39.2482 314.329 39.2449 313.646V313.294C39.2449 312.594 39.3702 311.979 39.6209 311.448C39.8748 310.914 40.2313 310.506 40.6902 310.223C41.1525 309.936 41.6798 309.793 42.2723 309.793C42.8647 309.793 43.3904 309.936 43.8494 310.223C44.3117 310.506 44.6681 310.914 44.9188 311.448C45.1727 311.979 45.2996 312.592 45.2996 313.289V313.606ZM43.8152 313.284C43.8152 312.539 43.6818 311.972 43.4148 311.585C43.1479 311.198 42.7671 311.004 42.2723 311.004C41.7807 311.004 41.4015 311.196 41.1346 311.58C40.8676 311.961 40.7326 312.521 40.7293 313.26V313.606C40.7293 314.332 40.8628 314.896 41.1297 315.296C41.3966 315.696 41.7807 315.896 42.282 315.896C42.7736 315.896 43.1512 315.704 43.4148 315.32C43.6785 314.933 43.812 314.37 43.8152 313.631V313.284ZM50.3281 309.891L52.1543 315.047L53.9707 309.891H55.8945V317H54.4248V315.057L54.5713 311.702L52.6523 317H51.6465L49.7324 311.707L49.8789 315.057V317H48.4141V309.891H50.3281ZM66.4301 313.25L67.724 309.891H69.3061L66.8207 315.755L66.6205 316.141C66.2527 316.782 65.6895 317.103 64.9311 317.103L64.4184 317.083L64.4037 315.906C64.4818 315.919 64.6088 315.926 64.7846 315.926C64.9896 315.926 65.154 315.89 65.2777 315.818C65.4047 315.747 65.5105 315.615 65.5951 315.423L65.7758 314.959L63.2807 309.891H64.8578L66.4301 313.25ZM73.5973 314.495V317H72.1324V309.891H74.9059C75.4397 309.891 75.9085 309.988 76.3121 310.184C76.719 310.379 77.0315 310.657 77.2496 311.019C77.4677 311.377 77.5768 311.785 77.5768 312.244C77.5768 312.941 77.3375 313.491 76.859 313.895C76.3837 314.295 75.7245 314.495 74.8814 314.495H73.5973ZM73.5973 313.309H74.9059C75.2932 313.309 75.5878 313.217 75.7896 313.035C75.9947 312.853 76.0973 312.592 76.0973 312.254C76.0973 311.906 75.9947 311.624 75.7896 311.409C75.5846 311.194 75.3014 311.084 74.94 311.077H73.5973V313.309ZM86.4773 313.606C86.4773 314.306 86.3536 314.92 86.1062 315.447C85.8589 315.975 85.504 316.382 85.0418 316.668C84.5828 316.954 84.0555 317.098 83.4598 317.098C82.8706 317.098 82.3449 316.956 81.8826 316.673C81.4204 316.39 81.0623 315.986 80.8084 315.462C80.5545 314.935 80.4259 314.329 80.4227 313.646V313.294C80.4227 312.594 80.548 311.979 80.7986 311.448C81.0525 310.914 81.409 310.506 81.868 310.223C82.3302 309.936 82.8575 309.793 83.45 309.793C84.0424 309.793 84.5682 309.936 85.0271 310.223C85.4894 310.506 85.8458 310.914 86.0965 311.448C86.3504 311.979 86.4773 312.592 86.4773 313.289V313.606ZM84.993 313.284C84.993 312.539 84.8595 311.972 84.5926 311.585C84.3256 311.198 83.9448 311.004 83.45 311.004C82.9585 311.004 82.5792 311.196 82.3123 311.58C82.0454 311.961 81.9103 312.521 81.907 313.26V313.606C81.907 314.332 82.0405 314.896 82.3074 315.296C82.5743 315.696 82.9585 315.896 83.4598 315.896C83.9513 315.896 84.3289 315.704 84.5926 315.32C84.8562 314.933 84.9897 314.37 84.993 313.631V313.284ZM89.5918 317V309.891H92.082C92.9447 309.891 93.599 310.057 94.0449 310.389C94.4909 310.717 94.7139 311.201 94.7139 311.839C94.7139 312.187 94.6243 312.495 94.4453 312.762C94.2663 313.025 94.0173 313.219 93.6982 313.343C94.0628 313.434 94.3493 313.618 94.5576 313.895C94.7692 314.171 94.875 314.51 94.875 314.91C94.875 315.594 94.6569 316.111 94.2207 316.463C93.7845 316.814 93.1628 316.993 92.3555 317H89.5918ZM91.0566 313.904V315.823H92.3115C92.6566 315.823 92.9251 315.742 93.1172 315.579C93.3125 315.413 93.4102 315.185 93.4102 314.896C93.4102 314.244 93.0732 313.914 92.3994 313.904H91.0566ZM91.0566 312.869H92.1406C92.8796 312.856 93.249 312.562 93.249 311.985C93.249 311.663 93.1546 311.432 92.9658 311.292C92.7803 311.149 92.4857 311.077 92.082 311.077H91.0566V312.869ZM103.815 317H102.35V313.953H99.4934V317H98.0285V309.891H99.4934V312.771H102.35V309.891H103.815V317ZM111.426 313.919H108.614V315.823H111.914V317H107.149V309.891H111.905V311.077H108.614V312.771H111.426V313.919Z" fill="white"/>
</svg>
