<svg width="739" height="111" viewBox="0 0 739 111" fill="none" xmlns="http://www.w3.org/2000/svg">
<path d="M21.24 100.18H10.35V10.18H21.24V10.36H21.33L76.14 95.59V10.18H78.84V99.82H75.51L21.24 15.31V100.18ZM176.671 99.82H107.641V10.18H118.531V10.27H176.671V12.97H118.531V54.19H163.261V56.89H118.531V97.03H176.671V99.82ZM257.21 99.91H254.78L216.35 16.39V99.82H205.46V10.18H216.35V10.27L216.53 10.18L256.04 96.04L295.73 10.18H298.34V99.82H295.64V16.93L257.21 99.91ZM396.127 99.82H327.097V10.18H337.987V10.27H396.127V12.97H337.987V54.19H382.717V56.89H337.987V97.03H396.127V99.82ZM494.126 99.73H424.916L479.906 12.97H425.006V10.18H492.506V10.36H494.396L439.046 96.94H494.126V99.73ZM534.064 99.82H523.174V10.18H534.064V99.82ZM573.787 99.55H562.897V10.18H573.787V10.27C592.807 10.75 606.997 14.8 616.357 22.42C625.717 29.98 630.397 41.08 630.397 55.72C630.397 79.54 618.517 93.52 594.757 97.66C588.037 98.8 581.047 99.4 573.787 99.46V99.55ZM573.787 96.76C590.287 96.52 602.557 94.06 610.597 89.38C621.997 83.2 627.697 71.98 627.697 55.72C627.697 39.82 621.937 28.51 610.417 21.79C601.777 16.51 589.567 13.57 573.787 12.97V96.76ZM728.162 99.91H716.732L708.092 74.44H669.572L661.922 99.91L659.222 99.82L686.042 10.27L697.562 10.18L728.162 99.91ZM707.102 71.74L687.482 14.5L670.382 71.74H707.102Z" fill="white"/>

</svg>
