<svg width="1440" height="1200" viewBox="0 0 1440 1200" fill="none" xmlns="http://www.w3.org/2000/svg">
<g filter="url(#filter0_f)">
<g filter="url(#filter1_f)">
<g filter="url(#filter2_f)">
<ellipse rx="26.09" ry="25.2191" transform="matrix(0.997725 -0.0674164 0.072177 0.997392 833.466 159.946)" fill="#30A5AE" fill-opacity="0.2"/>
</g>
<g filter="url(#filter3_f)">
<ellipse rx="26.09" ry="25.2191" transform="matrix(0.997725 -0.0674164 0.072177 0.997392 874.017 219.43)" fill="#30A5AE" fill-opacity="0.2"/>
</g>
<g filter="url(#filter4_f)">
<ellipse rx="26.09" ry="25.2191" transform="matrix(0.997725 -0.0674164 0.072177 0.997392 909.501 765.333)" fill="#30A5AE" fill-opacity="0.2"/>
</g>
<g filter="url(#filter5_f)">
<ellipse rx="23.2525" ry="22.4764" transform="matrix(0.997725 -0.0674164 0.072177 0.997392 809.664 865.292)" fill="#30A5AE" fill-opacity="0.2"/>
</g>
<g filter="url(#filter6_f)">
<ellipse rx="23.2525" ry="22.4764" transform="matrix(0.997725 -0.0674164 0.072177 0.997392 393.351 640.374)" fill="#30A5AE" fill-opacity="0.2"/>
</g>
<g filter="url(#filter7_f)">
<ellipse rx="26.09" ry="25.2191" transform="matrix(0.997725 -0.0674164 0.072177 0.997392 35.8392 482.161)" fill="#30A5AE" fill-opacity="0.2"/>
</g>
<g filter="url(#filter8_f)">
<ellipse rx="26.09" ry="25.2191" transform="matrix(0.997725 -0.0674164 0.072177 0.997392 110.099 562.698)" fill="#30A5AE" fill-opacity="0.2"/>
</g>
<g filter="url(#filter9_f)">
<ellipse rx="23.2525" ry="22.4764" transform="matrix(0.997725 -0.0674164 0.072177 0.997392 4.13247 186.455)" fill="#30A5AE" fill-opacity="0.2"/>
</g>
<g filter="url(#filter10_f)">
<ellipse rx="26.7404" ry="25.8478" transform="matrix(0.997725 -0.0674164 0.072177 0.997392 259.885 280.855)" fill="#30A5AE" fill-opacity="0.2"/>
</g>
<g filter="url(#filter11_f)">
<ellipse rx="16.0554" ry="15.5195" transform="matrix(0.997725 -0.0674164 0.072177 0.997392 231.662 435.87)" fill="#30A5AE" fill-opacity="0.2"/>
</g>
<g filter="url(#filter12_f)">
<ellipse rx="25.0125" ry="24.1776" transform="matrix(0.997725 -0.0674164 0.072177 0.997392 506.845 355.396)" fill="#30A5AE" fill-opacity="0.2"/>
</g>
<g filter="url(#filter13_f)">
<ellipse rx="23.2525" ry="22.4764" transform="matrix(0.997725 -0.0674164 0.072177 0.997392 786.322 707.557)" fill="#30A5AE" fill-opacity="0.2"/>
</g>
<g filter="url(#filter14_f)">
<ellipse rx="16.0554" ry="15.5195" transform="matrix(0.997725 -0.0674164 0.072177 0.997392 533.805 551.563)" fill="#30A5AE" fill-opacity="0.2"/>
</g>
<g filter="url(#filter15_f)">
<ellipse rx="23.2525" ry="22.4764" transform="matrix(0.997725 -0.0674164 0.072177 0.997392 714.238 414.862)" fill="#30A5AE" fill-opacity="0.2"/>
</g>
<g filter="url(#filter16_f)">
<ellipse rx="23.2525" ry="22.4764" transform="matrix(0.997725 -0.0674164 0.072177 0.997392 509.24 115.445)" fill="#30A5AE" fill-opacity="0.2"/>
</g>
<g filter="url(#filter17_f)">
<ellipse rx="26.7404" ry="25.8478" transform="matrix(0.997725 -0.0674164 0.072177 0.997392 95.9476 -23.5834)" fill="#30A5AE" fill-opacity="0.2"/>
</g>
<g filter="url(#filter18_f)">
<ellipse rx="16.0554" ry="15.5195" transform="matrix(0.997725 -0.0674164 0.072177 0.997392 102.108 646.843)" fill="#30A5AE" fill-opacity="0.2"/>
</g>
<g filter="url(#filter19_f)">
<ellipse rx="16.0554" ry="15.5195" transform="matrix(0.997725 -0.0674164 0.072177 0.997392 246.221 637.101)" fill="#30A5AE" fill-opacity="0.2"/>
</g>
<g filter="url(#filter20_f)">
<ellipse rx="16.0554" ry="15.5195" transform="matrix(0.997725 -0.0674164 0.072177 0.997392 567.241 790.402)" fill="#30A5AE" fill-opacity="0.2"/>
</g>
<g filter="url(#filter21_f)">
<ellipse rx="16.0554" ry="15.5195" transform="matrix(0.997725 -0.0674164 0.072177 0.997392 651.317 784.723)" fill="#30A5AE" fill-opacity="0.2"/>
</g>
<g filter="url(#filter22_f)">
<ellipse rx="16.0554" ry="15.5195" transform="matrix(0.997725 -0.0674164 0.072177 0.997392 688.946 859.953)" fill="#30A5AE" fill-opacity="0.2"/>
</g>
<g filter="url(#filter23_f)">
<ellipse rx="16.0554" ry="15.5195" transform="matrix(0.997725 -0.0674164 0.072177 0.997392 478.621 734.17)" fill="#30A5AE" fill-opacity="0.2"/>
</g>
<g filter="url(#filter24_f)">
<ellipse rx="16.0554" ry="15.5195" transform="matrix(0.997725 -0.0674164 0.072177 0.997392 -6.83365 588.092)" fill="#30A5AE" fill-opacity="0.2"/>
</g>
<g filter="url(#filter25_f)">
<ellipse rx="16.0554" ry="15.5195" transform="matrix(0.997725 -0.0674164 0.072177 0.997392 211.119 596.699)" fill="#30A5AE" fill-opacity="0.2"/>
</g>
<g filter="url(#filter26_f)">
<ellipse rx="16.0554" ry="15.5195" transform="matrix(0.997725 -0.0674164 0.072177 0.997392 301.491 621.7)" fill="#30A5AE" fill-opacity="0.2"/>
</g>
<g filter="url(#filter27_f)">
<ellipse rx="16.0554" ry="15.5195" transform="matrix(0.997725 -0.0674164 0.072177 0.997392 878.088 415.527)" fill="#30A5AE" fill-opacity="0.2"/>
</g>
<g filter="url(#filter28_f)">
<ellipse rx="25.7532" ry="24.8935" transform="matrix(0.997725 -0.0674164 0.072177 0.997392 715.982 57.5143)" fill="#30A5AE" fill-opacity="0.2"/>
</g>
<g filter="url(#filter29_f)">
<ellipse rx="16.0554" ry="15.5195" transform="matrix(0.997725 -0.0674164 0.072177 0.997392 888.907 675.341)" fill="#30A5AE" fill-opacity="0.2"/>
</g>
<line y1="-0.5" x2="68.4982" y2="-0.5" transform="matrix(-0.587505 -0.811859 0.826862 -0.55871 875.832 217.357)" stroke="#49F1FE" stroke-opacity="0.2"/>
<line y1="-0.5" x2="156.31" y2="-0.5" transform="matrix(-0.767533 -0.644719 0.667206 -0.741665 842.787 149.599)" stroke="#49F1FE" stroke-opacity="0.2"/>
<line y1="-0.5" x2="245.883" y2="-0.5" transform="matrix(-0.781892 -0.627218 0.650096 -0.756706 722.834 48.8177)" stroke="#49F1FE" stroke-opacity="0.2"/>
<line y1="-0.5" x2="257.854" y2="-0.5" transform="matrix(-0.964333 0.261212 -0.278882 -0.961339 8.93555 194.269)" stroke="#49F1FE" stroke-opacity="0.2"/>
<line y1="-0.5" x2="149.027" y2="-0.5" transform="matrix(0.448564 -0.8914 0.906904 0.426123 -49.3418 334.313)" stroke="#49F1FE" stroke-opacity="0.2"/>
<line y1="-0.5" x2="310.554" y2="-0.5" transform="matrix(-0.966523 0.253134 -0.270319 -0.963742 259.426 262.9)" stroke="#49F1FE" stroke-opacity="0.2"/>
<line y1="-0.5" x2="169.924" y2="-0.5" transform="matrix(0.213596 -0.975593 0.980936 0.200533 231.707 435.874)" stroke="#49F1FE" stroke-opacity="0.2"/>
<line y1="-0.5" x2="281.735" y2="-0.5" transform="matrix(-0.948694 0.31255 -0.333135 -0.944168 507.539 355.013)" stroke="#49F1FE" stroke-opacity="0.2"/>
<line y1="-0.5" x2="190.156" y2="-0.5" transform="matrix(-0.0932211 -0.995747 0.996107 -0.087075 533.84 551.563)" stroke="#49F1FE" stroke-opacity="0.2"/>
<line y1="-0.5" x2="224.686" y2="-0.5" transform="matrix(-0.778756 0.623755 -0.652569 -0.760738 717.4 418.613)" stroke="#49F1FE" stroke-opacity="0.2"/>
<line y1="-0.5" x2="251.815" y2="-0.5" transform="matrix(-0.580532 0.811354 -0.83342 -0.556803 872.094 221.5)" stroke="#49F1FE" stroke-opacity="0.2"/>
<line y1="-0.5" x2="375.708" y2="-0.5" transform="matrix(0.962599 0.276515 -0.293572 0.954252 519.045 124.806)" stroke="#49F1FE" stroke-opacity="0.2"/>
<line y1="-0.5" x2="225.175" y2="-0.5" transform="matrix(0.0365615 0.999161 -0.999576 0.0341528 519.381 -92.9833)" stroke="#49F1FE" stroke-opacity="0.2"/>
<line y1="-0.5" x2="432.489" y2="-0.5" transform="matrix(-0.945199 -0.331753 0.351222 -0.934356 518.764 120.939)" stroke="#49F1FE" stroke-opacity="0.2"/>
<line y1="-0.5" x2="233.655" y2="-0.5" transform="matrix(0.0137868 -0.999497 1.0003 0.0128835 507.539 355.013)" stroke="#49F1FE" stroke-opacity="0.2"/>
<line y1="-0.5" x2="546.974" y2="-0.5" transform="matrix(0.726831 0.690268 -0.711392 0.699434 101.99 -22.0037)" stroke="#49F1FE" stroke-opacity="0.2"/>
<line y1="-0.5" x2="232.304" y2="-0.5" transform="matrix(0.365883 -0.928661 0.940176 0.345872 8.93555 194.269)" stroke="#49F1FE" stroke-opacity="0.2"/>
<line y1="-0.5" x2="395.411" y2="-0.5" transform="matrix(0.263254 0.965662 -0.968275 0.246473 -103.137 -187.021)" stroke="#49F1FE" stroke-opacity="0.2"/>
<line y1="-0.5" x2="390.566" y2="-0.5" transform="matrix(-0.634652 0.769709 -0.794245 -0.611485 0.96875 194.815)" stroke="#49F1FE" stroke-opacity="0.2"/>
<line y1="-0.5" x2="327.822" y2="-0.5" transform="matrix(-0.710418 0.700421 -0.72779 -0.689259 267.379 262.355)" stroke="#49F1FE" stroke-opacity="0.2"/>
<line y1="-0.5" x2="295.215" y2="-0.5" transform="matrix(-0.355076 0.932884 -0.943903 -0.335462 504.352 366.893)" stroke="#49F1FE" stroke-opacity="0.2"/>
<line y1="-0.5" x2="381.086" y2="-0.5" transform="matrix(-0.778527 0.624039 -0.65285 -0.760497 511.57 354.747)" stroke="#49F1FE" stroke-opacity="0.2"/>
<line y1="-0.5" x2="153.901" y2="-0.5" transform="matrix(-0.111185 0.992938 -0.995378 -0.104072 227.707 436.146)" stroke="#49F1FE" stroke-opacity="0.2"/>
<line y1="-0.5" x2="502.857" y2="-0.5" transform="matrix(-0.128373 0.990785 -0.993631 -0.12021 109.988 -22.5449)" stroke="#49F1FE" stroke-opacity="0.2"/>
<line y1="-0.5" x2="357.825" y2="-0.5" transform="matrix(-0.57665 -0.819569 0.834064 -0.547958 725.402 418.07)" stroke="#49F1FE" stroke-opacity="0.2"/>
<line y1="-0.5" x2="453.559" y2="-0.5" transform="matrix(-0.195234 -0.981355 0.982641 -0.182535 809.631 859.572)" stroke="#49F1FE" stroke-opacity="0.2"/>
<line y1="-0.5" x2="258.206" y2="-0.5" transform="matrix(-0.904558 0.422569 -0.44819 -0.895823 884.838 675.61)" stroke="#49F1FE" stroke-opacity="0.2"/>
<line y1="-0.5" x2="442.799" y2="-0.5" transform="matrix(0.855708 0.521793 -0.545528 0.835346 533.84 551.563)" stroke="#49F1FE" stroke-opacity="0.2"/>
<line y1="-0.5" x2="405.219" y2="-0.5" transform="matrix(0.369884 -0.927061 0.938761 0.349731 567.221 790.405)" stroke="#49F1FE" stroke-opacity="0.2"/>
<line y1="-0.5" x2="493.5" y2="-0.5" transform="matrix(0.769502 -0.635099 0.663803 0.750981 494.686 733.091)" stroke="#49F1FE" stroke-opacity="0.2"/>
<line y1="-0.5" x2="525.812" y2="-0.5" transform="matrix(0.353387 -0.933532 0.944473 0.333836 537.029 539.683)" stroke="#49F1FE" stroke-opacity="0.2"/>
<line y1="-0.5" x2="457.318" y2="-0.5" transform="matrix(0.556038 -0.828369 0.849248 0.532277 271.951 269.825)" stroke="#49F1FE" stroke-opacity="0.2"/>
<line y1="-0.5" x2="171.412" y2="-0.5" transform="matrix(-0.881754 0.46793 -0.495032 -0.871008 37.9863 483.965)" stroke="#49F1FE" stroke-opacity="0.2"/>
<line y1="-0.5" x2="120.518" y2="-0.5" transform="matrix(-0.366918 0.928249 -0.939812 -0.346871 37.416 476.226)" stroke="#49F1FE" stroke-opacity="0.2"/>
<line y1="-0.5" x2="121.411" y2="-0.5" transform="matrix(0.980314 -0.194355 0.207833 0.978824 -6.80273 588.092)" stroke="#49F1FE" stroke-opacity="0.2"/>
<line y1="-0.5" x2="82.3622" y2="-0.5" transform="matrix(0.0744682 -0.996531 0.998219 0.0696511 106.08 646.573)" stroke="#49F1FE" stroke-opacity="0.2"/>
<line y1="-0.5" x2="120.218" y2="-0.5" transform="matrix(-0.907113 0.417107 -0.442524 -0.898611 211.143 596.698)" stroke="#49F1FE" stroke-opacity="0.2"/>
<line y1="-0.5" x2="55.9146" y2="-0.5" transform="matrix(-0.699689 -0.717734 0.737792 -0.671579 246.27 637.103)" stroke="#49F1FE" stroke-opacity="0.2"/>
<line y1="-0.5" x2="62.1757" y2="-0.5" transform="matrix(-0.948128 0.314238 -0.334914 -0.943546 301.203 617.837)" stroke="#49F1FE" stroke-opacity="0.2"/>
<line y1="-0.5" x2="109.045" y2="-0.5" transform="matrix(-0.946383 -0.328325 0.347658 -0.9357 400.4 653.907)" stroke="#49F1FE" stroke-opacity="0.2"/>
<line y1="-0.5" x2="114.464" y2="-0.5" transform="matrix(-0.718573 -0.698852 0.719663 -0.690934 478.604 734.174)" stroke="#49F1FE" stroke-opacity="0.2"/>
<line y1="-0.5" x2="107.941" y2="-0.5" transform="matrix(-0.857727 -0.518455 0.542177 -0.837531 567.221 790.405)" stroke="#49F1FE" stroke-opacity="0.2"/>
<line y1="-0.5" x2="88.3046" y2="-0.5" transform="matrix(-0.997725 0.0674163 -0.0721769 -0.997392 651.303 784.721)" stroke="#49F1FE" stroke-opacity="0.2"/>
<line y1="-0.5" x2="85.594" y2="-0.5" transform="matrix(-0.48652 -0.875757 0.886128 -0.459658 688.977 859.951)" stroke="#49F1FE" stroke-opacity="0.2"/>
<line y1="-0.5" x2="125.393" y2="-0.5" transform="matrix(-0.998987 -0.0565454 0.060471 -0.997543 810.193 867.312)" stroke="#49F1FE" stroke-opacity="0.2"/>
<line y1="-0.5" x2="145.951" y2="-0.5" transform="matrix(-0.722236 0.688249 -0.71596 -0.701526 911.592 767.133)" stroke="#49F1FE" stroke-opacity="0.2"/>
<line y1="-0.5" x2="93.8921" y2="-0.5" transform="matrix(0.199538 0.980509 -0.981863 0.186572 888.848 675.343)" stroke="#49F1FE" stroke-opacity="0.2"/>
<line y1="-0.5" x2="260.23" y2="-0.5" transform="matrix(0.0259322 0.999443 -0.999913 0.0242251 878.117 415.529)" stroke="#49F1FE" stroke-opacity="0.2"/>
<line y1="-0.5" x2="194.657" y2="-0.5" transform="matrix(-0.0103619 0.999554 -1.00032 -0.00968265 876.168 221.231)" stroke="#49F1FE" stroke-opacity="0.2"/>
</g>
<path d="M887.475 550.596L887.475 635.922L903.158 682.648M887.475 550.596L853.836 455.112M887.475 550.596L912.704 609.512L1026.24 755.785M853.836 455.112L887.475 363.691M853.836 455.112L923.152 540.438M887.475 363.691L887.475 150.375L923.152 124.328M887.475 363.691L973.675 258.049M887.475 363.691L949.427 442.922M887.475 363.691L969.47 308.838M887.475 363.691L1049.36 363.691L1129.25 394.164M1026.24 58.954L1169.2 101.68M1364.73 294.617L1097.72 294.617M923.152 124.328L1076.69 12.2277L1387.85 12.2277L1442.52 51.2693L1297.45 98.1565L1230.17 119.901L1169.2 101.68M923.152 124.328L973.675 258.049M973.675 258.049L1097.72 294.617M1097.72 294.617L1169.2 101.68M958.958 455.112L949.427 442.922M949.427 442.922L923.152 455.112M923.152 455.112L923.152 540.438M923.152 455.112L973.675 609.512M923.152 540.438L973.675 609.512M973.675 609.512L1026.24 755.785M973.675 609.512L1010.36 656.238M1026.24 755.785L903.158 682.648M1026.24 755.785L920.546 734.454M1026.24 755.785L1083.26 942.69M1026.24 755.785L1098.48 656.238M1026.24 755.785L1112.44 786.259M903.158 682.648L920.546 734.454M920.546 734.454L937.933 786.259L1026.24 900.027L1083.26 942.69M1083.26 942.69L1104.99 958.943M1139.77 599.354L1120.85 540.438L1179.71 465.27M1139.77 599.354L1156.59 635.922M1139.77 599.354L1098.48 656.238M1179.71 465.27L1076.69 540.438M1179.71 465.27L1129.25 394.164M1179.71 465.27L1179.71 555.675M1129.25 394.164L1156.59 363.691L1204.94 432.764L1204.94 599.354L1181.91 642.017M1179.71 646.08L1179.71 555.675M1179.71 646.08L1188.12 678.585M1179.71 646.08L1181.91 642.017M1179.71 646.08L1228.07 690.775M1156.59 635.922L1179.71 555.675M1156.59 635.922L1112.44 786.259M1156.59 635.922L1156.59 670.459L1188.12 678.585M1112.44 786.259L1010.36 656.238M1112.44 786.259L1188.12 678.585M1112.44 786.259L1064.08 820.796L1112.44 877.68M1112.44 786.259L1192.91 845.776M1112.44 786.259L1167.1 786.259L1188.12 780.164L1200.74 786.259L1236.48 798.448M1112.44 786.259L1207.05 753.754M1010.36 656.238L1098.48 656.238M1112.44 877.68L1091.41 900.027L1104.99 958.943M1112.44 877.68L1167.1 877.68M1112.44 877.68L1192.91 845.776M1104.99 958.943L1139.77 984.96M1175.51 993.48L1156.59 942.69L1188.12 900.027L1240.68 883.775M1305.86 997.543L1156.59 997.543L1139.77 984.96M1139.77 984.96L1125.05 934.564L1167.1 877.68M1167.1 877.68L1314.27 877.68M1192.91 845.776L1194.43 845.175L1209.15 845.175L1186.02 816.733L1207.05 753.754M1246.99 694.838L1246.99 690.775L1236.48 694.838L1228.07 690.775M1228.07 690.775L1207.05 753.754M1207.05 753.754L1236.48 767.975M1181.91 642.017L1236.48 660.301M1181.91 642.017L1236.48 682.648" stroke="#49F1FE" stroke-opacity="0.25" stroke-width="4"/>
<g filter="url(#filter30_f)">
<path d="M887.457 574.064L887.457 659.793L903.14 706.74M887.457 574.064L853.818 478.129M887.457 574.064L912.687 633.258L1026.22 780.222M853.818 478.129L887.457 386.277M853.818 478.129L923.134 563.858M887.457 386.277L887.457 171.954L923.134 145.784M887.457 386.277L973.657 280.136M887.457 386.277L949.409 465.882M887.457 386.277L969.452 331.165M887.457 386.277L1049.34 386.277L1129.24 416.894M1026.22 80.1019L1169.18 123.029M1364.71 316.877L1097.7 316.877M923.134 145.784L1076.68 33.155L1387.84 33.155L1442.5 72.3809L1297.43 119.489L1230.15 141.337L1169.18 123.029M923.134 145.784L973.657 280.136M973.657 280.136L1097.7 316.877M1097.7 316.877L1169.18 123.029M958.94 478.129L949.409 465.882M949.409 465.882L923.134 478.129M923.134 478.129L923.134 563.858M923.134 478.129L973.657 633.258M923.134 563.858L973.657 633.258M973.657 633.258L1026.22 780.222M973.657 633.258L1010.34 680.205M1026.22 780.222L903.14 706.74M1026.22 780.222L920.528 758.79M1026.22 780.222L1083.25 968.009M1026.22 780.222L1098.47 680.205M1026.22 780.222L1112.42 810.84M903.14 706.74L920.528 758.79M920.528 758.79L937.916 810.84L1026.22 925.145L1083.25 968.009M1083.25 968.009L1104.97 984.339M1139.75 623.052L1120.83 563.858L1179.7 488.335M1139.75 623.052L1156.57 659.793M1139.75 623.052L1098.47 680.205M1179.7 488.335L1076.68 563.858M1179.7 488.335L1129.24 416.894M1179.7 488.335L1179.7 579.167M1129.24 416.894L1156.57 386.277L1204.93 455.677L1204.93 623.052L1181.89 665.917M1179.7 669.999L1179.7 579.167M1179.7 669.999L1188.11 702.658M1179.7 669.999L1181.89 665.917M1179.7 669.999L1228.05 714.905M1156.57 659.793L1179.7 579.167M1156.57 659.793L1112.42 810.84M1156.57 659.793L1156.57 694.493L1188.11 702.658M1112.42 810.84L1010.34 680.205M1112.42 810.84L1188.11 702.658M1112.42 810.84L1064.06 845.539L1112.42 902.692M1112.42 810.84L1192.9 870.637M1112.42 810.84L1167.08 810.84L1188.11 804.716L1200.72 810.84L1236.46 823.086M1112.42 810.84L1207.03 778.181M1010.34 680.205L1098.47 680.205M1112.42 902.692L1091.39 925.145L1104.97 984.339M1112.42 902.692L1167.08 902.692M1112.42 902.692L1192.9 870.637M1104.97 984.339L1139.75 1010.48M1175.49 1019.04L1156.57 968.009L1188.11 925.145L1240.67 908.815M1305.84 1023.12L1156.57 1023.12L1139.75 1010.48M1139.75 1010.48L1125.03 959.845L1167.08 902.692M1167.08 902.692L1314.25 902.692M1192.9 870.637L1194.41 870.033L1209.13 870.033L1186 841.457L1207.03 778.181M1246.97 718.987L1246.97 714.905L1236.46 718.987L1228.05 714.905M1228.05 714.905L1207.03 778.181M1207.03 778.181L1236.46 792.469M1181.89 665.917L1236.46 684.287M1181.89 665.917L1236.46 706.74" stroke="#49F1FE" stroke-opacity="0.25" stroke-width="2"/>
</g>
<path d="M1574.66 550.591L1574.66 635.917L1558.98 682.643M1574.66 550.591L1608.3 455.106M1574.66 550.591L1549.43 609.506L1435.9 755.78M1608.3 455.106L1574.66 363.685M1608.3 455.106L1538.98 540.433M1574.66 363.685L1574.66 150.37L1538.98 124.322M1574.66 363.685L1488.46 258.043M1574.66 363.685L1512.71 442.917M1574.66 363.685L1492.66 308.833M1574.66 363.685L1412.77 363.685L1332.88 394.159M1435.9 58.9487L1292.93 101.675M1097.41 294.612L1364.42 294.612M1538.98 124.322L1385.44 12.2224L1074.28 12.2224L1019.62 51.264L1164.68 98.1513L1231.96 119.896L1292.93 101.675M1538.98 124.322L1488.46 258.043M1488.46 258.043L1364.42 294.612M1364.42 294.612L1292.93 101.675M1503.18 455.106L1512.71 442.917M1512.71 442.917L1538.98 455.106M1538.98 455.106L1538.98 540.433M1538.98 455.106L1488.46 609.506M1538.98 540.433L1488.46 609.506M1488.46 609.506L1435.9 755.78M1488.46 609.506L1451.78 656.233M1435.9 755.78L1558.98 682.643M1435.9 755.78L1541.59 734.448M1435.9 755.78L1378.87 942.685M1435.9 755.78L1363.65 656.233M1435.9 755.78L1349.7 786.254M1558.98 682.643L1541.59 734.448M1541.59 734.448L1524.2 786.254L1435.9 900.022L1378.87 942.685M1378.87 942.685L1357.15 958.938M1322.37 599.349L1341.29 540.433L1282.42 465.264M1322.37 599.349L1305.55 635.917M1322.37 599.349L1363.65 656.233M1282.42 465.264L1385.44 540.433M1282.42 465.264L1332.88 394.159M1282.42 465.264L1282.42 555.67M1332.88 394.159L1305.55 363.685L1257.19 432.759L1257.19 599.349L1280.23 642.012M1282.42 646.075L1282.42 555.67M1282.42 646.075L1274.01 678.58M1282.42 646.075L1280.23 642.012M1282.42 646.075L1234.07 690.77M1305.55 635.917L1282.42 555.67M1305.55 635.917L1349.7 786.254M1305.55 635.917L1305.55 670.454L1274.01 678.58M1349.7 786.254L1451.78 656.233M1349.7 786.254L1274.01 678.58M1349.7 786.254L1398.06 820.791L1349.7 877.675M1349.7 786.254L1269.22 845.77M1349.7 786.254L1295.04 786.254L1274.01 780.159L1261.4 786.254L1225.66 798.443M1349.7 786.254L1255.09 753.748M1451.78 656.233L1363.65 656.233M1349.7 877.675L1370.72 900.022L1357.15 958.938M1349.7 877.675L1295.04 877.675M1349.7 877.675L1269.22 845.77M1357.15 958.938L1322.37 984.955M1286.63 993.475L1305.55 942.685L1274.01 900.022L1221.45 883.769M1156.28 997.538L1305.55 997.538L1322.37 984.955M1322.37 984.955L1337.08 934.559L1295.04 877.675M1295.04 877.675L1147.87 877.675M1269.22 845.77L1267.7 845.169L1252.99 845.169L1276.11 816.727L1255.09 753.748M1215.14 694.833L1215.14 690.77L1225.66 694.833L1234.07 690.77M1234.07 690.77L1255.09 753.748M1255.09 753.748L1225.66 767.969M1280.23 642.012L1225.66 660.296M1280.23 642.012L1225.66 682.643" stroke="#49F1FE" stroke-opacity="0.25" stroke-width="4"/>
<g filter="url(#filter31_f)">
<path d="M1574.69 574.055L1574.69 659.779L1559.01 706.722M1574.69 574.055L1608.32 478.127M1574.69 574.055L1549.46 633.244L1435.94 780.194M1608.32 478.127L1574.68 386.278M1608.32 478.127L1539.01 563.848M1574.68 386.278L1574.67 171.968L1538.99 145.797M1574.68 386.278L1488.47 280.139M1574.68 386.278L1512.73 465.876M1574.68 386.278L1492.68 331.166M1574.68 386.278L1412.79 386.27L1332.9 416.882M1435.9 80.1137L1292.94 123.032M1097.42 316.859L1364.43 316.872M1538.99 145.797L1385.44 33.1672L1074.28 33.1522L1019.62 72.3733L1164.69 119.486L1231.97 141.335L1292.94 123.032M1538.99 145.797L1488.47 280.139M1488.47 280.139L1364.43 316.872M1364.43 316.872L1292.94 123.032M1503.2 478.122L1512.73 465.876M1512.73 465.876L1539.01 478.123M1539.01 478.123L1539.01 563.848M1539.01 478.123L1488.49 633.241M1539.01 563.848L1488.49 633.241M1488.49 633.241L1435.94 780.194M1488.49 633.241L1451.81 680.183M1435.94 780.194L1559.01 706.722M1435.94 780.194L1541.63 758.768M1435.94 780.194L1378.92 967.968M1435.94 780.194L1363.69 680.179M1435.94 780.194L1349.74 810.806M1559.01 706.722L1541.63 758.768M1541.63 758.768L1524.24 810.814L1435.95 925.109L1378.92 967.968M1378.92 967.968L1357.2 984.295M1322.4 623.028L1341.32 563.838L1282.45 488.316M1322.4 623.028L1305.58 659.766M1322.4 623.028L1363.69 680.179M1282.45 488.316L1385.47 563.84M1282.45 488.316L1332.9 416.882M1282.45 488.316L1282.45 579.143M1332.9 416.882L1305.57 386.265L1257.22 455.658L1257.22 623.025L1280.26 665.888M1282.46 669.97L1282.45 579.143M1282.46 669.97L1274.05 702.626M1282.46 669.97L1280.26 665.888M1282.46 669.97L1234.1 714.871M1305.58 659.766L1282.45 579.143M1305.58 659.766L1349.74 810.806M1305.58 659.766L1305.58 694.464L1274.05 702.626M1349.74 810.806L1451.81 680.183M1349.74 810.806L1274.05 702.626M1349.74 810.806L1398.1 845.506L1349.75 902.653M1349.74 810.806L1269.26 870.596M1349.74 810.806L1295.08 810.803L1274.05 804.679L1261.44 810.801L1225.7 823.046M1349.74 810.806L1255.13 778.144M1451.81 680.183L1363.69 680.179M1349.75 902.653L1370.77 925.105L1357.2 984.295M1349.75 902.653L1295.08 902.65M1349.75 902.653L1269.26 870.596M1357.2 984.295L1322.42 1010.43M1286.68 1018.99L1305.6 967.964L1274.06 925.101L1221.5 908.77M1156.33 1023.07L1305.6 1023.07L1322.42 1010.43M1322.42 1010.43L1337.13 959.802L1295.08 902.65M1295.08 902.65L1147.91 902.643M1269.26 870.596L1267.75 869.992L1253.03 869.991L1276.16 841.418L1255.13 778.144M1215.18 718.952L1215.18 714.87L1225.69 718.952L1234.1 714.871M1234.1 714.871L1255.13 778.144M1255.13 778.144L1225.7 792.43M1280.26 665.888L1225.69 684.255M1280.26 665.888L1225.69 706.706" stroke="#49F1FE" stroke-opacity="0.25" stroke-width="2"/>
</g>
</g>
<defs>
<filter id="filter0_f" x="-1661.38" y="-286.211" width="3275.8" height="1314.33" filterUnits="userSpaceOnUse" color-interpolation-filters="sRGB">
<feFlood flood-opacity="0" result="BackgroundImageFix"/>
<feBlend mode="normal" in="SourceGraphic" in2="BackgroundImageFix" result="shape"/>
<feGaussianBlur stdDeviation="2" result="effect1_foregroundBlur"/>
</filter>
<filter id="filter1_f" x="-1662.38" y="-287.211" width="2602.97" height="1179.98" filterUnits="userSpaceOnUse" color-interpolation-filters="sRGB">
<feFlood flood-opacity="0" result="BackgroundImageFix"/>
<feBlend mode="normal" in="SourceGraphic" in2="BackgroundImageFix" result="shape"/>
<feGaussianBlur stdDeviation="2.5" result="effect1_foregroundBlur"/>
</filter>
<filter id="filter2_f" x="803.371" y="130.73" width="60.1906" height="58.4316" filterUnits="userSpaceOnUse" color-interpolation-filters="sRGB">
<feFlood flood-opacity="0" result="BackgroundImageFix"/>
<feBlend mode="normal" in="SourceGraphic" in2="BackgroundImageFix" result="shape"/>
<feGaussianBlur stdDeviation="2" result="effect1_foregroundBlur"/>
</filter>
<filter id="filter3_f" x="843.922" y="190.215" width="60.1906" height="58.4316" filterUnits="userSpaceOnUse" color-interpolation-filters="sRGB">
<feFlood flood-opacity="0" result="BackgroundImageFix"/>
<feBlend mode="normal" in="SourceGraphic" in2="BackgroundImageFix" result="shape"/>
<feGaussianBlur stdDeviation="2" result="effect1_foregroundBlur"/>
</filter>
<filter id="filter4_f" x="879.406" y="736.117" width="60.1906" height="58.4316" filterUnits="userSpaceOnUse" color-interpolation-filters="sRGB">
<feFlood flood-opacity="0" result="BackgroundImageFix"/>
<feBlend mode="normal" in="SourceGraphic" in2="BackgroundImageFix" result="shape"/>
<feGaussianBlur stdDeviation="2" result="effect1_foregroundBlur"/>
</filter>
<filter id="filter5_f" x="782.406" y="838.818" width="54.5145" height="52.9469" filterUnits="userSpaceOnUse" color-interpolation-filters="sRGB">
<feFlood flood-opacity="0" result="BackgroundImageFix"/>
<feBlend mode="normal" in="SourceGraphic" in2="BackgroundImageFix" result="shape"/>
<feGaussianBlur stdDeviation="2" result="effect1_foregroundBlur"/>
</filter>
<filter id="filter6_f" x="366.094" y="613.901" width="54.5145" height="52.9468" filterUnits="userSpaceOnUse" color-interpolation-filters="sRGB">
<feFlood flood-opacity="0" result="BackgroundImageFix"/>
<feBlend mode="normal" in="SourceGraphic" in2="BackgroundImageFix" result="shape"/>
<feGaussianBlur stdDeviation="2" result="effect1_foregroundBlur"/>
</filter>
<filter id="filter7_f" x="5.74414" y="452.945" width="60.1906" height="58.4316" filterUnits="userSpaceOnUse" color-interpolation-filters="sRGB">
<feFlood flood-opacity="0" result="BackgroundImageFix"/>
<feBlend mode="normal" in="SourceGraphic" in2="BackgroundImageFix" result="shape"/>
<feGaussianBlur stdDeviation="2" result="effect1_foregroundBlur"/>
</filter>
<filter id="filter8_f" x="80.0039" y="533.482" width="60.1906" height="58.4316" filterUnits="userSpaceOnUse" color-interpolation-filters="sRGB">
<feFlood flood-opacity="0" result="BackgroundImageFix"/>
<feBlend mode="normal" in="SourceGraphic" in2="BackgroundImageFix" result="shape"/>
<feGaussianBlur stdDeviation="2" result="effect1_foregroundBlur"/>
</filter>
<filter id="filter9_f" x="-23.125" y="159.982" width="54.5145" height="52.9468" filterUnits="userSpaceOnUse" color-interpolation-filters="sRGB">
<feFlood flood-opacity="0" result="BackgroundImageFix"/>
<feBlend mode="normal" in="SourceGraphic" in2="BackgroundImageFix" result="shape"/>
<feGaussianBlur stdDeviation="2" result="effect1_foregroundBlur"/>
</filter>
<filter id="filter10_f" x="229.139" y="251.011" width="61.4917" height="59.6889" filterUnits="userSpaceOnUse" color-interpolation-filters="sRGB">
<feFlood flood-opacity="0" result="BackgroundImageFix"/>
<feBlend mode="normal" in="SourceGraphic" in2="BackgroundImageFix" result="shape"/>
<feGaussianBlur stdDeviation="2" result="effect1_foregroundBlur"/>
</filter>
<filter id="filter11_f" x="211.604" y="416.353" width="40.1173" height="39.0349" filterUnits="userSpaceOnUse" color-interpolation-filters="sRGB">
<feFlood flood-opacity="0" result="BackgroundImageFix"/>
<feBlend mode="normal" in="SourceGraphic" in2="BackgroundImageFix" result="shape"/>
<feGaussianBlur stdDeviation="2" result="effect1_foregroundBlur"/>
</filter>
<filter id="filter12_f" x="477.828" y="327.221" width="58.0351" height="56.3488" filterUnits="userSpaceOnUse" color-interpolation-filters="sRGB">
<feFlood flood-opacity="0" result="BackgroundImageFix"/>
<feBlend mode="normal" in="SourceGraphic" in2="BackgroundImageFix" result="shape"/>
<feGaussianBlur stdDeviation="2" result="effect1_foregroundBlur"/>
</filter>
<filter id="filter13_f" x="759.064" y="681.084" width="54.5145" height="52.9468" filterUnits="userSpaceOnUse" color-interpolation-filters="sRGB">
<feFlood flood-opacity="0" result="BackgroundImageFix"/>
<feBlend mode="normal" in="SourceGraphic" in2="BackgroundImageFix" result="shape"/>
<feGaussianBlur stdDeviation="2" result="effect1_foregroundBlur"/>
</filter>
<filter id="filter14_f" x="513.746" y="532.046" width="40.1173" height="39.0349" filterUnits="userSpaceOnUse" color-interpolation-filters="sRGB">
<feFlood flood-opacity="0" result="BackgroundImageFix"/>
<feBlend mode="normal" in="SourceGraphic" in2="BackgroundImageFix" result="shape"/>
<feGaussianBlur stdDeviation="2" result="effect1_foregroundBlur"/>
</filter>
<filter id="filter15_f" x="686.98" y="388.388" width="54.5145" height="52.9468" filterUnits="userSpaceOnUse" color-interpolation-filters="sRGB">
<feFlood flood-opacity="0" result="BackgroundImageFix"/>
<feBlend mode="normal" in="SourceGraphic" in2="BackgroundImageFix" result="shape"/>
<feGaussianBlur stdDeviation="2" result="effect1_foregroundBlur"/>
</filter>
<filter id="filter16_f" x="481.982" y="88.9712" width="54.5145" height="52.9468" filterUnits="userSpaceOnUse" color-interpolation-filters="sRGB">
<feFlood flood-opacity="0" result="BackgroundImageFix"/>
<feBlend mode="normal" in="SourceGraphic" in2="BackgroundImageFix" result="shape"/>
<feGaussianBlur stdDeviation="2" result="effect1_foregroundBlur"/>
</filter>
<filter id="filter17_f" x="65.2012" y="-53.4279" width="61.4917" height="59.6889" filterUnits="userSpaceOnUse" color-interpolation-filters="sRGB">
<feFlood flood-opacity="0" result="BackgroundImageFix"/>
<feBlend mode="normal" in="SourceGraphic" in2="BackgroundImageFix" result="shape"/>
<feGaussianBlur stdDeviation="2" result="effect1_foregroundBlur"/>
</filter>
<filter id="filter18_f" x="82.0488" y="627.325" width="40.1173" height="39.0349" filterUnits="userSpaceOnUse" color-interpolation-filters="sRGB">
<feFlood flood-opacity="0" result="BackgroundImageFix"/>
<feBlend mode="normal" in="SourceGraphic" in2="BackgroundImageFix" result="shape"/>
<feGaussianBlur stdDeviation="2" result="effect1_foregroundBlur"/>
</filter>
<filter id="filter19_f" x="226.162" y="617.584" width="40.1173" height="39.0349" filterUnits="userSpaceOnUse" color-interpolation-filters="sRGB">
<feFlood flood-opacity="0" result="BackgroundImageFix"/>
<feBlend mode="normal" in="SourceGraphic" in2="BackgroundImageFix" result="shape"/>
<feGaussianBlur stdDeviation="2" result="effect1_foregroundBlur"/>
</filter>
<filter id="filter20_f" x="547.182" y="770.884" width="40.1173" height="39.0349" filterUnits="userSpaceOnUse" color-interpolation-filters="sRGB">
<feFlood flood-opacity="0" result="BackgroundImageFix"/>
<feBlend mode="normal" in="SourceGraphic" in2="BackgroundImageFix" result="shape"/>
<feGaussianBlur stdDeviation="2" result="effect1_foregroundBlur"/>
</filter>
<filter id="filter21_f" x="631.258" y="765.206" width="40.1173" height="39.0349" filterUnits="userSpaceOnUse" color-interpolation-filters="sRGB">
<feFlood flood-opacity="0" result="BackgroundImageFix"/>
<feBlend mode="normal" in="SourceGraphic" in2="BackgroundImageFix" result="shape"/>
<feGaussianBlur stdDeviation="2" result="effect1_foregroundBlur"/>
</filter>
<filter id="filter22_f" x="668.887" y="840.436" width="40.1173" height="39.0349" filterUnits="userSpaceOnUse" color-interpolation-filters="sRGB">
<feFlood flood-opacity="0" result="BackgroundImageFix"/>
<feBlend mode="normal" in="SourceGraphic" in2="BackgroundImageFix" result="shape"/>
<feGaussianBlur stdDeviation="2" result="effect1_foregroundBlur"/>
</filter>
<filter id="filter23_f" x="458.562" y="714.653" width="40.1173" height="39.0349" filterUnits="userSpaceOnUse" color-interpolation-filters="sRGB">
<feFlood flood-opacity="0" result="BackgroundImageFix"/>
<feBlend mode="normal" in="SourceGraphic" in2="BackgroundImageFix" result="shape"/>
<feGaussianBlur stdDeviation="2" result="effect1_foregroundBlur"/>
</filter>
<filter id="filter24_f" x="-26.8926" y="568.574" width="40.1173" height="39.0349" filterUnits="userSpaceOnUse" color-interpolation-filters="sRGB">
<feFlood flood-opacity="0" result="BackgroundImageFix"/>
<feBlend mode="normal" in="SourceGraphic" in2="BackgroundImageFix" result="shape"/>
<feGaussianBlur stdDeviation="2" result="effect1_foregroundBlur"/>
</filter>
<filter id="filter25_f" x="191.061" y="577.181" width="40.1173" height="39.0349" filterUnits="userSpaceOnUse" color-interpolation-filters="sRGB">
<feFlood flood-opacity="0" result="BackgroundImageFix"/>
<feBlend mode="normal" in="SourceGraphic" in2="BackgroundImageFix" result="shape"/>
<feGaussianBlur stdDeviation="2" result="effect1_foregroundBlur"/>
</filter>
<filter id="filter26_f" x="281.432" y="602.182" width="40.1173" height="39.0349" filterUnits="userSpaceOnUse" color-interpolation-filters="sRGB">
<feFlood flood-opacity="0" result="BackgroundImageFix"/>
<feBlend mode="normal" in="SourceGraphic" in2="BackgroundImageFix" result="shape"/>
<feGaussianBlur stdDeviation="2" result="effect1_foregroundBlur"/>
</filter>
<filter id="filter27_f" x="858.029" y="396.01" width="40.1173" height="39.0349" filterUnits="userSpaceOnUse" color-interpolation-filters="sRGB">
<feFlood flood-opacity="0" result="BackgroundImageFix"/>
<feBlend mode="normal" in="SourceGraphic" in2="BackgroundImageFix" result="shape"/>
<feGaussianBlur stdDeviation="2" result="effect1_foregroundBlur"/>
</filter>
<filter id="filter28_f" x="686.223" y="28.624" width="59.5168" height="57.7805" filterUnits="userSpaceOnUse" color-interpolation-filters="sRGB">
<feFlood flood-opacity="0" result="BackgroundImageFix"/>
<feBlend mode="normal" in="SourceGraphic" in2="BackgroundImageFix" result="shape"/>
<feGaussianBlur stdDeviation="2" result="effect1_foregroundBlur"/>
</filter>
<filter id="filter29_f" x="868.848" y="655.823" width="40.1173" height="39.0349" filterUnits="userSpaceOnUse" color-interpolation-filters="sRGB">
<feFlood flood-opacity="0" result="BackgroundImageFix"/>
<feBlend mode="normal" in="SourceGraphic" in2="BackgroundImageFix" result="shape"/>
<feGaussianBlur stdDeviation="2" result="effect1_foregroundBlur"/>
</filter>
<filter id="filter30_f" x="842.756" y="22.155" width="611.934" height="1011.97" filterUnits="userSpaceOnUse" color-interpolation-filters="sRGB">
<feFlood flood-opacity="0" result="BackgroundImageFix"/>
<feBlend mode="normal" in="SourceGraphic" in2="BackgroundImageFix" result="shape"/>
<feGaussianBlur stdDeviation="5" result="effect1_foregroundBlur"/>
</filter>
<filter id="filter31_f" x="1007.43" y="22.1522" width="611.954" height="1011.92" filterUnits="userSpaceOnUse" color-interpolation-filters="sRGB">
<feFlood flood-opacity="0" result="BackgroundImageFix"/>
<feBlend mode="normal" in="SourceGraphic" in2="BackgroundImageFix" result="shape"/>
<feGaussianBlur stdDeviation="5" result="effect1_foregroundBlur"/>
</filter>
</defs>
</svg>
