<svg width="23" height="27" viewBox="0 0 23 27" fill="none" xmlns="http://www.w3.org/2000/svg">
<g clip-path="url(#clip0)">
<path d="M10.9 0.201159C11.25 -0.067053 11.75 -0.067053 12.1 0.201159C15.8667 3.15149 20.1833 3.13473 21.8 3.11796C21.8833 3.11796 21.95 3.11796 22.0167 3.11796C22.2833 3.11796 22.5333 3.21854 22.7167 3.4197C22.9 3.6041 23 3.87231 23 4.12376C22.9167 8.86776 22.7167 12.321 22.3333 14.8858C21.9333 17.4673 21.3333 19.261 20.4167 20.6188C19.5 21.9934 18.3 22.8651 16.9333 23.6865C16.4667 23.9714 16 24.2397 15.5 24.5246C14.4833 25.1113 13.35 25.7483 12.0333 26.6368C11.7 26.8547 11.2833 26.8547 10.95 26.6368C9.63333 25.7483 8.51667 25.1113 7.48333 24.5246C6.98333 24.2397 6.51667 23.9714 6.05 23.6865C4.68333 22.8483 3.48333 21.9934 2.56667 20.6188C1.66667 19.261 1.06667 17.4841 0.666667 14.9025C0.283333 12.321 0.0833333 8.86776 0 4.12376C0 3.85555 0.1 3.6041 0.283333 3.4197C0.466667 3.23531 0.716667 3.11796 0.983333 3.11796C1.05 3.11796 1.11667 3.11796 1.2 3.11796C2.81667 3.13473 7.11667 3.15149 10.9 0.201159ZM1.98333 5.09603C2.06667 9.28684 2.26667 12.321 2.61667 14.584C2.98333 17.0147 3.51667 18.4899 4.21667 19.5124C4.9 20.535 5.78333 21.2223 7.08333 21.9934C7.48333 22.2281 7.91667 22.4795 8.38333 22.7477C9.28333 23.3009 10.3333 23.9044 11.5 24.642C12.6667 23.8876 13.7167 23.2841 14.6333 22.7645C15.1167 22.4963 15.55 22.2448 15.9333 22.0101C17.2333 21.2223 18.1167 20.5517 18.8 19.5292C19.4833 18.5066 20.0167 17.0315 20.4 14.6008C20.75 12.3377 20.95 9.3036 21.0333 5.11279C19.0333 5.07926 15.1333 4.77752 11.5 2.22951C7.86667 4.76076 3.96667 5.07926 1.98333 5.09603Z" fill="#3375BB"/>
</g>
<defs>
<clipPath id="clip0">
<rect width="23" height="26.8212" fill="white"/>
</clipPath>
</defs>
</svg>
