<svg width="30" height="26" viewBox="0 0 30 26" fill="none" xmlns="http://www.w3.org/2000/svg">
<path d="M27.1871 2.2188C26.9409 2.01791 26.6095 1.83934 26.1928 1.68309C25.7762 1.52684 25.1417 1.36501 24.2894 1.1976C23.4371 1.03019 22.2203 0.896258 20.6388 0.795811C19.0574 0.695365 17.1777 0.645142 14.9996 0.645142C8.40874 0.645142 4.47881 1.10273 3.20987 2.01791C1.71366 3.06702 0.814039 6.15854 0.511009 11.2925C0.47313 11.9621 0.444721 12.5983 0.425781 13.2009C0.444721 13.9599 0.487334 14.7579 0.553622 15.5949C0.61991 16.432 0.738281 17.4588 0.908736 18.6753C1.07919 19.8918 1.36328 20.9855 1.76101 21.9565C2.15874 22.9275 2.63222 23.6139 3.18146 24.0157C4.4504 24.9085 8.3898 25.355 14.9996 25.355C21.8936 25.355 25.9561 24.8416 27.1871 23.8148C27.6796 23.3907 28.0962 22.721 28.4371 21.8059C28.7781 20.8907 29.0243 19.8639 29.1758 18.7255C29.3273 17.5871 29.4267 16.5882 29.4741 15.7288C29.5214 14.8695 29.5546 14.0157 29.5735 13.1675C29.5546 12.4085 29.5214 11.6105 29.4741 10.7735C29.4267 9.93644 29.332 8.90407 29.19 7.67639C29.0479 6.44871 28.8065 5.33822 28.4656 4.34492C28.1246 3.35161 27.6985 2.64291 27.1871 2.2188ZM26.1076 22.0737C25.9371 22.2076 25.6152 22.3472 25.1417 22.4922C24.6682 22.6373 23.5366 22.7936 21.7468 22.961C19.957 23.1284 17.708 23.2121 14.9996 23.2121C12.3671 23.2121 10.1796 23.134 8.43715 22.9777C6.69472 22.8215 5.58677 22.682 5.11328 22.5592C4.6398 22.4364 4.30836 22.3081 4.11896 22.1742C3.64548 21.8393 3.22408 20.8572 2.85476 19.2277C2.48544 17.5983 2.28184 15.5893 2.24396 13.2009C2.28184 10.7902 2.49018 8.70876 2.86896 6.95653C3.24775 5.20429 3.67389 4.16077 4.14737 3.82595C4.31783 3.71434 4.6398 3.59157 5.11328 3.45764C5.58677 3.32371 6.69472 3.17862 8.43715 3.02237C10.1796 2.86612 12.3671 2.788 14.9996 2.788C17.708 2.788 19.957 2.8717 21.7468 3.03911C23.5366 3.20653 24.6682 3.36278 25.1417 3.50786C25.6152 3.65295 25.9371 3.80362 26.1076 3.95987C26.3159 4.11612 26.5148 4.45095 26.7042 4.96434C26.8936 5.47773 27.064 6.11947 27.2156 6.88956C27.3671 7.65965 27.4902 8.59157 27.5849 9.68532C27.6796 10.7791 27.7364 11.9398 27.7553 13.1675C27.7364 15.5782 27.5659 17.5704 27.244 19.144C26.922 20.7177 26.5432 21.6943 26.1076 22.0737ZM20.9087 12.163L12.7269 6.23666C12.4239 6.01345 12.1209 6.00787 11.8178 6.21992C11.5148 6.43197 11.3633 6.75005 11.3633 7.17416V18.9934C11.3633 19.4175 11.5148 19.73 11.8178 19.9309C11.9693 20.0201 12.1209 20.0648 12.2724 20.0648C12.3481 20.0648 12.4286 20.0536 12.5139 20.0313C12.5991 20.009 12.6701 19.9643 12.7269 19.8974L20.9087 14.0045C21.2118 13.7813 21.3633 13.4688 21.3633 13.067C21.3443 12.6652 21.1928 12.3639 20.9087 12.163ZM13.1815 17.0849V9.04916L18.6928 13.067L13.1815 17.0849Z" fill="#49F1FE"/>
</svg>
